<svg xmlns="http://www.w3.org/2000/svg" viewBox="0 0 617 301" enable-background="new 0 0 617 301"><path d="M186.1 98.7l-2.4 8.5h-19.5l-15.7 58.7c-7.2 25.2-14.1 44.8-20.7 58.7-9.3 19.6-19.4 33.1-30.1 40.6-8.2 5.7-16.4 8.6-24.5 8.6-5.3 0-9.9-1.6-13.6-4.8-2.8-2.2-4.1-5.1-4.1-8.7 0-2.8 1.1-5.3 3.4-7.4 2.2-2.1 5-3.1 8.2-3.1 2.4 0 4.4.8 6 2.3 1.6 1.5 2.4 3.2 2.4 5.2s-.9 3.8-2.6 5.5c-1.3 1.2-1.9 2.2-1.9 2.8 0 .8.3 1.4.9 1.9.8.6 2 .9 3.7.9 3.8 0 7.7-1.2 11.9-3.6 4.2-2.4 7.9-5.9 11.1-10.6 3.2-4.7 6.3-11.5 9.2-20.4 1.3-3.7 4.8-15.8 10.4-36.4l25.2-90h-25.5l1.9-8.5c8.1 0 13.8-.5 17-1.5 3.2-1 6.2-3 8.9-5.8 2.7-2.9 5.9-8.2 9.6-16.1 5-10.6 9.8-18.8 14.3-24.6 6.2-7.8 12.8-13.7 19.7-17.6s13.4-5.9 19.4-5.9c6.4 0 11.6 1.7 15.4 5.1 3.9 3.4 5.8 7 5.8 11 0 3.1-1 5.7-3 7.8s-4.6 3.2-7.8 3.2c-2.7 0-4.9-.8-6.6-2.4-1.7-1.6-2.6-3.5-2.6-5.7 0-1.4.6-3.1 1.8-5.2 1.2-2.1 1.8-3.5 1.8-4.2 0-1.2-.4-2.1-1.1-2.8-1-.9-2.6-1.3-4.6-1.3-5.1 0-9.6 1.8-13.7 5.5-5.4 4.8-10.2 12.4-14.5 22.7-2.2 5.4-6.5 18-12.9 37.8l19.4-.2zM329.8 267.8v5c-13.4-6.7-24.6-14.5-33.6-23.5-12.8-12.8-22.6-27.8-29.6-45.1s-10.4-35.3-10.4-54c0-27.3 6.8-52.2 20.4-74.6s31.3-38.6 53.1-48.2v5c-11 6-20 14.2-27 24.6-7 10.4-12.3 23.6-15.8 39.5s-5.2 32.6-5.2 50c0 18.9 1.5 36 4.4 51.4 2.3 12.2 5.1 21.9 8.4 29.3 3.3 7.4 7.7 14.4 13.3 21.2 5.7 6.7 13 13.2 22 19.4zM396 95.7c4.3 4.5 7.5 9.1 9.7 13.6 1.6 3.2 4.1 11.7 7.7 25.5l11.5-17.6c3.1-4.3 6.8-8.3 11.1-12.2s8.2-6.5 11.5-7.9c2.1-.9 4.4-1.3 6.9-1.3 3.8 0 6.8 1 9 3.1s3.3 4.6 3.3 7.5c0 3.4-.7 5.8-2 7-2.4 2.2-5.2 3.4-8.4 3.4-1.8 0-3.8-.4-5.9-1.3-4.1-1.5-6.8-2.2-8.2-2.2-2.1 0-4.6 1.2-7.4 3.7-5.4 4.6-11.8 13.5-19.3 26.7l10.8 45c1.6 6.9 3 11.1 4.1 12.4s2.2 2 3.3 2c1.8 0 3.9-1 6.3-3 4.7-4 8.7-9.3 12-15.8l4.6 2.4c-5.5 10.4-12.4 18.9-20.8 25.8-4.8 3.9-8.8 5.8-12.1 5.8-4.9 0-8.7-2.7-11.6-8.1-1.8-3.4-5.6-18.2-11.3-44.2-13.8 23.7-24.9 39-33.2 45.8-5.4 4.4-10.6 6.6-15.7 6.6-3.5 0-6.8-1.3-9.7-3.8-2.1-1.9-3.2-4.5-3.2-7.7 0-2.9 1-5.2 2.9-7.2 1.9-1.9 4.3-2.9 7.1-2.9s5.8 1.5 9 4.4c2.3 2.1 4.1 3.1 5.3 3.1 1.1 0 2.4-.7 4.1-2.1 4.1-3.3 9.8-10.5 16.9-21.6s11.8-19 14-23.9c-5.4-21.7-8.4-33.2-8.8-34.4-2-5.8-4.6-9.9-7.8-12.3-3.2-2.4-8-3.6-14.2-3.6-2 0-4.3.1-6.9.3v-4.8l35.4-6.2zM488.1 32.2v-5c13.5 6.6 24.7 14.4 33.7 23.4 12.7 12.9 22.5 27.9 29.4 45.2 6.9 17.3 10.4 35.3 10.4 54 0 27.3-6.8 52.2-20.3 74.6-13.5 22.5-31.3 38.6-53.2 48.2v-5c11-6.1 20-14.3 27.1-24.7 7.1-10.4 12.3-23.5 15.8-39.5 3.4-16 5.1-32.7 5.1-50 0-18.8-1.5-35.9-4.4-51.4-2.2-12.2-5-21.9-8.4-29.2-3.3-7.3-7.8-14.4-13.3-21.2-5.5-6.7-12.8-13.2-21.9-19.4z"/></svg>