<?xml version="1.0" encoding="utf-8"?>
<!-- Generator: Adobe Illustrator 18.0.0, SVG Export Plug-In . SVG Version: 6.00 Build 0)  -->
<!DOCTYPE svg PUBLIC "-//W3C//DTD SVG 1.1//EN" "http://www.w3.org/Graphics/SVG/1.1/DTD/svg11.dtd">
<svg version="1.1" id="Layer_1" xmlns="http://www.w3.org/2000/svg" xmlns:xlink="http://www.w3.org/1999/xlink" x="0px" y="0px"
	 viewBox="0 0 512 512" enable-background="new 0 0 512 512" xml:space="preserve">
<path fill="#4B4B4D" d="M0,0v512h512V0H0z M286.3,336.4L286.3,336.4c-21.2,0-41.1-8.3-48-21.1c0,0-11.4,44.6-13.8,53.2
	c-8.5,30.4-33.5,60.9-35.4,63.3c-1.4,1.7-4.4,1.2-4.7-1.1c-0.5-3.9-6.9-42.2,0.6-73.5c3.8-15.7,25-108.7,25-108.7
	c0,0-6.1-9.1-6.1-27.3c0-28.7,16.9-48.3,37.9-48.3c17.9,0,26.5,11.4,26.5,27.3c0,17.7-11.4,44.2-17.3,68.7
	c-4.9,20.5,10.4,35.5,31,35.5c37.2,0,62.2-45.3,62.2-101.1c0-42.4-29-75.1-81.7-75.1c-59.5,0-94.5,40-94.5,96
	c0,16.9,4.9,26.5,12.8,35.6c3.6,4.2,4.1,6,2.8,10.8c-1,3.5-5.1,12.1-6,15.5c-1.3,4.9-5.3,6.7-9.8,4.9c-27.4-11-40.2-40.6-40.2-73.9
	c0-54.9,47-120.8,140.3-120.8c75,0,124.3,53.4,124.3,110.8C392.2,282.7,349.4,336.4,286.3,336.4z"/>
</svg>
