<?xml version="1.0" encoding="utf-8"?>
<!-- Generator: Adobe Illustrator 18.0.0, SVG Export Plug-In . SVG Version: 6.00 Build 0)  -->
<!DOCTYPE svg PUBLIC "-//W3C//DTD SVG 1.1//EN" "http://www.w3.org/Graphics/SVG/1.1/DTD/svg11.dtd">
<svg version="1.1" id="Layer_1" xmlns="http://www.w3.org/2000/svg" xmlns:xlink="http://www.w3.org/1999/xlink" x="0px" y="0px"
	 viewBox="0 0 512 512" enable-background="new 0 0 512 512" xml:space="preserve">
<g>
	<path fill="#4B4B4D" d="M357.4,231.9c1.8,7.7,3,15.7,3,23.9c0,57.6-46.7,104.3-104.3,104.3c-57.6,0-104.3-46.7-104.3-104.3
		c0-8.3,1.1-16.3,2.9-23.9h-34.6v146.9c0,7.3,6,13.3,13.4,13.3h245.5c7.4,0,13.4-6,13.4-13.3l0-146.9h0H357.4z"/>
	<path fill="#4B4B4D" d="M340.8,183.8h30.5c7,0,12.8-5.7,12.8-12.7v-30.5c0-7-5.7-12.8-12.8-12.8l-30.5,0c-7,0-12.8,5.7-12.8,12.8
		v30.5C328.1,178.1,333.8,183.8,340.8,183.8z"/>
	<path fill="#4B4B4D" d="M256,327.9c39.8,0,72-32.2,72-72c0-39.8-32.2-72-72-72c-39.8,0-72,32.2-72,72
		C184,295.7,216.2,327.9,256,327.9z"/>
	<path fill="#4B4B4D" d="M0,0v512h512V0H0z M424,381.1c0,23.7-19.4,43.1-43.2,43.1v0H131.1c-23.7,0-43.2-19.4-43.2-43.1V130.9
		c0-23.7,19.4-43.1,43.2-43.1h249.7c23.7,0,43.2,19.4,43.2,43.1V381.1z"/>
</g>
</svg>
