<?xml version="1.0" encoding="utf-8"?>
<!-- Generator: Adobe Illustrator 18.0.0, SVG Export Plug-In . SVG Version: 6.00 Build 0)  -->
<!DOCTYPE svg PUBLIC "-//W3C//DTD SVG 1.1//EN" "http://www.w3.org/Graphics/SVG/1.1/DTD/svg11.dtd">
<svg version="1.1" id="Layer_1" xmlns="http://www.w3.org/2000/svg" xmlns:xlink="http://www.w3.org/1999/xlink" x="0px" y="0px"
	 viewBox="0 0 512 512" enable-background="new 0 0 512 512" xml:space="preserve">
<path fill="#4B4B4D" d="M0,0v512h512V0H0z M160,432H95.9V200.1H160V432z M128,168L128,168L128,168L128,168c-23.9,0-40-15.2-40-36
	c0-21.2,16-36.3,40.4-36.3c24.5,0,39.4,15,39.9,36.3C168.3,152.8,153.5,168,128,168z M360.1,432L360.1,432l0-134.2
	c0-29.7-18.4-50-44.4-50c-19.8,0-36.2,13.7-41.3,26.9c-1.9,4.7-2.4,11.3-2.4,17.9V432h-64V200.1h57.2l4.7,25.1
	c9.4-15.1,35.4-33.2,74.1-33.2c47.3,0,79.9,27.6,79.9,95.5l0,144.5H360.1z"/>
</svg>
