<?xml version="1.0" encoding="utf-8"?>
<!-- Generator: Adobe Illustrator 18.0.0, SVG Export Plug-In . SVG Version: 6.00 Build 0)  -->
<!DOCTYPE svg PUBLIC "-//W3C//DTD SVG 1.1//EN" "http://www.w3.org/Graphics/SVG/1.1/DTD/svg11.dtd">
<svg version="1.1" id="Layer_1" xmlns="http://www.w3.org/2000/svg" xmlns:xlink="http://www.w3.org/1999/xlink" x="0px" y="0px"
	 viewBox="0 0 23.9 19.6" enable-background="new 0 0 23.9 19.6" xml:space="preserve">
<g>
	<path fill="#EAF8F3" d="M0,5.3c0-4.7-1-5.4,3.7-5.4C4,1.2,4,2.5,3.9,3.8C3.8,4.1,1,6.4,1,6.4C0.6,6.1,0.5,5.5,0,5.3
		C0,3.6,0.5,5.5,0,5.3z"/>
	<path fill="#947969" d="M23.9,6.6c0,1.6,0,3.2,0,4.8c0,0-1,0.8-1,0.8c-0.1-0.2,0-1-0.3-1c-0.5,0-0.1,1.5-0.2,1.7
		c-0.2,1.1-2.6-2.9-2.4-3.8c0.1-0.3,0.3-0.4,0.5-0.5c1.3-0.2,0.8,0.4,1.6,1c0.1,0.2,0,0.4,0.2,0.5c-0.1-0.1-0.2-0.1-0.1-0.3
		c0.2-0.2,0.9,0,0.6-0.6c0.6-1.1-0.8-3.6,0.1-4.6c0.1,0,0.1-0.1,0.2,0C23.6,5.3,22.7,6.5,23.9,6.6C23.9,8.2,23.3,6.6,23.9,6.6z"/>
	<path fill="#151512" d="M10.3-0.1c0.2,0,0.5,0,0.7,0c0.5,0.3,3.5,0.6,3.7,2c-1.1,1.8-4.4-0.6-4.6-0.3C9.7,1.8,9.8,1.5,9.8,1.2
		C9.9,0.7,10,0.3,10.3-0.1C10.6-0.1,10.2,0,10.3-0.1z"/>
	<path fill="#6A4D27" d="M19.7-0.1c3.8,0,4.2-0.7,4.2,3.1c-0.3,0.3-0.3,0.9-0.9,0.7c-0.4-0.7,0-1.7-0.3-2.4
		C22.3,0.9,20.4,0.5,19.7-0.1C21-0.1,20.2,0.3,19.7-0.1z"/>
	<path fill="#746153" d="M22.9,11.8c0,2.5,1,5,1,7.7c-0.1,0.1-0.3,0.1-0.4,0c-0.1-0.2,0-4.4-0.5-4.8c-0.1-0.4-4.8-4.3-2.9-5.4
		c0,0.4,1.3,4.5,2.1,4C22.3,13.1,22.2,11.2,22.9,11.8C22.9,11.9,22.6,11.5,22.9,11.8z"/>
	<path fill="#B6B094" d="M0,15c0-2.5,0.4-7.3,1.9-9.5c0.5-0.3,0.6,0.1,0.7,0.4c-0.4,0.7-0.8,1.4-1,2.2C1.1,9.7,2.9,13.8,0,15
		C0,14.3,0.5,14.8,0,15z"/>
	<path fill="#A7B39C" d="M2.1,5.5C0.9,7.2,1.9,12,0,12.9c0-1.7,0-8.1,2.5-8.5C2.6,4.9,2.3,5.2,2.1,5.5C1.4,6.5,2.3,5.2,2.1,5.5z"/>
	<path fill="#1F2423" d="M9.9,1.2c0.1,0.2,0.2,0.3,0.3,0.5C10,2.1,10,2.5,10.1,2.9C10.2,3,10.3,3,10.3,3.1c0.3,0.4,0,0.4-0.3,0.5
		c-0.4,0-0.5,0.6-1,0.4C9.2,2.8,7,1,8.7,0.9c0.1-0.3-0.3-0.7,0.1-1c0.2,0,0.3,0,0.5,0c0.2,0.3,0.2,0.6,0.2,0.8
		C9.8,0.4,9.9,0.6,9.9,1.2C9.9,1.3,9.9,0.9,9.9,1.2z"/>
	<path fill="#F9FDFC" d="M1,6.3C0.7,7.9,1.1,9.8,0,11c0-1.9,0-3.8,0-5.8C0.7,5.3,0.8,5.9,1,6.3C0.8,7.4,0.8,5.9,1,6.3z"/>
	<path fill="#C8C3B1" d="M0,15c0.2-0.4,0.5-0.8,0.7-1.2c1.7-1.7,1.4,5.4-0.7,1.8C0,15.4,0,15.2,0,15C0.3,14.6,0,15.2,0,15z"/>
	<path fill="#181A16" d="M17.3-0.1c0.3,0,0.6,0,0.8,0c0.4,0.4,0.7,4.2,0.3,4.9c0,0-1.1,0.6-1,0.6C17,5.3,17,0.1,17.3-0.1
		C17.6-0.1,17.1,0,17.3-0.1z"/>
	<path fill="#BAB29F" d="M0,15.6c2.7,1,0.2-0.9,2.2-1.1c0,0,0.1,0.1,0.1,0.2c0.2,3.2-0.5,2.9-2.3,3C0,16.9,0,16.3,0,15.6
		C0.4,15.7,0,16.3,0,15.6z"/>
	<path fill="#333933" d="M18.1,0.1c0-0.1,0-0.2,0-0.2c0.3,0,0.6,0,0.8,0c0.4,0.4,0.3,2.7,0.3,3.4c-0.1,0.9-0.5,2.3-0.1,3.3
		c0,0.1,0,0.2-0.2,0.3C18.3,6.9,18.2,0.4,18.1,0.1C18.1,0,18.2,1,18.1,0.1z"/>
	<path fill="#272F2B" d="M8.8-0.1C8.6,0.6,8.4,3.5,7.3,2.6C7,1.7,6.8,0.8,6.7-0.1C7.4-0.1,8.1-0.1,8.8-0.1C8.7,0.1,8.1-0.1,8.8-0.1z
		"/>
	<path fill="#B1D6BF" d="M3.9-0.1c0.9,0,1.8,0,2.6,0C6.6,0,5.4,1.8,5.3,2C4.4,3.1,3.8,0.3,3.9-0.1C4.7-0.1,3.6,0.7,3.9-0.1z"/>
	<path fill="#090A08" d="M16.3-0.1c0.2,0,0.5,0,0.7,0c0.3,0.8,0.3,1.5-0.1,2.2c-1.3,0.3-2.4-0.6-2.1-2.2C15.3-0.1,15.8-0.1,16.3-0.1
		C16.6-0.1,16.3,0.2,16.3-0.1z"/>
	<path fill="#BCDCCD" d="M3.9-0.1c-0.1,0.7,0.5,2.6,1.4,2c0.3,0.3,0.2,0.6,0.2,0.9c-0.4,0.7-1,1-1.8,1.1c0-1.4,0-2.7,0-4.1
		C3.8-0.1,3.8-0.1,3.9-0.1C3.7,0.7,3.8-0.1,3.9-0.1z"/>
	<path fill="#1D201C" d="M14.8-0.1c0.4,0.6,0.5,1.3,0.5,2C15.2,2.3,15,2,14.8,2c0.1,0-4.2-1.8-4-1.5c-0.3-0.5,0.4-0.2,0.3-0.6
		c1.4,0,2.4,1.1,3.6,0C14.7-0.1,14.7-0.1,14.8-0.1C15,0.1,14.7-0.1,14.8-0.1z"/>
	<path fill="#2B2E2A" d="M16.8,2c0.4-0.7,0.1-1.4,0.2-2.2c0.1,0,0.2,0,0.2,0c-0.3,1-0.1,4,0,5.1c0,0.7,1.1-1.6,0.9-0.2
		C17.9,7.6,15.2,2.7,16.8,2C17.3,1.3,16.6,2.1,16.8,2z"/>
	<path fill="#7A5E33" d="M19,1.2c0-0.4,0-0.9,0-1.3c0.2,0,0.5,0,0.7,0c0.9,0.1,1.1,0.9,1.8,1.3c0,0.1-0.1,0.1-0.2,0.2
		C20.5,1.6,19.7,1.6,19,1.2C19,0.7,19.1,1.4,19,1.2z"/>
	<path fill="#9B927A" d="M0,17.6c0.2-0.1,0-0.4,0.3-0.6c1.3,2.8,1.2-0.5,1.9-0.4c0.5,0.6-0.5,2.2-1.2,2.4c-0.5-0.2-0.8-0.6-1-1.1
		C0,17.9,0,17.7,0,17.6C0.2,17.5,0,17.7,0,17.6z"/>
	<path fill="#6F5237" d="M23.1,3.7c0.4-0.1,0.4-0.6,0.8-0.7c0,0.3,0.3,2.7-0.8,2.5C23.1,4.9,23.1,4.3,23.1,3.7
		C23.5,3.6,22.8,4,23.1,3.7z"/>
	<path fill="#CCC7C5" d="M18.6,19.5c-3.8,0-7.7,0-11.5,0c0-0.1,0-0.1,0.1-0.2c1.3-0.7,9.8-0.9,11.4,0C18.7,19.4,18.7,19.5,18.6,19.5
		C14.8,19.5,18.7,19.5,18.6,19.5z"/>
	<path fill="#80654E" d="M23.1,5.5c0.6-0.2,0.6-0.7,0.8-1.2c0,0.8,0,1.5,0,2.3c-0.8,0.1-0.8,0.1-0.8-0.8C23.1,5.7,23.1,5.6,23.1,5.5
		C23.6,5.3,23.1,5.6,23.1,5.5z"/>
	<path fill="#87654E" d="M23.9,14.4c-0.4-0.5-0.8-1-1-1.7C23.8,11.1,23.9,14,23.9,14.4C23.5,13.9,23.9,13.9,23.9,14.4z"/>
	<path fill="#4A3D2E" d="M14.7-0.1c-0.1,0.9-1.7,0.8-2.2,0.5c0-0.2,0.1-0.2,0.2-0.3C13.1-0.2,14.8-0.1,14.7-0.1
		C14.6,0.4,14.2-0.1,14.7-0.1z"/>
	<path fill="#8D6E5C" d="M23.9,13.1c-0.4-0.9-0.4-0.7-1-0.4c0-1.5,0-1.3,1-1.3C23.9,11.9,23.9,12.5,23.9,13.1
		C23.9,13,23.9,12.5,23.9,13.1z"/>
	<path fill="#384D46" d="M5.7,1.2c0.1-0.5,0.4-1,0.8-1.3c0.1,0,0.2,0,0.2,0C7,0.1,7.2,0.4,6.9,0.7c0,0-0.1,0.1-0.1,0
		c-0.6,0-0.3,0.5-0.5,0.8C5.8,1.8,5.7,1.8,5.7,1.2C5.5,0.8,5.7,1.8,5.7,1.2z"/>
	<path fill="#090A08" d="M9.9,1.2C9.8,1,9.7,0.8,9.7,0.6C9.3,0.7,9.7,1,9.4,1.1C9.4,0.7,9.2,0.3,9.3-0.1c0.4,0,0.7,0,1.1,0
		C10.4,0.4,10.2,0.8,9.9,1.2C9.8,1.1,10.2,1,9.9,1.2z"/>
	<path fill="#716B50" d="M0,18c-0.2-0.1,1.6,1.1,1.1,1.5c-0.4,0-0.8,0.1-1.1-0.1C0,18.9,0,18.5,0,18C0.4,18.2,0,18.5,0,18z"/>
	<path fill="#BAB0A8" d="M18.6,19.5C18.6,19.5,18.6,19.5,18.6,19.5c0-0.2,0.1-0.2,0.2-0.2c1.5-0.5,3.6,0,5.1,0.1
		C23.8,19.7,18.9,19.5,18.6,19.5C18.6,19.5,20.3,19.5,18.6,19.5z"/>
	<path fill="#A3C3BC" d="M4.3,19.5c-0.6,0-1.1,0-1.7,0c0,0-0.1-0.1-0.1-0.2c-0.1-0.3,0-0.5,0.1-0.7c0.1-0.1,0.1-0.1,0.2-0.1
		c0.2,0.1,1.1,0.6,1.4,0.8C4.4,19.4,4.4,19.5,4.3,19.5C3.8,19.5,4.4,19.5,4.3,19.5z"/>
	<path fill="#645344" d="M12.7,0.1c-0.1,0.1-0.2,0.2-0.2,0.2c-0.4,0-0.9-0.1-1.2-0.5c0.4,0,0.8,0,1.2,0C12.6,0,12.7,0,12.7,0.1
		C12.7,0.2,12.7,0,12.7,0.1z"/>
	<path fill="#8799A0" d="M4.3,19.5C4.3,19.5,4.3,19.5,4.3,19.5C5.2,19.1,6,19.1,7,19.3c0.1,0,0.1,0.1,0.2,0.2c0,0,0,0.1,0,0.1
		C6.2,19.5,5.3,19.5,4.3,19.5C4.3,19.5,5.3,19.5,4.3,19.5z"/>
	<path fill="#B7B4A7" d="M2.6,19.4c0,0,0,0.1,0,0.1c-1,0.3-1.8,0.3-2.6-0.1C0.5,19.4,2.2,19,2.6,19.4C2.7,19.5,2.5,19.2,2.6,19.4z"
		/>
	<path fill="#76695B" d="M12.7,0.1c-0.2,0-0.2-0.1-0.2-0.2c0.2,0,0.5,0,0.7,0C13.2,0.2,13.5,0.1,12.7,0.1
		C12.6,0.1,12.9,0.1,12.7,0.1z"/>
	<path fill="#47330E" d="M16.3-0.1c0,0.2,0.2,0.4,0,0.7c-0.2-0.2-0.2-0.5-0.3-0.7C16.2-0.1,16.3-0.1,16.3-0.1
		C16.4,0.1,16.3-0.1,16.3-0.1z"/>
	<path fill="#B5AB89" d="M2.1,5.5c0.1-0.4,0.3-0.8,0.5-1.1C2.8,4.3,3,4.2,3.3,4.1c0.3,0,0.3,0.2,0.4,0.5c0.5-0.6,1.1-1.2,2-1
		C5.8,4.3,3,5.6,2.5,5.9C2.4,5.7,2.3,5.6,2.1,5.5C2.1,5.1,2.2,5.5,2.1,5.5z"/>
	<path fill="#ADA27C" d="M5.7,3.6C3.6,4,4.5,5.1,3.3,4.1c0.8-0.3,1.8-1.6,2.6-1.4C6.6,3,7,3.5,6.8,4.3C6.7,4.4,5.9,3.7,5.7,3.6
		C4.9,3.7,6,3.7,5.7,3.6z"/>
	<path fill="#8A705B" d="M22.1,9.7c-0.3,0.3-0.7-0.9-1.5-0.8c0-0.1,0-0.1,0-0.2c0.2-0.2,0.7-0.1,0.7-0.5c-0.3-0.4-0.7-0.7-1.2-1
		c-0.1-0.1-0.1-0.3,0-0.4c0.2-0.2,0.4-0.2,0.7-0.3c0.3,0.3,0.8,0.1,1.1,0.3C22.3,7.2,22.5,9.3,22.1,9.7C22,9.8,22.2,9.6,22.1,9.7z"
		/>
	<path fill="#A2C4B6" d="M23,4.7c0,0.1,0,0.2,0,0.4c-0.6,0-0.2,3.1-0.2,3.1c0.2-0.5-0.1-0.9,0.3-1.2c0.1,0.6,0.3,1.2-0.1,1.7
		c-0.2,0.3-0.5,0.3-0.7,0c-0.1-0.7,0-6.8,0.8-6.1C22.7,1.8,22.7,2.5,23,4.7C23,4.8,23,3.9,23,4.7z"/>
	<path fill="#AC8C70" d="M21.5,9.9c0.7,0.8,0.7,1.6,0.2,2.3c-0.7,0.1-1.2-1.9-1.2-2.6C20.8,9.7,21.1,10,21.5,9.9
		C21.8,10.5,21.1,10,21.5,9.9z"/>
	<path fill="#4B3A31" d="M20.6,8.8c0,0,0,0.1,0,0.1c-0.2,0-0.4,0.2-0.5,0.4c-0.6,0.9,0.7,1.7,0.4,2.5c-0.2,0.1-0.4-0.1-0.4-0.2
		c-0.8-1.6,0.5-2.6,0-3.6c0.5-0.3,0.8-0.1,0.7,0.6C20.7,8.7,20.6,8.7,20.6,8.8C20.5,8.8,20.6,8.7,20.6,8.8z"/>
	<path fill="#BBDFE1" d="M23,6.9c0-0.2,0.2,1.6-0.3,1.6c-0.4-0.6-0.5-1.3-0.2-2.1c0.3-0.2,0.4,0.1,0.5,0.2C22.9,6.7,23,6.8,23,6.9
		C23,7.3,23,6.8,23,6.9z"/>
	<path fill="#B7977B" d="M21.5,9.9c-0.5,0.4-0.8,0-1.1-0.4C20.4,8.5,21.5,9.2,21.5,9.9C21,10.3,21.5,9.8,21.5,9.9z"/>
	<path fill="#ABD3CE" d="M22.9,6.6c-0.2-0.1-0.3-0.3-0.5-0.2c0-1.4-0.2-1.7,0.5-1.3C22.9,5.5,22.9,6.1,22.9,6.6
		C22.8,6.5,22.9,6.1,22.9,6.6z"/>
	<path fill="#8D6E5C" d="M22.9,11.8c-0.6-0.1-0.4,0.6-0.7,0.7c-0.3-0.7-0.1-1.2,0.5-1.5C23.1,11,22.9,11.5,22.9,11.8
		C22.4,11.7,22.9,11.7,22.9,11.8z"/>
	<path fill="#B5CFD0" d="M22.2,8.7c0.2,0,0.4-0.1,0.7-0.1c0.1,0.2,0.4,0.4,0,0.6c-0.2,0.3-0.5,0.3-0.7,0.1C21.9,9,22,8.7,22.2,8.7z"
		/>
	<path fill="#B2C3BC" d="M22.1,9.3c0.2,0,0.5-0.1,0.7-0.1c0.7,0.9-0.6,0.9-0.7,0.7C22.1,9.7,22.1,9.5,22.1,9.3
		C22.4,9.3,22,9.5,22.1,9.3z"/>
	<path fill="#726D4A" d="M23,4.7c0-0.7,0-1.4,0-2.2C23.1,3.2,23.1,3.9,23,4.7C23,4.7,23,4.7,23,4.7C23,3.9,23,4.7,23,4.7z"/>
	<path fill="#A59284" d="M22.1,9.9C23.3,10.1,22.1,11,22.1,9.9C22.2,9.9,22.1,10.1,22.1,9.9z"/>
	<path fill="#271D14" d="M14.7,1.9c0,0,0.1,0,0.1,0c-0.5,3.6-3.5,0.8-4.7-0.2C10.1,1.2,13.3,3,14.7,1.9C14.7,1.9,14.2,2.3,14.7,1.9z
		"/>
	<path fill="#726D4A" d="M22.9,2.5c-0.6,0.2-0.8,0.6-0.6,1.2c0,0-0.1,0-0.1,0c-0.3-0.3,0.1-0.8-0.4-1c-0.1,0-0.3-0.1-0.4-0.2
		c-0.2-0.6,0.5,0,0-0.7c0-0.1,0-0.1,0-0.2c0.1-0.1,0.3-0.1,0.4-0.2c-0.1-0.1-0.2-0.1-0.3-0.2c0.5-0.2,0.9-0.4,1.3,0.1
		c-0.1,0-0.2,0.1-0.3,0.1c0.1,0.1,0.2,0.1,0.3,0.1C22.9,1.9,22.9,2.2,22.9,2.5C22.5,2.3,22.9,2.4,22.9,2.5z"/>
	<path fill="#9BC0B0" d="M21.6,1.2c1.3,0-0.6,0.7-1.2,0.6C20.1,1.4,21.4,1.1,21.6,1.2C21.7,1.2,21.6,1.2,21.6,1.2z"/>
	<path fill="#96B5A5" d="M22.9,2.2c-0.6-0.1-0.7-0.4,0-0.4C22.9,2,22.9,2.1,22.9,2.2C22.7,2.2,22.9,2.1,22.9,2.2z"/>
	<path fill="#99BBAD" d="M22.9,1.5c-0.8,0.5-0.6-0.8,0-0.2C22.9,1.4,22.9,1.5,22.9,1.5C22.8,1.6,22.9,1.5,22.9,1.5z"/>
	<path fill="#A08C80" d="M23.3,15.6c0,0.5,0.1,1.2-0.3,1.5c-0.3-0.1-0.6,0.2-0.8,0.3c-0.1,0-0.1-0.1-0.1-0.1
		c-0.1-0.5,0.2-2.7,0.5-2.8C23.1,13.9,23.3,15.5,23.3,15.6C23.3,15.7,23.3,15.4,23.3,15.6z"/>
	<path fill="#927D6F" d="M22.8,17c0.4-0.2,0.2-0.8,0.5-1.1c0.4,0.4,0.3,3,0.2,3.5c-0.2,0-0.3,0-0.5,0C22.7,19.1,22.5,17.4,22.8,17
		C23.2,16.8,22.5,17.4,22.8,17z"/>
	<path fill="#674F43" d="M20.4,11.8c0.1-0.5-0.3-0.9-0.4-1.3c0.4,0.2,2.3,3.6,2.3,4c0,0-0.1,0-0.2,0C21.7,14.3,19.9,12.4,20.4,11.8
		C20.6,11.2,20.2,12,20.4,11.8z"/>
	<path fill="#7A6458" d="M22.2,14.4c0.1,0,0.2,0,0.2,0c0.3,0.2-1,3.1-0.8,2.9C21,17.4,21.6,14.5,22.2,14.4
		C22.3,14.4,22.1,14.4,22.2,14.4z"/>
	<path fill="#887267" d="M23.3,15.6c-0.3-0.3-0.3-0.7-0.2-1.1C23.5,14.8,23.5,15.2,23.3,15.6C23.2,15.4,23.5,15.2,23.3,15.6z"/>
	<path fill="#8F796D" d="M23.1,14.5c0,0.2,0,0.4,0,0.6c-0.3-0.2,0.1-0.9-0.6-0.6c0,0,0-0.1,0-0.1c0.1-0.1,0.2-0.3,0.3-0.4
		C23,14.1,23,14.3,23.1,14.5C23.1,14.7,23,14.3,23.1,14.5z"/>
	<path fill="#C7AE89" d="M2.2,14.6c0-1.1,1.8-3.7,1.4-4.2c-0.5-0.2-1-0.3-1.6-0.3c0.1-0.2,0-0.4-0.1-0.6c0.4-0.4,1-0.2,1.4-0.4
		c0.2-0.3,0.2-0.6-0.1-0.9C3.4,8,3.4,8,3.5,8C5.3,9.2,3.7,14.8,2.2,14.6C2.2,14.6,2.6,14.7,2.2,14.6z"/>
	<path fill="#D0BC99" d="M2.1,10.1c0.6-0.2,1.2-0.1,1.7,0.2c0.1,1.1-0.3,2-1.4,2.7C1.6,12.5,1.6,10.7,2.1,10.1
		C2.4,10.1,1.8,10.4,2.1,10.1z"/>
	<path fill="#C2B590" d="M2.5,5.9c0.2-0.4,2.2-1.7,2.6-1.9c0.6-0.1,0.8,0,0.9,0.5C5.9,4.8,2,8.1,1.5,8.1C1.6,7.3,1.9,6.5,2.5,5.9
		C2.7,5.6,1.9,6.5,2.5,5.9z"/>
	<path fill="#C9BAA2" d="M1.8,11.3c0.7,2.2,0.2,2,0,3.8c0-0.4,0-0.9,0-1.3c-0.4,0-0.7,0-1.1,0C1,12.9,1.6,12.2,1.8,11.3
		C2,11.8,1.6,12.2,1.8,11.3z"/>
	<path fill="#CCC1A5" d="M1.5,8.1c0.6-0.3,1.1-0.2,1.3-1.1C3.2,8.4,2,9,3,8.7c0.5-0.1,0.7,0.1,0.6,0.5C3,9.3,2.5,9.4,1.9,9.5
		C1.3,9.1,1.2,8.8,1.5,8.1C1.5,8.1,1.2,8.8,1.5,8.1z"/>
	<path fill="#2F2B26" d="M9.1,4c0.3-0.3,0.6-0.5,1-0.5c0.1,0.1,0.2,1.1,0.2,1.3c-0.1,1.1-0.8,2.5-0.8,3.9C9.4,9.2,9.2,9,8.9,8.8
		c0,0-0.1-0.1-0.1-0.1c-0.4-0.5-0.1-1.9,0-2.5c0-0.1,0.1-0.3-0.1-0.1c-0.5,0.9-1.1,0.2-1-0.3c0.1-0.1,0.2-0.2,0.4-0.4
		c-1.1,0.3-0.4-2.1-0.3-2c0.7,0.8,0.8,0,1.2,1.6C9,4.5,8.9,4.2,9.1,4C9.4,3.9,8.9,4.2,9.1,4z"/>
	<path fill="#121310" d="M9.1,4c0.2,0.5,0.1,0.9-0.2,1.2C8.3,4.6,8.2,2.4,8.2,1.5C9.2,2.2,9.5,3,9.1,4C9.1,4.3,9.3,3.6,9.1,4z"/>
	<path fill="#3B2C1D" d="M10.1,1.7c0.3-0.2,2,1.5,2.3,1.7c-0.7,0.2-1.2,0-1.6-0.5c-0.3-0.5-0.9,0.6-1.1-0.1C9.7,3,10.1,1.7,10.1,1.7
		C10.3,1.5,10,1.9,10.1,1.7z"/>
	<path fill="#9D8167" d="M10.1,4.2c-0.1-0.2,0.1-0.5,0-0.7c0.3,0,0.3-0.1,0.1-0.3c-0.2-0.5,1.1,0,1.2,0.3c0,0.1,0,0.1,0,0.2
		C11.2,4,10.5,3.9,10.1,4.2C10,4,10.5,4,10.1,4.2z"/>
	<path fill="#685034" d="M11.1,3.3c-0.3-0.2-0.5-0.3-0.8-0.1c-0.1,0-0.1-0.1-0.2-0.2c0.1-0.2,0.4-0.3,0.1-0.7
		C10.6,2.3,11.1,3,11.1,3.3C10.9,3.3,11.1,3.1,11.1,3.3z"/>
	<path fill="#1F1A16" d="M16.9,3.9c0.2,1.6,0.1,2,1.4,0.7c0-0.1,0.1-0.1,0.1,0c-0.1,0.5,0.1,2-0.5,2.4c-0.3-0.1-0.5-0.2-0.7-0.4
		c0,0-0.3,1.7-0.1,1.4c-0.2,0.1-0.3,0.1-0.4-0.1c-0.6-0.7-1.2-3.2-0.6-3.9C16.4,3.9,16.7,3.8,16.9,3.9C17,4.4,16.7,3.8,16.9,3.9z"/>
	<path fill="#242824" d="M18.1,0.1c0.2,1.1,0.3,2.2,0.4,3.4C17.6,3,17.7,0.8,18.1,0.1C18.4,0.8,18,0.4,18.1,0.1z"/>
	<path fill="#2B2E2A" d="M18.5,4.7c0,0-0.1,0-0.1,0c-0.1-0.4-0.5-0.7,0.1-0.8C18.5,4.1,18.5,4.4,18.5,4.7
		C18.5,4.7,18.5,4.4,18.5,4.7z"/>
	<path fill="#BBA282" d="M2.2,14.6c1.5-0.8,3.1-5.1,1.3-6.5c0.2-0.8,1-1.3,1.8-1.2c0.3,0.9-1,0.5-1.2,1.1c0.2,0.3,0.3,0.5,0.6,0.7
		c-0.1,0.6-1.5,7.6-2.8,7.7C1.9,15.8,2.2,15.2,2.2,14.6C2.3,14.6,2.2,15.2,2.2,14.6z"/>
	<path fill="#B3997A" d="M1.9,16.4c1.2-0.9,1-3.9,2.5-5c0.6,0.7-2,5.3-2.6,5.8C1.9,16.9,1.7,16.6,1.9,16.4
		C2.2,16.2,1.7,16.6,1.9,16.4z"/>
	<path fill="#C5E6DA" d="M19.1,3.4c0.6-0.6,2.1-1.7,2.4,0.3c0,0.4,0.3,0.7,0,1.1C21.2,4.9,19.1,3.8,19.1,3.4
		C19.1,3.3,19.1,3.7,19.1,3.4z"/>
	<path fill="#322620" d="M16.8,7.9C17,7.9,17.1,8,17.2,8c0.1,0.1,0.1,0.2,0.2,0.4c0.2-0.6,0.3-1.1,0.2-1.7c0.7-0.1,0.1-0.2,0.9-0.4
		c0.2-0.1-0.1-0.3,0-0.4c0.2,0.3,0.4,0.6,0.6,0.8c0.2,0.5-1.4,2.1-1.3,3.1C17.4,10.7,15.8,8.8,16.8,7.9C17,7.9,16.6,8.2,16.8,7.9z"
		/>
	<path fill="#C3A584" d="M20.8,6.6c-0.2,0.2-0.4,0.2-0.6,0.2c-0.4,0-0.8-0.1-1.1-0.4c-0.4-0.3-0.2-0.6-0.1-0.9
		c1.7,0.8,0.8-0.6,1.5-1.2c0.2-0.1,0.3,0,0.4,0.1c0.3,0.6,0.3,1.2,0.1,1.9C20.9,6.5,20.9,6.6,20.8,6.6C20.6,6.8,20.9,6.6,20.8,6.6z"
		/>
	<path fill="#D3BA98" d="M20.4,4.4c0.5,0.9-0.6,2.3-1.5,1.2c0,0,0-0.1,0-0.1c0.5,0,0.8-0.3,0.9-0.7c-0.2-0.4-0.5-0.5-0.9-0.4
		c-0.1-0.1-0.1-0.2-0.1-0.4C19.4,3.6,20.1,3.8,20.4,4.4C20.6,4.8,20.1,3.8,20.4,4.4z"/>
	<path fill="#B58E70" d="M19.1,6.5c0.4,0,0.8,0.1,1.1,0.4c0,0.1,0,0.1,0,0.2c-0.4,0-1,2.4-1.5,1.6C18.3,7.1,18.8,7.3,19.1,6.5
		C19.5,6.5,19,6.6,19.1,6.5z"/>
	<path fill="#B3D8C9" d="M21.4,4.8c0.4-1.4-1.3-3.1-2.2-1.6C19.1,3,18.8,2.8,19,2.5c0.1,0,0.1-0.1,0.2-0.1c2.2-0.1,3.5,0.4,2.4,3.1
		C21.2,5.4,21.2,5.1,21.4,4.8C21.7,3.9,21.2,5.1,21.4,4.8z"/>
	<path fill="#DECBB0" d="M19,4.3c0.7-1.1,1.9,1.9,0,1.2C18.9,5.1,19,4.7,19,4.3C19.3,3.8,19,4.7,19,4.3z"/>
	<path fill="#ACD3C2" d="M19.1,2.3c0-0.1,0-0.2,0-0.2c-0.1-0.9,2.8-0.2,2.4-0.2c0,0.1-0.1,0.3,0,0.5C20.7,2.3,19.9,2.3,19.1,2.3
		C19.1,2.2,19.9,2.5,19.1,2.3z"/>
	<path fill="#A7C9B6" d="M21.4,1.2c0.4,0.7-2.6,0.5-2.4,0.5c-0.1-0.2-0.1-0.3,0-0.5C19.8,1.2,20.6,1.2,21.4,1.2
		C21.5,1.4,20.6,1.2,21.4,1.2z"/>
	<path fill="#B69E75" d="M20.4,4.4C20,4,19.5,3.9,18.9,4c0-0.2-0.1-0.5,0.2-0.6c0.6,0.3,1.2,0.6,1.8,0.9c0,0.1,0,0.2-0.1,0.2
		C20.7,4.5,20.5,4.5,20.4,4.4C20,4,20.5,4.5,20.4,4.4z"/>
	<path fill="#6E7B66" d="M19,1.7c0.8,0,1.7,0,2.5,0c0,0,0,0.1,0,0.1c-0.9-0.3-1.7-0.2-2.4,0.2C19,1.9,19,1.8,19,1.7
		C19.4,1.7,19,1.8,19,1.7z"/>
	<path fill="#6E7B66" d="M19.1,2.3c0.8,0,1.6,0,2.4,0c0,0,0,0.1,0,0.1c-0.8,0-1.7,0-2.5,0.1C19,2.4,19,2.3,19.1,2.3
		C19.9,2.3,19,2.3,19.1,2.3z"/>
	<path fill="#393D34" d="M6.7,0.7c0,0,0.1,0,0.1,0C7.3,1.3,8.2,6.4,7,6.3C6.2,5.4,7.4,1.6,6.5,0.9C6.5,0.8,6.5,0.7,6.7,0.7
		C6.8,0.7,6.5,0.7,6.7,0.7z"/>
	<path fill="#1E211E" d="M7.3,5.1c0.1-0.8,0.2-1.7,0-2.5c0.3-0.1,0.7-0.3,0.9,0.3c0-0.2,0-0.3-0.1-0.5c0.4,0.4,0.2,0.9,0.2,1.3
		C8.4,3.8,7.9,3.3,7.8,3.3c0,0.6,0,1.2,0,1.9c0.3-0.1,0-0.4,0.3-0.4c0.2,0.6,0.2,0.7-0.4,0.9c-0.1,0-0.1,0-0.2-0.1
		C7.4,5.5,7.4,5.3,7.3,5.1C7.4,4.3,7.4,5.3,7.3,5.1z"/>
	<path fill="#C9E2D3" d="M6.6,1.5C7,1.8,6.9,2.1,6.7,2.4C6.3,2.6,5.9,2.7,5.4,2.9c0.1,0.1-0.6-2,0.2-1.7C6.4,2.3,5.8,1,6.5,1.3
		C6.6,1.3,6.6,1.4,6.6,1.5C7,1.8,6.6,1.4,6.6,1.5z"/>
	<path fill="#141412" d="M16.9,3.9c-0.2,0-0.5,0.2-0.7,0.1c-0.5-0.3-0.2-0.8-0.3-1.1c-0.1,0.1-0.2,0.2-0.4,0.1
		c-0.4-0.5-0.5-1.7-0.4-2.3c0.4,0.2,0,1.2,0.4,1.3c0.9,0.2,0.3-1.2,1.3,0C16.9,2.7,16.9,3.3,16.9,3.9C16.7,4,16.9,3.3,16.9,3.9z"/>
	<path fill="#433221" d="M15.3,2c0.3,0.3,0.4,0.7,0.4,1.1c-1-0.6-1.5,0.9-2.5,0.8c-0.1,0-0.1,0-0.2-0.1c-0.1-0.1-0.3-0.2-0.2-0.4
		c1.3,0.5,1.5-0.8,2-1.6C15,1.8,15.1,2,15.3,2C15.3,2.4,15.1,2,15.3,2z"/>
	<path fill="#947B65" d="M2.2,16.7c0.1-0.4,1.6-4.9,2.3-4.7c0.3,0.6-1.7,5.1-2.3,5C2.2,16.9,2.2,16.8,2.2,16.7
		C2.6,15.4,2.2,16.8,2.2,16.7z"/>
	<path fill="#8E7F64" d="M2.2,17c0.1-0.1,0.2-0.2,0.4-0.4c0.3,0.4-0.4,2.5-0.5,2.8c-0.3,0-0.6,0-0.8,0c0-0.2-0.2-0.3-0.2-0.5
		C1.4,18.9,2,17.4,2.2,17C2.3,16.9,2.2,17.1,2.2,17z"/>
	<path fill="#9F8F88" d="M9.9,19.4c-0.6,0-1.2,0-1.8,0c-0.3-0.4-0.6-0.7-0.6-1.2c-0.2,0.4,2.2-1,1.9-1C9.7,17.4,10.1,19.1,9.9,19.4
		C9.3,19.4,10.2,19,9.9,19.4z"/>
	<path fill="#96807A" d="M9.9,19.4c0-0.4-0.3-0.7-0.4-1.1c0.4,0.2,0.9,0.3,1.4,0.2c-0.2-0.5-1-1,0-1.3c0.3-0.1,0.5-0.1,0.8,0
		c0.1,0.3,0.2,0.6,0.1,0.9c0.2,0.6,0.1,0.8-0.7,1.2C10.7,19.4,10.3,19.4,9.9,19.4C9.9,19,10.3,19.4,9.9,19.4z"/>
	<path fill="#A99B99" d="M11.7,18.2c-0.8-0.6-0.3-0.4,0.2-0.9c0.2-0.1,0.5-0.1,0.7,0c0.2,0.4-0.4,0.2-0.4,0.5
		c0.5,0.3,0.5,0.3,0.6-0.5c0.1-0.1,0.2-0.1,0.3,0c-0.1-0.1,0.5,2,0.4,2.1c-0.5,0-1,0-1.4,0C12,19,11.9,18.6,11.7,18.2
		C11.1,17.8,12,18.4,11.7,18.2z"/>
	<path fill="#A58F88" d="M16.2,19.4c-0.2,0-0.4,0-0.6,0c-0.5-0.6,0.4-1.6-0.8-1.5c-0.3,0-0.7,0.6-1,0c0-0.1-0.1-0.2,0-0.3
		c0.2-0.2,0.4-0.3,0.6-0.5c0,0,1.8-0.4,1.9-0.4C16.4,16.9,16.4,19.2,16.2,19.4C16,19.4,16.5,19.1,16.2,19.4z"/>
	<path fill="#AEA39F" d="M14.8,17.9c0.6-1.3,0.9,1.5,0.9,1.5c-0.4,0-0.7,0-1.1,0c-0.4-0.3-0.1-0.7-0.2-1.1
		C14.4,18.1,14.6,18,14.8,17.9C14.9,17.6,14.6,18,14.8,17.9z"/>
	<path fill="#8B7369" d="M17.5,19.4c-0.2,0-0.4,0-0.6,0c-0.5-0.4-0.6-1-0.9-1.5c0-0.4,0.2-0.8,0.5-1.1c0.1-0.2,0.2-0.3,0.5-0.2
		c-0.1,0.5,0,1,0.1,1.5c0.2,0.1,0.5,0.3,0.6,0.6C17.9,19,17.8,19.2,17.5,19.4C17.3,19.4,17.8,19.2,17.5,19.4z"/>
	<path fill="#927E72" d="M17.5,19.4c0.1-0.4,0.2-0.9,0-1.3c0.1-0.2,0.3-0.3,0.5-0.3c0.9,0.3,1.1,0.6,0.6,1.6
		C18.4,19.5,18,19.5,17.5,19.4C17.6,19.1,17.9,19.4,17.5,19.4z"/>
	<path fill="#967F75" d="M16.6,16.8c0,1.4-0.2,1.3,0.4,2.6c-0.2,0-0.5,0-0.7,0C16.2,19.4,15.5,16.5,16.6,16.8
		C16.6,16.9,16.4,16.7,16.6,16.8z"/>
	<path fill="#988C8C" d="M14.4,18.3c0.2,0.3,0,0.7,0.1,1.1c-0.4,0-0.7,0-1.1,0c-0.3-0.3-0.4-0.7-0.4-1.1
		C13.2,18.3,14.3,18.3,14.4,18.3C14.7,18.7,14.3,18.3,14.4,18.3z"/>
	<path fill="#6E7779" d="M7.5,18.2c0.2,0.4,0.6,0.7,0.6,1.2c-0.3,0-0.6,0-0.9,0c-0.2,0-0.3-1.3-0.1-1.6C7.4,17.8,7.5,17.9,7.5,18.2
		C7.7,18.6,7.5,17.9,7.5,18.2z"/>
	<path fill="#9F8D8A" d="M11.7,18.2c0.7,0.1,0.7,0.3,0.4,1.2c-0.3,0-0.6,0-1,0C11.5,19.1,11.7,18.8,11.7,18.2
		C12.3,18.4,11.9,18.6,11.7,18.2z"/>
	<path fill="#B9D1BF" d="M6.5,1.3c-0.1,0-0.2,0.1-0.3,0.1c0-0.9,0.2-1.1,0.6-0.7c-0.1,0-0.2,0.1-0.2,0.2C6.6,1.1,6.6,1.2,6.5,1.3
		C6.4,1.4,6.6,1.2,6.5,1.3z"/>
	<path fill="#7B604F" d="M18.8,19.4c0-0.7-0.3-2.3-0.8-2.9c0.2-0.4,0.5-0.3,0.8-0.2c0.7,0.7,0.6,1.6,1.4,2.3
		c0.2,0.4-0.1,0.6-0.4,0.8C19.4,19.4,19.1,19.4,18.8,19.4C18.8,19.2,19.1,19.4,18.8,19.4z"/>
	<path fill="#594B3F" d="M22.1,14.6c-0.3,1.6,0,2.6-0.1,4.2c0,0.2-0.1,0.5-0.3,0.6c-0.1,0-0.2,0-0.2,0c-0.3-0.6-1.4-3.8-0.6-4.4
		c0.4,0,0.6-0.1,0.9-0.3C21.9,14.6,22,14.6,22.1,14.6C22,15,22,14.6,22.1,14.6z"/>
	<path fill="#715239" d="M19.7,19.4c0.4-0.7,0.4-1.4,1.3-1.7c0.2,0.5,0.4,1.1,0.3,1.7C20.7,19.4,20.2,19.4,19.7,19.4
		C19.9,19.2,20.2,19.4,19.7,19.4z"/>
	<path fill="#9F8B7D" d="M21.9,18.8c0-0.3-0.1-0.6-0.1-1c-0.5-1.5,2.4,0.7,1.2,0.4c0.2,0.4-0.1,0.8,0.1,1.2c-0.2,0-0.3,0-0.5,0
		C22.3,19.3,22,19.1,21.9,18.8C21.8,18.5,22,19.1,21.9,18.8z"/>
	<path fill="#40362B" d="M21.3,19.4c-0.4-1.2-0.5-2.5-0.3-3.8c0.3,0.6,0.6,3.5,0.6,3.8C21.4,19.4,21.3,19.4,21.3,19.4
		C21.1,18.9,21.3,19.4,21.3,19.4z"/>
	<path fill="#806E60" d="M21.9,18.8c0.2,0.2,0.5,0.3,0.7,0.6c-0.3,0-0.5,0-0.8,0C21.8,19.2,21.8,19,21.9,18.8
		C22.1,19,21.8,19,21.9,18.8z"/>
	<path fill="#4B7879" d="M5,19.4c-0.8,0.1-2,0.4-2.1-0.8c0.3-1,0.6-1.9,1.1-2.8c0.4-0.3,0.7-0.3,0.9,0.1C4.4,16.8,5.3,18.9,5,19.4
		C4.8,19.4,5.1,19.2,5,19.4z"/>
	<path fill="#4D473C" d="M4,15.8c-0.3,0.9-0.5,2.1-1.2,2.9c-0.8-0.4,1.6-8,2.4-8.5C6.2,11,4.5,15.2,4,15.8C3.7,16.8,4.1,15.7,4,15.8
		z"/>
	<path fill="#675E4B" d="M3.1,16.3c-0.1,0.8-0.3,2.3-0.5,3.1c-0.2,0-0.4,0-0.6,0c0-0.5,0.3-0.9,0.2-1.3C2.2,17.4,2.6,16.5,3.1,16.3
		C3.1,16.8,2.6,16.5,3.1,16.3z"/>
	<path fill="#153641" d="M5,19.4c-0.1-0.5-0.2-0.9-0.3-1.4c0.5-0.6,0.8-1.2,1.1-1.9c0.3-0.1,0.5-0.1,0.8,0c0.2,0.2,0.7,2.9,0.6,3.3
		C6.4,19.4,5.7,19.4,5,19.4C4.9,19.2,5.7,19.4,5,19.4z"/>
	<path fill="#C5AB81" d="M6,4.5C5.9,4.1,5.6,3.9,5.2,3.9c0.1-0.2,0.4-0.1,0.5-0.4C6.5,3.3,7,4.6,7,5.3C6.8,5.6,6.6,5.6,6.3,5.5
		C6,5.2,5.9,4.9,6,4.5C5.9,4.1,5.9,4.9,6,4.5z"/>
	<path fill="#8F7E5A" d="M6.9,5.3C6.8,3.9,6.6,3.8,5.8,2.8c0.3-0.1,0.6-0.3,0.9-0.4C7,3.4,7.1,4.5,7.1,5.6C6.8,5.7,7,5.4,6.9,5.3
		C6.9,4.9,7,5.4,6.9,5.3z"/>
	<path fill="#A18766" d="M20.8,4.5c0-0.1,0-0.2,0.1-0.2c0.5,0.2,1,1.7,1.1,2.2c0,0.1,0,0.2-0.1,0.3c-0.4,0.1-0.8,0.3-1.1-0.2
		c0,0,0.1-0.1,0.1-0.1C20.8,5.8,20.8,5.2,20.8,4.5C20.8,4.4,20.8,4.6,20.8,4.5z"/>
	<path fill="#745D4E" d="M20.6,8.8c0,0,0.1-0.1,0.1-0.1c0.8-1.2-0.8-0.7-1-0.8c-0.2-0.4,0.1-0.6,0.4-0.6c0.3,0,1.6,0.7,1.4,1.2
		C21.3,8.6,20.9,8.8,20.6,8.8C20.6,8.7,20.7,8.7,20.6,8.8z"/>
	<path fill="#9E7762" d="M18.8,8.7c1.5-0.5-0.1-2.1,1.4-1.7c0,0.2-0.9,2.3-1.2,2.6c-0.1,0.1-0.3,0.2-0.4-0.1
		C18.5,9.3,18.5,9,18.8,8.7C19.3,8.6,18.5,9,18.8,8.7z"/>
	<path fill="#C6E4E5" d="M21.8,6.8c0-0.1,0-1.1,0.4-0.5c0,0.8,0,1.6-0.1,2.4c0,0,0,0,0,0C22,8.1,21.9,7.5,21.8,6.8
		C21.8,6.7,22,7.2,21.8,6.8z"/>
	<path fill="#81866C" d="M22.2,3.7C22.3,3.7,22.3,3.7,22.2,3.7c0.1,0.6,0.1,1.3,0.1,1.9c-0.1,0-0.1,0-0.2,0
		C21.9,5.2,21.9,4,22.2,3.7C22.3,3.7,21.9,4,22.2,3.7z"/>
	<path fill="#90A393" d="M22.2,5.6C22.3,5.6,22.3,5.6,22.2,5.6c0.1,0.5,0.2,1,0,1.4C22.2,6.6,22.2,6.1,22.2,5.6
		C22.3,5.6,22,5.9,22.2,5.6z"/>
	<path fill="#29221D" d="M21.9,14.7c0,0-0.1,0.1-0.1,0.1c-0.3,0.3-0.6,0.3-0.8-0.2c-0.7-0.7-2-2.9-2.1-3.8c0-0.4,0.7-3.2,1.2-3
		C19.3,7.4,21.5,15.3,21.9,14.7C21.8,14.8,22,14.5,21.9,14.7z"/>
	<path fill="#5E4B3F" d="M20.1,7.9c-0.3,0-0.2,0.3-0.3,0.4c-0.1-0.2-0.1-0.3,0-0.5c0.5-0.6,1.7,0.3,1,0.8
		C20.7,8.7,20.4,7.2,20.1,7.9C19.8,7.9,20.2,7.6,20.1,7.9z"/>
	<path fill="#C3E2E9" d="M22.7,9.5C23.6,9.5,21.8,9.7,22.7,9.5C22.8,9.5,22.6,9.5,22.7,9.5z"/>
	<path fill="#533D2E" d="M12.7,3.5c0.1,0.1,0.2,0.2,0.2,0.4c-1,0.2-1.1-0.3-1.9-0.5c-0.1-0.2-0.3-0.3-0.2-0.6
		C11.6,3.2,12,3.2,12.7,3.5C12.8,3.6,12.6,3.4,12.7,3.5z"/>
	<path fill="#A5CFC2" d="M22.2,3.7c0,0.4,0,0.8,0,1.2C22,5,21.8,5,21.7,4.7c-0.2-0.7-0.1-1.5,0.1-2.2C22.3,2.7,22.4,3.1,22.2,3.7
		C22.2,4.1,22.2,3.4,22.2,3.7z"/>
	<path fill="#98AD97" d="M21.8,2.5c0,1.2,0,2.4,0,3.6c-0.4-1.1-0.2-2.4-0.2-3.6C21.6,2.5,21.7,2.5,21.8,2.5
		C21.8,3.3,21.7,2.5,21.8,2.5z"/>
	<path fill="#95B19D" d="M21.5,2.2c0-0.1,0-0.3,0-0.4C22.3,2,22.3,2.1,21.5,2.2C21.5,2.1,21.7,2.2,21.5,2.2z"/>
	<path fill="#98AD97" d="M19.1,2.5c0.8-0.2,1.6-0.1,2.4-0.1c0,0,0,0.1,0,0.1C20.7,2.5,19.9,2.5,19.1,2.5C19.9,2.3,19.9,2.5,19.1,2.5
		z"/>
	<path fill="#8F796D" d="M22.1,17.4c-0.2,0.1-0.4,0.2-0.4,0.5c-0.3-0.3,0.4-3.1,0.7-3.4C22.6,15.5,22.1,16.4,22.1,17.4
		C21.9,17.5,22.1,16.4,22.1,17.4z"/>
	<path fill="#AB998D" d="M22.9,18.2c-0.5,0.1-0.7-0.1-0.8-0.8c0.2-0.2,0.2-0.7,0.7-0.4C22.8,17.4,23,17.8,22.9,18.2
		C22.4,18.3,23,17.8,22.9,18.2z"/>
	<path fill="#4B3A31" d="M21.9,14.7c-0.5-0.7-0.9-1.4-1.2-2.3c0.6,0.6,0.9,1.4,1.6,1.9c0,0.1-0.1,0.2-0.1,0.2
		C22,14.7,21.9,14.7,21.9,14.7C21.6,14.3,21.9,14.7,21.9,14.7z"/>
	<path fill="#D2CBBA" d="M3.7,5.9c0.2-0.4,2.1-0.6,2-0.6c0,0,0.1,0.1,0,0.2C5.6,5.6,5.4,5.6,5.1,5.6c0.4,0,0.5,0.2,0.4,0.6
		c-0.2,0.5-2,2.3-2.6,2.1C3.1,8.5,3.7,6.1,3.7,5.9C3.9,5.5,3.7,6,3.7,5.9z"/>
	<path fill="#C8B79C" d="M3.5,8C3.4,8.3,5.1,5.8,5.6,6.2c0.1,0.3,0,0.5-0.2,0.7C4.5,7.4,4,7.2,3.5,8.2C3.5,8.1,3.5,8.1,3.5,8
		C3.7,7.4,3.5,8.1,3.5,8z"/>
	<path fill="#CABA9D" d="M2.9,8.3c0.2,0,0.3,0,0.5-0.1c0,0.4,0.9,0.9,0.1,1.1c0-0.4-0.2-0.5-0.6-0.5C2.8,8.6,2.8,8.4,2.9,8.3
		C3.1,8.3,2.8,8.4,2.9,8.3z"/>
	<path fill="#D8D6CA" d="M2.9,8.3c0,0,0.1,1.9-0.7,0.9C1.8,8.6,3.5,6,3.7,5.9c0.2,0.3,0.4,0.5,0.7,0.6C4.2,7.2,3.2,7.5,2.9,8.3
		C2.9,8.4,3.1,7.7,2.9,8.3z"/>
	<path fill="#CFBC98" d="M5.8,5.4c-0.5-0.3-0.9,0-1.3,0.1c0-0.8,0.5-1.8,1.6-1c0.2,0.2,0.1,0.6,0.2,0.8C6.1,5.5,5.9,5.5,5.8,5.4
		C5.3,5.1,5.9,5.5,5.8,5.4z"/>
	<path fill="#3D3635" d="M9.4,5.8c-0.1-0.9,0.7-0.4,0.8-1.1c1-0.2,1,4.5,0.7,5C10,10,10.1,6.5,10,5.8C9.8,5.2,9.6,5.8,9.4,5.8
		C9.4,5.5,9.6,5.8,9.4,5.8z"/>
	<path fill="#DEC7C0" d="M10.2,6.5c0,0.6,0.5,2.2,0,2.4C9.9,9.1,9.4,8.5,9.3,8.3C9.1,7.6,9.4,7.1,9.6,6.5C9.8,6.3,10,6.1,10.2,6.5
		C10.2,6.6,10,6.1,10.2,6.5z"/>
	<path fill="#92654F" d="M8.9,8.6C8.9,8.6,9,8.6,8.9,8.6c0.4,0.2,1.6,1.5,1.4,1.9c-0.4,0.5-2.8-1-2.6-1.8C7.7,8.5,7.8,8,8.2,8
		C8.3,8.4,8.4,8.7,8.5,9C8.7,9,8.7,8.6,8.9,8.6C8.9,8.6,8.7,8.6,8.9,8.6z"/>
	<path fill="#DFBDA0" d="M10.7,5.6c-0.1-0.1-0.6-1.1-0.6-1.3c0.3-0.3,0.5-0.5,0.9-0.3c-0.2-0.1,1.7,0.6,1.7,1
		C12.3,5.6,11.2,5.1,10.7,5.6C10.4,5.4,11.1,5.2,10.7,5.6z"/>
	<path fill="#59463E" d="M7.9,5.9c0.4,0.5,0.3,0.5,0.6-0.1C8.7,5.8,8.7,6,8.9,6c0,0.3-0.1,0.6-0.1,1C8.5,7.4,8.2,7.6,7.7,7.7
		C7.3,7.5,7.2,7.2,7.4,6.8C7.7,6.5,7.9,6.2,7.9,5.9C8,5.9,7.8,6,7.9,5.9z"/>
	<path fill="#C3A694" d="M9.6,6.5c0,0.6-0.5,1.2-0.4,1.8c-0.8-1,0.8-3.7,0.8-2.5C9.9,5.9,9.8,6.3,9.6,6.5C9.7,7.1,9.8,6.3,9.6,6.5z"
		/>
	<path fill="#CFAFA4" d="M9.4,8.4c0.3,0,0.6,0.1,0.8,0.4c0.1,0,0.1-2.3,0.1-1.9c0,0.7,0,1.4,0.2,2.1c0,0.1-0.1,0.2-0.2,0.3
		C9.8,9.7,9.7,9.7,9.5,9.1C9.4,8.8,9.4,8.6,9.4,8.4C9.5,8.4,9.4,8.5,9.4,8.4z"/>
	<path fill="#B08266" d="M8.9,8.6c-0.1,0.1-0.8,1.6-0.7,0c0.2-0.3-0.1-0.9,0.6-0.9c0.1,0,0.1,0,0.2,0.1C8.7,8.1,8.8,8.3,8.9,8.6
		C8.9,8.7,8.8,8.3,8.9,8.6z"/>
	<path fill="#B89A7E" d="M11.1,4.2c-0.3-0.3-0.6,0.1-0.9,0.1c0,0,0-0.1,0-0.1c0.2-0.6,0.6-0.8,1.3-0.5c0.2,0,0.3,0.1,0.3,0.2
		C11.6,4.3,11.4,4.4,11.1,4.2C10.7,3.9,11.2,4.2,11.1,4.2z"/>
	<path fill="#7B5D51" d="M8.9,7.8C8.5,7.7,8.4,8,8.2,8C7.9,8.1,8,8.5,7.8,8.6C7.6,8.5,7.7,8.3,7.6,8c0-0.7,0.8-1,1.2-1.1
		C8.8,7.2,9,7.5,8.9,7.8C8.9,7.8,9,7.5,8.9,7.8z"/>
	<path fill="#735F54" d="M7.9,5.9c0,1,0.2,1.2-0.5,0.8C7.2,6.3,7.3,5.8,7.6,5.5C7.7,5.6,7.8,5.8,7.9,5.9C7.9,6.1,7.9,5.8,7.9,5.9z"
		/>
	<path fill="#6D4536" d="M9.4,8.6c0,0.1,0.1,0.3,0.1,0.4C9.7,9.7,8.8,9.6,9,8.7C9.2,9,9.4,9,9.4,8.6C9.4,8.7,9.3,8.7,9.4,8.6z"/>
	<path fill="#7B6052" d="M8.9,6C8.6,6.2,8.5,6.1,8.5,5.8C9,5.6,9.1,5.6,8.9,6C8.8,6,9,5.9,8.9,6z"/>
	<path fill="#82695B" d="M11.7,4c-0.1-0.1-0.2-0.2-0.2-0.2c0,0,0-0.1,0-0.1c0.5,0.1,1,0.2,1.6,0.3c0,0,0,0.1,0,0.2
		c-0.2,0.2-0.4,0.3-0.7,0.2C12.1,4.1,11.8,4.1,11.7,4C11.6,3.9,11.8,4.1,11.7,4z"/>
	<path fill="#C19981" d="M16.2,6c0.2,0.7,0.4,1.5,0.6,2.2C16.3,8.4,16.2,8,16,7.9c-0.4-0.6-0.9-3.3-0.4-3.9c0.1,0,0.1-0.1,0.2,0
		C16.1,4.6,16.2,5.3,16.2,6C16.3,6.3,16.2,5.3,16.2,6z"/>
	<path fill="#2F2721" d="M16.2,6c-0.1-0.9-0.3-1.8-0.7-2.6c0.1-0.1,0.1-0.2,0.1-0.4c0.2,0,0.2-0.2,0.4-0.3C16.2,3.5,16.5,5.5,16.2,6
		C16,5.3,16.2,5.9,16.2,6z"/>
	<path fill="#926B50" d="M17.8,7.4c0,0.4-0.3,0.7-0.4,1.1c-0.2-0.5-0.4-0.9-0.3-1.5C17.5,6.9,17.6,7.2,17.8,7.4
		C17.8,7.8,17.6,7.2,17.8,7.4z"/>
	<path fill="#7B583D" d="M17.8,7.4c-0.2-0.1-0.4-0.3-0.7-0.4c0-0.2,0.1-1.2,0.3-0.6C17.6,6.7,17.7,7.1,17.8,7.4
		C17.6,7.3,17.7,7.2,17.8,7.4z"/>
	<path fill="#AB7A6C" d="M16.7,8.3c0-0.5-0.3-0.9-0.2-1.3c0.4,0.6,0.5,1.2,0.4,1.9c-0.1,0-0.1,0-0.2,0C16.5,8.6,16.5,8.5,16.7,8.3
		C16.7,7.8,16.5,8.5,16.7,8.3z"/>
	<path fill="#A99172" d="M4.6,8.6C4.4,8.5,3.8,8.4,3.9,8.1c0.5-0.4,0.9-0.7,1.4-1.1C5.2,6.8,6.1,5.8,6.9,6.5c0,0.6-1.9,1.1-2.1,2.1
		C4.7,8.7,4.6,8.7,4.6,8.6C4.5,8.6,4.6,8.7,4.6,8.6z"/>
	<path fill="#AE8F6C" d="M4.6,8.6c0,0,0.1,0,0.1,0c1,0,0,3-0.1,3.2C4.4,12,4.2,12.2,4,12.5C4,11.5,4.4,9.6,4.6,8.6
		C4.6,8.6,4.4,9.5,4.6,8.6z"/>
	<path fill="#A77D62" d="M17.5,9.7c0.1-1,0.4-1.8,1.1-2.5c0.1,1,0.2,2-0.6,2.8C17.7,10.3,17.6,10,17.5,9.7
		C17.3,9.1,17.6,10,17.5,9.7z"/>
	<path fill="#CD9D8D" d="M16.7,8.9c0,0,0.1,0,0.1,0c0,0.2,0,0.4,0,0.6c-0.3,1.4-1.2,0.6-2.1,0.9c-0.5-0.3-0.4-0.8-0.5-1.2
		c0.1-1.6,1.3,0.6,1.6,0.5C16.2,9.4,16.4,9.2,16.7,8.9C16.7,8.9,15.9,10,16.7,8.9z"/>
	<path fill="#40302A" d="M17.9,9.9c0.3-0.4,0.7-3.2,1-3.1c0,0.4,0.1,3.7-1,3.7C17.6,10.4,17.8,10.2,17.9,9.9
		C18.6,9.1,17.8,10.2,17.9,9.9z"/>
	<path fill="#AB7A6C" d="M14.8,10.3c0.3-0.7,1.4,0.2,2.1-0.9c0,0,0.1,0,0.1,0C17,9.5,17,9.6,17,9.7c-0.3,0.5-0.7,1-1.2,1.2
		c-0.4,0.1-0.7-0.2-1-0.5C14.7,10.4,14.7,10.4,14.8,10.3C14.9,10.1,14.7,10.4,14.8,10.3z"/>
	<path fill="#633D2E" d="M16.9,9.7c0-0.1,0-0.1,0-0.2c0.2,0.1,0.1,0.3,0.2,0.5c0,0,0.4-0.1,0.5-0.2c0.2,0,0.1,0.4,0.4,0.2
		c0,0.2-0.2,0.4,0,0.6c-0.3,0.4-0.6,0.6-1.2,0.6c-0.2-0.1-0.2-0.2-0.1-0.4C16.8,10.4,16.9,10.1,16.9,9.7
		C16.9,9.6,16.9,10.1,16.9,9.7z"/>
	<path fill="#B69E75" d="M20.8,4.7c0.2,0.6,0.3,1.2,0.1,1.8C20.6,5.9,20.8,5.3,20.8,4.7z"/>
	<path fill="#2F2B26" d="M7.6,5.5C7.4,5.8,7.3,7.4,7.8,7.7c-0.3,0.9,0,1.8-0.2,2.6c-0.4,0.1-0.7-0.1-1.1,0.1C6.1,10,7.4,8.3,6.5,8.3
		c-0.5,0-0.1,1-0.5,1.1c-1.7-1.1,0.9-1.9,1-3c0-0.1,0.4-1.2,0.4-1.2C7.5,5.2,7.5,5.4,7.6,5.5C7.4,5.9,7.5,5.4,7.6,5.5z"/>
	<path fill="#BBA282" d="M7,6.2c0,0.1-0.1,0.2-0.2,0.4C6.2,6.3,5.8,6.5,5.3,6.9c0-0.1,0.5-1.5,0.5-1.6c0.4,0,0.7,0,1.1-0.1
		C6.9,5.4,7,5.5,7.1,5.6C7.2,5.8,7.1,6,7,6.2C7,6.3,7.1,6,7,6.2z"/>
	<path fill="#B3C8B9" d="M6.5,1.3c0-0.1,0-0.3,0-0.4c0.7,0.2,0.2,0.3,0.1,0.6C6.6,1.5,6.5,1.4,6.5,1.3C6.5,1.2,6.5,1.4,6.5,1.3z"/>
	<path fill="#614731" d="M15.6,3.1c0,0.1,0,0.2,0,0.2c-0.7,0.4-1.8,0.8-2.5,0.7C13.1,4.1,13,4,13,4c0,0,0-0.1,0-0.1
		C14.4,3.9,14.5,2.2,15.6,3.1C15.6,3.2,15,2.6,15.6,3.1z"/>
	<path fill="#806A57" d="M4.5,12c0,0,0-0.1,0-0.1c0.3-0.1,0.1-0.6,0.5-0.6c0.3,2.3-2.7,4.7-2.6,6.8C1.4,16.8,4.4,13.4,4.5,12
		C4.5,11.9,4.4,12.7,4.5,12z"/>
	<path fill="#8A7269" d="M10.8,17.4c-1,0.9,0.5,0.6,0.4,1.2c-0.2,0.8-1.5,0-1.7-0.2c0-0.4-0.6-1.6-0.4-2C9.3,16,10.9,17,10.8,17.4
		C10.4,17.8,10.9,17.2,10.8,17.4z"/>
	<path fill="#7E6F62" d="M7.5,18.2c-0.1-0.1-0.2-0.2-0.3-0.4C7,17.3,7,16.7,7.2,16.1c0.2-0.6,0.7-0.7,1.2-0.5c0.1,0,0.2,0.1,0.3,0.2
		c-0.2,0.4-0.3,2.3-0.4,2.3C8,17.8,7.7,18,7.5,18.2C7.4,18.1,7.7,18,7.5,18.2z"/>
	<path fill="#9D8171" d="M8.3,18.1c0.8-0.2-1.8-2.3,0.4-2.3c0.1,0,0.2,0,0.1,0.2C8.6,16.2,9.1,18.9,8.3,18.1
		C8.6,18.1,8.5,18.2,8.3,18.1z"/>
	<path fill="#BAA298" d="M8.8,17.6c-0.2-0.2-0.8-1.7,0-1.7c0.2,0,0.4,0.1,0.4,0.4c0,0.3,0,0.7,0.1,1C9.3,17.7,9,17.6,8.8,17.6
		C8.3,17.3,9,17.6,8.8,17.6z"/>
	<path fill="#6C524A" d="M9.1,16.3c-0.3-0.3-0.4-0.5-0.7-0.6c-1.1-1.1,3.8,1.3,3.3,1.3c0,0.2,0,0.3,0.1,0.4
		C10.7,17.4,9.9,17.3,9.1,16.3C9,16.2,9.4,16.7,9.1,16.3z"/>
	<path fill="#856967" d="M11.8,17.4c0-0.1-0.1-0.2-0.1-0.4c0.3-0.4,2.6-0.1,2.6-0.1c0.1,0.1,0.2,0.2,0.2,0.3
		c-0.2,0.1-0.3,0.4-0.6,0.4C13.8,17.7,12.2,17.4,11.8,17.4C11.7,17.3,12.1,17.4,11.8,17.4z"/>
	<path fill="#8B7877" d="M13.1,17.4c0.2,0.1,0.4,0.5,0.7,0.2c0,0,0.3,1.1,0.4,0.7c0.7,1-1.2-0.1-1.1,0C13.2,18,13.2,17.7,13.1,17.4
		C13.3,17.5,13.2,17.7,13.1,17.4z"/>
	<path fill="#BDB1AC" d="M12.6,17.4c0,0,0.1,0,0.1,0c0.7,1.2-0.8,0.8-0.9,0.4C11.9,17.4,12.4,17.5,12.6,17.4
		C12.7,17.4,12.6,17.4,12.6,17.4z"/>
	<path fill="#C1ABA4" d="M15.7,17c-0.2,0.2-0.3,0.4-0.6,0.2c-0.3-0.4-1.3-1.5-0.3-1.9c0.3,0.1,0.1,0.7,0.6,0.6
		c0.1-0.2-0.1-0.4,0.1-0.6c0.1,0,0.2,0,0.3,0C16.4,16.2,16.4,16.5,15.7,17C15.6,17.2,16.4,16.5,15.7,17z"/>
	<path fill="#B1978F" d="M15.7,15.5c-0.3,0-0.6,0-0.8,0c-0.8,0,0.2,1.4,0.2,1.8c-0.2,0.1-0.5-0.1-0.7,0c-0.2-0.4-0.7-1.7-0.2-2
		c0.4-0.2,1.2-0.2,1.5,0.1C15.7,15.4,15.7,15.4,15.7,15.5C15.7,15.5,15.7,15.4,15.7,15.5z"/>
	<path fill="#AB816E" d="M16.6,16.8c-0.1,0.1-0.2,0.2-0.2,0.2c-0.1-0.3-0.4-1.2-0.3-1.5c0-0.1,0.1-0.1,0.1-0.1c0.1,0,0.2,0,0.4,0
		c0.7,0.5,0.8,0.6,0.4,1.1C16.8,16.6,16.7,16.7,16.6,16.8C16.5,16.9,16.7,16.7,16.6,16.8z"/>
	<path fill="#BA998D" d="M16.1,15.5c-0.1,0.6,0.9,0.8,0.1,1.3C16.1,16.9,16,17,15.7,17C16.1,16.7,15.6,14.9,16.1,15.5
		C16.1,15.7,16,15.4,16.1,15.5z"/>
	<path fill="#776465" d="M14.2,18.4c-0.3,0-1.2-0.4-0.6-0.5c0.4-0.1,0.9,0,1.2,0c0.1,0.3-0.2,0.3-0.4,0.5
		C14.3,18.3,14.3,18.4,14.2,18.4C14.1,18.4,14.3,18.4,14.2,18.4z"/>
	<path fill="#7A6057" d="M17.7,18.1c0,0.2,0,0.3,0,0.5c-0.4-0.1-1.9-1.4-0.6-1.5c0,0,0.7,0.6,0.6,0.6C17.8,17.8,17.8,18,17.7,18.1
		C17.7,18.3,17.8,18,17.7,18.1z"/>
	<path fill="#946B55" d="M17.1,17.1c-0.1,0.1-0.2,0.2-0.2,0.2c0.1-1,0.3-1.2-0.4-1.9c0.2-0.3,0.5-0.2,0.8-0.1
		C17.7,15.9,17.6,16.5,17.1,17.1C17,17.2,17.6,16.5,17.1,17.1z"/>
	<path fill="#AA8C7B" d="M17.7,18.1c0-0.5-0.2-1.2,0.4-1.6c0.5,0.3,0.5,0.7,0.1,1.3C18,18,17.9,18.2,17.7,18.1
		C17.7,17.9,17.9,18.2,17.7,18.1z"/>
	<path fill="#122530" d="M7.2,16.9c0,0.4,0,0.9-0.1,1.3c-1,0.9-0.6-2.5-0.6-1.9C6.9,16.3,7,16.7,7.2,16.9C7.2,17.2,7,16.7,7.2,16.9z
		"/>
	<path fill="#876041" d="M20.9,15.6c0,0.7,0,1.4,0,2.2c-0.1,0.4-0.7,0.4-0.8,0.8c-0.7-0.1-1-0.7-1-1.4
		C19.9,16.3,19.9,16.1,20.9,15.6z"/>
	<path fill="#91674D" d="M20.9,15.6c-0.6,0.5-1.1,1.2-1.8,1.6c-0.3-0.3-0.4-0.6-0.4-1c0.7-0.1,1.7-1.8,2.2-1.7c0,0,0.1,0,0.1,0
		C21.1,14.9,21,15.2,20.9,15.6C20.3,16.1,20.9,15.4,20.9,15.6z"/>
	<path fill="#634B41" d="M18.8,16.2c0,0.1,0,0.2,0,0.2c-0.2,0-0.5-0.3-0.7,0.1c-0.2,0.3-0.1,0.8-0.4,1.1c-1.7,0.7,0.9-3.1,1.2-2.8
		C18.9,15.3,19.1,15.8,18.8,16.2C18.8,16.3,19.1,15.8,18.8,16.2z"/>
	<path fill="#40362B" d="M21,15c0-0.2,0-0.3,0-0.5c0.1,0.4,0.3,0.6,0.7,0.4C21.4,15.4,21.1,15.5,21,15C21,14.8,21,15.1,21,15z"/>
	<path fill="#3C5D5D" d="M4,15.8c0-0.2,0.1-0.3,0.2-0.4c0.2-0.3,0.5-0.3,0.8,0c0.2-0.6,0.2-2.6,1-2.8c0.1,0,0.1,0,0.2,0.1
		c0.3,0.7-1,4.5-1.4,4.2c-0.2-0.4-0.1-0.8,0.1-1.1C4.6,15.6,4.3,15.6,4,15.8C4,15.7,4.2,15.8,4,15.8z"/>
	<path fill="#7FABAA" d="M4.8,15.8c0,0.7,0.2,2.3,0,3C3.7,18.8,3.8,15.9,4.8,15.8C4.8,16.2,4.7,15.8,4.8,15.8z"/>
	<path fill="#49382F" d="M6.1,12.7c0,0-0.1,0-0.1,0c-0.3-0.4-0.5-0.8-0.4-1.3c0,1.1-0.2,0.1-0.4,0.1C5,11.3,5.1,10.2,5.1,9.9
		c-0.2,0.6,4.4,1.3,5.1,2.1c0.1,0.1,0,0.2,0,0.4c0.6-0.2-3,0.9-2.9,0.9C7,12.9,6.6,12.7,6.1,12.7C6.1,12.7,6.6,12.7,6.1,12.7z"/>
	<path fill="#92765D" d="M5.2,9.9c0,0.3-0.1,1.8-0.7,1.9c0.1-0.2,0.2-3.8,0.6-4.1C5.5,7.5,6.8,6.7,7,6.4c0,0.2,0,0.4,0,0.6
		C6.1,8.6,5.4,7.9,5.2,9.9C5.2,10,5.2,9.5,5.2,9.9z"/>
	<path fill="#C0DCD8" d="M5.6,13.3c0.1,0.5-0.2,0.8-0.2,1.3c-0.3,0.3-0.7,0.3-1,0c0-0.4,0.2-0.8,0.5-1.2C5.1,13.2,5.4,13.2,5.6,13.3
		C5.7,13.8,5.4,13.2,5.6,13.3z"/>
	<path fill="#2D3F3C" d="M4.4,14.6c0.3,0,0.7,0,1,0c-0.2,0.4-0.1,0.8-0.4,1.2c-0.1-0.5-0.5-0.3-0.8-0.3C4,15.1,4.1,14.8,4.4,14.6
		C4.7,14.6,4.1,14.8,4.4,14.6z"/>
	<path fill="#A6D4AE" d="M5.7,12C6,12.2,5.9,12.5,6,12.7c0,0-0.1,0.1-0.1,0.1c-0.3,0.2-0.6,0.3-0.9,0C5,12.5,5.1,12.3,5.2,12
		C5.4,11.9,5.5,11.9,5.7,12C6,12.2,5.5,11.9,5.7,12z"/>
	<path fill="#DBE6E9" d="M4.9,12.8c0.3,0,0.6,0,0.9,0c0,0.2-0.1,0.4-0.3,0.5c-0.2,0.2-0.5,0.1-0.8,0.1C4.8,13.2,4.8,13,4.9,12.8
		C5.3,12.8,4.8,13,4.9,12.8z"/>
	<path fill="#C6C0BE" d="M5.7,12c-0.2,0.1-0.3,0-0.5,0c0-0.2,0-0.3,0-0.5c0.3-0.4,0.1,0.1,0.3,0.2c0-0.2,0-0.5,0-0.8
		C5.7,11.3,5.9,11.6,5.7,12C5.5,12.1,5.9,11.6,5.7,12z"/>
	<path fill="#13191A" d="M7.2,16.9c-0.4,0-0.4-0.5-0.7-0.6c-0.1-1.3-1.1-1.1-0.1-2.4c0.5,0,0.6,0.4,0.8,0.7
		C7.4,15.3,7.4,16.1,7.2,16.9C6.8,16.9,7.3,16.6,7.2,16.9z"/>
	<path fill="#22474B" d="M4.7,18c-0.3-1,0.8-3.3,1.2-4.2C6.1,14,6.1,18.2,4.7,18C4.6,17.7,5.3,18.1,4.7,18z"/>
	<path fill="#1D2C2D" d="M5.8,16.2c-0.1-1,0-2,0.3-2.9c0.5-0.1,0.6,0.2,0.5,0.6c-0.4,0.8-0.4,1.5,0,2.3C6.3,16.2,6,16.3,5.8,16.2
		C5.7,15.4,6,16.3,5.8,16.2z"/>
	<path fill="#255E75" d="M5.9,17.6c0.1-0.3,0.2-0.5,0.3-0.9c0.3,0.4,0,0.8,0,1.1C6,18.1,5.9,18,5.9,17.6C6,17.4,5.8,17.8,5.9,17.6z"
		/>
	<path fill="#17495A" d="M5.9,17.6c0,0.2,0.1,0.4,0.4,0.2C5.9,18.3,5.8,18.2,5.9,17.6C5.9,17.9,5.7,17.8,5.9,17.6z"/>
	<path fill="#B7DCD8" d="M21.7,6.1c0-0.4,0-0.9,0-1.3c0.2,0,0.3,0,0.5,0.1c0,0.5,0,1,0,1.4c-0.2-0.1-0.3-0.1-0.4,0.1
		C21.8,6.4,21.8,6.2,21.7,6.1C21.7,5.7,21.8,6.2,21.7,6.1z"/>
	<path fill="#8A705B" d="M19.7,7.8c0.1,0.6-0.1,1.1-0.4,1.7c-0.1,0.2-0.2,0.3-0.5,0.1c0.2-0.4,0.7-2.5,1.3-2.4
		C20,7.4,19.6,7.4,19.7,7.8C19.7,8,19.6,7.4,19.7,7.8z"/>
	<path fill="#4C3129" d="M18.9,9.6c0.2,0,0.3,0,0.5-0.1c0.2,0.8-1.7,1.5-0.6,2.1c0.1,0.2,0,0.4-0.1,0.6c-0.7-0.1-1.3-0.3-1.7-1
		c0.3-0.3,0.7-0.5,1.1-0.6c0.5-0.1,0.3-0.7,0.7-0.9C18.7,9.7,18.8,9.6,18.9,9.6C19,9.6,18.8,9.6,18.9,9.6z"/>
	<path fill="#98725E" d="M18.8,16.2c0-0.6,0-1.1,0-1.7c-0.1,0,2.3,0,2.1-0.1c0,0,0.1,0.1,0.1,0.1C20,15.1,20.1,16.3,18.8,16.2
		C18.7,15.7,19.5,16.3,18.8,16.2z"/>
	<path fill="#BEA59C" d="M19.5,12.1c0.3,0.2,0.5,0.5,0.6,0.8c0,0.4-0.8,1.8-1.4,1.2c-0.2-0.3-0.3-0.6-0.2-1
		C18.9,12.8,19.2,12.4,19.5,12.1C19.7,12.3,19.2,12.4,19.5,12.1z"/>
	<path fill="#CCC0BC" d="M19.5,12.1c-0.1,0.5-0.4,0.9-1,1c0,0,0,0-0.1-0.1c-0.1-0.2-0.1-0.5-0.1-0.7c0.1-0.3,0-1.7,0.4-1.7
		C18.9,10.5,19.8,12.7,19.5,12.1C19.4,12.6,19.3,11.7,19.5,12.1z"/>
	<path fill="#B39182" d="M18.8,14c0.7,0,1.1-0.4,1.3-1.1c0.2,0.2,0.3,0.5,0.4,0.8c-0.1,0.4-1,1.8-1.6,1.2
		C18.7,14.6,18.7,14.3,18.8,14C19,14.2,18.6,14.2,18.8,14z"/>
	<path fill="#A9816B" d="M18.9,14.9c0.7-0.3,1-1,1.6-1.2c0.2,0.2,0.3,0.4,0.4,0.7C20.8,14.4,19.1,15.8,18.9,14.9
		C19.4,14.7,19,15.3,18.9,14.9z"/>
	<path fill="#40302A" d="M19,10.9c-0.1-0.1-0.1-0.2-0.3-0.4c0,0.4-0.1,0.7-0.1,1c-0.7,0.4,0-1.5,0.6-1.7C19,10.2,19,10.5,19,10.9
		C18.9,10.8,19,10.5,19,10.9z"/>
	<path fill="#CBBCA0" d="M5.8,5.4c0,0.3,0.1,0.6-0.2,0.8c-0.6,0,0-0.4-1-0.4C5,5.5,5.4,5.5,5.8,5.4C5.8,5.7,5.4,5.5,5.8,5.4z"/>
	<path fill="#3A2A27" d="M7.6,10.3C7.4,9.7,7,8.6,7.7,8c0.2,0.2,0.1,0.4,0.1,0.6c-0.7,0.7,2,2.6,2.4,1.9c0-0.6,0.1-1.3,0.1-1.9
		c0.4,0,0.9,3.1,0.4,3.2C10.2,11.7,7.2,11.5,7.6,10.3C7.5,10.1,7.5,10.6,7.6,10.3z"/>
	<path fill="#E4C6B7" d="M10.7,5.6c0.5-0.6,1.1-0.8,1.8-0.6c0.3,0.2-0.1,3-0.2,3.2c-0.1,0-0.1,0-0.2,0c0-0.4-0.2-0.8-0.5-1.1
		c-0.4,0.1-0.6,0.4-0.8,0.7C10.8,7.2,10.9,6.4,10.7,5.6C10.8,5.1,10.9,6.4,10.7,5.6z"/>
	<path fill="#EAD3CE" d="M10.8,7.9c2-2.4,1.7,2.7,0,1.3C10.8,8.8,10.8,8.3,10.8,7.9C11.1,7.6,10.8,8.3,10.8,7.9z"/>
	<path fill="#C6917C" d="M10.8,10.2c0-0.2,0-0.4,0-0.6c1.1-0.5,0.4,1.7,1.6,0c-0.4,0.9,0.4-4.1,1.4-3C14.1,7,14.2,7.4,14,7.8
		c-0.9,0.1-0.7,1.4-0.8,2.1C12.9,10.5,10.9,11.4,10.8,10.2C10.8,10,10.8,10.2,10.8,10.2z"/>
	<path fill="#E2C2BD" d="M10.9,9.6c0,0-0.1,0-0.1,0c0-0.1,0-0.2,0-0.4c1.6,0.1,0.4-0.2,1.3-1c0,0,0.1,0,0.1,0
		C12.9,9.3,12,10.7,10.9,9.6C10.9,9.6,11.5,10.2,10.9,9.6z"/>
	<path fill="#D2B8AA" d="M9.6,6.5c0-0.3,0-0.7,0.5-0.7c0.1,0.2,0.2,0.5,0.1,0.7C10,6.3,9.8,6.4,9.6,6.5C9.6,6.1,9.8,6.4,9.6,6.5z"/>
	<path fill="#794E41" d="M10.2,10.5c0.1,0.8-1.2,0.9-1-0.4C8.4,10.3,7,10.1,7.8,8.6C7.8,9.2,9.7,11,10.2,10.5
		C10.3,11.1,10,10.8,10.2,10.5z"/>
	<path fill="#B68776" d="M9.5,9.2c0-0.1,0-0.2,0.1-0.2c0.1,0.4,0.2,0.8,0.7,0.2c0.1,0.2,0.1,0.5,0,0.7C9.7,10.1,9.4,9.8,9.5,9.2
		C9.5,9.1,9.5,9.4,9.5,9.2z"/>
	<path fill="#987466" d="M8.2,8c0.1-0.1,0.6-1,0.6-0.2C8.3,7.8,8.5,8.4,8.2,8.6C8.2,8.4,8.2,8.2,8.2,8C8.3,7.9,8.2,8.2,8.2,8z"/>
	<path fill="#794E41" d="M10.2,9.9c-0.1-0.4-0.1-0.7,0.1-1c0,0.4,0.1,0.8-0.1,1.2C10.2,10.1,10.2,10,10.2,9.9
		C10.2,9.7,10.2,10,10.2,9.9z"/>
	<path fill="#D7A78C" d="M13.8,6.6c-1.3-0.5-0.5,2.8-1.3,3.1C12,8.3,12.8,6.5,12.7,5c-0.1-0.1-0.2-0.2-0.4-0.2
		c0.1-0.2,1.7-0.2,2-0.2C14.4,4.7,13.9,6.5,13.8,6.6C13.3,6.4,14,6.4,13.8,6.6z"/>
	<path fill="#DFB8A7" d="M12.7,5c0.7,0.3-0.2,4.1-0.2,4.7c-0.2,0.8-1.6,0.7-1.6-0.1c1.3-0.1,2.4-3.5,1.6-4.6C12.6,5,12.7,5,12.7,5
		C13.1,5.2,12.7,5,12.7,5z"/>
	<path fill="#C19B81" d="M14.4,4.7c-0.8,0.4-1.6,0.4-2.3,0c0.1-0.2,2.3-0.9,2.6-1c0.1,0,0.1,0,0.1,0.1C15.1,4.2,15,4.5,14.4,4.7
		C14.5,4.7,14.5,4.7,14.4,4.7C13.8,5,14.5,4.7,14.4,4.7z"/>
	<path fill="#AF9078" d="M12.9,4.7c-0.9,0-1.1-0.2-1.8-0.5c0.3,0.1,0.5,0,0.6-0.3c0.2,0,0.5-0.1,0.7,0.1C12.4,4.4,12.9,4.3,12.9,4.7
		C12.6,4.7,12.9,4.3,12.9,4.7z"/>
	<path fill="#BFAA9E" d="M12.9,4.7c-0.5,0-0.6-0.2-0.5-0.6c0.4,0.2,0.8-0.5,1.1,0.2C13.6,5,13.1,4.6,12.9,4.7
		C12.7,4.6,13.1,4.6,12.9,4.7z"/>
	<path fill="#E6CBC3" d="M15.9,6.9c1.7,3.4-2,2.1-1.9,1.3c0.9-1.2,1.1,0.5,1.7,0.1c0.9-0.7-1.3-2.3-1.7-2.8c0-0.1,0-0.1,0-0.2
		C15.2,4.5,15.4,6.2,15.9,6.9C16,7.2,15.6,6.5,15.9,6.9z"/>
	<path fill="#D9B6AA" d="M14.1,8.1c0,0,1.7,1.2,1.9,1.2c0.4-0.5,0.4-1,0.1-1.5c0.2,0.2,0.4,0.3,0.6,0.5c0.1,3.2-1.5,0.2-2.1,0.4
		c-0.3,0.1,0,1-0.6,0.9c-0.1,0-0.1-0.1-0.1-0.1c-0.3-0.7,0.1-1.7,0.1-2.4c0.1,0,0.1,0,0.2,0C14.3,7.5,14.3,7.8,14.1,8.1
		C14.1,8.3,14.3,7.8,14.1,8.1z"/>
	<path fill="#DFBCA5" d="M15.9,6.9c-0.9-0.5-0.4-2.2-1.9-1.6c0,0.2,0.1,0.4-0.1,0.5c-0.7-0.6,0.5-0.9,0.6-1.2
		C14.5,4.8,15.7,5.7,15.9,6.9C15.4,6.7,15.8,6.6,15.9,6.9z"/>
	<path fill="#D4AE8F" d="M15.7,6c-0.6-0.5-0.1-1.5-1.3-1.3c0.3-0.2,0.5-0.5,0.4-1c0.4-0.2,0.7-0.3,0.8,0.2C15.3,4.7,15.7,5.3,15.7,6
		C15.6,5.8,15.7,5.3,15.7,6z"/>
	<path fill="#A67F5B" d="M15.6,4c-0.2-0.3-0.5-0.3-0.8-0.2c-0.1-0.4,0.5-0.6,0.8-0.4c0.1,0.2,0.1,0.4,0.1,0.6C15.7,4,15.7,4,15.6,4
		C15.4,3.7,15.7,4,15.6,4z"/>
	<path fill="#E4C8C3" d="M14.1,9.6c0.3,0-0.1-0.6,0.3-0.5c0.1,0.5,0.7,1.7,0.2,2c0.3-0.1,0.4,0,0.6,0.2C15.6,12,13,11.9,14.1,9.6
		C14.3,9.5,13.7,10.3,14.1,9.6z"/>
	<path fill="#C9A19A" d="M15.1,11.3c-0.2-0.1-0.4-0.1-0.6-0.2c0.2-0.2,0.5-0.3,0.3-0.7c0.4,0.3,0.9,0.5,1.3,0.6
		c-0.1,0.4-0.4,0.8-0.4,1.2c-0.6,0.8,1.2,1.3,0,2.2c-0.8,0.7-2-0.7-1.7-1.5c0.2-0.5,0.7,0.1,1.1-0.5C15.1,12,15.6,11.7,15.1,11.3
		C14.9,11.2,15.6,11.7,15.1,11.3z"/>
	<path fill="#805143" d="M16.1,11.1c-0.1,0-0.2-0.1-0.3-0.1c-0.1-0.2,1-0.7,1.2-1.2c0,0.6-0.2,1-0.4,1.5c-0.1,0-0.1,0-0.2,0
		C16.2,11.2,16.2,11.1,16.1,11.1C16,11,16.2,11.1,16.1,11.1z"/>
	<path fill="#654134" d="M16.5,11.2c0-0.2,0.1-0.3,0.2-0.4c0,0.1,0,0.3,0.1,0.4c0.5,0.5,1.1,0.6,1.7,1c0,0,0,0.1,0,0.1
		c-0.3,0.6-0.8,0.3-1.2,0.5C16.7,12.7,16.3,11.7,16.5,11.2C16.5,11,16.4,11.3,16.5,11.2z"/>
	<path fill="#2E221E" d="M7.6,10.3c1,1.5,2.4,0.4,3.2,1.4c0,0.1-0.1,0.2-0.1,0.2c-1.4,0.7-5.8-1.8-4.9-2.2C6,10,6.2,10.4,6.6,10.3
		c0.2-0.1,0.3-0.3,0.5-0.5C7.2,10,7.3,10.3,7.6,10.3C8.3,11.3,7.3,10.3,7.6,10.3z"/>
	<path fill="#1A1613" d="M6.6,10.3C6,10.5,5.8,10.5,5.8,9.8C5.7,9.6,6.1,8.1,6.4,8C7.7,7.9,6.3,10,6.6,10.3
		C6,10.5,6.4,10.1,6.6,10.3z"/>
	<path fill="#5F4C3F" d="M5.9,9.3c0,0.3-0.1,0.5-0.2,0.7C5.4,10,5.4,10,5.4,9.6C5.3,9.7,5.3,9.8,5.2,9.9C4.8,8.2,5.4,7.8,7,6.9
		C7.1,8,5.8,8,5.9,9.3C5.9,9.5,5.9,9.2,5.9,9.3z"/>
	<path fill="#866651" d="M15.1,3.3c0,0.2-1.7,1-1.3,1c-0.4,0-0.7-0.1-0.9-0.3C13.5,4,14.7,3.3,15.1,3.3C15.1,3.6,14.8,3.3,15.1,3.3z
		"/>
	<path fill="#785C4E" d="M7.3,16.1c-0.3-1-0.3-1.9-0.1-2.9c0.2-0.2,2.1-1.8,2.3-0.4c-0.3,0.4-0.6,0.8-1,1.2
		c-0.1,1.4,1.6,0.4,1.8,2.3c0.1,0-2.4-1.6-1.9-0.6C8,15.5,7.6,15.7,7.3,16.1C7.1,15.6,7.6,15.7,7.3,16.1z"/>
	<path fill="#916A5C" d="M10.3,16.3c-0.1-0.8-0.5-1.2-1.2-1.2c-0.3-0.2-0.3-0.5-0.3-0.8c0.1-0.1,0.3-0.1,0.4,0
		c0.5,0.2,1,0.2,1.5,0.4c0.1,0,0.1,0.1,0.1,0.1c-0.1,0.9,1.2,1.7,1,2.2C11.1,17.1,11,16.7,10.3,16.3C10.1,16,10.8,16.6,10.3,16.3z"
		/>
	<path fill="#BF9E95" d="M12.6,17c-0.1,0-0.2,0-0.2,0c-0.8-0.4-1.4-1-1.7-1.8c0.1-0.4,1.3-0.7,1.6-0.4c0.3,0.7-0.5,1.1,0.2,0
		c0.2-0.1,0.3-0.1,0.5,0c0.2,0.1,0.3,0.2,0.4,0.3c-0.1,0.6-0.3,1.1-0.4,1.7C13,17,12.8,16.9,12.6,17C12.5,17,12.8,16.9,12.6,17z"/>
	<path fill="#AA8070" d="M11.8,14.9c-1,0.4-1,0.4-0.3,1.2c0.3,0.3,0.7,0.5,0.8,0.9c-0.2,0-0.3,0-0.5,0c-0.9-0.5-1.4-1.2-1.6-2
		C10.8,14.8,11.3,14.8,11.8,14.9C10.7,15.3,11.5,14.6,11.8,14.9z"/>
	<path fill="#A37D74" d="M12.6,17c0.1-0.1,0.2-0.2,0.4-0.2c0.1-0.5,0.4-0.8,0.9-0.9c0.2,0.4,0.3,0.8,0.4,1.2
		C13.7,17,13.2,17,12.6,17C12.7,16.9,13.2,17,12.6,17z"/>
	<path fill="#D3C6C2" d="M14.9,15.5c0.2,0,0.4,0,0.6,0C15.9,17.1,14.7,15.9,14.9,15.5C15.1,15.5,14.7,15.9,14.9,15.5z"/>
	<path fill="#A07369" d="M13.5,15.1c-0.2,0-0.3-0.1-0.4-0.2c0.2-0.2,0.4,0,0.8-0.1c-0.7,0-1.4-0.1-2.1-0.3c-0.1-0.1-0.2-0.2-0.1-0.3
		c0.2-0.2,4.4-0.2,4.8-0.2C17.1,14.8,14.1,15.8,13.5,15.1C13.3,15.1,13.7,15.3,13.5,15.1z"/>
	<path fill="#B2897E" d="M13.5,15.1c0.2,0.1,0.5,0.2,0.7,0.2c-0.3,0.4,0.8,1.2,0,1.3c0-1.7-0.9,0.1-1.2,0.1
		C13,16.2,13.1,15.6,13.5,15.1C13.7,15.2,13.4,15.4,13.5,15.1z"/>
	<path fill="#89625B" d="M14.5,15.3c0.4-0.5,0.9-0.7,1.6-0.7c0.2,0.2,0,0.7,0,0.9C15.6,15.4,15.1,15.4,14.5,15.3
		C14.6,15.1,14.9,15.4,14.5,15.3z"/>
	<path fill="#795342" d="M16.1,15.4c0.1-0.2-0.8-0.4,0-0.6c0.3-0.3,0.6-0.4,0.9-0.4c0.1,0,0.1,0,0.2,0.1c0.1,0.2-0.2,0.3-0.2,0.5
		c0.3,0.2,0.6,0,0.8,0.1c0.2,0.2,0.3,0.4,0.5,0.6c-0.3,0.1-0.6,0.2-0.7,0.6c-0.2-0.3,0.2-0.7-0.4-0.8C16.8,15.5,16.5,15.5,16.1,15.4
		C16.2,15.3,16.2,15.5,16.1,15.4z"/>
	<path fill="#815D4B" d="M17.2,15.5c0.9,0,0.2,0.6,0.4,0.8c-0.2,0.3,0.1,0.8-0.4,1c0,0-0.1-0.1-0.1-0.1C17.4,16.6,17.4,16,17.2,15.5
		C18.1,15.4,17.4,15.7,17.2,15.5z"/>
	<path fill="#815D4B" d="M18.3,15.7c-0.3-0.1-0.5-0.3-0.5-0.6c0.1-0.6,0.5-1.1,0.9-1.2C18.9,14.3,18.7,15.5,18.3,15.7
		C17.9,15.7,18.6,15.5,18.3,15.7z"/>
	<path fill="#3C2F29" d="M7.2,13.2c0,0.4-0.1,0.9-0.1,1.3c-0.4-0.4-0.7-0.8-1.1-1.2c0-0.2,0.1-0.4,0.1-0.6
		C6.8,12.5,7.1,12.6,7.2,13.2C7.2,13.6,7.1,12.6,7.2,13.2z"/>
	<path fill="#794E40" d="M9.3,14.4c-0.3-0.1-0.6-0.2-0.8-0.2c-0.3-1.3,0.8-0.3,0.9-1.2c0.1-1-1.5-0.5-1.8-0.2
		c0.5-0.9,1.3-1.1,2.5-0.5c0.2,0.2,0.3,0.3,0.6,0.3c0,0,0.8,2,0.8,2c-0.3,0.7-2.7-1.3-2-0.9C9.2,14,9.5,14.2,9.3,14.4
		C9.1,14.3,9.5,14.2,9.3,14.4z"/>
	<path fill="#3A2A27" d="M10.2,12.7c-0.1-0.2-0.2-0.5-0.1-0.7c0.2,0,0.4-0.1,0.6-0.1C10.9,12.3,10.7,12.6,10.2,12.7
		C10.2,12.6,10.4,12.7,10.2,12.7z"/>
	<path fill="#634539" d="M18.7,13.9c-0.4,0.4-0.7,0.8-0.9,1.2c-0.4,0-0.7,0-1.1,0c-0.1-0.1,0.5-0.8,0.5-0.8c0.3-0.8,0.8-0.6,1.3-1.2
		C18.6,13.3,18.7,13.6,18.7,13.9C18.4,14.3,18.7,13.6,18.7,13.9z"/>
	<path fill="#795342" d="M18.5,13.1c-0.3,0.2-0.9,0.8-1.2,1.3c0.1-0.6,0.1-1.2-0.1-1.8c0.4-0.2,0.9,0,1.3-0.4
		C18.5,12.5,18.5,12.8,18.5,13.1C18.3,13.2,18.5,12.8,18.5,13.1z"/>
	<path fill="#724943" d="M10.2,12.7c0.6-0.3,0.3-0.6,0.6-1c0.4-0.2-0.4-0.8-0.1-1.2c0.5,0.3,0.9,0.4,1.5,0.5c0,0.1,0,0.2-0.1,0.2
		c-0.1,0.1-0.2,0.1-0.2,0.2c-0.3,0.6,1.3-0.2,0.5,0.9C12.1,12.6,10.3,12.8,10.2,12.7C10.4,12.6,10.5,13.2,10.2,12.7z"/>
	<path fill="#84534B" d="M12.1,11.1c-0.4-0.4-1.6,0.6-1.4-0.6c0,0.3,3.2-0.8,3.2-0.8c0,1.1-0.3,1.4-1.3,1.6
		C12.4,11.3,12.3,11.3,12.1,11.1C11.9,10.9,12.3,11.3,12.1,11.1z"/>
	<path fill="#A66F60" d="M13.8,9.7c0-0.1-3.2,2.4-3,0.5c0.3,0.8,2.1,0.4,2.3-0.4c0-0.6,0.3-1,0.8-1.1c0,0.3,0,0.7,0,1
		C13.9,9.8,13.9,9.8,13.8,9.7C13.7,9.3,13.9,9.8,13.8,9.7z"/>
	<path fill="#BA836C" d="M13.9,8.8c-0.4,0.2-0.7,0.6-0.8,1.1c0-1.5,0-2.1,0.8-1.9C13.9,8.2,13.9,8.5,13.9,8.8
		C13.6,8.8,13.9,8.5,13.9,8.8z"/>
	<path fill="#E6CBC3" d="M13.8,5.9c0-0.2,0-0.4,0.1-0.5c0.4,0.4,0.5,0.9,0.1,1.7c0,0-0.1,0-0.1,0C13.8,6.7,13.8,6.3,13.8,5.9
		C13.8,5.7,13.8,6.1,13.8,5.9z"/>
	<path fill="#A18475" d="M13.1,4.1c0.3,0,0.6-0.1,0.7,0.2C13.5,4.4,13.3,4.3,13.1,4.1C13.4,4.1,13.1,4.3,13.1,4.1z"/>
	<path fill="#F1E0DE" d="M14.1,7.1c0-0.6-0.2-1.1-0.1-1.7c0.8,0.1,2.6,2.4,1.8,3.1c-0.3,0.3-0.9-1-1.7-0.4
		C14.1,7.8,14.1,7.4,14.1,7.1C14.1,6.5,14.1,7.4,14.1,7.1z"/>
	<path fill="#D4AEA8" d="M13.9,9.7c0,0,0-0.1,0-0.1c0,0,0.1,0,0.1,0c0.1,0.5,0.9,3.6,1.1,1.7c0.7,0.4,0.1,0.8,0,1.2
		c-0.4,0.2-0.7-0.2-1.1-0.1C13.6,12,14.1,9.1,13.9,9.7C13.9,9.7,13.7,10.4,13.9,9.7z"/>
	<path fill="#B88579" d="M16.5,13.9c-1.3,1.2-2.3,0.4-3.8,0.2c0-0.1,0-0.1,0-0.2c0.3-0.3,0.5-0.5,0.8-0.9c0.2-0.2,0.3-0.5,0.6-0.1
		c0.2,1.1,2.2,2.3,2.2,0.6c0-1-1.7,0-0.6-1.3C16.2,12.6,17,13.2,16.5,13.9C16.3,14.1,16.9,13.4,16.5,13.9z"/>
	<path fill="#D4B8B3" d="M15.2,14.2c-0.6-0.4-0.6-0.7,0-0.9C15.7,13.6,15.7,13.9,15.2,14.2C14.9,14.1,15.5,14.2,15.2,14.2z"/>
	<path fill="#DCBFBA" d="M14.2,12.4c0.3-0.1,0.7,0,1,0.1c-0.3,0.7-0.7,0.8-1,0.4C14,12.7,14.1,12.5,14.2,12.4
		C14.5,12.2,14.1,12.5,14.2,12.4z"/>
	<path fill="#C68F82" d="M14.2,12.4c0.1,0.2,0,0.3,0,0.5c-0.1,0.1-0.6,0.3-0.7,0.4c-0.1-0.3-0.2-0.6-0.2-1c0.3-0.1,0.5-0.3,0.8-0.3
		C14.1,12,14,12.2,14.2,12.4C14.3,12.5,14,12.2,14.2,12.4z"/>
	<path fill="#B88579" d="M16.1,11.1c0,0,0.1,0.1,0.1,0.1c-0.1,1-0.3,1.4-0.6,1.1C15.7,11.8,15.7,11.3,16.1,11.1
		C16.1,11.1,15.7,11.3,16.1,11.1z"/>
	<path fill="#AB7161" d="M15.6,12.2c0.4-0.3,0.6-0.6,0.6-1.1c0.1,0,0.2,0,0.2,0c0,0,0.1,0.1,0.1,0.1c0.2,0.2,0.2,0.4,0.1,0.6
		c-0.2,0.3-0.5,0.5-0.9,0.7C15.6,12.5,15.6,12.4,15.6,12.2C16,12,15.6,12.4,15.6,12.2z"/>
	<path fill="#805143" d="M16.5,11.9c0.2-0.2,0.1-0.4,0.1-0.6c0.4,0.2,1.2,2.7,0.6,3.2c0,0-0.1,0-0.1,0
		C16.9,14.3,16.5,11.9,16.5,11.9C16.7,11.7,16.2,12.7,16.5,11.9z"/>
	<path fill="#9B725F" d="M8.4,14.1c0.2,0,0.3,0,0.5,0.1c0.1,0.3,0.2,0.6,0.2,0.8C8.4,15.4,8.3,15.2,8.4,14.1
		C8.6,14.1,8.3,15.2,8.4,14.1z"/>
	<path fill="#654338" d="M9.3,14.4c0.1-1.5,1.6-0.3,1.6,0.4C10.3,14.7,9.7,14.7,9.3,14.4C9.3,14.1,9.3,14.4,9.3,14.4z"/>
	<path fill="#7F544C" d="M10.8,14.8c0.9-0.2,0.4-0.2,0-0.6c0.5-0.4,0.8,0.2,1.2,0.2c0.1,0.2,0.1,0.3,0,0.5c-0.4,0.1-0.8,0.1-1.2,0
		C10.8,14.8,10.8,14.8,10.8,14.8C11,14.7,10.8,14.8,10.8,14.8z"/>
	<path fill="#785C4E" d="M9.5,14.5c0.3,0,0.7,0,1,0.2C10.1,14.7,9.7,14.9,9.5,14.5z"/>
	<path fill="#90645D" d="M12,14.9c0-0.2,0-0.3,0-0.5c0.1,0,2.1,0.1,2.1,0.3C14.1,15.2,12.5,14.9,12,14.9C12,14.7,12.1,14.9,12,14.9z
		"/>
	<path fill="#E5DAD9" d="M12.4,14.9c0,0,0.1,0,0.1,0c0.3,0.8,0.1,1.1-0.6,0.8C11.9,15.3,12,15,12.4,14.9
		C12.4,14.9,12.3,15,12.4,14.9z"/>
	<path fill="#93614E" d="M16.5,11.9c-0.1,1.6,1.3,0.3,0.6,2.6c-0.3,0.2-0.6,0.3-1,0.4c0-0.1,0-0.2,0-0.4c2-1-0.5-1.6-0.1-2.2
		C16.1,12.2,16.3,12,16.5,11.9C16.5,12,16.3,12,16.5,11.9z"/>
	<path fill="#C69485" d="M12.6,14c0,0,0,0.1,0,0.1c-0.2,0-0.4,0-0.6,0c-2.9-1.2,0-2.2,0.5-1.8C12.4,12,12.6,14.2,12.6,14
		C12.6,14.1,12.6,13.7,12.6,14z"/>
	<path fill="#A56F57" d="M16,12.3c0,0.1,2.5,2,0.1,2.2c0.1-0.2,0.4-0.3,0.4-0.6c0.4-1.2-0.7-0.5-0.7-1.3
		C15.8,12.4,15.8,12.4,16,12.3C15.9,12.7,15.8,12.4,16,12.3z"/>
	<path fill="#B8806C" d="M11.5,12.5c-1.1,0.4,0.1,1.1,0.5,1.7c-0.1,0-0.2,0-0.4,0c-0.7-0.1-1.5-1-0.9-1.7
		C11,12.5,11.3,12.5,11.5,12.5C10.8,12.7,11.3,12.5,11.5,12.5z"/>
	<path fill="#9D6A56" d="M10.7,12.5c-0.1,1.4,0.6,0.9,1.1,1.9c-0.4,0-0.6-0.3-1-0.2c-0.3-0.5-0.4-1-0.2-1.6
		C10.6,12.6,10.7,12.5,10.7,12.5C10.7,13.4,10.7,12.5,10.7,12.5z"/>
	<path fill="#C48B7E" d="M13.9,9.7c-0.1,0.7,0.2,1.4,0.1,2c-0.4-0.1-2.7,0.6-2.3-0.4c0-0.1,0.1-0.1,0.2-0.1c0.9,0.2,1.7-0.3,1.8-1.6
		C13.9,9.7,13.9,9.7,13.9,9.7C13.9,10.4,13.9,9.7,13.9,9.7z"/>
	<path fill="#AA7771" d="M11.8,11.4c1,1,1.5-0.3,2.3,0.4c0,0,0,0.1,0,0.1C13.4,13.2,11.3,11.7,11.8,11.4
		C12.4,12,11.7,11.5,11.8,11.4z"/>
	<path fill="#DAC5C2" d="M12.6,11.2c0,0,0.9,0.6,0.1,0.5c-0.3,0-0.5-0.2-0.7-0.4c0,0,0.1-0.1,0.1-0.1C12.3,11.2,12.5,11.2,12.6,11.2
		C12.7,11.3,12.5,11.2,12.6,11.2z"/>
	<path fill="#D5AEA6" d="M12.5,12.4c0.2-0.1,0.5-0.2,0.7-0.1c0.4,0.3,0.3,1.6-0.2,1.8c-0.1,0-0.2,0-0.4,0
		C11.3,13.6,11.7,12.7,12.5,12.4C12.7,12.2,12.3,12.4,12.5,12.4z"/>
	<path fill="#C69485" d="M13,14c0.3-0.2,0.1-0.7,0.5-0.8C13.5,13.6,13.5,13.9,13,14z"/>
	<path fill="#E6CDCB" d="M13.3,12.8c-0.3,0.8-0.7,0.9-1.1,0.3C12.5,12.3,12.9,12.2,13.3,12.8C13.2,13.1,13.2,12.6,13.3,12.8z"/>
</g>
<rect x="0" y="-0.1" fill-opacity="0.62" width="23.9" height="19.8"/>
</svg>
