<?xml version="1.0" encoding="utf-8"?>
<!-- Generator: Adobe Illustrator 18.0.0, SVG Export Plug-In . SVG Version: 6.00 Build 0)  -->
<!DOCTYPE svg PUBLIC "-//W3C//DTD SVG 1.1//EN" "http://www.w3.org/Graphics/SVG/1.1/DTD/svg11.dtd">
<svg version="1.1" id="Layer_1" xmlns="http://www.w3.org/2000/svg" xmlns:xlink="http://www.w3.org/1999/xlink" x="0px" y="0px"
	 viewBox="0 0 3300 1024" enable-background="new 0 0 3300 1024" xml:space="preserve">
<g>
	<path fill="#E73B17" d="M2829.3,253.8c5.1,17,0.6,34.8,3.8,52c1.1,5.9-1,12.9-4.9,17.5c-11.2,13.2-20.7,27.8-32.1,40.8
		c-5.9,6.7-13.8,11.9-18.9,19.7c-1.4,2.1-3.5,4.6-5.7,5.3c-23.2,7.6-43.2,24.5-69.1,24.6c-3.5-0.8-7-1.5-10.4-2.3
		c-0.5-0.9-1.2-1.2-2.2-1c-11.7-5.2-21-12.9-25.8-25.1c-0.3-0.8-0.4-2.1-1-2.4c-20.6-11-26.2-31-32.4-51.3c-2.5-8-6.4-15.5-5.7-24
		c0.5-6-0.8-11.1-3.7-16.3c-4.2-7.6-6.1-16.5-3.4-24.3c7-19.7,14.8-39.7,29.9-54.4c15.6-15.1,34.6-12.4,53-3.8
		c-2,8.3-4.9,16.6-0.5,25.9c7.6-5.3,14.3-9.8,22.3-10.7c12.7-1.4,8.3,12.4,14.2,16.9c7.3-2.5,9.3-16.2,20.5-8.8
		c7,4.6,9.9,12.9,15.8,18.4c7.5-6.8,7.9-15.6,10.6-23.4C2803.7,227.7,2819.3,236,2829.3,253.8z M2810.2,253.3
		c-5.4,0.4-6.6,4.3-6.9,8.2c-0.5,7.6,0.5,15.8,8.5,18.5c4.9,1.6,6.7-4.7,6.8-9C2818.8,263.8,2816.8,257.2,2810.2,253.3z
		 M2648.9,233.4c-0.5,4.1-2.5,9.5,3.2,9.7c8.6,0.2,12.5-7,15.4-13.9c1.3-3.1,1.4-8.5-2.7-8.7
		C2656.2,220.2,2652.1,226.8,2648.9,233.4z M2697.5,256.2c-0.2,4.1-3.3,11,2.9,11.9c7.3,1.1,9.5-6.5,10.9-12.4
		c1.1-4.4,3.3-11.1-3.6-11.8C2701,243.2,2699.2,250.1,2697.5,256.2z M2752.8,264.5c-0.9,6.1-2.5,13.8,3.9,16.5
		c6.2,2.7,7.1-4.7,8.2-9.1c1.5-6,3.2-13.3-4.3-15.9C2755,254,2754.4,260.5,2752.8,264.5z M2796.3,336.9c1.4-7,0.7-13.9-6.5-16.6
		c-4.5-1.7-6.4,3.6-7.1,7.4c-1,6.4,0.1,12.9,6.3,15.8C2794.4,346.1,2794.9,340.4,2796.3,336.9z M2686.2,318.7
		c-0.3,3.7-1.8,9.3,3.6,10.6c7.4,1.9,9.4-5,11.3-10c1.6-4.2,1.5-9.6-4.1-10.5C2690.8,307.7,2688.2,313,2686.2,318.7z M2641.2,300.9
		c-0.2,3.5-2.7,8.9,2.9,9.5c7.3,0.8,10.6-5.5,12.5-11.4c1.1-3.5,2.1-9.6-2.9-9.8C2647,288.7,2642.9,294.1,2641.2,300.9z M2747.8,333
		c0.3-5.3,0.9-11.5-5-13.7c-5.4-2-7.7,3.2-8.7,7.5c-1.2,5.3-1,11.5,4.8,13.7C2744.4,342.6,2746,337.1,2747.8,333z M2711.4,381.1
		c-0.1-4.1,0-8.9-4.7-9.8c-5.2-1.1-8.1,2.8-8.7,7.5c-0.5,3.9,0,8.7,4.5,9.8C2707.9,389.8,2709.8,385.1,2711.4,381.1z"/>
	<path fill="#323988" d="M2783.6,227c-2.7,7.8-3.2,16.6-10.6,23.4c-5.9-5.6-8.8-13.8-15.8-18.4c-11.3-7.5-13.3,6.3-20.5,8.8
		c-5.9-4.6-1.5-18.4-14.2-16.9c-8.1,0.9-14.8,5.4-22.3,10.7c-4.4-9.3-1.6-17.6,0.5-25.9c1.2-1.9,2.4-3.7,3.5-5.6
		c4.5-8.1,8.2-12.8,16.5-2.2c10,12.7,12.8,11.7,18.3-3.4c1.3-3.6,2.9-6.6,6.8-7.2c5.9-0.9,7.1,3.9,9,7.9c-2.4,5.4-7,11.6-1.3,16.3
		c4.4,3.6,10.6,1.4,15-3.1C2786.4,204.2,2781,219.5,2783.6,227z"/>
	<path fill="#8BC2D0" d="M2689.8,410.3c1-0.2,1.7,0.2,2.2,1C2691.2,411,2690.5,410.7,2689.8,410.3z"/>
	<path fill="#ED664F" d="M2810.2,253.3c6.7,4,8.6,10.5,8.4,17.6c-0.1,4.3-1.9,10.6-6.8,9c-8-2.6-9.1-10.8-8.5-18.5
		C2803.5,257.6,2804.8,253.6,2810.2,253.3z"/>
	<path fill="#ED664F" d="M2648.9,233.4c3.2-6.6,7.3-13.3,15.8-12.9c4.1,0.2,4,5.6,2.7,8.7c-2.9,6.9-6.8,14.1-15.4,13.9
		C2646.4,243,2648.4,237.5,2648.9,233.4z"/>
	<path fill="#ED664F" d="M2697.5,256.2c1.6-6,3.4-12.9,10.2-12.3c6.9,0.7,4.7,7.3,3.6,11.8c-1.4,6-3.6,13.5-10.9,12.4
		C2694.2,267.2,2697.3,260.3,2697.5,256.2z"/>
	<path fill="#ED664F" d="M2752.8,264.5c1.6-4,2.3-10.5,7.9-8.5c7.5,2.6,5.8,9.9,4.3,15.9c-1.1,4.4-2,11.8-8.2,9.1
		C2750.2,278.3,2751.9,270.6,2752.8,264.5z"/>
	<path fill="#ED664F" d="M2796.3,336.9c-1.4,3.5-1.9,9.2-7.2,6.7c-6.2-2.9-7.3-9.5-6.3-15.8c0.6-3.8,2.6-9.2,7.1-7.4
		C2796.9,323.1,2797.6,330,2796.3,336.9z"/>
	<path fill="#ED664F" d="M2686.2,318.7c2-5.8,4.6-11,10.9-9.9c5.5,0.9,5.7,6.3,4.1,10.5c-2,5-4,11.9-11.3,10
		C2684.4,328,2685.9,322.4,2686.2,318.7z"/>
	<path fill="#ED664F" d="M2641.2,300.9c1.8-6.8,5.8-12.1,12.5-11.7c5,0.3,4,6.3,2.9,9.8c-1.9,6-5.1,12.2-12.5,11.4
		C2638.4,309.8,2640.9,304.3,2641.2,300.9z"/>
	<path fill="#ED664F" d="M2747.8,333c-1.8,4.1-3.4,9.6-8.9,7.5c-5.9-2.2-6-8.3-4.8-13.7c1-4.3,3.3-9.5,8.7-7.5
		C2748.7,321.5,2748.1,327.7,2747.8,333z"/>
	<path fill="#ED664F" d="M2711.4,381.1c-1.6,4-3.6,8.7-8.9,7.5c-4.5-1-5-5.9-4.5-9.8c0.6-4.7,3.5-8.6,8.7-7.5
		C2711.5,372.2,2711.3,376.9,2711.4,381.1z"/>
</g>
<g>
	<path fill="#D2DE24" d="M601.3,573.3c26.4,0.9,48.5,11.8,67.9,29c0.7,0.6,1.5,1.3,2.2,1.9l0,0c0.6,0.6,1.3,1.3,1.9,1.9l0,0
		c0.6,0.6,1.3,1.3,1.9,1.9l0,0c19.9,26.1,29,55.1,23.5,88c-7.6,33.9-27.2,58.5-57.7,74.6c-20.3,8-41.1,12.3-63,7.6
		c-8-1.7-15.8-4-23.7-6c-20.2-11.8-38-26.1-49.2-47.4c-36.1-69,13.6-151.6,91.5-151.6c0.2,1.7,0.3,3.3,0.5,5
		c-21.4,2.1-33.2,16.7-42,33.8c-7.3,14.2-16.6,26.1-28.7,36.4c-20,17.1-23.4,40-17.8,63.7c8.8,36.6,37,54.1,76.4,49.8
		c5.3,4.6,17.3,4.8,22.9,0.2c25.4,4,47.2-1.3,64.2-22.2c21.3-26.3,22.1-67.3-1.1-88.1c-14.8-13.3-26.1-28.2-35.3-45.6
		c-7.6-14.2-18.7-25-35.5-28C600.6,576.6,601,574.9,601.3,573.3z"/>
	<path fill="#4B351B" d="M597.1,578.3c-0.2-1.7-0.3-3.3-0.5-5c1.4-10,2.7-20.1,4.3-30c0.4-2.9-0.9-4.8-2.4-6.9c-1.5-2.1-3-4.7,0-6.5
		c2.9-1.7,6.1-1.6,9,0.3c2.5,1.6,3.1,3.7,1.5,6.5c-6.6,11.4-6.6,24.1-7.7,36.7c-0.3,1.7-0.7,3.3-1,5
		C599.2,578.3,598.2,578.3,597.1,578.3z"/>
	<path fill="#8BCEDE" d="M671.4,604.2c-0.7-0.6-1.5-1.3-2.2-1.9C669.9,602.9,670.7,603.5,671.4,604.2z"/>
	<path fill="#8BCEDE" d="M673.3,606.1c-0.6-0.6-1.3-1.3-1.9-1.9C672,604.8,672.6,605.5,673.3,606.1z"/>
	<path fill="#8BCEDE" d="M675.2,608c-0.6-0.6-1.3-1.3-1.9-1.9C673.9,606.7,674.5,607.4,675.2,608z"/>
	<path fill="#DBE199" d="M597.1,578.3c1.1,0,2.1,0,3.2,0c16.8,3,28,13.8,35.5,28c9.2,17.3,20.6,32.3,35.3,45.6
		c23.2,20.9,22.4,61.8,1.1,88.1c-17,20.9-38.8,26.3-64.2,22.2c-7.6-5.5-15.2-5.4-22.9-0.2c-39.4,4.3-67.6-13.2-76.4-49.8
		c-5.7-23.7-2.2-46.6,17.8-63.7c12-10.3,21.3-22.2,28.7-36.4C563.9,595,575.8,580.3,597.1,578.3z M597.8,655
		c-4.5,13.2-3.5,74.6,0,79.6C597.8,709.3,597.8,683.5,597.8,655z M606.9,692.4c-1.5,7.2-1.5,12.9-0.6,18.6c0.7,4.1,1.8,8.9,7.8,6.8
		c5-1.8,6.8-5.6,4.7-10.7C616.5,701.3,612.5,697,606.9,692.4z M588.7,691.7c-6.1,5.8-10.4,10.3-13.2,15.9c-2.4,4.6-2.3,8.9,3,11
		c5.9,2.3,8.3-2.2,9-6.7C588.6,706.1,588.3,700,588.7,691.7z"/>
	<path fill="#4B351B" d="M585.1,761.9c7.7-5.1,15.3-5.3,22.9,0.2C602.4,766.7,590.5,766.6,585.1,761.9z"/>
	<path fill="#E1E763" d="M597.8,655c0,28.5,0,54.3,0,79.6C594.3,729.6,593.3,668.2,597.8,655z"/>
	<path fill="#4B351B" d="M606.9,692.4c5.6,4.6,9.6,9,11.9,14.7c2.1,5.1,0.3,8.9-4.7,10.7c-6,2.1-7.1-2.7-7.8-6.8
		C605.4,705.3,605.4,699.6,606.9,692.4z"/>
	<path fill="#4B351B" d="M588.7,691.7c-0.4,8.4-0.2,14.4-1.2,20.2c-0.7,4.4-3.2,9-9,6.7c-5.3-2.1-5.4-6.4-3-11
		C578.4,701.9,582.6,697.5,588.7,691.7z"/>
</g>
<g>
	<path fill="#D2DE24" d="M2379.8,971.9c-34-20-58.8-47.7-70.1-86.1c-17.7-60.2,5.6-123.5,57.9-158.3c51.2-34.1,118.7-30.6,167.3,8.6
		c2.4,1.9,4.8,3.7,7.2,5.6c1,0.9,2.1,1.8,3.1,2.7l-0.1-0.1c0.9,0.9,1.8,1.8,2.7,2.7l-0.1-0.1c0.9,0.9,1.8,1.8,2.7,2.7l0,0
		c25.8,31.2,38.5,66.8,36.7,107.4c-7.1,55.5-36,95.4-86.4,119.7C2459.7,992,2419.4,990.2,2379.8,971.9z M2321.9,845.3
		c0.1,69.1,54.8,124.2,123.4,124.2c68.7,0,123.8-55.2,123.7-124.1c-0.1-68.6-55.9-124.2-124.2-123.8
		C2376.8,722.1,2321.8,777.3,2321.9,845.3z"/>
	<path fill="#8BCEDE" d="M2550.4,749.6c-0.9-0.9-1.8-1.8-2.7-2.7C2548.6,747.8,2549.5,748.7,2550.4,749.6z"/>
	<path fill="#8BCEDE" d="M2547.8,747c-0.9-0.9-1.8-1.8-2.7-2.7C2546,745.2,2546.9,746.1,2547.8,747z"/>
	<path fill="#8BCEDE" d="M2545.2,744.4c-1-0.9-2.1-1.8-3.1-2.7C2543.2,742.6,2544.2,743.5,2545.2,744.4z"/>
	<path fill="#F6F3DF" d="M2321.9,845.3c-0.1-68,54.9-123.2,122.9-123.6c68.3-0.4,124.1,55.2,124.2,123.8
		c0.1,68.8-55,124.1-123.7,124.1C2376.7,969.4,2321.9,914.4,2321.9,845.3z M2435.5,833.5c0.8-0.9,1.7-1.9,2.5-2.8
		c-3.8-9.2-7-18.7-11.4-27.6c-8.4-17.2-14.9-35.5-27.3-50.4c-8.4-10.1-17.4-9-30.1,3c-19.9,18.6-22.9,27.4-13.2,37.5
		c0.3,0.3,0.6,0.6,1,0.9C2381.1,811.6,2408,823.2,2435.5,833.5z M2431.9,843.3c-27.8-12.7-55-26-85.6-29.2
		c-10.2-1.1-14.1,5.8-15.4,14.1c-1.6,9.9-1.5,20,0.2,29.9c1.8,10.6,7.8,16.9,19,14.7C2378.6,867.5,2405.5,857.1,2431.9,843.3z
		 M2350.6,906c3.2,12.9,14.3,22,25.8,30.6c9.2,6.8,17.5,4.7,23.6-4.3c14.4-21.5,24.6-45.1,34.5-68.9c1-2.3,2-5.2-0.1-7.4
		c-2.3-2.3-4.9-0.4-7.2,0.5c-22.9,9.6-45.9,19.2-67,32.5C2355,892.5,2350.5,896.6,2350.6,906z M2446,857.8
		c-12.7,29.8-24.6,57.2-28.9,87c-1.1,7.9,4.7,12.5,12.3,14.6c11.2,3.1,22.4,2.4,33.6,0.2c10.5-2.1,14.7-8.5,13.2-18.8
		c-2.2-15.2-8-29.4-12.9-43.8C2459,884.4,2455,871.6,2446,857.8z M2465.6,856.9c-8,0.1-7.4,3.9-6,7.2c9.9,24.2,19.9,48.3,35,69.8
		c3.6,5.2,9,9.5,15.6,6.8c15.2-6.1,25.5-17.7,32.3-32.3c1.5-3.1,1.1-7.4-1.6-9.9C2518.9,877.6,2489.9,869.4,2465.6,856.9z
		 M2564,846.7c-0.9-5.5-1.7-11-2.6-16.6c-1.6-10-7.7-14.5-17.5-13c-26.4,4.1-51,14.2-75.5,24.4c-5,2.1-5.6,5.5,0.1,8
		c24.3,10.7,49.1,20.3,75.2,25.5c9.6,1.9,16-2.6,17.8-12.6C2562.3,857.2,2563.1,852.1,2564,846.7z M2542.9,783.8
		c-2.9-10.5-11.8-19.4-21.9-27.1c-12.9-9.9-18.6-9.4-28,4.1c-13.8,19.8-22.6,42.2-32.1,64.3c-2.9,6.7-1.3,11,6.6,7.8
		c23.9-9.6,47.4-20.1,69-34.4C2540.6,795.7,2543.4,791.8,2542.9,783.8z M2448.6,731c0-0.2,0-0.3,0-0.5c-4.8,0.2-9.6,0-14.3,0.7
		c-10.7,1.6-16.9,7.7-14.7,18.9c5.1,25.2,14.3,49.2,24.4,72.8c2.4,5.5,5.8,6.8,8.6,0.4c10.4-23.5,19.7-47.4,24.6-72.7
		c2.3-11.8-4.3-18-15.6-19.5C2457.3,730.5,2452.9,731,2448.6,731z"/>
	<path fill="#E1E763" d="M2435.5,833.5c-27.5-10.3-54.4-21.9-78.5-39.4c-0.4-0.3-0.7-0.6-1-0.9c-9.8-10.2-6.7-18.9,13.2-37.5
		c12.7-11.9,21.7-13.1,30.1-3c12.4,14.9,18.9,33.2,27.3,50.4c4.4,8.9,7.6,18.4,11.4,27.6C2437.2,831.7,2436.3,832.6,2435.5,833.5z"
		/>
	<path fill="#E1E763" d="M2431.9,843.3c-26.4,13.8-53.3,24.2-81.9,29.6c-11.2,2.1-17.2-4.2-19-14.7c-1.6-9.9-1.7-20-0.2-29.9
		c1.3-8.3,5.3-15.2,15.4-14.1C2376.9,817.3,2404.1,830.6,2431.9,843.3z"/>
	<path fill="#E1E763" d="M2350.6,906c-0.1-9.4,4.4-13.6,9.7-16.9c21.1-13.3,44-23,67-32.5c2.3-0.9,4.9-2.8,7.2-0.5
		c2.1,2.1,1.1,5,0.1,7.4c-9.9,23.8-20.1,47.4-34.5,68.9c-6.1,9-14.4,11.1-23.6,4.3C2364.8,928,2353.7,918.9,2350.6,906z"/>
	<path fill="#E1E763" d="M2446,857.8c9,13.8,13.1,26.6,17.3,39.2c4.9,14.4,10.7,28.6,12.9,43.8c1.5,10.3-2.6,16.7-13.2,18.8
		c-11.3,2.2-22.4,3-33.6-0.2c-7.5-2.1-13.4-6.7-12.3-14.6C2421.4,914.9,2433.3,887.5,2446,857.8z"/>
	<path fill="#E1E763" d="M2465.6,856.9c24.4,12.4,53.3,20.7,75.3,41.6c2.6,2.5,3,6.7,1.6,9.9c-6.9,14.6-17.1,26.2-32.3,32.3
		c-6.6,2.6-12-1.7-15.6-6.8c-15.1-21.5-25.1-45.6-35-69.8C2458.2,860.8,2457.5,857,2465.6,856.9z"/>
	<path fill="#E1E763" d="M2564,846.7c-0.9,5.4-1.6,10.6-2.5,15.7c-1.8,10-8.2,14.5-17.8,12.6c-26.2-5.2-50.9-14.7-75.2-25.5
		c-5.7-2.5-5-5.9-0.1-8c24.5-10.3,49.1-20.3,75.5-24.4c9.8-1.5,15.9,2.9,17.5,13C2562.2,835.6,2563.1,841.2,2564,846.7z"/>
	<path fill="#E1E763" d="M2542.9,783.8c0.5,8-2.3,11.9-6.4,14.6c-21.6,14.3-45.1,24.8-69,34.4c-7.9,3.2-9.5-1.1-6.6-7.8
		c9.5-22,18.3-44.5,32.1-64.3c9.4-13.5,15.1-14,28-4.1C2531.1,764.4,2539.9,773.3,2542.9,783.8z"/>
	<path fill="#E1E763" d="M2448.6,731c4.3,0,8.7-0.5,13,0.1c11.3,1.4,17.9,7.7,15.6,19.5c-4.9,25.3-14.2,49.2-24.6,72.7
		c-2.8,6.4-6.3,5.2-8.6-0.4c-10.1-23.6-19.3-47.6-24.4-72.8c-2.2-11.2,3.9-17.3,14.7-18.9c4.7-0.7,9.5-0.5,14.3-0.7
		C2448.6,730.6,2448.6,730.8,2448.6,731z"/>
</g>
<g>
	<path fill="#FC0891" d="M1456.4,887.1c-17.5,23.3-40.2,37.7-69.7,39.6c-38.2,2.5-73.4-18.8-88.9-53.7
		c-15.4-34.6-7.9-74.5,19.2-101.4c1.8-1.8,3.6-3.5,5.3-5.3c1.8-0.9,3.7-1.9,4.5-4c0,0,0,0.2,0,0.2c22.1-14.4,46.2-20.1,72.4-15.7
		c1.1,0.2,2.1,0.5,3.2,0.7c2,1.5,4.3,1.8,6.7,1.9c26.1,9.6,44.9,27.2,56.4,52.6C1475.8,831.8,1472.9,860.2,1456.4,887.1z
		 M1311,873.6c0.7,2.9,2.3,5.3,4.5,7.4c0.7,2.3,2.2,3.9,4,5.3c0.6,0.7,1.3,1.4,1.9,2l-0.2-0.1c22.5,28.4,68,36.1,98.3,16.7l-0.1,0.1
		c7.6-3.2,13.7-8.4,18.8-14.7l-0.1,0.1c25-23.5,29.5-67.9,9.7-96l0.1,0.1c-2.8-5.9-6.8-10.9-12-14.9l0.1,0.1
		c-28.7-31.4-84.7-30.4-112.5,1.9l0.1-0.1C1299.6,803.9,1293.9,845.6,1311,873.6L1311,873.6z"/>
	<path fill="#8BCEDE" d="M1326.7,762.3c-0.8,2.1-2.6,3.1-4.5,4C1322.9,764,1324.1,762.4,1326.7,762.3z"/>
	<path fill="#E4E7EF" d="M1319.5,886.4c-1.8-1.4-3.3-3.1-4-5.3c0.6-3.7,0.1-6.8-4.5-7.4c0,0,0.1,0.1,0.1,0.1
		c1.3-5.1-1.6-9.2-3.1-13.6c-6.8-20.1-4.3-39.3,4.3-58.4c3.2-7.1,10.2-12,11.3-20.1c0,0-0.1,0.1-0.1,0.1c4.6,0.8,7.2-2.7,10-5.2
		c23.7-21.6,66.2-21.1,90.5-3.6c3.7,2.7,6.7,7,12.1,6.9l-0.1-0.1c1.5,7,5.2,12.2,12,14.9c0,0-0.1-0.1-0.1-0.1
		c-1.1,2.9,0.3,5.4,1.5,8c12.9,28.4,10.5,55.3-7.8,80.6c-1.7,2.3-3.6,4.3-3.3,7.4c0,0,0.1-0.1,0.1-0.1c-8.5,2.1-14.6,7.2-18.8,14.7
		c0,0,0.1-0.1,0.1-0.1c-3.2-0.9-6,0.4-8.9,1.5c-29.9,11.1-57.4,7.8-81.7-13.9c-2.3-2.1-4.2-4.5-7.7-4.3c0,0,0.2,0.1,0.2,0.1
		C1320.8,887.7,1320.1,887.1,1319.5,886.4z M1376.2,867c-2.4,3.6-4.6,5.9-2,9c0.8,1,2.1,0.8,2.9,0
		C1379.4,873.2,1378.2,870.7,1376.2,867z M1439.3,840.1c2.9,2.5,5.4,4,8.6,2c1.1-0.7,1.1-2.2,0.3-2.9
		C1445.5,836.8,1442.8,837.7,1439.3,840.1z M1413.4,775.8c-2.8,0.3-3.4,2.5-4,4.6c-0.4,1.3-0.7,3.4,1,3.4c2.7,0,4.2-2.3,4.9-4.8
		C1415.8,777.5,1414.8,776.4,1413.4,775.8z M1396.7,892.3c-2.1,3.3-1.8,6.1,0.7,8.4c1.1,1,2.9,0.4,3.3-1.1
		C1401.5,896.2,1399.6,894.1,1396.7,892.3z M1418.2,879.6c1.2,4.2,1.8,7.1,5.2,8.1c0.6,0.2,2.4-1.1,2.4-1.7
		C1425.8,882.3,1423,881.1,1418.2,879.6z M1383.4,827.9c2.2-2.8,4.4-5.2,1.9-8.7c-0.8-1.2-2.3-0.7-2.8,0.1
		C1380.5,822.1,1380.7,824.9,1383.4,827.9z M1399.7,839.7c-0.4-2.3-2-3.2-4.1-2.9c-1.7,0.3-4.5-0.3-4.2,2.5c0.2,2.1,2.9,2.3,4.7,2.6
		C1397.6,842.3,1399.2,841.8,1399.7,839.7z M1355.3,855.2c-3.9-0.7-6.4,0.5-7.9,3.5c-0.7,1.5,0.7,2.9,2,2.8
		C1352.9,861.2,1354.2,858.5,1355.3,855.2z M1364.8,779.8c1.6-4.3,1.9-7-0.5-9.4c-0.8-0.8-2.2-0.7-2.9,0.4
		C1359.3,774.2,1362.1,776.1,1364.8,779.8z M1350.4,830.4c-4.9-1.6-7.2-4.2-10.3-1.5c-0.9,0.8-0.8,2.1,0.2,2.9
		C1343.2,834.1,1345.8,832.9,1350.4,830.4z M1399.3,861.3c1.6,3.8,1.5,7.1,5.4,7.7c1.2,0.2,2.3-1,2.1-2
		C1406.4,863.6,1404.2,862,1399.3,861.3z M1425.5,797.2c3.7,0,6.3-0.9,7.4-4.1c0.5-1.5-0.6-2.9-2.2-2.7
		C1427.3,791.1,1425.9,793.5,1425.5,797.2z M1406.1,816.6c4.3-0.6,7.1-1.3,8.3-4.6c0.2-0.6-1.2-2.3-1.8-2.3
		C1408.9,809.6,1407.6,812.2,1406.1,816.6z M1437.4,819.9c3.5,1.3,6.3,1.6,8.6-0.9c1-1.1,0.5-2.9-1-3.3
		C1441.6,814.8,1439.5,816.7,1437.4,819.9z M1329.7,806.7c-1.6-3.7-3.3-6.1-6.9-5.6c-1,0.1-2,1.3-1.5,2.5
		C1322.8,807.1,1325.6,807.4,1329.7,806.7z"/>
	<path fill="#F6F3DF" d="M1436,779.7c-5.4,0.2-8.4-4.2-12.1-6.9c-24.2-17.5-66.7-18-90.5,3.6c-2.7,2.5-5.4,6-10,5.2
		C1351.4,749.3,1407.3,748.4,1436,779.7z"/>
	<path fill="#F6F3DF" d="M1321.3,888.3c3.5-0.2,5.4,2.2,7.7,4.3c24.3,21.7,51.8,25,81.7,13.9c2.9-1.1,5.7-2.4,8.9-1.5
		C1389.3,924.5,1343.8,916.7,1321.3,888.3z"/>
	<path fill="#F6F3DF" d="M1438.2,890.5c-0.3-3.1,1.6-5.1,3.3-7.4c18.4-25.3,20.8-52.3,7.8-80.6c-1.2-2.6-2.5-5-1.5-8
		C1467.7,822.6,1463.2,867,1438.2,890.5z"/>
	<path fill="#F6F3DF" d="M1323.6,781.5c-1.1,8.2-8.1,13-11.3,20.1c-8.6,19.1-11.1,38.3-4.3,58.4c1.5,4.4,4.3,8.6,3.1,13.6
		C1293.9,845.6,1299.6,803.9,1323.6,781.5z"/>
	<path fill="#F6F3DF" d="M1419.5,905.1c4.2-7.6,10.4-12.6,18.8-14.7C1433.1,896.7,1427.1,902,1419.5,905.1z"/>
	<path fill="#F6F3DF" d="M1448,794.6c-6.7-2.8-10.5-7.9-12-14.9C1441.2,783.6,1445.2,788.6,1448,794.6z"/>
	<path fill="#F6F3DF" d="M1311,873.6c4.6,0.6,5,3.7,4.5,7.4C1313.4,879,1311.8,876.6,1311,873.6z"/>
	<path fill="#F6F3DF" d="M1319.5,886.4c0.6,0.7,1.3,1.4,1.9,2C1320.8,887.7,1320.1,887.1,1319.5,886.4z"/>
	<path fill="#4B351B" d="M1376.2,867c2,3.7,3.2,6.3,0.8,9c-0.7,0.8-2,1.1-2.9,0C1371.6,872.9,1373.8,870.6,1376.2,867z"/>
	<path fill="#4B351B" d="M1439.3,840.1c3.5-2.4,6.2-3.3,8.9-0.9c0.8,0.7,0.8,2.2-0.3,2.9C1444.8,844.1,1442.3,842.6,1439.3,840.1z"
		/>
	<path fill="#4B351B" d="M1413.4,775.8c1.4,0.6,2.4,1.7,1.9,3.2c-0.7,2.4-2.2,4.7-4.9,4.8c-1.7,0-1.5-2-1-3.4
		C1410,778.3,1410.6,776,1413.4,775.8z"/>
	<path fill="#4B351B" d="M1396.7,892.3c2.8,1.8,4.8,3.9,4,7.3c-0.4,1.6-2.2,2.1-3.3,1.1C1394.9,898.4,1394.6,895.6,1396.7,892.3z"/>
	<path fill="#4B351B" d="M1418.2,879.6c4.8,1.5,7.6,2.7,7.6,6.4c0,0.6-1.8,1.9-2.4,1.7C1420.1,886.7,1419.5,883.8,1418.2,879.6z"/>
	<path fill="#4B351B" d="M1383.4,827.9c-2.7-3-3-5.8-1-8.6c0.6-0.8,2-1.3,2.8-0.1C1387.8,822.7,1385.6,825.1,1383.4,827.9z"/>
	<path fill="#4B351B" d="M1399.7,839.7c-0.4,2.1-2,2.6-3.7,2.3c-1.8-0.4-4.4-0.5-4.7-2.6c-0.3-2.8,2.6-2.2,4.2-2.5
		C1397.6,836.5,1399.2,837.4,1399.7,839.7z"/>
	<path fill="#4B351B" d="M1355.3,855.2c-1.1,3.3-2.3,6-5.8,6.3c-1.4,0.1-2.8-1.3-2-2.8C1348.8,855.7,1351.4,854.5,1355.3,855.2z"/>
	<path fill="#4B351B" d="M1364.8,779.8c-2.7-3.6-5.6-5.6-3.4-9.1c0.7-1.1,2.1-1.2,2.9-0.4C1366.8,772.7,1366.5,775.5,1364.8,779.8z"
		/>
	<path fill="#4B351B" d="M1350.4,830.4c-4.7,2.5-7.3,3.6-10.1,1.4c-1-0.8-1.1-2.1-0.2-2.9C1343.2,826.2,1345.6,828.9,1350.4,830.4z"
		/>
	<path fill="#4B351B" d="M1399.3,861.3c4.9,0.7,7.2,2.3,7.5,5.7c0.1,1-0.9,2.2-2.1,2C1400.8,868.4,1400.9,865.1,1399.3,861.3z"/>
	<path fill="#4B351B" d="M1425.5,797.2c0.5-3.7,1.9-6.1,5.2-6.7c1.6-0.3,2.7,1.2,2.2,2.7C1431.7,796.3,1429.1,797.3,1425.5,797.2z"
		/>
	<path fill="#4B351B" d="M1406.1,816.6c1.4-4.4,2.8-7,6.5-6.9c0.7,0,2,1.8,1.8,2.3C1413.3,815.3,1410.4,816,1406.1,816.6z"/>
	<path fill="#4B351B" d="M1437.4,819.9c2.1-3.2,4.2-5.1,7.6-4.2c1.5,0.4,2.1,2.2,1,3.3C1443.7,821.5,1440.9,821.2,1437.4,819.9z"/>
	<path fill="#4B351B" d="M1329.7,806.7c-4.1,0.7-6.9,0.4-8.4-3.1c-0.5-1.3,0.5-2.4,1.5-2.5C1326.4,800.7,1328.1,803,1329.7,806.7z"
		/>
</g>
<g>
	<path fill="#EE551A" d="M2221,758.8c-9.6,38.3-30.8,68.5-63.3,90.8c-10.2,4.6-20.2,10-30.8,13.7c-34.3,12.2-68.2,8.5-101.7-3.5
		c0,0,0.1,0.4,0.1,0.4c-1.1-0.7-2.2-1.4-3.3-2l0,0c-1.8-0.9-3.6-1.8-5.5-2.7c-40.3-23.9-66.6-57.7-74.1-104.7
		c-13.3-83.1,50.4-159.8,134.7-162.2c0.9,15.7,1.9,31.4,2.8,47c-7.8,0.6-14.3-3.2-21-6.2c-32.2-14-55-9.2-77.7,18
		c-26,31-34.1,67-27.2,106.4c9.3,53.3,51.8,95.6,105.9,106c50.6,9.7,104.7-15.1,133-61c28.3-45.7,25.8-106.3-6.2-147.4
		c-14.9-19.1-33.3-31.9-58.7-31c3.8-6.6,7.6-13.1,11.4-19.7c13.9,4.6,24.8,14.1,36.5,22.2c1,0.9,2,1.8,3,2.7l-0.2-0.1
		c0.9,0.9,1.9,1.8,2.8,2.7l-0.1-0.1c0.9,0.9,1.8,1.8,2.7,2.6l0,0c0.9,0.9,1.7,1.8,2.6,2.7l0,0c27.4,32.5,41.5,70.2,36.5,112.4
		c-0.2,1.6-0.5,3.2-0.8,4.8C2222,753.3,2221.5,756,2221,758.8z"/>
	<path fill="#D2DE24" d="M2139.4,600.7c-3.8,6.6-7.6,13.1-11.4,19.7c-13.9,3.4-26,12-40.4,14.3c0.3-9.3,0.6-18.6,0.9-27.9
		c7.3-6.8,17.1-9.2,25.3-14.4c5.8-1.7,11.6-3.2,17.3-5.2c8.6-3,13.7-2.6,9.3,8.5C2139.8,597.2,2139.7,599,2139.4,600.7z"/>
	<path fill="#4B351B" d="M2088.6,606.7c-0.3,9.3-0.6,18.6-0.9,27.9c-2.6,0.3-5.1,0.6-7.6,0.8c-0.9-15.7-1.9-31.4-2.8-47
		c1.8-2.9-1.2-8.5,4.4-9c6.8-0.6,3.9,5.9,5.8,9C2087.1,594.6,2085.6,600.8,2088.6,606.7z"/>
	<path fill="#EE551A" d="M2088.6,606.7c-3-5.9-1.5-12.2-1.2-18.3c9,0.1,18,0.6,26.5,3.9C2105.7,597.5,2095.9,600,2088.6,606.7z"/>
	<path fill="#8BCEDE" d="M2016.5,855.4c1.8,0.9,3.6,1.8,5.5,2.7C2020.2,857.2,2018.4,856.3,2016.5,855.4z"/>
	<path fill="#8BCEDE" d="M2186.8,633.2c-0.9-0.9-1.7-1.8-2.6-2.7C2185,631.5,2185.9,632.4,2186.8,633.2z"/>
	<path fill="#8BCEDE" d="M2184.2,630.6c-0.9-0.9-1.8-1.8-2.7-2.6C2182.4,628.8,2183.3,629.7,2184.2,630.6z"/>
	<path fill="#8BCEDE" d="M2181.6,628c-0.9-0.9-1.9-1.8-2.8-2.7C2179.7,626.3,2180.6,627.1,2181.6,628z"/>
	<path fill="#8BCEDE" d="M2178.9,625.5c-1-0.9-2-1.8-3-2.7C2176.9,623.7,2177.9,624.6,2178.9,625.5z"/>
	<path fill="#8BCEDE" d="M2022,858.2c1.1,0.7,2.2,1.3,3.3,2C2024.2,859.5,2023.1,858.8,2022,858.2z"/>
	<path fill="#F6F3DF" d="M2080,635.5c2.5-0.3,5.1-0.6,7.6-0.8c14.4-2.2,26.4-10.9,40.4-14.3c25.5-0.8,43.9,11.9,58.7,31
		c32,41.1,34.4,101.7,6.2,147.4c-28.4,45.9-82.5,70.7-133,61c-54.1-10.4-96.6-52.7-105.9-106c-6.9-39.4,1.3-75.5,27.2-106.4
		c22.7-27.1,45.5-32,77.7-18C2065.7,632.2,2072.2,636,2080,635.5z M2107,726c0.1-2.9-1.1-5.6-3.1-5.1c-6.2,1.5-8.7,6.6-9.6,12.4
		c-0.4,2.3,0.7,5,3.1,4.5C2103.9,736.6,2105.6,731,2107,726z M2097.4,777.7c-3.1-0.5-4.3,1.4-4.3,3.6c0.2,5.4,2.6,9.9,7.2,12.8
		c2.5,1.6,4.2-0.5,4.3-2.7C2104.9,785.4,2102.2,780.8,2097.4,777.7z M2103,764.3c4.2-0.1,9.3,0,10-4.3c0.8-5.1-4.7-5.3-8.3-5.5
		c-3.7-0.3-8.9-0.2-9.5,4.3C2094.4,763.9,2099.7,763.7,2103,764.3z M2068.1,733c-1.2-4.8-2.5-10.2-8.2-11.8c-3.5-1-4.2,2.3-3.7,4.9
		c1,5.1,3,10.2,8.6,11.6C2067,738.3,2068.1,735.7,2068.1,733z M2069.1,782c-0.4-2.4-0.7-5.3-3.5-4.2c-5.3,2.1-6.9,7.1-7.3,12.3
		c-0.2,2.1,0.5,5,3.3,3.9C2067,792,2068,786.8,2069.1,782z M2058.8,764.3c3.6-0.5,8.6,0,8.5-5.2c-0.1-4.2-4.8-4.6-8-4.6
		c-3.7,0-8.8,0.1-8.5,5.3C2050.9,763.8,2055.4,764,2058.8,764.3z"/>
	<path fill="#4B351B" d="M2107,726c-1.4,5-3.2,10.6-9.6,11.8c-2.4,0.5-3.5-2.3-3.1-4.5c0.9-5.8,3.4-10.9,9.6-12.4
		C2106,720.4,2107.2,723.1,2107,726z"/>
	<path fill="#4B351B" d="M2097.4,777.7c4.8,3.1,7.5,7.8,7.2,13.7c-0.1,2.2-1.8,4.3-4.3,2.7c-4.6-2.9-7-7.4-7.2-12.8
		C2093,779.1,2094.2,777.1,2097.4,777.7z"/>
	<path fill="#4B351B" d="M2103,764.3c-3.4-0.6-8.6-0.3-7.9-5.5c0.6-4.5,5.8-4.6,9.5-4.3c3.6,0.3,9.1,0.4,8.3,5.5
		C2112.4,764.2,2107.2,764.1,2103,764.3z"/>
	<path fill="#4B351B" d="M2068.1,733c0.1,2.6-1.1,5.3-3.2,4.7c-5.7-1.4-7.6-6.5-8.6-11.6c-0.5-2.6,0.2-5.9,3.7-4.9
		C2065.6,722.9,2066.8,728.3,2068.1,733z"/>
	<path fill="#4B351B" d="M2069.1,782c-1.1,4.7-2.1,10-7.5,12.1c-2.8,1.1-3.5-1.8-3.3-3.9c0.4-5.2,2-10.2,7.3-12.3
		C2068.4,776.8,2068.8,779.7,2069.1,782z"/>
	<path fill="#4B351B" d="M2058.8,764.3c-3.5-0.3-7.9-0.5-8.1-4.5c-0.2-5.2,4.9-5.3,8.5-5.3c3.3,0,7.9,0.3,8,4.6
		C2067.4,764.3,2062.5,763.8,2058.8,764.3z"/>
</g>
<g>
	<path fill="#4B351B" d="M2560.4,123.2c26.3,49.5,24.7,97.9-5.2,145.4c-19.3,26.5-45.4,43.2-76,53.5c0,0,0.1,0.1,0.1,0.1
		c-2.3-1-4.2,0-6.1,1.2c-40.9,5.8-78.7-1.1-111.4-27.6c-44.9-36.3-61.3-96.4-41.3-150.2c19.8-53.4,70.7-87.9,128.1-86.9
		c6.1,0.1,12.3,0.6,18.4,0.8c1.4,0.2,2.7,0.4,4.1,0.7l-0.1,0c1.2,0.2,2.4,0.4,3.6,0.6l-0.1,0C2510.8,71,2539.9,91.2,2560.4,123.2z
		 M2540.7,113.6c-19.6-25.7-51.7-42.8-92-44.8c-7.6-0.4-12.7,0.6-12.8,9.9c-0.1,5.2-0.5,11.7-6.9,13.1c-5.9,1.2-8.4-4.7-10.7-8.7
		c-4.8-8.6-10.6-9.4-19.2-5.3c-14.2,6.7-27.4,14.5-38.9,25.5c-46.8,44.8-50.7,120.2-8.4,168.5c44.3,50.7,118.4,57.8,170.7,16.3
		C2573.5,247.7,2583.7,172.9,2540.7,113.6z"/>
	<path fill="#8BCEDE" d="M2473.2,323.3c1.9-1.2,3.8-2.1,6.1-1.2C2477.5,324,2475.5,324.2,2473.2,323.3z"/>
	<path fill="#8BCEDE" d="M2474.6,60.7c-1.2-0.2-2.4-0.4-3.6-0.6C2472.2,60.3,2473.4,60.5,2474.6,60.7z"/>
	<path fill="#8BCEDE" d="M2471.1,60.1c-1.4-0.2-2.7-0.4-4.1-0.7C2468.4,59.7,2469.8,59.9,2471.1,60.1z"/>
	<path fill="#F6F3DF" d="M2540.7,113.6c42.9,59.3,32.8,134.1-18.3,174.5c-52.4,41.5-126.4,34.4-170.7-16.3
		c-42.2-48.3-38.3-123.7,8.4-168.5c11.5-11,24.7-18.8,38.9-25.5c8.6-4.1,14.4-3.3,19.2,5.3c2.3,4,4.9,9.9,10.7,8.7
		c6.4-1.3,6.9-7.9,6.9-13.1c0.1-9.3,5.2-10.3,12.8-9.9C2489,70.7,2521.1,87.9,2540.7,113.6z M2434.5,290.8c2,2.3,4.5,3.3,7.6,3.3
		c30.9,0,57.8-11,78.2-33.3c33.7-36.8,37.3-91.5,4.7-130.6c-10.5-16.6-25.3-27.7-43.4-34.8c-17.8-6.9-27.9-4.8-37.3,8.3
		c-10.3,14.2-13.1,14.2-24.3-0.1c-3.3-4.2-6.1-9.4-12.9-5.9c-6.2,3.2-12.6,6.1-18.3,10.1c-60.4,41.8-60.6,126.7,0.1,168.7
		C2402.3,285.6,2416.8,294.3,2434.5,290.8z"/>
	<path fill="#AADEEA" d="M2434.5,290.8c-17.7,3.5-32.3-5.2-45.5-14.4c-60.7-42-60.5-126.9-0.1-168.7c5.7-3.9,12.1-6.8,18.3-10.1
		c6.7-3.5,9.6,1.7,12.9,5.9c11.2,14.3,14,14.3,24.3,0.1c9.4-13,19.4-15.2,37.3-8.3c18.1,7,32.9,18.2,43.4,34.8
		c-35.2,0.7-59.9,21.4-83.4,44.1c-9.2,8.8-18.3,17.9-22.5,30.3C2408.5,236,2418.3,264,2434.5,290.8z"/>
	<path fill="#E4E7EF" d="M2434.5,290.8c-16.2-26.8-26-54.8-15.4-86.3c4.2-12.4,13.3-21.4,22.5-30.3c23.6-22.7,48.2-43.4,83.4-44.1
		c32.6,39.1,29,93.9-4.7,130.6c-20.4,22.3-47.4,33.4-78.2,33.3C2439,294.1,2436.6,293.1,2434.5,290.8z"/>
</g>
<g>
	<path fill="#E7CB2D" d="M962.7,870.1c-0.3,2.7-0.7,5.3-1,8c-0.6,2.9-1.1,5.7-1.7,8.6c-12.3,45.3-39,79.1-80.5,101.2
		c-13.5,4.3-26.5,9.8-40.6,12.4c-27.5,5.2-53.7-0.7-80-6.9l0,0.2c-1.7-3.9-5.4-4.3-8.9-5.1c-52.9-28.9-84.1-72.4-84.6-133.5
		c-0.6-60.4,27.3-106.4,80.8-134c53-27.3,105.5-22.1,155,11.4c3.8,2.6,7.4,5.4,11.1,8.1c1.1,0.9,2.2,1.9,3.4,2.8l-0.2-0.1
		c1,0.9,1.9,1.9,2.9,2.8l-0.1,0c1.1,2.1,2.3,4,5.2,3.4c0,0-0.4,0.3-0.4,0.3C951.5,784.9,966.6,824.3,962.7,870.1z M675,852.4
		c-0.3,78.5,59.7,139.4,137.8,139.8c78.3,0.4,140.6-60.8,141.2-138.9c0.6-75.4-64-140.3-139.5-140.2
		C737.1,713.3,675.3,775,675,852.4z"/>
	<path fill="#8BCEDE" d="M923.6,749.4c-2.9,0.7-4.1-1.3-5.2-3.4C920.8,746.1,922.7,746.9,923.6,749.4z"/>
	<path fill="#8BCEDE" d="M915.7,743.4c-1.1-0.9-2.2-1.9-3.4-2.8C913.4,741.5,914.6,742.4,915.7,743.4z"/>
	<path fill="#8BCEDE" d="M918.4,746c-1-0.9-1.9-1.9-2.9-2.8C916.5,744.2,917.5,745.1,918.4,746z"/>
	<path fill="#EE551A" d="M675,852.4c0.3-77.4,62.1-139.1,139.5-139.2c75.6-0.1,140.2,64.8,139.5,140.2
		c-0.6,78.1-62.8,139.3-141.2,138.9C734.8,991.8,674.8,931,675,852.4z M747.7,899.2c0.1,37.4,25.9,65.1,62.7,67.3
		c34.5,2.1,63.9-24.3,67.3-60.8c1.8-19.3-1.8-38.1-13.2-53.8c-21.4-29.7-36.7-61.3-38.8-98.5c-0.1-1.8-0.8-3.6-1.4-5.3
		c-1.8-5.6-4.8-10.2-11.5-10c-5.9,0.2-8.9,4.4-10.5,9.5c-1.1,3.5-2.1,7.1-2.4,10.7c-2.6,31.5-13.5,59.5-33.3,84.6
		C754.1,859,747.2,878.1,747.7,899.2z"/>
	<path fill="#E1E763" d="M747.8,899.2c-0.6-21.1,6.3-40.2,19.1-56.4c19.8-25,30.6-53,33.3-84.6c0.3-3.6,1.3-7.2,2.4-10.7
		c1.6-5.1,4.6-9.3,10.5-9.5c6.7-0.2,9.6,4.4,11.5,10c0.6,1.7,1.3,3.5,1.4,5.3c2,37.1,17.3,68.8,38.8,98.5
		c11.3,15.7,15,34.5,13.2,53.8c-3.4,36.5-32.8,62.9-67.3,60.8C773.7,964.4,747.8,936.6,747.8,899.2z M838.6,856.8
		c12.9-12.3,11.6-14.9,1.3-26.2c-6.5-7.1-5.3-20.6-17.7-24c0.5-1.2,1.1-2.5,1.6-3.7c2.9-6.9,1.5-12.7-5-16.6
		c-4.8-2.9-9.8-2.3-14,1.5c-5,4.6-6.1,10.2-2.3,16.1c3.2,4.9,3.6,11-0.2,13.9c-9,6.8-10.1,14.9-6.1,24.7
		c-16.6-0.4-24.5,5.6-20.2,15.3c6,13.3,1.1,19.3-10.4,25.1c-8.4,4.3-10,13.5-2.1,19.1c6.9,5,9.5,9.9,9.6,17.8
		c0,5.4,4.1,8.8,9.2,10.9c2.8,1.2,6.8,2.8,7.7,5.2c5.4,14.3,13,18.4,25.4,7.1c0.9-0.8,2.8-1.6,3.7-1.2c14.9,7.5,20.5-1.5,25.1-13.5
		c1.5-3.8,5.6-5.6,9.4-7.5c9.2-4.5,11.6-11.5,5-20c-5.5-7-7.6-15.6-5.2-23C857.9,864.4,851.7,859.6,838.6,856.8z"/>
	<path fill="#4B351B" d="M838.6,856.8c13.1,2.7,19.3,7.5,14.8,21.2c-2.4,7.4-0.3,16,5.2,23c6.6,8.5,4.3,15.5-5,20
		c-3.8,1.9-7.9,3.7-9.4,7.5c-4.6,11.9-10.2,21-25.1,13.5c-0.8-0.4-2.8,0.3-3.7,1.2c-12.4,11.3-20,7.1-25.4-7.1
		c-0.9-2.4-4.8-4-7.7-5.2c-5.1-2.2-9.1-5.5-9.2-10.9c-0.1-8-2.7-12.9-9.6-17.8c-7.9-5.7-6.4-14.9,2.1-19.1
		c11.5-5.8,16.4-11.9,10.4-25.1c-4.4-9.7,3.6-15.8,20.2-15.3c-4-9.8-2.9-17.9,6.1-24.7c3.8-2.9,3.4-9,0.2-13.9
		c-3.8-5.9-2.7-11.5,2.3-16.1c4.1-3.8,9.2-4.4,14-1.5c6.4,3.9,7.9,9.7,5,16.6c-0.5,1.3-1.1,2.5-1.6,3.7c12.4,3.4,11.2,16.9,17.7,24
		C850.2,841.9,851.6,844.6,838.6,856.8z"/>
</g>
<g>
	<path fill="#D43B3A" d="M2260.1,332.5c-0.2,1.9-0.5,3.7-0.7,5.6c-0.4,2.1-0.8,4.2-1.2,6.3c-11.5,54.6-42.6,93.9-92.5,118.5
		c-42,17.6-84.2,17.2-126.8,2.1l-0.1,0c-2.2-1-4.4-2-6.6-3c-46.2-25.3-77.8-61.9-88.1-114.6c-15.4-78.5,29.2-155.2,105.1-181.7
		c25.1-8.8,28.2-19.2,12.1-41.6c-1.3-1.8-2.6-3.6-4.1-5.6c6.6-2.6,11.1,1.7,16.2,2.6c0.7,0.5,1.5,1.1,2.2,1.6
		c0.3-1.2,0.5-2.4,0.8-3.7c0.9-2.2-1.7-8.9,4.6-4.3c3.8,2.8,6.4,7.2,9.7,11.1c6.4-1,5.6-8.6,10.8-11.4c5.6,0.8,6.1,7.9,11.8,10.6
		c2-3,4-6.5,6.5-9.5c1.1-1.3,3.2-1.9,4.8-2.8c3.7,17.5,16.2-1.9,22.6,6.2c-3.6,5.3-8.3,10.8-11.3,17.2c-6.4,13.6-3.3,23.7,9.2,27.2
		c24.6,6.9,45,20.6,64.6,36.2c1,1,2,2.1,3,3.1l0.2,0.2c0.9,0.9,1.8,1.8,2.7,2.7c0,0,0.3,0.3,0.3,0.3c1.5,1.4,3,2.7,4.6,4.1
		c0,0,0.1,0.5,0.1,0.5C2249.4,245.9,2263.1,286.5,2260.1,332.5z M2254.4,317.2c0.2-85-67.9-154-152.5-154.6
		c-85.4-0.6-154.7,68.3-154.8,153.7c-0.1,85.3,67.7,153.9,152.5,154.2C2185.3,470.9,2254.2,402.7,2254.4,317.2z"/>
	<path fill="#8BCEDE" d="M2220.5,209.7c-1.5-1.4-3-2.7-4.6-4.1C2218.5,205.8,2220.4,206.8,2220.5,209.7z"/>
	<path fill="#8BCEDE" d="M2032.3,461.8c2.2,1,4.4,2,6.6,3C2036.2,465,2034.1,463.8,2032.3,461.8z"/>
	<path fill="#8BCEDE" d="M2215.7,205.3c-0.9-0.9-1.8-1.8-2.7-2.7C2213.9,203.6,2214.8,204.4,2215.7,205.3z"/>
	<path fill="#8BCEDE" d="M2212.8,202.5c-1-1-2-2-3-3.1C2210.8,200.4,2211.8,201.4,2212.8,202.5z"/>
	<path fill="#DBE199" d="M2254.4,317.2c-0.2,85.5-69.1,153.7-154.8,153.3c-84.9-0.4-152.6-68.9-152.5-154.2
		c0.1-85.5,69.5-154.3,154.8-153.7C2186.5,163.2,2254.6,232.2,2254.4,317.2z M2233.6,338.1L2233.6,338.1c0.8-5.5-3.2-12,3-16.4
		c6.8-4.8,6.6-11.6,5.5-18.6c-1.4-9.2-3.3-18.3-5-27.5c-1.3-6.9-4-11.8-12.3-11.8c-8.5,0-10.9-5.2-9.4-12.9c1.8-9,1.2-17.5-4.7-25.2
		c-15.5-20-33.6-35.3-59.9-39.4c-22-3.4-33.6,1.7-38.4,23.4c-9.9,45.1-10.8,90.7,1.6,135.5c3.8,13.8,9.7,27.9,24.9,34.3l0,0
		c16.7,17.2,37,13.9,57.1,9.2c20.2-4.8,35.1-16.6,42-36.8C2240,346.5,2238.8,341.5,2233.6,338.1z M2096.9,271.8
		c-1.2-18.9-0.5-40.6-6.9-61.6c-3.8-12.3-10-23.6-24.6-23.8c-13.2-0.2-29.3-0.4-37.8,9.1c-13.4,15.1-31.8,24.5-43.7,39.7
		c-19.6,25.2-29.8,55.2-27.3,88.1c0.6,8-1,17.2,9.8,20.7c3.3,1.1,3.6,4.8,2.4,7.6c-6,13.6,3.3,20.7,12.2,26.4
		c45,28.8,94.3,20.5,109.9-39.1C2096.4,317.7,2096.9,296,2096.9,271.8z M2161,445.6c13.8,0.8,54.6-29.1,56.8-42
		c1.4-8.3-4.5-9-10.1-7.9c-8.1,1.7-15.9,5.2-24.1,6.4c-27.1,3.9-52.4,0.1-70.7-22.5c-12.6-15.6-16.3-16.4-25.8,1.6
		c-5.6,10.6-14.2,15.8-24.9,18.8c-17.1,4.8-34.7,5.8-52.4,5.5c-3.8-0.1-8.4-0.9-10.6,3.2c-2.7,5,1.3,8.3,4.2,11.4
		c9.1,9.7,18.9,18.8,30.7,24.9c38.6,19.7,77.6,29.5,116.9,1.3C2154.1,444,2157.7,444.8,2161,445.6z"/>
	<path fill="#AADEEA" d="M2076.6,118.9c-0.3,1.2-0.5,2.4-0.8,3.7c-0.7-0.5-1.5-1.1-2.2-1.6C2074.5,120.3,2075.6,119.6,2076.6,118.9z
		"/>
	<path fill="#D43B3A" d="M2096.9,271.8c0,24.3-0.5,45.9-6,67c-15.5,59.7-64.9,67.9-109.9,39.1c-8.9-5.7-18.2-12.8-12.2-26.4
		c1.2-2.7,0.9-6.5-2.4-7.6c-10.8-3.5-9.2-12.7-9.8-20.7c-2.5-32.9,7.7-62.8,27.3-88.1c11.8-15.2,30.3-24.6,43.7-39.7
		c8.4-9.5,24.6-9.3,37.8-9.1c14.6,0.3,20.8,11.5,24.6,23.8C2096.4,231.1,2095.7,252.9,2096.9,271.8z M2030,358.9
		c-1-9.5,6.7-17.1,6-26.6c-0.7-9.6-5.3-15.4-14.6-17.5c-6.5-1.4-11.5,0.9-14.2,7.2C2000.8,336.9,2014.1,358.2,2030,358.9
		c-1,6.3-7.5,12.8-0.9,19c6.4,6,14.5,5.4,22.2,2.8c9.8-3.3,14.3-11.5,17.1-20.7c1.4-4.4,5.1-9.3,0.2-13.6c-4.3-3.7-9.4-2.1-13.9-0.1
		C2046.4,350.4,2038.3,354.7,2030,358.9z M2062.6,332.4c15.6,0,27.1-11,27.2-28c0.1-10.1-3.3-15.4-14.3-10
		c-5.7,2.8-11.8,5.7-18.2,5.2c-13.1-1.1-16.4,6.2-15.6,17C2042.5,328.1,2049.6,332.7,2062.6,332.4z M2061.7,287.3
		c7.6-1.4,15.5-3.5,22-9.3c7.5-6.6,11-14.4,4.4-23c-6.6-8.7-15.7-7.1-23.3-1.5c-6.7,4.9-13.1,9.9-21.6,11.6
		c-4.6,0.9-5.1,4.2-2.8,7.7C2045.3,280.4,2051.2,286.6,2061.7,287.3z M1967.5,302.1c0,1.5-0.1,2.9,0,4.4
		c0.7,10.9,10.4,23.7,17.7,21.9c13.9-3.5,9.8-14.5,8.5-24c-0.3-1.9-0.9-3.8-1.3-5.7c-2.1-8.7-2-22.4-13.1-21
		C1969.3,278.9,1968,292.1,1967.5,302.1z M2035.9,289c-0.1-2-0.1-3.5-0.3-4.9c-0.8-4.8-2.3-12.6-6.7-11.5c-10.3,2.7-19.3,9.3-30,12
		c-3.3,0.8-2.5,7.1-0.6,10.6c5.1,9.5,13.5,14.3,24.1,12.8C2033.2,306.5,2035.4,297.8,2035.9,289z M2018.9,266.3
		c0.4-14-11.7-29.1-19.8-27.8c-10,1.6-14.2,9.8-15.6,18.9c-1.3,8.3,10.7,18.4,21.1,18C2012.7,275.1,2018.7,271.6,2018.9,266.3z
		 M2048.1,239.5c-7-7.1,3.7-23.7-12.2-28.1c-7.5-2.1-18.4,16.1-17.8,28.5c0.5,10.8,8.5,12.2,16.6,12.3
		C2041.6,252.3,2048.9,251.3,2048.1,239.5z M2083.3,220.6c-0.6-8.7-0.3-18.5-12.4-19.6c-10-0.9-17.1,9.1-17,22.8
		c0.1,9.1,3,15.1,13.6,14.6C2079,237.9,2084.2,232.2,2083.3,220.6z M2010,366.1c0.4-9.4-12.2-27.5-19.5-26.6c-7.9,1-12,8-13.3,15.2
		c-1.4,7.7,13.6,22.1,22.1,22.3C2006.7,377.2,2009.8,373,2010,366.1z"/>
	<path fill="#D43B3A" d="M2138.9,379.6c-15.2-6.4-21-20.5-24.9-34.3c-12.4-44.9-11.5-90.4-1.6-135.5c4.8-21.7,16.4-26.8,38.4-23.4
		c26.2,4.1,44.4,19.4,59.9,39.4c5.9,7.6,6.5,16.2,4.7,25.2c-1.5,7.7,0.9,12.9,9.4,12.9c8.3,0,11.1,4.9,12.3,11.8
		c1.7,9.2,3.6,18.3,5,27.5c1.1,6.9,1.3,13.8-5.5,18.6c-6.2,4.4-2.2,10.9-3.1,16.4c-23.1-2.3-38.1,6.5-42.2,24.5
		c-1.2,5.4-0.5,9.6,3.7,13.1c4.6,3.9,9.3,2.8,13.4-0.4c12.4-9.6,24.8-19.4,25.1-37.2c5.3,3.4,6.4,8.4,4.5,13.9
		c-7,20.2-21.9,32-42,36.8C2176,393.6,2155.7,396.9,2138.9,379.6c7.9-1.7,14.8,4.4,22.8,2.7c5.5-1.2,10.7-2.4,12.7-8.4
		c1.7-5.3-1-9.4-4.6-13.1c-7.7-8.1-17.3-12.8-27.9-15.3c-9.2-2.2-12.7,1.2-10.5,11.1C2133.2,364.6,2140.8,370.6,2138.9,379.6z
		 M2180.4,273.5c-16-2.9-15,8.4-14.6,18.3c0.5,11.9,8.1,18.1,19.3,16.5c11.6-1.6,21.1-11.7,19.2-20.3c-1.1-4.9-4.5-5.8-8.8-5.9
		C2189,281.9,2182.7,280.9,2180.4,273.5c21.8,2.8,21.7,2.8,23.5-19.8c0.3-3.4,0.9-6.8,1.5-10.2c0.7-4.1,1-8.4-3.8-9.8
		c-5.4-1.5-10.5,0.9-11.7,6.2C2187.2,251.3,2180,261.3,2180.4,273.5z M2140.5,332.6c12.5,0.2,19.1-5.6,19.4-16.9
		c0.3-11.6-4.6-17.3-16.9-15.9c-6.5,0.7-12.3-2.7-18.1-5.5c-9.2-4.5-12.6-0.2-13.1,8.7C2110.7,320.7,2121.9,332.4,2140.5,332.6z
		 M2141.1,287.5c9.1-1,15.4-6.6,20.1-14.5c2.2-3.7,1.4-6.8-3.1-7.7c-9.4-1.9-16.6-7.6-24.2-12.9c-6.3-4.3-14.2-4.8-19.9,1.9
		c-5.7,6.9-5.3,14.6,0.5,21.3C2121.3,283.5,2130.6,286.3,2141.1,287.5z M2195.3,330.5c0.3-9.6-3.8-15.3-11.3-15.8
		c-9.9-0.7-19.1,7.8-18.3,18.3c0.8,10,1.6,21.4,13,25.6C2184.9,360.8,2194.9,343.3,2195.3,330.5z M2167,252.8
		c7.7-0.9,16.5-1.4,16.3-13.4c-0.2-12.5-10.1-29.4-17.3-27.6c-15.9,4.1-8.6,19.5-12.1,29.5C2150.5,250.4,2158.8,252.3,2167,252.8z
		 M2118.3,220.3c-1.2,11.5,3.4,17.7,15.3,18.3c10.3,0.5,14.6-4.7,13.8-14.1c-0.9-10.2-1.6-21.5-15.8-22.2
		C2118.7,201.7,2118.8,211.6,2118.3,220.3z M2233.1,309.7c-0.3-15.4-7.4-28-13.8-27.3c-5.1,0.6-15.7,19.9-15.4,28.1
		c0.4,9.5,6.8,12.5,14.7,12.5C2229.1,323.1,2233.1,316.6,2233.1,309.7z"/>
	<path fill="#D43B3A" d="M2161,445.6c-3.4-0.8-6.9-1.6-10,0.6c-39.3,28.2-78.3,18.4-116.9-1.3c-11.8-6-21.6-15.2-30.7-24.9
		c-2.9-3.1-6.9-6.4-4.2-11.4c2.2-4.1,6.8-3.3,10.6-3.2c17.7,0.3,35.3-0.7,52.4-5.5c10.7-3,19.2-8.2,24.9-18.8
		c9.5-18,13.3-17.2,25.8-1.6c18.2,22.6,43.6,26.4,70.7,22.5c8.2-1.2,16-4.7,24.1-6.4c5.7-1.2,11.6-0.4,10.1,7.9
		C2215.6,416.5,2174.9,446.4,2161,445.6z M2030.7,409.1c-5,1.4-15.8-2.9-14.4,9.1c2,16.8,26.8,27.1,41.7,18.2
		c9.8-5.8,10.1-14.2,0.3-20.4C2050.4,411,2041.4,409,2030.7,409.1z M2151.5,406.7c-2.5-0.2-9,0.9-11.5,8c-2.6,7.5,3,11.6,8.3,15.3
		c11.7,8.2,23.2,5.3,34.3-1.4c4-2.4,10.1-4,9-10c-1-5.5-6.7-7-11.3-7.9C2172.3,409,2164,408.3,2151.5,406.7z M2098.4,434.1
		c0.4-10.8-4.5-16.1-13.6-16.8c-7.4-0.6-17.3,12.7-16.9,22.6c0.4,10.3,8.2,15.7,16.4,15.1C2096.6,454.2,2096.8,442.4,2098.4,434.1z
		 M2123.7,426.7c-7.5,0.8-18.4,1.8-19.7,14.3c-1.1,10.4,7.6,12.7,16.1,12.2c9.9-0.6,20.7-1.6,21.2-14.9
		C2141.7,428.5,2134.4,426.4,2123.7,426.7z M2098.6,389c-6.3,0-10.3,2.4-10.9,8.1c-0.5,4.6,17.3,24.8,21.2,24
		c8.6-1.8,15.3-8.4,14.2-16.2C2121.2,391.9,2107.4,393,2098.6,389z"/>
	<path fill="#EF9092" d="M2062.6,332.4c-13,0.3-20.1-4.3-20.9-15.8c-0.7-10.8,2.6-18.1,15.6-17c6.4,0.6,12.5-2.4,18.2-5.2
		c11-5.4,14.3,0,14.3,10C2089.7,321.5,2078.2,332.4,2062.6,332.4z"/>
	<path fill="#EF9092" d="M2061.7,287.3c-10.4-0.7-16.4-7-21.3-14.5c-2.3-3.5-1.8-6.7,2.8-7.7c8.4-1.7,14.8-6.6,21.6-11.6
		c7.6-5.6,16.7-7.2,23.3,1.5c6.5,8.6,3,16.4-4.4,23C2077.2,283.8,2069.3,285.9,2061.7,287.3z"/>
	<path fill="#EF9092" d="M2030,358.9c8.2-4.2,16.4-8.6,24.7-12.4c4.5-2.1,9.6-3.6,13.9,0.1c4.9,4.2,1.2,9.1-0.2,13.6
		c-2.9,9.2-7.3,17.4-17.1,20.7c-7.7,2.6-15.8,3.2-22.2-2.8C2022.6,371.7,2029,365.2,2030,358.9L2030,358.9z"/>
	<path fill="#EF9092" d="M1967.5,302.1c0.6-10,1.8-23.2,11.8-24.5c11.1-1.4,11,12.3,13.1,21c0.5,1.9,1.1,3.8,1.3,5.7
		c1.3,9.5,5.4,20.5-8.5,24c-7.3,1.8-17-11-17.7-21.9C1967.4,305,1967.5,303.6,1967.5,302.1z"/>
	<path fill="#EF9092" d="M2030.1,358.8c-16-0.6-29.3-22-22.9-36.8c2.7-6.3,7.7-8.6,14.2-7.2c9.3,2,13.9,7.9,14.6,17.5
		C2036.7,341.9,2029.1,349.4,2030.1,358.8L2030.1,358.8z"/>
	<path fill="#EF9092" d="M2035.9,289c-0.5,8.8-2.7,17.5-13.6,19c-10.6,1.5-19-3.3-24.1-12.8c-1.9-3.5-2.7-9.8,0.6-10.6
		c10.7-2.7,19.7-9.3,30-12c4.4-1.1,5.8,6.7,6.7,11.5C2035.8,285.5,2035.8,287,2035.9,289z"/>
	<path fill="#EF9092" d="M2018.9,266.3c-0.2,5.2-6.2,8.8-14.3,9.1c-10.5,0.4-22.4-9.7-21.1-18c1.4-9,5.5-17.2,15.6-18.9
		C2007.2,237.2,2019.2,252.3,2018.9,266.3z"/>
	<path fill="#EF9092" d="M2048.1,239.5c0.8,11.8-6.6,12.8-13.5,12.7c-8.1,0-16.1-1.4-16.6-12.3c-0.5-12.4,10.3-30.6,17.8-28.5
		C2051.9,215.8,2041.2,232.4,2048.1,239.5z"/>
	<path fill="#EF9092" d="M2083.3,220.6c0.9,11.6-4.3,17.4-15.9,17.8c-10.6,0.4-13.5-5.6-13.6-14.6c-0.1-13.6,7-23.6,17-22.8
		C2083,202.1,2082.7,211.9,2083.3,220.6z"/>
	<path fill="#EF9092" d="M2010,366.1c-0.2,6.9-3.3,11.1-10.7,10.9c-8.5-0.2-23.6-14.6-22.1-22.3c1.3-7.1,5.4-14.1,13.3-15.2
		C1997.8,338.6,2010.4,356.7,2010,366.1z"/>
	<path fill="#EF9092" d="M2140.5,332.6c-18.6-0.2-29.8-11.9-28.7-29.7c0.5-8.9,3.9-13.1,13.1-8.7c5.8,2.8,11.6,6.2,18.1,5.5
		c12.3-1.4,17.2,4.4,16.9,15.9C2159.6,327,2153,332.7,2140.5,332.6z"/>
	<path fill="#EF9092" d="M2141.1,287.5c-10.5-1.2-19.8-4-26.6-11.8c-5.8-6.8-6.2-14.4-0.5-21.3c5.6-6.8,13.6-6.3,19.9-1.9
		c7.7,5.3,14.8,11,24.2,12.9c4.5,0.9,5.3,3.9,3.1,7.7C2156.5,280.9,2150.2,286.6,2141.1,287.5z"/>
	<path fill="#EF9092" d="M2233.6,338.1c-0.3,17.8-12.7,27.6-25.1,37.2c-4.1,3.2-8.8,4.2-13.4,0.4c-4.2-3.5-5-7.8-3.7-13.1
		C2195.5,344.6,2210.5,335.8,2233.6,338.1L2233.6,338.1z"/>
	<path fill="#EF9092" d="M2138.9,379.6c1.8-9-5.7-15-7.5-23c-2.2-9.9,1.3-13.3,10.5-11.1c10.6,2.6,20.3,7.2,27.9,15.3
		c3.5,3.7,6.3,7.8,4.6,13.1c-1.9,5.9-7.1,7.2-12.7,8.4C2153.7,384,2146.8,377.9,2138.9,379.6L2138.9,379.6z"/>
	<path fill="#EF9092" d="M2180.3,273.4c2.5,7.5,8.7,8.6,15.3,8.7c4.3,0.1,7.7,1,8.8,5.9c1.9,8.5-7.6,18.7-19.2,20.3
		c-11.2,1.5-18.9-4.6-19.3-16.5C2165.4,281.9,2164.3,270.6,2180.3,273.4L2180.3,273.4z"/>
	<path fill="#EF9092" d="M2195.3,330.5c-0.4,12.8-10.3,30.3-16.6,28.1c-11.4-4.1-12.2-15.6-13-25.6c-0.8-10.5,8.3-19,18.3-18.3
		C2191.5,315.1,2195.5,320.9,2195.3,330.5z"/>
	<path fill="#EF9092" d="M2167,252.8c-8.2-0.4-16.5-2.3-13.2-11.5c3.6-10-3.8-25.5,12.1-29.5c7.2-1.8,17.1,15.1,17.3,27.6
		C2183.4,251.3,2174.7,251.8,2167,252.8z"/>
	<path fill="#EF9092" d="M2118.3,220.3c0.5-8.8,0.4-18.6,13.3-18c14.2,0.7,14.9,12,15.8,22.2c0.8,9.4-3.5,14.6-13.8,14.1
		C2121.7,238,2117,231.8,2118.3,220.3z"/>
	<path fill="#EF9092" d="M2233.1,309.7c0,6.9-4.1,13.4-14.4,13.4c-7.9,0-14.4-3.1-14.7-12.5c-0.3-8.3,10.3-27.5,15.4-28.1
		C2225.7,281.7,2232.8,294.3,2233.1,309.7z"/>
	<path fill="#EF9092" d="M2180.4,273.5c-0.4-12.2,6.8-22.2,9.5-33.6c1.3-5.3,6.3-7.7,11.7-6.2c4.8,1.4,4.5,5.7,3.8,9.8
		c-0.6,3.4-1.2,6.8-1.5,10.2C2202.1,276.3,2202.1,276.3,2180.4,273.5L2180.4,273.5z"/>
	<path fill="#EF9092" d="M2030.7,409.1c10.7-0.1,19.7,1.9,27.7,6.9c9.8,6.2,9.5,14.6-0.3,20.4c-14.9,8.9-39.7-1.4-41.7-18.2
		C2014.9,406.2,2025.7,410.5,2030.7,409.1z"/>
	<path fill="#EF9092" d="M2151.5,406.7c12.4,1.6,20.7,2.3,28.8,4c4.6,1,10.4,2.5,11.3,7.9c1.1,6.1-5,7.6-9,10
		c-11.1,6.7-22.5,9.6-34.3,1.4c-5.3-3.7-10.9-7.8-8.3-15.3C2142.6,407.6,2149,406.5,2151.5,406.7z"/>
	<path fill="#EF9092" d="M2098.4,434.1c-1.6,8.2-1.8,20-14.1,20.9c-8.1,0.6-16-4.8-16.4-15.1c-0.4-9.9,9.5-23.2,16.9-22.6
		C2093.9,418.1,2098.8,423.3,2098.4,434.1z"/>
	<path fill="#EF9092" d="M2123.7,426.7c10.8-0.3,18,1.9,17.6,11.6c-0.6,13.3-11.3,14.3-21.2,14.9c-8.4,0.5-17.2-1.8-16.1-12.2
		C2105.3,428.5,2116.2,427.4,2123.7,426.7z"/>
	<path fill="#EF9092" d="M2098.6,389c8.7,3.9,22.5,2.8,24.5,16c1.1,7.7-5.6,14.3-14.2,16.2c-3.9,0.8-21.7-19.4-21.2-24
		C2088.4,391.4,2092.3,389.1,2098.6,389z"/>
</g>
<g>
	<path fill="#DE9D08" d="M923.1,287.6c7.2-0.6,6.8,3.7,5.8,8.7c-4.1,19.8-2.7,39.7-3.1,59.7c-0.9,43.2-22.8,74.6-59.6,95.9
		c-22.9,13.3-48.3,19.6-74.4,21.4c-74.5,5.1-143.1-11.2-201.4-60.4c-33.1-28-51.9-63.8-57.7-106.9c-1.8-13.2,2.1-20.2,15.5-21.3
		c8,15.6,17.8,29.8,29.4,43.2c65.9,75.5,145.8,112.2,246.6,87.7c47.3-11.5,86.8-40.4,90.7-96.1C915.6,308.3,919.3,297.9,923.1,287.6
		z"/>
	<path fill="#EFC80E" d="M923.1,287.6c-3.8,10.3-7.5,20.7-8.3,31.8c-3.8,55.7-43.3,84.6-90.7,96.1
		c-100.8,24.4-180.7-12.2-246.6-87.7c-11.6-13.3-21.4-27.5-29.4-43.2c8.9-7.9,18.3-3.6,26.7,0.1c27,11.8,50.1,29.8,73.3,47.5
		c48.6,37.3,102,48.2,160.8,28.7c18.5-6.2,36.5-13.5,53.2-23.8c12.5-7.8,20.1-19,24.9-32.5l0.2-0.5c-0.3-0.7-0.1-1.3,0.6-1.7
		c3.7-2.9,4-6.9,3.7-11.2c1.1-7,2.8-13.3,12.2-9c1.1,2.1,2.6,2.4,4.5,1C913.4,283.5,918.6,284.4,923.1,287.6z"/>
</g>
<g>
	<path fill="#E30406" d="M2460.1,636.8c22.2-14.1,27.4-37.1,28.9-61.2c2.9-47.4-8.5-90.9-38.2-128c-39.8-49.6-98.9-52.5-144.2-8
		c-2.8,2.7-5.8,5.3-8.7,7.9c-1.8,1.7-3.5,3.3-5.3,4.9c7.7,29.1,30.5,44.7,52.4,61c5.2,3.9,8.9,8.3,12.9,13.7
		c17,23,39.1,42.4,59.9,61.2C2434.4,603.4,2445.4,621.4,2460.1,636.8z"/>
	<path fill="#CC0505" d="M2460.1,636.8c-14.7-15.4-25.7-33.4-42.2-48.4c-20.8-18.8-42.9-38.2-59.9-61.2c-4-5.4-7.7-9.8-12.9-13.7
		c-21.9-16.3-44.7-31.9-52.4-61c-6.6,6.8-13.2,13.6-19.9,20.4c-65.5,99.4,16.9,172.6,105.2,180.9
		C2406.5,656.5,2435.4,655.9,2460.1,636.8z"/>
	<path fill="#10713A" d="M2272.8,472.9c6.6-6.8,13.2-13.6,19.9-20.4c1.8-1.6,3.5-3.3,5.3-4.9c1.1-18.9,14.9-36.1,7.6-56.3
		c-7.3-1.8-7.9,4.6-9.6,8.4c-4.5,9.5-8.6,15.2-18.1,4.4c-4.4-5.1-13.8-8.6-12.1,2.9c4.6,30.1-13.6,32.2-34.4,31.4
		c-1.8,12.7,10.3,14.6,13.2,23.2c-6.7,5-13.6,10.2-22.5,16.8C2241.9,487.8,2256.5,471.3,2272.8,472.9z"/>
</g>
<g>
	<path fill="#CC0505" d="M3077.7,595.3c34,40,13.7,85.9-25.8,96.3c-22.2,5.9-43.7,2.8-62.3-12.3c22-27.3,40.7-56.8,57-87.9
		C3056.5,596.3,3066.9,597.6,3077.7,595.3z"/>
	<path fill="#E30406" d="M3046.6,591.5c-16.3,31-35,60.5-57,87.9c-26.6-17.9-38.4-49.1-28.9-76.8c9.6-28.1,30.9-39.3,69-36.4
		C3034.2,575.4,3038.3,584.8,3046.6,591.5z"/>
	<path fill="#4D950E" d="M3046.6,591.5c-8.3-6.6-12.5-16.1-17-25.3c-1.7-8.3-3.4-16.5-5.6-27.1c8.5,5.2,8.3,12.5,11.4,17.8
		c4.5,7.9,8.7,13,14.5,0.9c3.9,3.1,1.7,6.7,2.6,9.5c0.7,6.4,5.1,7.4,10.4,7c4.1-1.9,8.2-3.8,13.4-6.3c0.4,6.2-5.5,12.2,0.6,16.7
		c5,3.6,10.9,0.2,17.2,1.5c-4.3,6.3-11.5,6-16.6,9.1C3066.9,597.6,3056.5,596.3,3046.6,591.5z"/>
	<path fill="#AE7737" d="M3063.1,574.3c-5.3,0.4-9.7-0.6-10.4-7c7.7-4.1,7.6-13.6,13.2-19.2c1.9-1.9,3.3-4.9,6.6-2.4
		c2.8,2.1,2.6,4.4,0.8,7.2C3069.2,559.7,3064.4,566.2,3063.1,574.3z"/>
</g>
<g>
	<path fill="#E8D4A7" d="M1201.9,543.5c-0.5,2.6-0.9,5.2-1.4,7.7c-13.7,11.4-21,30.3-40.9,34.4c-13.8-4.1-18.8-24.3-39.2-22.3
		c10.6,12.4,19.4,22.5,28.1,32.7c0.4,12.6-9.6,18.8-16.9,26.4c-39.3,40.3-78.8,80.5-118.3,120.8c-21.7,8.8-41.4,8.3-58.9-10.2
		c-10.2-10.8-16.7-1.8-22.4,7.9c-3.5-9.8-5.3-18.9,4-23.8c10.7-5.6,20.9,0.1,30.6,5.2c7.5,4,14.5,14.9,23.1,8.8
		c10.8-7.7,0.4-18.2-2.2-26.6c-9.4-30.1-5.3-56.8,10.9-84.3c24.1-40.5,49.3-79.8,83-113.1c30.3-29.9,48.8-29.6,80.4-0.2
		c11.3,10.6,19.3,25.1,34.7,31l-0.9-0.3c2.2,2.1,4.3,4.3,6.5,6.4L1201.9,543.5z"/>
	<path fill="#C1A482" d="M1013.4,743.1c39.4-40.2,78.9-80.4,118.3-120.8c7.4-7.6,17.3-13.7,16.9-26.3c3.9,0.4,7.8,0.8,11.7,1.2
		c3.3,8,9,12.3,17.9,11.7c0.8,1.2,1.5,2.3,2.3,3.5c-0.1-0.6,0.1-1.5-0.2-1.8c-0.7-0.6-1.6-0.9-2.5-1.3c-4.3-6.4-8.1-13.5-17.7-11.7
		c-0.1-4-0.3-8-0.4-11.9c19.8-4.1,27.2-23,40.9-34.4c61.2,41.7,62.3,53.3,18,110.9c-28.2,36.7-64.6,63.2-102.1,88.3
		C1081.1,774,1046.7,760.4,1013.4,743.1z"/>
	<path fill="#10713A" d="M1196.6,538c-4.2-31.6-9-63.3,4.2-98.4c10.7,13.5,9.4,26.2,11,38.1c1,7.5-2.8,17.3,5.7,21.5
		c10.6,5.2,14.8-6.5,21.7-11c9.7-6.4,17.4-15.9,31.8-19.3c-1.2,18.3-14.7,27.3-24.3,38.4c-11.6,13.3-9.4,20.8,8.5,22.5
		c14.2,1.3,29-0.3,48.3,11.9c-38.2,7.6-69.5,13.6-101.6,1.9c0,0,0.3,0.6,0.3,0.6c-2.2-2.1-4.3-4.3-6.5-6.4L1196.6,538z"/>
	<path fill="#FDFDFD" d="M1159.6,585.6c0.1,4,0.3,8,0.4,11.9c0,0,0.3-0.3,0.3-0.3c-3.9-0.4-7.8-0.8-11.7-1.2
		c-8.7-10.2-17.5-20.3-28.1-32.7C1140.9,561.3,1145.8,581.5,1159.6,585.6z"/>
	<path fill="#FDFDFD" d="M1195.7,537.7c2.2,2.1,4.3,4.3,6.5,6.4C1200,542,1197.9,539.8,1195.7,537.7z"/>
	<path fill="#FDFDFD" d="M1178.2,608.9c-8.9,0.6-14.6-3.7-17.9-11.7c0,0-0.3,0.3-0.3,0.3c9.7-1.8,13.5,5.3,17.7,11.7L1178.2,608.9z"
		/>
	<path fill="#FDFDFD" d="M1177.7,609.3c0.8,0.4,1.8,0.7,2.5,1.3c0.3,0.3,0.2,1.2,0.2,1.8c-0.8-1.2-1.5-2.3-2.3-3.5L1177.7,609.3z"/>
</g>
<g>
	<path fill="#C1A482" d="M1747.7,845.7c2.9,16-5.5,29.2-10.4,43.4c-2.5,7.4-6.1,14.7-4.2,22.9c-3.3,1.2-3.7,3.9-3.1,6.8
		c0.1,0.5,1.3,0.8,2,1.2c0.3-2.8,0.6-5.5,0.8-8.3c17.3,19.9,16.9,42.4,7,64.5c-8.8,19.6-26.8,26.3-47.2,24
		c-17.9-2.1-35.9-4.2-51.7-15.6c-9.9-7.2-20.7-12.4-32.8,1c-10.2,11.2-24.4,19-41.1,18.6c-0.2-28.6-2.3-57.1-6.8-85.2
		c-1.6-10.1,1.9-14.9,10.4-17.9c4.5,8,7.3,17,14.4,23.4c3.9,8.7,10.5-0.4,15.3,2.3c0,0,0,0,0,0c13.1,9.2,24,19.9,23,40.5
		c39.6-39.4,76.7-76.4,113.7-113.6c1.9-1.9,2.2-5.4,3.3-8.2l0,0C1742.7,845.6,1745.2,845.6,1747.7,845.7z"/>
	<path fill="#E8D4A7" d="M1740.3,845.6c-1,2.8-1.3,6.3-3.3,8.2c-37,37.2-74.1,74.1-113.7,113.6c1-20.6-9.9-31.3-23-40.5
		c10.5-9.7,6.9-25.2,15.4-36.2c14.1-18,33-28.7,54.4-29.5C1695,860.3,1718.1,855.8,1740.3,845.6z"/>
	<path fill="#E8D4A7" d="M1570.7,901.1c-8.6,3-12.1,7.9-10.4,17.9c4.5,28.2,6.6,56.7,6.8,85.2c-14.8,0.4-28-6.7-40.4-12.3
		c-24.7-11.1-23.8-39.1,0.2-56.9c3.8,3.4-1.2,6.6-0.2,9.9c-10.9,14.7-11.3,28.4,3.9,40.6c0.2,0.5,0.3,1,0.6,1.4
		c0.2,0.2,0.7,0.2,1.1,0.3c-0.6-0.5-1.1-1.1-1.7-1.6c-3.2-13.3-4.7-26.7-3.4-40.3c16.2-19.3,31.4-39,29.1-68
		C1568.7,882,1567.7,892.8,1570.7,901.1z"/>
	<path fill="#E8D4A7" d="M1600.3,926.8c-4.8-2.7-11.4,6.5-15.3-2.3c8.8-2.3,9.1-9.1,7.9-16c-8.1-46.6,32.1-72.9,77.4-54.6
		C1621,854.8,1597.8,879.2,1600.3,926.8z"/>
	<path fill="#E8D4A7" d="M1747.7,845.7c-2.5,0-4.9,0-7.4-0.1C1742.8,841.5,1745.2,841.3,1747.7,845.7z"/>
	<path fill="#FDFDFD" d="M1732.8,911.8c-0.3,2.8-0.6,5.5-0.8,8.3c-0.7-0.4-1.9-0.7-2-1.2c-0.5-2.9-0.2-5.6,3.1-6.8L1732.8,911.8z"/>
	<path fill="#FDFDFD" d="M1530.5,985.6c-15.1-12.2-14.8-25.9-3.9-40.6c0,0,0.4,0.3,0.4,0.3C1525.7,958.9,1527.2,972.4,1530.5,985.6
		L1530.5,985.6z"/>
	<path fill="#FDFDFD" d="M1530.4,985.6c0.6,0.5,1.1,1.1,1.7,1.6c-0.4-0.1-0.9,0-1.1-0.3C1530.7,986.6,1530.6,986,1530.4,985.6
		L1530.4,985.6z"/>
</g>
<g>
	<path fill="#98D52F" d="M1209.3,395.6c-43.2,10.1-73.1-12.1-97.1-43.2c-21.8-28.2-33-61.6-35.3-97.7c-2-31.8,4.1-60.5,34.1-77
		c31.5-17.4,64.7-26.9,99-5.6C1209.8,246.6,1209.6,321.1,1209.3,395.6z"/>
	<path fill="#94C304" d="M1209.3,395.6c0.2-74.5,0.5-149,0.7-223.5c33.1-22.1,66.2-11.6,97.4,3.1c28.1,13.2,39.6,38.7,38.6,69.5
		c-1.6,47.4-16.2,89.7-50.4,123.8C1271.7,392.2,1243.6,404.1,1209.3,395.6z M1307.8,294.8c21.9-21.7,24.4-57.2,4.9-92.7
		C1316,236.6,1320.8,266.3,1307.8,294.8z"/>
	<path fill="#4D950E" d="M1219.3,121.6c-16.6-6.5-9.5-20.8-8.6-31.4c1-11.7,12.6-14.4,22.4-13.9c27,1.3,53.9,3.7,84.3,6
		c-18.5,25.6-34.5,49.5-59,65.8c-9,6-19.4,8.5-29.5,0.3c-8.1-6.5-10-13.9-4.5-23c0-2.1,0-4.2,0-6.3
		C1222.7,120,1221,120.8,1219.3,121.6z"/>
	<path fill="#AE7737" d="M1215,151.1c-13.3,5.2-19.8-1.2-23.4-11.1c-5.8-15.6-10.7-31.4-15.9-47.2c-1.7-5.2-2.7-10.5,4.4-12.7
		c9-2.8,10.4,3.9,11.8,9.9C1196.8,111.2,1205.7,131.1,1215,151.1z"/>
	<path fill="#98D52F" d="M1307.8,294.8c12.9-28.5,8.2-58.2,4.9-92.7C1332.2,237.6,1329.8,273.1,1307.8,294.8z"/>
	<path fill="#FDFDFD" d="M1219.3,121.6c1.7-0.8,3.4-1.6,5-2.4c0,2.1,0,4.2,0,6.3C1222.7,124.2,1221,122.9,1219.3,121.6z"/>
</g>
<g>
	<path fill="#4B351B" d="M1376.4,688.3c-49.4-66.1-77.3-139.6-78.2-222.7c11.3-151.4,88-254.5,229-310.1
		c35.2-11.4,43.1-13.3,66.9-14.6c54.5-3,106.7,6.5,158.8,19.4l14.9,6.5c54,30.4,102.9,66.7,137.8,119.2
		c88.8,133.4,70.3,321.5-41.5,422.4c-132.5,119.6-312.9,127.3-445.4,19.2c-6.2-5.1-13.3-9.8-19.3-15.2
		C1393.2,706.7,1376.4,688.3,1376.4,688.3z M1317.9,472.1c0.4,172.6,141.2,313.9,313.4,312.9c173.5-1,311.7-137.1,312.5-312.6
		c0.8-173.7-141-314-315.2-313.3C1458,159.8,1317.5,301.3,1317.9,472.1z"/>
	<path fill="#F6F3DF" d="M1317.9,472.1c-0.4-170.8,140.1-312.3,310.8-313c174.1-0.7,316,139.5,315.2,313.3
		c-0.8,175.5-139,311.7-312.5,312.6C1459.1,786,1318.3,644.7,1317.9,472.1z M1349.6,470.5c-1.6,154.4,125.1,282.3,280.5,283.2
		c153.9,0.8,280.3-124.2,281.7-278.4c1.4-156.2-122.6-283-278.5-284.8C1479,188.6,1351.2,314.7,1349.6,470.5z"/>
	<path fill="#FD4A4C" d="M1349.6,470.5c1.6-155.8,129.3-281.9,283.7-280.1c155.9,1.8,279.8,128.6,278.5,284.8
		c-1.3,154.3-127.8,279.3-281.7,278.4C1474.8,752.8,1348.1,624.9,1349.6,470.5z M1768.4,473.5c12.5,6.7,25.1,15.8,38.4,2.7
		c3.5-3.4,3-8.3-0.3-10.8C1792,453.9,1780.6,464.2,1768.4,473.5z M1723,385.6c17.4-3.7,30.9-6.8,36.3-22.3c1.9-5.5-3.9-10.5-9-9.8
		C1734.2,355.9,1727.6,367.3,1723,385.6z M1500.5,473c-19.1-8.8-30.3-18.9-44.6-7.5c-3.2,2.6-3.5,7.7-0.2,10.8
		C1468.8,488.2,1481.2,481.3,1500.5,473z M1530.3,448.5c-11.4-8.3-21.5-20-36.7-10c-3.6,2.3-4.3,7.4-1.3,10.6
		C1504.3,461.9,1517.2,456.4,1530.3,448.5z M1709.6,349.5c17.2-9.5,30.9-14.9,30-32.4c-0.1-2.4-6.3-7-8.7-6.5
		C1713.5,314.7,1712.8,329.2,1709.6,349.5z M1692.5,587.6c-2.9,18.6-2.1,31.8,11.8,40.4c4.6,2.8,11.3,0.1,12.1-5.4
		C1718.9,605.4,1705.7,598.9,1692.5,587.6z M1540.5,569.1c-19.2,8.9-33.5,12.4-34.4,29.9c-0.1,2.4,5.7,7.6,8,7.1
		C1530.6,603,1533.8,589.4,1540.5,569.1z M1567.7,588.7c-13.5,9-24.3,16.8-23.7,33c0.2,6.1,6.9,8.9,11.2,6.6
		C1569.7,620.4,1571.3,607.1,1567.7,588.7z M1772.3,411.1c10.3-2.1,23.4-1.2,24.3-16.6c0.3-5.4-5.4-9-10.9-8
		c-11.3,1.9-22.9,6.8-26.4,17.7C1756.4,413.1,1766.7,410.2,1772.3,411.1z M1731.3,449.1c13.1,6.5,26.1,12.9,38.3,0
		c3.2-3.4,2.4-8.2-1.3-10.6C1753.2,429.1,1742.4,439,1731.3,449.1z M1725,575.4c3.5,13.8,5.1,28.7,22.6,30.4
		c2.4,0.2,7.8-5.2,7.5-7.5C1753.3,581.7,1740,577.6,1725,575.4z M1539.1,384.1c-6.8-16-12-28.7-28.5-29.9c-5.2-0.4-9.8,5-7.6,10.4
		C1509,379.1,1521.4,383,1539.1,384.1z M1550.3,347.4c-1.1-16.7-3.1-29.9-18.1-36.1c-5.1-2.1-10.9,1.7-10.5,7.2
		C1522.7,334.5,1533.7,341.6,1550.3,347.4z M1526.4,527.1c-16.5-0.2-30.3-1.1-39,12.9c-3.1,5,0.8,10.8,5.9,11.3
		C1509.2,552.8,1518.2,543.1,1526.4,527.1z M1505.9,407.7c-11.2-13.5-19.6-23.5-34.7-20c-5.4,1.2-7.9,7.8-4.6,12.3
		C1475.5,412.2,1488.1,412.7,1505.9,407.7z M1734.4,528.4c9.1,15.2,18.1,24,33,22.8c5.4-0.4,9.4-6.2,6.4-11.3
		C1765.9,526.4,1752.8,526.2,1734.4,528.4z M1746.1,489.4c-5.9,1.9-17.2-1.2-16.4,8.3c0.9,10.8,13,10.7,21.6,12.1
		c7.8,1.3,15.6-1.6,14.4-10.6C1764.4,489.1,1754.8,489.1,1746.1,489.4z M1496,501c2.2,9.1,9,10.2,16.4,8.5
		c7.5-1.7,18.8-2.4,18.1-11.9c-0.8-10.4-12.5-7.6-19.9-8C1503.3,489.1,1496.8,491.8,1496,501z"/>
	<path fill="#4B351B" d="M1768.4,473.5c12.2-9.2,23.6-19.5,38.1-8.1c3.3,2.6,3.8,7.4,0.3,10.8C1793.5,489.2,1781,480.2,1768.4,473.5
		z"/>
	<path fill="#4B351B" d="M1723,385.6c4.6-18.4,11.3-29.8,27.2-32.1c5.1-0.7,10.9,4.3,9,9.8C1753.9,378.8,1740.4,381.9,1723,385.6z"
		/>
	<path fill="#4B351B" d="M1500.5,473c-19.3,8.4-31.7,15.3-44.8,3.2c-3.4-3.1-3.1-8.2,0.2-10.8C1470.2,454,1481.4,464.2,1500.5,473z"
		/>
	<path fill="#4B351B" d="M1530.3,448.5c-13.1,7.9-26.1,13.4-38,0.6c-3-3.2-2.3-8.3,1.3-10.6C1508.9,428.4,1519,440.1,1530.3,448.5z"
		/>
	<path fill="#4B351B" d="M1709.6,349.5c3.2-20.3,3.9-34.8,21.3-38.9c2.4-0.6,8.6,4,8.7,6.5C1740.5,334.6,1726.8,340,1709.6,349.5z"
		/>
	<path fill="#4B351B" d="M1692.5,587.6c13.2,11.4,26.4,17.9,23.9,34.9c-0.8,5.5-7.6,8.3-12.1,5.4
		C1690.4,619.4,1689.6,606.2,1692.5,587.6z"/>
	<path fill="#4B351B" d="M1540.5,569.1c-6.7,20.4-9.9,34-26.4,37c-2.3,0.4-8.1-4.8-8-7.1C1507,581.5,1521.3,578,1540.5,569.1z"/>
	<path fill="#4B351B" d="M1567.7,588.7c3.7,18.4,2.1,31.7-12.5,39.6c-4.3,2.3-11-0.5-11.2-6.6
		C1543.4,605.5,1554.2,597.7,1567.7,588.7z"/>
	<path fill="#4B351B" d="M1772.3,411.1c-5.6-0.8-15.9,2.1-13-6.9c3.5-10.8,15.1-15.7,26.4-17.7c5.5-0.9,11.2,2.7,10.9,8
		C1795.7,409.9,1782.6,409,1772.3,411.1z"/>
	<path fill="#4B351B" d="M1731.3,449.1c11.2-10.1,21.9-20,37-10.6c3.7,2.3,4.5,7.2,1.3,10.6C1757.4,462,1744.3,455.6,1731.3,449.1z"
		/>
	<path fill="#4B351B" d="M1725,575.4c15,2.2,28.3,6.3,30.1,23c0.3,2.3-5.1,7.7-7.5,7.5C1730.1,604.1,1728.4,589.1,1725,575.4z"/>
	<path fill="#4B351B" d="M1539.1,384.1c-17.7-1.1-30-5-36-19.5c-2.2-5.4,2.4-10.7,7.6-10.4C1527.1,355.4,1532.3,368.1,1539.1,384.1z
		"/>
	<path fill="#4B351B" d="M1550.3,347.4c-16.6-5.8-27.6-12.9-28.6-28.9c-0.3-5.5,5.4-9.4,10.5-7.2
		C1547.2,317.6,1549.2,330.7,1550.3,347.4z"/>
	<path fill="#4B351B" d="M1526.4,527.1c-8.2,16-17.2,25.7-33.2,24.2c-5-0.5-9-6.3-5.9-11.3C1496.1,526,1509.9,526.9,1526.4,527.1z"
		/>
	<path fill="#4B351B" d="M1505.9,407.7c-17.8,5-30.4,4.5-39.4-7.7c-3.3-4.4-0.7-11,4.6-12.3C1486.3,384.2,1494.7,394.2,1505.9,407.7
		z"/>
	<path fill="#4B351B" d="M1734.4,528.4c18.4-2.2,31.5-2,39.4,11.5c3,5.1-1,10.9-6.4,11.3C1752.5,552.4,1743.5,543.6,1734.4,528.4z"
		/>
	<path fill="#4B351B" d="M1746.1,489.4c8.7-0.3,18.2-0.3,19.7,9.9c1.2,9-6.6,11.9-14.4,10.6c-8.6-1.4-20.7-1.3-21.6-12.1
		C1728.9,488.2,1740.2,491.3,1746.1,489.4z"/>
	<path fill="#4B351B" d="M1496,501c0.7-9.2,7.3-11.9,14.7-11.4c7.4,0.5,19.1-2.4,19.9,8c0.7,9.5-10.6,10.2-18.1,11.9
		C1505.1,511.1,1498.3,510,1496,501z"/>
</g>
<g>
	<path fill="#E73B17" d="M1243.6,974.3c-0.5,0.6-1,1.2-1.6,1.8c-0.9,0.8-1.8,1.7-2.7,2.5c0,0,0.2-0.1,0.2-0.1
		c-0.9,0.7-1.7,1.4-2.6,2.1c0,0,0.1-0.1,0.1-0.1c-1.4,0.9-2.8,1.8-4.1,2.7l-0.4-0.5c0,0,0.5,0.5,0.5,0.5c-1,0.5-1.9,1-2.9,1.5
		c-2.2,0.9-4.3,1.8-6.5,2.7c0.7-5.1,1.5-10.1,2-15.2c0.2-2.4,0.3-5.8-3.1-6c-2.7-0.1-2.7,2.9-3.2,5c-3.3,12.5-10.6,20.7-23.9,22.5
		c-14.6,1.9-24.8-4.4-31.9-16.6c-2-3.5-4-7-6.6-11.6c-3.1,19.9,8,33.8,29.5,39.1c-10.9,4-18-3-24.6-9.4c-4.5-4.4-8.8-8.1-14.8-10.6
		c-9.1-3.7-16-10.2-18.8-20c-2.2-7.7-10.3-11.5-12.5-18.9c-3.2-10.8-8.6-20.5-13.6-30.5c-8.2-16.4,3.9-57.4,18.4-68.2
		c10.5-7.8,22.4-8.1,34.6-6.7c9.9,6.5,19.9,10.7,32.1,5.4c4.8-2.1,10.9-0.3,16.1,1.9c4,1.7,7.2,1.8,11.1-1c4.4-3.1,9.7-5,14.6-7.5
		c11.4,0,22.6,1.1,31.9,8.8c1.7,2.1,3.4,4.3,5.1,6.4c-1.6,0.1-3.2,0.2-4.8,0.2l-0.5-0.5l0.5,0.4c0.6,8.2,4.9,16.1,2.5,24.7
		c-5,18.2-19.4,25.6-42.3,21.7c1.1-8.9,4.1-17.8,1.4-27.1c-4.5,22.5-14.3,33.3-30.8,33.9c-9.3,0.3-17-2.8-23.5-9.6
		c-6.4-6.7-8.4-15.1-9.8-25.4c-3.1,11.9,0.1,21.2,3.4,30.6c-3.1-1.5-6.2-1.4-9.6-1c-22.2,2.8-38.5-14-35.3-36
		c0.2-1.7,1.1-3.6-1.1-4.6c-12,17.7,0.4,45,22.1,47.8c8.3,1,17.8,3.1,23.8-6.2c5.2,2.7,8.6,7.8,14.2,10.2
		c17.1,7.4,30.5,0.6,43.2-10.2c1,3.7,3.7,5.4,7.2,6c12,1.9,23.7,1.5,32.9-7.8c9.5-9.5,12.9-21,9.3-34.3c-1.1-4.2-3.7-8.1-2.8-12.7
		c10.4,13.1,11.1,29.6,15.2,44.7c2.5,9.4-1.4,18.8-8.5,26.2c-5.1,4-7.8,0.4-10.8-6.1c-0.7,14.7-5.2,24.5-15.8,31.2
		c-8.5,5.3-17.7,3.3-26.7,3.6c5.1-15.1,5.1-15.1,3-24.6c-5.7,21.9-16.5,32-33.5,31.2c-17.7-0.8-26.9-11.2-30.3-34.5
		c-6.5,10.1,0.9,18.9,1.3,27.9c-27.5,0.7-36.3-6.6-41.1-35.8c-4.4,13.6-1.5,23.8,6.4,32.9c8.4,9.6,19.2,12.9,31.6,11.1
		c3.3-0.5,4.9-2.9,5.3-6.1c21.6,16.8,28.5,17.1,53.1,2.7c0.6-0.4,1.4-0.3,2.1-0.5c5.8,6,13.5,5.6,20.2,3.8c11-3.1,10.5,2.1,8.5,9.6
		l0-0.1C1245,972.4,1244.3,973.4,1243.6,974.3z"/>
	<path fill="#8BC2D0" d="M1228.8,839.1c-4.9,2.4-10.2,4.3-14.6,7.5c-3.9,2.8-7,2.7-11.1,1c-5.1-2.2-11.2-4-16.1-1.9
		c-12.3,5.3-22.2,1.1-32.1-5.4c0.3-1.8,0.5-3.6,0.9-5.4c3-12.9,3.6-13.1,14-5c10.4,8.1,11.6,7.7,14.1-4.8c1.7-8.4,6.3-10.1,14.5-5.9
		c6.9,3.6,12,10.2,22.6,5.9C1227.3,822.5,1227.5,833.4,1228.8,839.1z"/>
	<path fill="#ED664F" d="M1186.3,1004.5c-21.6-5.3-32.6-19.2-29.5-39.1c2.6,4.6,4.5,8.2,6.6,11.6c7.2,12.2,17.4,18.5,31.9,16.6
		c13.4-1.8,20.6-10,23.9-22.5c0.5-2.1,0.5-5.1,3.2-5c3.5,0.2,3.3,3.5,3.1,6c-0.4,5.1-1.3,10.1-2,15.2c0,0,0.1-0.6,0.1-0.6
		c-0.6,0.6-0.8,1.2-0.4,2c-4.5,10.6-12.9,15.7-24.2,16.4C1194.8,1005,1190.6,1004.8,1186.3,1004.5z"/>
	<path fill="#ED664F" d="M1245.6,971.5c2-7.5,2.6-12.6-8.5-9.6c-6.7,1.9-14.4,2.2-20.2-3.8l-0.1,0.1c0.8-1.5,1.5-3,2.3-4.6l-0.1,0.1
		c9-0.2,18.2,1.8,26.7-3.6c10.6-6.6,15.1-16.4,15.8-31.2c2.9,6.4,5.7,10.1,10.8,6.1C1269.3,943.9,1255.8,956.8,1245.6,971.5z"/>
	<path fill="#ED664F" d="M1232.9,983.2c1.4-0.9,2.8-1.8,4.1-2.7C1236.2,982.3,1234.7,982.9,1232.9,983.2z"/>
	<path fill="#ED664F" d="M1230.1,984.6c1-0.5,1.9-1,2.9-1.5C1232,983.6,1231,984.1,1230.1,984.6z"/>
	<path fill="#ED664F" d="M1236.9,980.5c0.9-0.7,1.7-1.4,2.6-2.1C1238.6,979.2,1237.8,979.9,1236.9,980.5z"/>
	<path fill="#ED664F" d="M1243.6,974.3c0.7-1,1.4-2,2.1-2.9C1245,972.4,1244.3,973.4,1243.6,974.3z"/>
	<path fill="#ED664F" d="M1239.3,978.6c0.9-0.8,1.8-1.7,2.7-2.5C1241.1,976.9,1240.2,977.8,1239.3,978.6z"/>
	<path fill="#E73B17" d="M1223.2,988.8c-0.3-0.8-0.2-1.4,0.4-2C1223.7,987.5,1223.5,988.1,1223.2,988.8z"/>
	<path fill="#ED664F" d="M1219.1,903c-12.6,10.8-26.1,17.5-43.2,10.2c-5.6-2.4-9-7.5-14.2-10.2l0.1,0.1c-3.3-9.3-6.5-18.6-3.4-30.6
		c1.4,10.3,3.4,18.7,9.8,25.4c6.5,6.8,14.2,9.9,23.5,9.6c16.5-0.6,26.3-11.3,30.8-33.9c2.8,9.3-0.2,18.2-1.4,27.1l0.1-0.1
		C1220.6,901.6,1219.8,902.3,1219.1,903L1219.1,903z"/>
	<path fill="#ED664F" d="M1159.6,953.8c-0.3-9-7.8-17.8-1.3-27.9c3.3,23.3,12.6,33.7,30.3,34.5c17,0.8,27.9-9.3,33.5-31.2
		c2,9.5,2,9.5-3,24.6l0.1-0.1c-0.8,1.5-1.5,3-2.3,4.6l0.1-0.1c-0.7,0.2-1.5,0.2-2.1,0.5c-24.6,14.4-31.5,14.1-53.1-2.7l0.1,0.1
		C1161.1,955.3,1160.3,954.5,1159.6,953.8L1159.6,953.8z"/>
	<path fill="#ED664F" d="M1221.3,900.9c22.9,4,37.2-3.5,42.3-21.7c2.4-8.6-1.9-16.4-2.5-24.7l-0.1,0.1c1.6-0.1,3.2-0.2,4.8-0.2
		c0,0-0.1-0.1-0.1-0.1c-0.9,4.6,1.7,8.5,2.8,12.7c3.6,13.3,0.2,24.8-9.3,34.3c-9.2,9.3-20.9,9.7-32.9,7.8c-3.4-0.5-6.2-2.3-7.2-6
		l-0.1,0.1C1219.8,902.3,1220.6,901.6,1221.3,900.9L1221.3,900.9z"/>
	<path fill="#ED664F" d="M1161.7,903c-6,9.3-15.5,7.3-23.8,6.2c-21.7-2.7-34.1-30.1-22.1-47.8c2.3,1.1,1.4,3,1.1,4.6
		c-3.2,22,13.1,38.8,35.3,36c3.4-0.4,6.5-0.5,9.6,1C1161.8,903.1,1161.7,903,1161.7,903z"/>
	<path fill="#ED664F" d="M1161.7,955.9c-0.4,3.2-2,5.6-5.3,6.1c-12.4,1.8-23.2-1.5-31.6-11.1c-7.9-9.1-10.8-19.3-6.4-32.9
		c4.8,29.2,13.6,36.5,41.1,35.8l-0.1-0.1c0.8,0.8,1.6,1.6,2.3,2.3L1161.7,955.9z"/>
	<polygon fill="#ED664F" points="1261.1,854.5 1260.5,854.1 1261,854.6 	"/>
	<path fill="#E73B17" d="M1216.9,958.2c0.8-1.5,1.5-3,2.3-4.6C1218.4,955.2,1217.6,956.7,1216.9,958.2z"/>
	<path fill="#E73B17" d="M1221.4,900.8c-0.8,0.8-1.5,1.5-2.3,2.3C1219.8,902.3,1220.6,901.6,1221.4,900.8z"/>
	<path fill="#E73B17" d="M1161.8,956.1c-0.8-0.8-1.6-1.6-2.3-2.3C1160.3,954.5,1161.1,955.3,1161.8,956.1z"/>
</g>
<g>
	<path fill="#E73B17" d="M884.9,114c14.3,7.2,30.1,11.6,42,23.3c0,0-0.2-0.4-0.2-0.4c1.4,1.9,2.7,3.8,4.1,5.7c1.5,3.3,3,6.5,4.5,9.8
		c0.5,2.2,1.1,4.3,1.6,6.5l-0.1,0.2c5.8,61.3-73.7,142.6-137.6,149.1c-17.6,1.8-32.3-1.5-42.1-17.2c-9.6-15.4-26.9-14.5-41.2-19.8
		c-10-6.3-14.9-16.2-18.6-26.8c-19.1-54.2,5.1-138.7,50.2-175.4c26-21.2,50-20.1,73.2,3.6c5.3,5.4,9.9,11.5,14.8,17.2
		c7.7,20.7,24.1,26.3,44.2,25.5L884.9,114z M789,279.7c6.3,4.2,13.2,4.3,20.4,3.3c21.3-2.8,39.1-12.6,55.6-25.9
		c9.3-7.5,11.4-14.5,2.7-24c-8.2-8.8-15.2-9.7-24-0.5c-14.6,15.3-32.3,25.7-53.1,30.7c-3.7,0.9-9.1,0.7-9.4,5.9
		C780.9,274.1,785.3,276.9,789,279.7z M898.4,218.5c5.5-10.2,9.8-21.1,11-32.8c1.5-14.8-4.1-26.9-17-34.7c-7.4-4.5-13-3.7-11.5,7.1
		c1.4,9.9-0.3,19.6-4.8,28c-7.4,13.6-4.3,22.6,5.9,34.1C891,230.3,893.7,228,898.4,218.5z"/>
	<path fill="#323988" d="M884.9,114l-0.7,0.7l-4.4,0.6c-20.1,0.8-36.5-4.8-44.2-25.5c0.3-4,0-8.2,1.1-12c2.1-7.3,4.8-16,13.3-16.6
		c7.2-0.6,10.8,7.1,12.6,13.3c2,7.2,5.7,7.7,12.2,6.7c11-1.6,21.1,0.8,28,10.7"/>
	<path fill="#8BC2D0" d="M936.9,158.9c-0.5-2.2-1.1-4.3-1.6-6.5"/>
	<path fill="#8BC2D0" d="M930.8,142.6c-1.4-1.9-2.7-3.8-4.1-5.7"/>
	<path fill="#ED664F" d="M789,279.7c-3.7-2.7-8.1-5.6-7.8-10.5c0.3-5.1,5.7-5,9.4-5.9c20.8-5,38.5-15.5,53.1-30.7
		c8.8-9.2,15.9-8.3,24,0.5c8.7,9.4,6.6,16.4-2.7,24c-16.5,13.3-34.3,23.1-55.6,25.9C802.2,283.9,795.3,283.9,789,279.7z"/>
	<path fill="#ED664F" d="M898.4,218.5c-4.7,9.5-7.5,11.8-16.5,1.7c-10.2-11.4-13.3-20.5-5.9-34.1c4.6-8.4,6.2-18.1,4.8-28
		c-1.5-10.8,4.1-11.6,11.5-7.1c12.9,7.8,18.6,19.9,17,34.7C908.2,197.4,904,208.3,898.4,218.5z"/>
</g>
<g>
	<path fill="#FDED02" d="M2751.7,638.8c7.6,1.5,15.2,3,22.8,4.6c-0.9,15.2,10,15.7,20.6,16.7c37.2,60,54.9,142.2-8.9,192.4
		c-9.6,7.6-19.8,14.9-31.4,17.7c-33.5,7.9-67.3,13.9-102,8.8c-20.9-11.6-34.8-27.8-37.3-52.7c-0.6-6-4.5-11.7-7.1-17.5
		c-33.6-74.7,19.3-159.3,101.3-160.8C2724.9,647.6,2737.5,640.3,2751.7,638.8z M2782.8,721.9c3.2,1.5,6.4,1.3,8.7-2.2
		c2.6-3.9,2.4-8.1-1.9-10.3c-3.9-2-8-0.9-10.1,3.5C2777.8,716.6,2779.2,719.5,2782.8,721.9z"/>
	<path fill="#323988" d="M2795.2,660.1c-10.6-1-21.5-1.5-20.6-16.7c2.2-1.6,4.6-3,6.6-4.7c9.4-7.9,13.6-5.6,13.5,6.4
		C2794.6,650.1,2795,655.1,2795.2,660.1z"/>
	<path fill="#ED664F" d="M2782.8,721.9c-3.6-2.4-5-5.3-3.3-9c2.1-4.4,6.2-5.6,10.1-3.5c4.3,2.2,4.4,6.4,1.9,10.3
		C2789.2,723.1,2786,723.4,2782.8,721.9z"/>
</g>
<g>
	<path fill="#DE9D08" d="M942.9,281.4c5.5-4.7,7.7-0.9,9.8,3.8c8,18.5,20.6,34.1,31.7,50.7c24.1,35.9,24.2,74.1,6.3,112.7
		c-11.1,24-28.3,43.8-48.6,60.2c-58.1,46.9-123.6,73-199.6,66.2c-43.2-3.9-79.2-22.5-108.6-54.4c-9.1-9.8-9.9-17.7,0.4-26.3
		c15.5,8.2,31.7,14.2,48.8,18.5c97.3,24,183.7,8.1,252.3-69.8c32.2-36.6,47.9-82.9,19-130.7C948.7,302.7,945.8,292,942.9,281.4z"/>
	<path fill="#EFC80E" d="M942.9,281.4c2.9,10.6,5.8,21.3,11.5,30.8c28.9,47.8,13.1,94.2-19,130.7c-68.5,77.9-155,93.8-252.3,69.8
		c-17.2-4.2-33.4-10.2-48.8-18.5c2.7-11.6,13-13.5,21.9-15.3c28.8-5.8,58.1-4.4,87.3-3.2c61.3,2.6,111.2-19.1,148.1-68.9
		c11.6-15.7,22.1-32,29.8-50c5.8-13.6,5.6-27.1,1.7-40.9l-0.2-0.5c-0.7-0.4-0.8-1-0.5-1.7c1.4-4.5-0.7-8-3.4-11.2
		c-3.1-6.4-5.3-12.4,4.8-14.4c2.1,1.1,3.5,0.5,4.2-1.7C932.6,283.6,937.4,281.4,942.9,281.4z"/>
</g>
<g>
	<path fill="#DE9D08" d="M963.2,267.3c2.7-6.7,6.4-4.4,10.4-1.3c15.8,12.5,34.3,20.2,52,29.6c38.2,20.2,56.4,53.8,58.9,96.3
		c1.6,26.5-4.2,52-14.3,76.1c-28.9,68.9-74.2,122.9-144.4,152.9c-39.9,17-80.4,17.7-121.4,3.6c-12.6-4.4-17.1-10.9-12.1-23.4
		c17.5-0.1,34.6-2.5,51.8-6.9c97-25,165.6-79.9,189.1-181c11-47.4,2.9-95.7-45.2-124.1C978.4,283.3,970.7,275.3,963.2,267.3z"/>
	<path fill="#EFC80E" d="M963.2,267.3c7.5,8,15.1,16,24.7,21.6c48.1,28.4,56.2,76.7,45.2,124.1c-23.4,101.1-92,156-189.1,181
		c-17.1,4.4-34.2,6.8-51.8,6.9c-3.1-11.5,5-18,12-23.8c22.6-18.8,49.1-31.4,75.4-44.2c55.2-26.7,88.9-69.5,97.8-130.9
		c2.8-19.3,4.3-38.7,2.6-58.2c-1.3-14.7-7.9-26.5-17.9-36.8l-0.4-0.4c-0.8-0.1-1.2-0.5-1.2-1.3c-0.9-4.6-4.4-6.7-8.3-8.3
		c-5.7-4.1-10.6-8.4-2.6-14.9c2.4,0,3.3-1.2,2.9-3.5C955.2,274.1,958.4,269.9,963.2,267.3z"/>
</g>
<path fill="#0A7C08" d="M1602,96.7c-7.5,4.7-7.6,12.2-9.2,18.3c-3.4,13-10.7,10.2-18.4,5.3c-22.6-14.2-26.1-50.4-7-68.9
	c11.3-11,25.2-15.7,40.2-18.6c11.4-2.2,22.6-5.4,33.9-7.9c4.8-1.1,11.2-2.1,9.9,5.7c-3.4,21.4,3.6,42.4,1.9,63.7
	c-1.5,19.2-28.3,37.6-46.7,32.2c-7.9-2.3-5.9-8.9-5.4-14.5C1601.6,107.3,1605.4,103,1602,96.7z"/>
<path fill="#0A7C08" d="M992.2,110.8c-19.5-10.9-38.6-4.8-57.8,1.2c-3.8,1.2-7.8,5.8-11.1,2.9c-4.2-3.5,0-8.4,1.5-12.3
	c7.7-19.8,41-30.6,63.8-21c22.1,9.3,36.3,27.3,49.6,46c1.4,1.9,2.8,4.4,1.4,6.8c-1.9,3.3-5,2-7.7,1.2c-16.2-4.9-32.3-3.6-48.5-0.3
	c-17,3.4-33.3,1.4-49.2-5.4c-2.2-0.9-5.3-2.2-5.7-3.9c-0.9-3.5,2.9-4.4,5.3-5.7c14.9-7.9,31-9.7,47.5-10
	C984.9,110.5,988.6,110.6,992.2,110.8C992.2,110.7,992.2,110.8,992.2,110.8z"/>
<path fill="#0DC305" d="M2784.6,206.5c-11.8,4.2-10.5-6.3-11.5-11.5c-4.6-24,18.2-49,42.5-45.5c20,2.9,39.6,8.7,63,14.1
	c-18.1,16.2-26.5,34.5-38.9,49.8c-11.9,14.6-39,12.3-46.3-3.3c14-10.7,26.2-23.9,42.3-32.2C2815.4,181.9,2795.1,185.5,2784.6,206.5z
	"/>
<path fill="#0DC305" d="M1853.7,185.5c-23.3-3.9-26-23.4-28.3-40.7c-2.8-21.5,18.9-53.6,41.3-61.1c26.2-8.8,53.4-14.5,80.3-21.7
	c5.6,52.7-30.8,110.6-76.6,123.2c-2-22.1,11.1-40.3,18.9-61.9C1866.9,134.3,1858.2,150.4,1853.7,185.5z"/>
<g>
	<path fill="#0DC305" d="M1152.7,820.8c-8.1,3.3-23.2-5.9-24-15.4c-1-11.6-0.5-23.3-4.8-34.4c-1.3-3.4,0.8-4.7,3.9-3.9
		c11.6,3,23.9,3.9,34.3,10.5c16.3,10.4,17.9,33.7,3.1,42.7c-2.1,1.3-4.2,3.3-6.1-0.2c0-10.3-2.2-19.6-13.7-28.1
		C1148.3,803.5,1150.5,812.2,1152.7,820.8z"/>
</g>
<path fill="#0DC305" d="M1466.9,165.5c23.9-3.9,26.8-23.4,29.1-40.7c2.8-21.5-19.4-53.6-42.5-61.1c-26.9-8.8-54.9-14.5-82.6-21.7
	c-5.8,52.7,31.7,110.6,78.8,123.2c2.1-22.1-11.4-40.3-19.5-61.9C1453.3,114.3,1462.3,130.4,1466.9,165.5z"/>
<g>
	<path fill="#0DC305" d="M1232.5,810.3c6.5,4.3,20.9-2.7,23.1-12.1c2.6-11.3,3.9-23,9.3-33.4c1.6-3.2,0.1-4.7-2.8-4.4
		c-10.5,1.4-21.2,0.7-31.2,5.9c-15.7,8.1-20.5,31-9.1,41.8c1.6,1.5,3.1,3.8,5.3,0.7c1.6-10.2,4.9-19.1,16-26
		C1238.9,793.8,1235.7,802,1232.5,810.3z"/>
</g>
<path fill="#0DC305" d="M2825.6,664.2c0.1-17.6,14.2-21.9,26.6-25.6c15.5-4.6,41.6,7.6,49.8,23.2c9.5,18.2,17,37.6,25.4,56.5
	c-38,10.3-84.9-9.7-99.6-41.9c16-4.1,30.9,3.4,47.7,6.6C2864.8,667.9,2851.9,663.4,2825.6,664.2z M2886.3,689.7c-1-1.3-2-2.6-3-3.9
	c-0.4,0.4-1.1,1.2-1.1,1.3c1,1.3,2.2,2.5,3.3,3.7c0.4,0.3,0.9,0.6,1.3,0.8c0.1,0,0.7-0.7,0.6-0.8
	C2887.1,690.4,2886.7,690.1,2886.3,689.7z"/>
<g>
	<path fill="#4D950E" d="M392.4,443.4c7.6-9.7,19.4-16.4,22-31.1c-12.4,2.1-19.9,10.1-29.4,19.1c0.6-13.2-1.6-24.5-3.2-35.9
		c-1.8,0-3.5,0-5.3,0c-2.1,11.1-6.1,22-4.5,36.2c-9.3-9.7-16.6-18.5-29.2-21.2c1.4,9.9,6.8,16.2,12,22.5c3.8,4.7,2.7,7.1-3.2,7.3
		c-8.2,0.3-16.4,0.6-24.9,6.1c10.7,6.7,21.3,7.5,34,7.8c-9.5,8.8-18.3,16.6-22,29.1c12.4,0.6,17.7-10.6,27.2-13.2
		C372.1,458.7,378.4,447.1,392.4,443.4z M359.2,438.2c0.3,0.3,0.8,0.6,0.8,0.8c-0.1,0.6-0.5,1.1-0.7,1.6c-0.3-0.3-0.8-0.6-0.8-0.8
		C358.6,439.3,358.9,438.7,359.2,438.2z"/>
	<path fill="#FCC500" d="M392.4,443.4c-14,3.7-20.3,15.3-26.6,26.8c-8.7,31.3,16.6,45,32.5,63.5c1.9,2.2,5.1,2.8,6.7,5.9
		c9.1,18.1,21.3,18.2,37.4,16.3c14.7-1.7,29.8-18.1,33.2-30.9c5-18.9,2.3-34.4-14.5-46.1c-3.2-2.2-5.5-5.7-8.1-8.7
		C437.1,451.4,420.3,434.6,392.4,443.4z"/>
	<path fill="#FDFDFD" d="M359.2,438.2c-0.3,0.5-0.6,1.1-0.7,1.6c0,0.2,0.5,0.5,0.8,0.8c0.3-0.5,0.6-1.1,0.7-1.6
		C360.1,438.8,359.5,438.5,359.2,438.2z"/>
</g>
<path fill="#0DC305" d="M2199.9,848c19.4-8.7,31.1,4.6,41.4,16.4c12.8,14.7,12.5,49.5-0.5,66.3c-15.2,19.6-32.7,37.5-49.3,56.2
	c-30.4-36.6-32-98.1-4-130.3c12.5,15.6,11.7,35.6,16.6,55.7C2215.4,892.9,2213.9,876.5,2199.9,848z"/>
<path fill="#0DC305" d="M1940.8,808.5c-10-21.2-27.6-18.8-43.2-16.4c-19.3,2.9-40.7,32-40.7,55.3c0,27.3,2.9,54.8,4.5,82.4
	c46.9-8.3,86.3-58.2,83.9-105.2c-19.6,3.8-31.4,21-47.8,34.1C1900.6,834.5,1911.9,821.9,1940.8,808.5z"/>
<g>
	<path fill="#FEC404" d="M2801.4,573.4c-32.3-18.1-50.7-45.1-50.3-82.6c0.4-36.7,18-64.3,50.8-80.2c33.1-16.1,65.5-12,95.3,9.9
		c2.7,2,5.2,4.2,7.8,6.2c0.6,0.6,1.3,1.2,1.9,1.8l-0.1-0.1c0.6,0.6,1.2,1.2,1.7,1.7l0,0c0.1,1,0.6,1.7,1.7,1.8l-0.1,0
		c19.1,24.9,26.5,52.5,19.1,83.5c-4.7,14.7-11.8,28-22.6,39.4c-7.3,7.8-16.6,12.9-24.9,19.2c-5.2,1.7-10.5,3.5-15.7,5.1
		c-20.8,6.2-41.1,3.3-61.1-3.6c0,0,0,0.2,0,0.2C2804.4,574,2802.8,573.9,2801.4,573.4z M2920.6,492c0-44.1-35.6-79.8-79.3-79.5
		c-43.6,0.3-79.1,35.8-79,79c0.2,44.3,35.3,79.4,79.4,79.3C2885.5,570.8,2920.6,535.7,2920.6,492z"/>
	<path fill="#8BCEDE" d="M2801.4,573.4c1.4,0.5,2.9,0.6,3.6,2.2C2803.3,575.7,2802.1,575.1,2801.4,573.4z"/>
	<path fill="#8BCEDE" d="M2910.3,431.9c-1.1-0.1-1.6-0.8-1.7-1.8C2909.2,430.7,2909.8,431.3,2910.3,431.9z"/>
	<path fill="#8BCEDE" d="M2908.7,430.2c-0.6-0.6-1.2-1.2-1.7-1.7C2907.5,429,2908.1,429.6,2908.7,430.2z"/>
	<path fill="#8BCEDE" d="M2907,428.5c-0.6-0.6-1.3-1.2-1.9-1.8C2905.7,427.3,2906.4,427.9,2907,428.5z"/>
	<path fill="#F6F3DF" d="M2920.6,492c0,43.7-35.1,78.7-78.9,78.8c-44.1,0.1-79.2-35-79.4-79.3c-0.2-43.2,35.3-78.8,79-79
		C2885,412.3,2920.6,447.9,2920.6,492z M2836.2,483.7c-6.1-18.6-13.4-36.2-24.5-51.8c-3.4-4.8-8.2-5.5-13.2-2.2
		c-6.4,4.2-11.6,9.5-15.8,15.9c-3,4.6-3,9.3,1.4,12.7C2799.7,470.2,2817.7,477.2,2836.2,483.7z M2767.5,489.9c0.2,2.9,0.2,5.9,0.7,9
		c1.5,8.9,4.9,11.9,13.8,10.2c16.5-3.1,32.1-9.2,47.4-15.9c3.9-1.7,4-3.6,0.1-5.3c-15.6-6.8-31.3-13.4-48.1-16.3
		c-8.6-1.5-11.8,1.3-13.2,9.8C2767.7,484.1,2767.7,486.9,2767.5,489.9z M2803.6,552.7c3.4,0.2,6-1.6,7.8-4.1
		c10.3-14.4,17.1-30.6,23.6-46.9c1.2-3,0.5-5.1-3.5-3.6c-16.1,6.3-32,13.1-46.4,22.9c-2.9,1.9-4.8,4.6-4.8,8.4
		C2780.6,536.4,2796.5,552.4,2803.6,552.7z M2842.8,499.2c-7.8,13.8-11.6,26.9-15.8,39.9c-7.5,23.2-1.9,29.7,22.5,26.5
		c1.1-0.1,2.2-0.4,3.3-0.6c6.7-1.3,9.8-5.5,8.5-12C2857.7,534.8,2851,517.7,2842.8,499.2z M2850.8,491.4c13.6,7.5,26,11.3,38.3,15.4
		c24.6,8.3,31.3,2.4,27.1-23.2c-1.4-8.9-4.8-11.8-13.7-10.1C2885.3,477,2869,483.4,2850.8,491.4z M2851.3,498.4
		c-2.8,1.1-1.6,3.7-0.7,5.7c4.7,10.4,9.2,20.9,14.3,31.1c11.6,23.2,21.7,23.6,36.4,1.8c0.5-0.7,0.9-1.4,1.3-2.1
		c2.4-4.2,2.2-8.4-1.5-11.3c-14.4-11.3-31.3-17.9-48.1-24.8C2852.7,498.7,2852.5,498.7,2851.3,498.4z M2845.2,418
		c-19.8,0-23.3,4.4-18.4,21.2c3.7,12.9,8.1,25.6,13.6,37.8c0.6,1.4,0.9,3.5,3,3.6c2.1,0.1,2.5-2.1,3.1-3.4
		c6.3-14.6,12.1-29.5,15.3-45.1c1.8-8.6-1.5-12.5-10.3-13.7C2848.8,417.9,2846,418,2845.2,418z M2848.8,485.7
		c14.6-4.2,26-10.4,37.6-16.1c23-11.4,23.6-19.3,2.9-35.2c-7-5.4-12.1-5.1-16.9,2.1C2862.7,451.3,2855.7,467.3,2848.8,485.7z"/>
	<path fill="#FEC404" d="M2836.2,483.7c-18.6-6.5-36.5-13.5-52.1-25.4c-4.5-3.4-4.4-8.1-1.4-12.7c4.2-6.4,9.4-11.7,15.8-15.9
		c5-3.3,9.8-2.6,13.2,2.2C2822.9,447.5,2830.2,465.1,2836.2,483.7z"/>
	<path fill="#FEC404" d="M2767.5,489.9c0.2-3,0.2-5.8,0.7-8.5c1.4-8.6,4.6-11.3,13.2-9.8c16.8,3,32.5,9.6,48.1,16.3
		c3.9,1.7,3.8,3.6-0.1,5.3c-15.3,6.7-30.9,12.8-47.4,15.9c-8.9,1.7-12.2-1.3-13.8-10.2C2767.7,495.8,2767.7,492.7,2767.5,489.9z"/>
	<path fill="#FEC404" d="M2803.6,552.7c-7.1-0.3-23-16.3-23.2-23.3c-0.1-3.7,1.9-6.4,4.8-8.4c14.4-9.8,30.3-16.5,46.4-22.9
		c4-1.6,4.7,0.5,3.5,3.6c-6.5,16.3-13.3,32.5-23.6,46.9C2809.7,551.2,2807.1,553,2803.6,552.7z"/>
	<path fill="#FEC404" d="M2842.8,499.2c8.2,18.5,14.9,35.6,18.5,53.7c1.3,6.6-1.8,10.7-8.5,12c-1.1,0.2-2.2,0.5-3.3,0.6
		c-24.4,3.2-30-3.3-22.5-26.5C2831.2,526.1,2835,513,2842.8,499.2z"/>
	<path fill="#FEC404" d="M2850.8,491.4c18.2-8,34.5-14.5,51.7-17.9c8.9-1.8,12.3,1.2,13.7,10.1c4.2,25.6-2.6,31.5-27.1,23.2
		C2876.8,502.7,2864.4,498.9,2850.8,491.4z"/>
	<path fill="#FEC404" d="M2851.3,498.4c1.2,0.3,1.5,0.3,1.7,0.4c16.7,6.9,33.6,13.5,48.1,24.8c3.7,2.9,3.9,7.2,1.5,11.3
		c-0.4,0.7-0.8,1.4-1.3,2.1c-14.6,21.8-24.8,21.3-36.4-1.8c-5.1-10.2-9.7-20.7-14.3-31.1C2849.7,502.1,2848.5,499.6,2851.3,498.4z"
		/>
	<path fill="#FEC404" d="M2845.2,418c0.7,0,3.5,0,6.3,0.3c8.7,1.2,12.1,5.2,10.3,13.7c-3.3,15.6-9.1,30.5-15.3,45.1
		c-0.6,1.4-1,3.5-3.1,3.4c-2.1-0.1-2.4-2.2-3-3.6c-5.5-12.3-9.8-25-13.6-37.8C2822,422.4,2825.5,418,2845.2,418z"/>
	<path fill="#FEC404" d="M2848.8,485.7c6.9-18.5,14-34.5,23.6-49.1c4.8-7.3,9.9-7.5,16.9-2.1c20.7,15.9,20.1,23.8-2.9,35.2
		C2874.8,475.4,2863.3,481.6,2848.8,485.7z"/>
</g>
<g>
	<path fill="#4D950E" d="M2639,469.5c-8.1-9.7-20.6-16.4-23.4-31.1c13.2,2.1,21.2,10.1,31.3,19.1c-0.6-13.2,1.8-24.5,3.4-35.9
		c1.9,0,3.8,0,5.6,0c2.3,11.1,6.5,22,4.8,36.2c9.9-9.7,17.7-18.5,31-21.2c-1.5,9.9-7.2,16.2-12.7,22.5c-4,4.7-2.9,7.1,3.4,7.3
		c8.7,0.3,17.5,0.6,26.5,6.1c-11.3,6.7-22.7,7.5-36.2,7.8c10,8.8,19.5,16.6,23.4,29.1c-13.2,0.6-18.9-10.6-28.9-13.2
		C2660.6,484.8,2653.9,473.2,2639,469.5z M2674.3,464.3c-0.3,0.3-0.9,0.6-0.9,0.8c0.1,0.6,0.5,1.1,0.8,1.6c0.3-0.3,0.9-0.6,0.9-0.8
		C2675,465.4,2674.6,464.8,2674.3,464.3z"/>
	<path fill="#FCC500" d="M2639,469.5c14.9,3.7,21.6,15.3,28.3,26.8c9.3,31.3-17.6,45-34.5,63.5c-2,2.2-5.5,2.8-7.1,5.9
		c-9.7,18.1-22.6,18.2-39.7,16.3c-15.6-1.7-31.7-18.1-35.3-30.9c-5.3-18.9-2.4-34.4,15.4-46.1c3.4-2.2,5.9-5.7,8.6-8.7
		C2591.5,477.5,2609.3,460.8,2639,469.5z"/>
	<path fill="#FDFDFD" d="M2674.3,464.3c0.3,0.5,0.6,1.1,0.8,1.6c0,0.2-0.6,0.5-0.9,0.8c-0.3-0.5-0.6-1.1-0.8-1.6
		C2673.4,464.9,2674,464.6,2674.3,464.3z"/>
</g>
<g>
	<path fill="#F3FE00" d="M2125.9,994.6c-15.8,20-36,23.9-57.3,11c-13.7-8.3-23-20.6-28.8-35c-7.2-17.8-16.5-33.6-29.9-47.6
		c-7.6-7.9-16.1-16.8-12.6-30c3.6-2.7,1.9-14.6,11.5-6.8c40.8,33.6,81.6,67.3,122.3,100.9c-0.6,1-1.1,2-1.7,3
		C2127.2,990.9,2126.3,992.5,2125.9,994.6z"/>
	<path fill="#E3E605" d="M2131,987.1c-40.8-33.7-81.5-67.3-122.3-100.9c-9.5-7.8-7.9,4.1-11.5,6.8c0.2-2.1,0.5-4.1,0.7-6.2
		c2.7-3.4,5.4-6.8,8.1-10.2c9.9-6.9,20.4-6.6,30.1-0.7c21.5,12.9,44,22.4,68.8,27.1c8.8,1.7,16.7,6.7,24.1,12.2
		C2156,935.6,2156.9,964.7,2131,987.1z"/>
	<path fill="#0DC305" d="M2006.1,876.6c-2.7,3.4-5.4,6.8-8.1,10.2c-5.7-4.7-8.3-2.1-11.4,3.6c-8,14.6-19.5,18.1-34.7,11.8
		c-6.7-2.7-8.5-6.6-3.8-12.6c5.2-6.7,11.8-11.2,19.9-14c7.2-2.4,15.8,2,22.2-6.6C1991.9,866.7,2000.7,873.7,2006.1,876.6z"/>
</g>
<path fill="#FF3939" d="M2462.9,512.7c-8.9-30-32.1-49.2-57.2-73.1C2443.7,453.5,2465.1,481.9,2462.9,512.7z"/>
<path fill="#FDFDFD" d="M1903.3,398.6c1.7-0.8,3.4-1.6,5-2.4c0,2.1,0,4.2,0,6.3C1906.7,401.2,1905,399.9,1903.3,398.6z"/>
</svg>
