<?xml version="1.0" encoding="utf-8"?>
<!-- Generator: Adobe Illustrator 18.0.0, SVG Export Plug-In . SVG Version: 6.00 Build 0)  -->
<!DOCTYPE svg PUBLIC "-//W3C//DTD SVG 1.1//EN" "http://www.w3.org/Graphics/SVG/1.1/DTD/svg11.dtd">
<svg version="1.1" id="Layer_1" xmlns="http://www.w3.org/2000/svg" xmlns:xlink="http://www.w3.org/1999/xlink" x="0px" y="0px"
	 viewBox="0 0 727 427" enable-background="new 0 0 727 427" xml:space="preserve">
<g>
	<path fill="#0A53CC" d="M238,1c108,0,216,0,324,0c54,0,108,0,162-0.1c7.4,0,4,152.3,4,166.1c-8,1.5-35-6.7-40.1-12.7
		c14.3-3.2,3.9-11.1,19.2-4.1c-9.5-12.1-30.8-7.5-45-5c3.2,5.1,29.4,14.6,27,23.3c-5,18.4-32.1-17.6-40.6-6.6
		c0.3,3.7,2.1,6.5,5.3,8.5c-9.2-2.2-93.2-4.8-92.2-16c1.4-16.8,62.5,7.3,69.6,3.8c-5.5-5-13.5,3-17.5-10.4
		c4.9,3.3,10.2,2.9,15.9-1.2c2.7-6-97.2-29.8-97.3-29.9c5.3,9.3,22.8,10.9,28.8,21.8c0.3-0.2-32-0.6-32.6,4.3
		c-1.6,13.3,22.4,6.4,18.5,22.8c-0.6,2.6-19.1-7-18.3-5.8c2.3,3.4,63.5,54.5,73,40.5c2.3-3.4-10.8-9.2-12.6-10.9
		c-1.6-3.7,25.9,10.6,34.3,8c-6.3-3.6-12.3-7.7-18-12.2c5.4-3.9,22.4-8.9,26-0.4c-2.7,0.1-13.5-4.8-14.7,0.4
		c-3.9,16.4,31.1,0,32.4,11.3c-2.8,1.9-5.9,3.3-9.2,4.2c6.2,8.5,27.7,8.1,29.7,14.1c-11.8,2.2-44.4-19.7-50.1-10.8
		c-3.2,5,10.7,12.6,13.2,15.8c-17.5,7.8-39,16.6-51.5,1.2c6.5,3.4,13.5,3.9,20.9,1.4c2.1-3.4-118.5-8.8-92.4-49.8
		c-4-4.5-8-8.9-12-13.4c5.2-0.3,10-1.7,14.6-4.2c3.1,3.8-70-39.5-64.6-39.5c-7.9-0.1,65.6,4.4,64.1,7.8c7.6-17-57.4-29.5-59.5-32.7
		c10.4-2.4,8.3-5.4,13.8-11.3c-23.6,25.6-100.5-45.9-113.7-52.8c-4,9.1,12.2,14.7,14.8,21.9c-10.7,1.7-21.6-6.8-30.6,0.7
		c3.9-3.2,51.2,60.3,61.3,40.1c4.3-8.7-27.5-10.9-23.4-19.1c0.4-0.8,63.3,4.4,72.2,18.8c-0.5-0.9-15.6-0.3-4,13
		c-10.9,5.1-23.4,0.3-34.5,5.1c4.2,6.7,13.4,6.9,11.9,16.1c-6.1-4.4-12.5-5.1-19.2-2.1c-1.3-3.7,49.5,20.7,52.8,21.1
		c1.8,12.1-15.8-0.7-16.4,9.6c-0.9,15.6,27,3.4,30.7,6.5c9.5,8-9.7,7.7-9.9,7.9c1.4,1.1,34.6,33.4,24.4,32.1
		c4.1-10.1-43.8-14.2-48-21.4c4.1,1.2,20.9,8.9,23.1,0.8c2.2-8.3-23.4-19.8-24.5-1.9c-15.7-8.8-44.9-5.4-56.4-22.8
		c6-1,29.8,26.2,34.9,10.3c9-27.8-72.6-33.8-72.9-19.3c-0.2,11.4,28.1,2.9,33.1,6.8c-31.4,13-46.9-27.1-76.5-26.6
		c1.1-3.5,4-4.8,8.8-3.9c-6.6-1.3-11.8-4.8-15.6-10.6c13.7-12.7,46,32.5,59.8,24.1c-6.7-2.4-12.4-6.4-17.3-12
		c0-7.1,40.5,17.1,42.8,10c2.4-7.4-7.4-6.1-7.9-11.4c7.6,0.8,14.8-0.4,21.4-3.6c-17.9-13.6-39.6-14-56.3-23.3
		c7-0.4,13.9-1.6,20.6-3.7c-6.9-12.9-21.7-22.7-36.4-19c5,3,6.7,7.5,11.9,10.4c-3.5,1.7-80.2-17.8-79.3-36
		c-0.2,3.5,53.8,12.2,64.7,11.9c-12-13.4-18.6-22.9-41.4-27.8c0,1.7,3.7,9.9,2.8,10.4C271.5,41,204.8-0.1,205,1
		C213.4,1,238.2,6.5,238,1C400,1,238.1,2.9,238,1z M368.9,93.8c-8.5,11,21,8.3,21.5,8.1C397.9,98.4,370.6,93.8,368.9,93.8
		C368.5,94.3,370.4,93.8,368.9,93.8z M493.4,136.5c14.6,3.4,2.8,5.6,19.9,2.3c-7.6-12.5-26-23.3-40.4-22.7
		C474.9,116.1,488.7,133,493.4,136.5C493.7,136.6,492.6,136,493.4,136.5z M530.9,185.8c-8.4,3.1-17.4-7.5-26.5-6.9
		c20.8-1.6,57.3,29.1,74.8,25.1C569.9,194.2,509.5,164.5,530.9,185.8C522.4,189,527.8,182.8,530.9,185.8z M566.9,110.6
		c6.7-1.2,13.4-2.5,20-3.7c0.5,2.4-60.3-21.8-58.9-22C529.9,96.9,555.7,111.6,566.9,110.6C573.6,109.4,548.2,112.3,566.9,110.6z
		 M327.9,24.2c-3.6-11.6-38.6-18.9-39.2-14.5C286.3,25.1,326.5,27.4,327.9,24.2C324.7,14.1,327.6,25,327.9,24.2z M367.8,91.9
		c15.4-4.3-31-38.2-40.4-33C324.4,60.5,366.8,90.2,367.8,91.9C370.9,91.1,360.1,78.8,367.8,91.9z M411.6,148
		c19.8-5.9-22.7-31.6-33.3-26.9C393.9,130.1,391.4,145.4,411.6,148C414.2,147.2,403.9,147,411.6,148z M511.8,100.2
		c15.9-7.1-17.4-24.5-30.4-19.4C471.7,84.5,516.4,100.7,511.8,100.2C512.6,99.8,498.4,98.6,511.8,100.2z M546.4,210.3
		c25.7-8.5-22.8-18.6-20.3-12C532.9,202.3,539.7,206.3,546.4,210.3C549.3,209.3,538.2,208.7,546.4,210.3z M617.7,105.5
		c1.4-0.7-17.8-13.2-25.7-13.9C593.4,100.8,609.9,107.1,617.7,105.5C615.6,106.5,603.4,108.5,617.7,105.5z M608.4,121.3
		c-22.3,7.4,18.2,10.4,17.3,8.5C620,127,614.2,124.2,608.4,121.3C606.3,122,615.7,121.6,608.4,121.3z M652.9,130.3
		c15.7-9.1-16.6-10.2-16.1-9.3C642.2,124.1,647.5,127.2,652.9,130.3C654.2,129.5,645.7,128.8,652.9,130.3z M425.2,164.2
		c33.3-3.4-8.5-17.1-13.3-12.2C416.3,156.1,420.7,160.2,425.2,164.2C429.5,163.8,423.8,157.7,425.2,164.2z M588.4,164.9
		c20.9-1.7-18.7-16.8-16.1-9.6C577.6,158.5,583,161.7,588.4,164.9C591,164.7,582.4,163.2,588.4,164.9z M610.4,214.4
		c1.5,8.8,6.6,10.4,15.3,4.8c-0.5,0.1-21-12.6-23.1-13.2C587.4,201.9,615.8,217.8,610.4,214.4C612.9,219.6,610.1,214.2,610.4,214.4z
		 M616.4,119c10.2-3.1,6.6-6.6-10.8-10.6C597.7,111.8,601.3,115.3,616.4,119C618.7,118.8,611.2,117.5,616.4,119z M417,48.9
		c13-5.7-6.2-6.7-9.9-7.6C399.6,44.3,402.9,46.8,417,48.9C417.8,48.6,410.8,48.5,417,48.9z M434.4,146.1
		C471.2,139.2,397.2,134.9,434.4,146.1C437.5,145.5,432.3,145.5,434.4,146.1z M246.2,3.5c-3.6,5.4-0.9,9.7,8.2,12.9
		C259.5,18,248.2,3.8,246.2,3.5C245.8,4.5,253.4,4.7,246.2,3.5z M411.6,102.1c9.2-3.5-9.5-12.9-15.3-8.3
		C399.8,99.2,404.9,102,411.6,102.1C410,102.7,400.6,104.3,411.6,102.1z M537,130.2C530,112,531.8,137.3,537,130.2
		C536,127.8,536.4,130.9,537,130.2z M466.9,117.4C459.8,123.4,476,134.2,466.9,117.4C464.1,119.8,468.3,119.9,466.9,117.4z
		 M292.6,70.1C288.8,74.2,299.3,81.6,292.6,70.1C291.5,71.3,293.8,72.2,292.6,70.1z M322.4,65.3C314.5,58.5,316.7,67.5,322.4,65.3
		C320.7,63.9,320.7,66,322.4,65.3z M515.3,108.6C506.8,103,510.8,112.5,515.3,108.6C513.6,107.5,514.1,109.6,515.3,108.6z
		 M307.1,63.1C300.3,55,302.6,66,307.1,63.1C305.9,61.7,306.2,63.6,307.1,63.1z M312.7,77.1C301.8,69.6,307.6,79.1,312.7,77.1
		C309.8,75.1,310.9,77.8,312.7,77.1z M563.8,117C559.8,120.8,570.7,123,563.8,117C563,117.8,564.9,118,563.8,117z M433.5,96.4
		C431,101,437,101.7,433.5,96.4C432.9,97.5,434.3,97.7,433.5,96.4z M440.4,86.8C436.9,83.6,437,89.6,440.4,86.8
		C439.7,86.1,439.7,87.4,440.4,86.8z M417.8,93C415,96,419.8,97,417.8,93C417.1,93.7,418.3,93.9,417.8,93z M424.7,82.8
		C421.9,80.8,422.5,85.3,424.7,82.8C424.1,82.5,424.3,83.2,424.7,82.8z M526.9,120.4C524.6,122.9,528.5,123,526.9,120.4
		C526.3,121.1,527.3,120.9,526.9,120.4z"/>
	<path fill="#3EA6F8" d="M361,142c-4.8-7.8-1.4-10,10.1-6.6c-6.8,4.9,13.4,18.7,22.7,12c-5.7-4.7-11.8-8.8-18.3-12.3
		c7.4-2.2,38.7,19.5,36,28c-5.2,15.8-28.9-11.3-34.9-10.3c7.1,10.7,42.2,30.7,56.2,29.2c2.2-0.2-23.9-13.5-23.9-13.5
		c11.5-7.3,96.6,53.3,95,19.4c28.3,20.7,63.6,16.4,84.6,42.1c0,0-19.2,1.6-14.4,7.7c10.9,13.3,21.2,16.2,30.8,8.7
		c-2.6-7.6-8.1-13.1-16.4-16.4c5.1-3.2,43.2,21.9,43.4,10.8c-10.2-3.5-20-7.8-29.4-13.1c10.6-1,20.6-3.7,30-8.1
		c-2.4-3.1-16.3-10.8-13.2-15.8c8-12.5,62.3,27.7,72.6,27.9c-6.7,0.7-7.8,3.5-3.2,8.4c-6-2.9-11.5-2.4-16.6,1.4
		c-4.5,24.5,55.8-13.2,55.8,29.4c-4.3-2.2-20.1-14.8-26.1-11c25.4,14.7,26.1,13.2,26.1,47c-33.5-16.3-1.6-21.4-20.2-34.7
		c9.4,21.2-33.4,3.6-28.5-6.5c1-2,17.4-1.5,17.6-1.3c-11-11.5-58.7,1.6-42.8,14.7c-7.1-5.5-14-5.7-20.8-0.6
		c-3.2,12.1,33.3,26.9,29,7.1c16.3,9.3,31.3,20.2,45.1,32.8c-7.3,2.4-14.3,5.4-21.2,8.9c10.3,10.1,21.5,19.2,33.3,27.6
		c-43.6,18.4,8.4,12.7,8.4,44c-8.7,3.9-69-4.3-55.4-24.6c-13,19.3,22.1-9.9,20-11.3c-1-0.7-34.5-20.8-29.7-28.1
		c6.6-2.9,13.3-5.7,20-8.3c-11-7.5-86.4-43.2-83.4-44.8c6.5-1.1,12.8-3.1,18.7-5.9c-21-13.1-24.6-18.3-49.8-16.1
		c1.3,3.7,19.7,18.5,24.2,22.9c-7.9,3-15.9,5.7-24.1,8c9.2,8.3,18.3,16.7,27.4,25.1c-36.8,12.7-30.1,7,6.6,38.3
		c-41.6,14.2-32.3,12.3,2.1,44.9C550,423.9,623,428,534,428c46.5-20.6,40-12.5,0.4-51.9c44.2-14.2,38.2-7.8,2.1-42.4
		c16.8,3,25.7-1.3,26.9-12.9c-26-29.5-55.7-15.9-88.2-8.3c-3,12.7,4.2,22.5,21.5,29.5c1.3-2.2-57.5,65.2-4.6,49
		c-52.3,16.1-49.3-24.1-103.9-14.5c17.8-3.1,34.3,51.4-34.1,51.4c0.8-6.6-39.1-29.1-51.4-19.4c5.7-4.5,21.7,17.2,24.4,19.4
		c-51.8,0-40.9-23.7,3.4-35.2c4.9-1.3-63.1-104.5-65.9-103.9c66.8-15.6,24.2,13.6,78.1,18.3c26.7,2.3,71.2-15.7,97.8-21.2
		c21.4-4.5-73.5-48.9-67.9-41.3c8.4-0.6,14.7,3.3,18.9,11.8c-67.8,10.3-76.1-12.1-126.8-75.6c21.2-2.7,94.3,20.6,99,31
		c1,2.1-32.7-16.1-26.1-15.7c13.1-2.6,24.1-1.6,31.3,12.8c5.6,11.2-25.1,10.5-28.7,10.5c11.1,41.3,59.1,7.6,83.2,11.7
		c1.9-38.6-95.4-60.9-113.6-79c-24.2-24-45.2-43.1-66.7-68.9c2.8,0.5,5.3,0,7.5-1.3c-7.8-4.3-16.6-5-26.3-2
		c-0.3-7.7,8.5-3.8,10.5-9.5c-20.2-6.2-10.5,5.8-26.8,0.6c29.2-9.8-38.5-22.5-26.8-8c3.4,1.3-28.6-4.2-29.1-14.6
		c0.2,5.1,57-12.8,63.3-13c4.3-14-3.4-25.4-23.2-34.4c7.5,0,78.3,40.6,81.8,38.7c1-0.5-2.8-8.7-2.8-10.4c6.2,1.3,18.4,4.5,19,12.8
		c-5.4-2.5-7.1-2.3-5.1,0.6c18.8,10.5,10.7-4.3,27.5,14.4c-10.9,0.3-64.9-8.4-64.7-11.9c-0.9,18.4,67.7,41.6,79.3,36
		c-5.2-2.9-6.8-7.4-11.9-10.4c14.6-3.7,29.4,6.1,36.4,19c-6.7,2.1-13.6,3.3-20.6,3.7c6.8,3.7,12.7,21.9,12.8,27.5
		c-1.5,0.2-12.8-2.7-12.8,0.7c4.8,5.6,10.6,9.7,17.3,12c-20.8,12.6-19.3-18.4-24.9-22.3c7.4,5.2-33.8-2.9-34.9-1.9
		c3.9,5.8,9.1,9.3,15.6,10.6c0.2-2.3-17.6,5.9-11.3,11.1c7,5.8,85.6,40.5,92.6,35C376.4,159.8,361,150,361,142z M440.5,213.7
		c17.4,11.1,23.3,10.1,43.1,8.1C475.7,198.5,444.4,197.6,440.5,213.7c-5.5-2.2-21-10-24.6,0.1C412.7,223.1,454.7,238.7,440.5,213.7
		C443.5,215.6,442.4,217.1,440.5,213.7z M493.1,258.9c11.7,6.8,40.5,3.8,42.3,4.8C531.3,261.4,465,235.6,493.1,258.9
		c-4.5-2-26.2-14.5-30-1.8C459.2,269.9,500.3,286.4,493.1,258.9C494.2,259.5,494.2,262.9,493.1,258.9z M370.7,385.3
		c-28.5,7.1-18,36.1,9.4,36.5C413.6,422.4,393.4,388.2,370.7,385.3C362.7,387.3,385.3,387.2,370.7,385.3z M467.7,393.9
		c28.9-4.8,9.1-32-12.2-33.1C424.6,359.3,450.2,390.9,467.7,393.9C475.3,392.6,454.4,391.6,467.7,393.9z M394.4,369.9
		c27.8-4.7,15.3-30.1-8.3-31.2C355.6,337.4,374.5,366.9,394.4,369.9C401.9,368.6,381.7,367.9,394.4,369.9z M316.6,316.2
		c-26.6,4.6-18.4,29.3,6.4,29.7C352.8,346.4,338,319,316.6,316.2C308.9,317.5,328.6,317.8,316.6,316.2z M475.5,347.1
		C544.1,329,377.3,331.2,475.5,347.1C481,345.7,463.3,345.2,475.5,347.1z M398,298.7C328.5,314.1,490.2,312.1,398,298.7
		C392,300,409.3,300.3,398,298.7z M344.2,383.6c13.2,2.1,22.4-1.2,27.7-10c-6.3-8.7-48.7-18.5-46.7-16.1
		C329.9,362.9,344.1,383.6,344.2,383.6C353.3,381,343,382.8,344.2,383.6z M467.9,283.9c-38.3-8.6,31.6,44.9,24.9,16.6
		C489.3,287.9,481.1,282.4,467.9,283.9C462.6,282.8,481.5,282,467.9,283.9z M574.6,405.9c9.2-0.3,16.2-3.8,20.8-10.6
		c-3.9-7.7-40.6-31.5-46.3-14.8C571.7,386.8,565.7,400.6,574.6,405.9C580.7,403.6,573.2,405,574.6,405.9z M349,245.8
		c-41.6,9.5,24.1,33.8,22.1,15.3C367.6,250.6,360.2,245.5,349,245.8C343.5,247,358.9,247.4,349,245.8z M431.5,359.6
		c9.9,0.3,17.9-2.8,24.1-9.2c-12.5-6.7-32.4-28.9-44.8-15.1C421.2,343.8,427.6,356.7,431.5,359.6
		C438.9,357.5,430.3,358.7,431.5,359.6z M361.2,336.5c8.8-1.5,17.2-4.1,25.3-7.7c-4.2-7.2-46.4-18.3-43-14.5
		C348.8,320.2,360.9,336.2,361.2,336.5C366.5,335.2,360.1,335.7,361.2,336.5z M292.2,314.4c9.4-0.6,18.2-3.1,26.3-7.5
		c-0.7-4.7-46.5-22.5-42.1-14.6C277.6,294.4,294.4,315.9,292.2,314.4C298.7,313,291.2,313.7,292.2,314.4z M531.3,269.5
		c-36.3,6.6,27.1,33.7,23.7,17C550.8,275.7,542.9,270,531.3,269.5C526.4,270.3,541.3,271.7,531.3,269.5z M443.6,202.3
		c28.6-8.2-22.4-19.9-19.7-11.8C430.5,194.4,437.1,198.3,443.6,202.3C446.9,201.3,435.4,201,443.6,202.3z M393.3,187.6
		c32.2-6.5-23-25.2-19.8-11.7C377.5,184.1,384.1,188,393.3,187.6C397.4,186.8,385.2,186.4,393.3,187.6z M680.8,378.6
		c19.5,1,19.4,16.7,23.2,20.8c5.4,5.8,15.9-2.2,19.8-6.2C712.7,387.7,679.3,377.6,680.8,378.6C694.6,379.3,682.7,379.8,680.8,378.6z
		 M306.3,200.4c-36.9,11.9,23.1,27,21.2,13.1C323.7,204,316.7,199.7,306.3,200.4C301.8,201.9,315.6,201.8,306.3,200.4z M417.6,235.5
		c-37,4.3,25.5,30.4,22.3,13.8C435.8,239.4,428.3,234.8,417.6,235.5C412.2,236.1,426.6,236.8,417.6,235.5z M495.2,218.1
		c28.1-8.3-24.5-20.9-21.1-12.3C481.1,209.9,488.2,214,495.2,218.1C498.3,217.2,486.5,216.8,495.2,218.1z M334.3,155.9
		c-31.9,7.6,21.9,22.1,19.6,11.3C349.7,159.3,343.2,155.6,334.3,155.9C330,156.9,341.5,158,334.3,155.9z M572.8,359.6
		c6.6-1.1,12.5-3.6,17.8-7.6c-0.2,1.2-31.7-27.9-41.3-14.9C561.3,345.3,567.2,355.6,572.8,359.6
		C579.3,357.1,571.2,358.5,572.8,359.6z M441.3,317.4c6.4-1.8,12.8-3.5,19.3-5.3c7.2-2.3-45.4-24.6-38.7-15.4
		C423.6,299.2,442.7,318.3,441.3,317.4C448.2,315.6,440.1,316.6,441.3,317.4z M545.5,261.2c33.5-8.3-26.2-26.7-22.5-14.6
		C527.5,255.9,535,260.8,545.5,261.2C549.3,260.2,536,259.5,545.5,261.2z M491.4,244.1c30.2-10.2-25.8-23.5-22.9-13.7
		C473.3,239.7,480.9,244.3,491.4,244.1C494.7,243,481.7,242.7,491.4,244.1z M644.7,240.3c28.1-4.4-24.6-21-21.9-13.4
		C627.6,235.5,634.9,240,644.7,240.3C648.1,239.7,636.1,238.5,644.7,240.3z M696.9,359.2c31.3-14.6-24-23.5-25.7-21.4
		C679.4,344.3,691.8,356,696.9,359.2C701.8,356.8,695.2,358.1,696.9,359.2z M449.2,281.7c7-0.4,13.5-2.2,19.6-5.6
		c-5.1-8.2-41.3-18.3-38.2-12.9C430.7,263.5,451.1,282.8,449.2,281.7C454.5,280.7,448.3,281.2,449.2,281.7z M571.3,320.2
		c12.1,2,17.4-0.9,15.9-8.7c-10.6,0.9-31.6-27.8-37.7-10.8C567.3,303,565.7,316.6,571.3,320.2C576.9,318.5,569.9,319.3,571.3,320.2z
		 M649.2,266.7c32.6-5.8-26.4-27.3-22.3-15.1C631.6,260.6,639,265.7,649.2,266.7C653,266,640.3,264.2,649.2,266.7z M509.8,300.1
		c6.4-0.6,12.4-2.4,17.9-5.4c-4.2-5-39.1-15.3-37.4-13.1C491.5,283.3,511.1,300.7,509.8,300.1C514.7,298.9,509,299.7,509.8,300.1z
		 M532.8,216.7c-29.5,5.7,23.9,22.4,20.7,12.8C549.1,221.1,542.2,216.9,532.8,216.7C529.2,217.4,541.1,218.3,532.8,216.7z
		 M329.8,243.4c8.2,1.4,15.2,0,21.1-4.5c-4.8-5.6-28.3-19.7-35.8-12.2C333.1,227.9,326,241.8,329.8,243.4
		C336.4,242.4,329,243.1,329.8,243.4z M671.8,308.5c10.2,12,11.3,14.4,28.7,8.9C696.1,304.5,645.1,295,671.8,308.5
		C672.6,309.4,665.5,305.3,671.8,308.5z M554,270.8c2.2-4.9,29.5,35.6,31.9,9.2C586.6,270.9,536.6,262.8,554,270.8
		C554.2,270.4,552.4,270.1,554,270.8z M440.4,235.3c18.7,0.7,17.8,7.3,12,13.6c7,1.7,15.7,2.5,21.3-3.1
		C479.6,239.9,429.6,231.6,440.4,235.3C449.3,235.6,441.7,235.7,440.4,235.3z M628.5,303.3c4.3-0.8,17.7-6.8,12.9-6.5
		c-8.6,0.6-30.9-24.2-34.7-10.6C618.2,287.2,625.2,303.1,628.5,303.3C629.3,303.2,621.2,302.9,628.5,303.3z M278.2,107.3
		c24.6-8.1-17.6-11.6-16.8-8.6C265,105.3,270.6,108.2,278.2,107.3C281.3,106.2,271.4,106.5,278.2,107.3z M290.6,198.5
		c7.1,1,13.6-0.1,19.6-3.4c-4.7-6.1-26.3-17.7-33.9-11.2C291.9,186.4,287.7,197.4,290.6,198.5C296.7,197.8,290,198.2,290.6,198.5z
		 M551.8,241.8c8.2,0.4,23.2,23.9,31.6,10.2C587.6,245.3,541.8,237.2,551.8,241.8C559.8,242.1,552.4,242,551.8,241.8z M611,261
		c9.9,10.7,8.4,12.6,25.7,8C632.6,259,586.8,249.3,611,261C611.6,261.6,605.3,258.2,611,261z M404,195.4c7,4,1.8,27.3,20.7,8.2
		C428.5,199.8,377.3,187.7,404,195.4C401,193.7,397.6,193.6,404,195.4z M506.6,226.7c8.4,7.1,11.9,14.9,23.1,9.1
		C524.4,226.4,484,221.5,506.6,226.7C507.1,227.2,500.7,225.4,506.6,226.7z M668.2,256c-0.6,8,3.9,8.7,13.6,2.1
		c-0.9-3.1-28.2-20.9-31.9-11.5C656.8,247.8,662.9,250.9,668.2,256C665.9,259.6,663.8,253.3,668.2,256z M518.4,213.9
		c30.2-4.6-11.9-17.3-16.2-13.1C509.9,202.3,516.8,213.8,518.4,213.9C521,213.5,511.5,213.7,518.4,213.9z M664.5,237.1
		c26.7-11.3-18.3-16.7-19-15.7C646.5,219.9,668.5,241.1,664.5,237.1C668.1,235.6,660.6,233.2,664.5,237.1z M224.6,35.9
		C206,39.1,251.2,62,245.7,52.2C237.9,47.8,230.8,42.4,224.6,35.9C221.5,36.4,227.5,46.4,224.6,35.9z M553.5,216.7
		c-2.2,4.5,18.9,11.8,26.9,10.2C579.1,222.4,542.9,212.8,553.5,216.7C553.7,216.3,552.6,216.4,553.5,216.7z M322.6,154.2
		c30.2-2.8-3.7-14.2-13.6-12.4C318.1,144.6,319.4,151.9,322.6,154.2C325.8,153.9,321.5,153.4,322.6,154.2z M703.9,276.8
		c-7.5-11.7-13.4-14.2-17.8-7.6C691.9,278.7,697.8,281.2,703.9,276.8C699,271.7,702.6,277.5,703.9,276.8z M293.9,92.6
		c12.8-7.4-14.3-3.1-16.8-6.7C281.9,90.3,287.4,92.5,293.9,92.6C294.9,92,290.1,92,293.9,92.6z M305.7,105.7
		C328.2,102.5,272.9,90.8,305.7,105.7C308.7,105.3,305,105.4,305.7,105.7z M262,82.8c8.3-6.3-4.2-14.4-12.2-14.1
		C252,70.1,261.3,82.6,262,82.8C263.1,81.9,255.8,81.4,262,82.8z M317,95.8C318.2,93.5,313,112.7,317,95.8
		C318.4,93,315.4,102.3,317,95.8z M335.6,100.2C315.1,92.6,329.4,103.9,335.6,100.2C331.7,98.8,333.5,101.5,335.6,100.2z
		 M253.6,58.1C249.1,62.9,260.8,70.6,253.6,58.1C252.2,59.6,255,60.5,253.6,58.1z M252.9,75.6C239.5,69.8,245,78.4,252.9,75.6
		C249.7,74.2,250.3,76.5,252.9,75.6z M281.7,48.9C286.1,45.4,275.8,43.7,281.7,48.9C282.5,48.2,280.7,48.1,281.7,48.9z"/>
	<path fill="#0A53CC" d="M336.7,196.2c-29.4,9.4-71-70.6-93.1-49.9c6.1-0.3,10.7,2.5,13.6,8.2c-5.4,2.5-16.3,16.7-25.2,7.2
		c15.8-17.7-22.2-20.3-25-11.4c-3.5,10.9,20.1,11.3,23.6,11.7c-5.3,2.1-10.7,2.5-16.3,1.1c2.5,7.5,6.4,14.3,11.5,20.4
		c-71.1,14.3,15.3,77.5,8.2,78.5c-47,6.7-34-1.5-25.3,28.8c4.9,16.9-33.5,8.4-39.5,18.1c-3.3,5.3,20.1,31.1,10.4,33.1
		c-56.5,11.6-56,2.9-32.9,52c-9.2,2.3-75.4,4.8-56.6,33.9c-46.3,0-89,14.6-89-48c37.1-7.9,74.1-16.4,111.4-23.3
		c29.7-5.5-6.4-23,0.9-37.4c-9.6,18.9,81.7-50.9,39.3-44.7c100.2-14.6-40.9-78.3,11.4-83.4C140.7,212.5,194,215,193.6,204
		c-0.3-9.2-12.6-12.6-19.3-13c20.5-2.9,4.6-14.7,0.5-22.9c11.3-2.3,22.7-3.7,34.2-4.1c-7.5-10.9-15.3-21.6-23.6-31.9
		c-2.9-8.1,63-5.3,46.2-5.2c-17.1,18.6,26.8,14.1,25.8,10.6c-19.2-67.5-101.1-41-153.4-38.7c7.6-0.6,10.4-4.1,8.4-10.6
		c-7.4-5.7-20.9-4.3-28.5,0.1c2.5,6.1,7.4,9.2,14.8,9.5c-17.5,1.4-58.5-13.7-58.5-13.7c9.5-0.7,27.5,7.6,14.8,12.7
		c22.5,0.2,9.8-27.1,13.7-27.3C74.7,69.2,94.4,73,82,81c7,0.9,15,2.7,21.7-0.3c-4.6-2.6-8.8-5.8-12.6-9.6c3.3,5.9,38.7,11.7,49,8.1
		c-5.2-8.8-49-53.8-45.3-57.9c3.4-3.8,23.7,6.1,25.7-2.5c2.4-10.4-55.9-7.8-57.8-6.1c56.6,32.5-1.3,39.7,1,55.4
		c-33.2-9-27.3-6.8-49.7-24C13.6,43.9-21.3-6.3,12,1c2.9,2.5,34.2,11.1,29,0c5,0,113.4,2.7,115,0c2.3,0,86.1,33.4,59.2,34.4
		c-6.2,0.2-63.1,18.1-63.3,13c0.4,10.3,32.5,15.8,29.1,14.6c-11.7-14.5,56-1.8,26.8,8c9,2.9,33.3,6.2,42.7,10.9
		c-2.3,1.3-4.8,1.8-7.5,1.3C260,103.7,361.3,197.6,336.7,196.2C317.3,202.4,337,196.2,336.7,196.2z M30,52.1
		C32.4,52.7,12.9,50.9,30,52.1C30.5,52.2,26.7,51.9,30,52.1z M108.5,361.6c-23.6,4.9-43,37.6-5.7,37
		C134.3,398,145.4,364.1,108.5,361.6C97.6,363.9,122.2,362.5,108.5,361.6z M26.2,418.2c18.1,1.8,32.9-2.9,44.4-14
		c-3.3-12.4-40.4-33.4-54.2-17.6C50.6,397.2,21.2,414.1,26.2,418.2C39.8,414.9,25.2,417.4,26.2,418.2z M147.5,345.1
		c21.9-6.2,34.5-32.1,0.6-31.1C118.4,314.8,117.8,342.1,147.5,345.1C156.3,342.6,135.4,343.8,147.5,345.1z M178.2,273.9
		c-9.1-1.7-15.1,1.8-18,10.6c0.3,18.9,42.2,21.9,42.1,4.1C199.1,276.5,191.1,271.6,178.2,273.9C171.9,275.3,190.7,273.9,178.2,273.9
		z M179.5,35.4c24.3-10.1-42.3-21-44.8-19.2C107.3,36.1,209.3,46.2,179.5,35.4C182.9,34,167.1,30.9,179.5,35.4z M212.2,262.3
		c8.1,1.3,13.6-1.9,16.3-9.5c-0.9-16.6-38.8-19.8-38.2-4.8C193.6,258.6,200.9,263.3,212.2,262.3C218.1,260,202.1,261,212.2,262.3z
		 M203.8,184.6c38.2-11.7-20.8-23.2-19.5-11C187.9,182,194.4,185.7,203.8,184.6C208.7,183.1,195.5,183.4,203.8,184.6z M188.2,236
		c9.4,1.8,17.6,0.2,24.6-4.7c-6.3-6.4-37.8-12.8-37.8-12.7C181.1,225.4,190.6,236.7,188.2,236C196.5,234.9,187.3,235.8,188.2,236z
		 M330.3,194c30.7-12.3-21.4-20.5-19.8-11.7C314.4,190.7,321,194.6,330.3,194C333.8,192.6,321.8,192.6,330.3,194z M18.4,19.5
		c-28.9,10,17.1,10.7,16.3,6.8C31,20.4,25.5,18.2,18.4,19.5C14.9,20.8,24.5,21,18.4,19.5z M294.1,156.1c30.5-7.9-19.8-18.7-17.9-9.7
		C279.9,153.6,285.9,156.8,294.1,156.1C297.8,155.1,286.7,155.1,294.1,156.1z M259,123c21,2-14.4-23.3-13.5-8.6
		C247.9,120.4,252.4,123.3,259,123C263,123.4,254.3,121.8,259,123z M278.4,139c24.6-1.2-10.4-18.3-16.9-10.9
		C265.5,128.7,278.3,137.9,278.4,139C280.2,138.9,278.1,136.5,278.4,139z M308.8,174.2c32.7-3.2-5.6-14.2-14.6-12.8
		C308.3,163,304,173.8,308.8,174.2C313.5,173.7,308.2,174.1,308.8,174.2z M210.9,143.1c32.7-2.4-13.9-14.7-16.3-11.9
		C199.2,132,210.9,141.7,210.9,143.1C214.3,142.9,210.9,140.7,210.9,143.1z M184.8,70c-27.9,6.1,18,15.2,15.5,7.2
		C195.2,74.8,190,72.4,184.8,70C181.7,70.7,190.9,70.8,184.8,70z M226.5,82.9c-26.7,6.6,18.5,12.7,16.6,7.6
		C237.6,87.9,232.1,85.4,226.5,82.9C223.7,83.6,233.2,83.3,226.5,82.9z M68.6,41.3c17-1.8-18.1-7.8-18.3-6.1
		C52.7,42.1,58.8,44.1,68.6,41.3C67.8,41.4,60.5,41.4,68.6,41.3z M202.9,66.8C217.2,61.7,173.7,53.4,202.9,66.8
		C203.6,66.6,199.4,65.2,202.9,66.8z M42.3,48.7C50.6,62.3,48.3,39.5,42.3,48.7C43.5,50.6,42.7,48.1,42.3,48.7z M19.2,15
		C6.7,4.8,13.7,18.5,19.2,15C16.8,13.1,17.6,16.1,19.2,15z M114,37.3C123.4,43.6,118.5,34.3,114,37.3
		C115.8,38.5,115.3,36.4,114,37.3z M134.5,42.7C137.7,38.6,128.6,32.2,134.5,42.7C135.6,41.3,133.4,40.6,134.5,42.7z M194,21.5
		C184.1,13.1,189.6,23.4,194,21.5C192.2,20,192.7,22.1,194,21.5z M121.3,30C109.4,19.6,117.4,30.6,121.3,30
		C118.5,27.6,120.1,30.2,121.3,30z M78.6,9.3C82.1,4.3,74.3,4.3,78.6,9.3C79.3,8.2,77.7,8.2,78.6,9.3z M58.3,16.2
		C52.2,12.1,53.2,18.5,58.3,16.2C56.8,15.2,56.8,16.8,58.3,16.2z M59.4,5C66.1,9.3,63.3,1.6,59.4,5C60.8,5.8,60.3,4.2,59.4,5z
		 M193.2,33.4C196.7,27,188.9,24.5,193.2,33.4C194.6,30.8,192.1,31.2,193.2,33.4z M155.8,16.2C153.9,19.8,160,20.7,155.8,16.2
		C155.4,17,156.7,17.1,155.8,16.2z M173.3,7.5C170.1,11.3,176.3,12.6,173.3,7.5C172.5,8.4,174,8.7,173.3,7.5z M134.6,93.2
		C134.9,92.4,133.8,93,134.6,93.2C134.6,93.1,134.5,93.2,134.6,93.2z"/>
	<path fill="#3EA6F8" d="M195,127.2c-23.3,1.2,12.9,33.7,14,36.8c-11.5,0.4-22.9,1.8-34.2,4.1c2.6,5.7,5.9,11,9.9,15.8
		c2.2,8.7-35.9,8.6-36.8,8.7c25,44.6,76.2,71.4,4.8,81.8c42.3-6.2-48.9,63.7-39.3,44.7c-7.3,14.4,28.8,32-0.9,37.4
		C85,361.8,1,396.1,1,363c48.4,45.8,74.7-68.5,0-18c0-22.6,47-1.4,44.1-25.6c-8.8-73.5,76,2.1,99.6-44.8
		c-4,7.9-135.4-87.4-65.2-75.4c-10-0.3-14.7,4.4-13.9,14c5.5,10.4,43.2,12.8,39.6-1.7c-3.1-12.7-14.8-9.7-23.6-12.4
		c6.2-0.5,12.3-1.8,18.1-3.9c3.4-9.2-16.3-30.8-20.5-41.1c2.8,0,37.2,8.1,16.9,15.8c8.6,0.5,19.8,2.3,27.6-1.8
		c-6.8-6.5-11.8-7.8-19.1-15c2-9.9,17.1,4.9,4.6-20.1c1.8,0,34.7,7.1,16.5,14c8.1,1.3,16.9,2.4,24.5-1.1c-6.9-6.1-10.7-7-17.6-13.8
		c12.5-17.3-0.2-11.2-23.2-18.2c0.4,0,15.9-3.7,15.9-3.7c-7.3-2.6-13.9-6.4-19.8-11.4c14.6-9,27.1-9.4,37.6-1
		c-5.4-0.5-9.2,1.5-11.3,6.1c3.4,8.6,56.4,7.9,69.4,6.4c-10.7-25.1-38.7-6.5-55.6-12.2c6.6-1,38-2.2,27-14
		c17.1-5.1,74.3,14.5,72.6,38.6c-0.6,8.1-56.9,4.9-43.3,4.7c10.3-18.1-21.4-18.8-23-10.2C181.4,124.6,186.7,128,195,127.2
		C177.8,128.1,188.1,125.9,195,127.2z M158.2,169.5c45.7-8.7-43.5-26.1-37-15.7c10.3,16.5,17.2,16.1,35.6,15.7
		c-3.8,1.7-7.8,3.1-11.8,4.2c20.3,2.9,8.4,8.3,7.4,14c8.9,0.9,19.2,2.6,27.1-2.4C180.6,186.5,157.3,169,158.2,169.5
		C160.7,169,165.2,173.8,158.2,169.5z M74.1,289.5c-9.3,0.2-17.4,3.5-24.3,9.9C24,341.5,154.7,295.9,74.1,289.5
		C70.7,290.1,84.7,290.3,74.1,289.5z M78.8,358.9c14.6,1.2,27.2-2.2,37.8-10.3c-2.6-0.8-52.7-35.8-48.2-16.2
		C66,322.2,95.9,369.8,78.8,358.9C90.3,356.5,77.9,358.3,78.8,358.9z M148.5,242.5c8.9,1.4,15.1-2,18.5-10.1
		c-0.1-17-39.9-19.6-39.9-3.6C130.3,239.1,137.4,243.6,148.5,242.5C155.3,240.3,139,240.8,148.5,242.5z M120.9,310.8
		c13.3,2.3,24.4-0.5,33.1-8.2c-19.3-7.1-23.6-27.1-44.5-14.7C139.1,292.6,118.3,309.1,120.9,310.8
		C131.3,308.8,120,310.2,120.9,310.8z M119.1,193.2c7.9,1.6,13.6-1.1,17-8c0.3-14.2-35.9-18.3-36.1-4
		C103.2,190,109.6,194,119.1,193.2C126.7,192.9,111.7,191.4,119.1,193.2z M157.2,270.5c11.4,2.1,21.1-0.1,29.1-6.4
		c-11.6-5.9-28.5-21.3-41.2-13.6C170.2,254.7,151.9,267.5,157.2,270.5C166.6,269.1,156.4,270.1,157.2,270.5z M89.8,249.2
		c11.7,2.1,22,0.1,30.9-6c-12.3-4.9-27.4-20.4-40-12.8C106.9,232.9,87.3,247.3,89.8,249.2C99.5,247.9,89.1,248.6,89.8,249.2z
		 M119.2,201.4c16.7-2.7,6.7,9.6,2.8,13.6c9.2,5.6,22.7,4.2,30.9-3C143.7,202.1,111.9,199.3,119.2,201.4
		C127.2,200.1,118.8,201.3,119.2,201.4z M168.7,130.4c-36.8,9.3,20,22.2,18.7,10C183.8,132.4,177.5,129.1,168.7,130.4
		C163.9,131.6,176.3,131.6,168.7,130.4z M185.5,164.4c6.4,1.3,12.3,0.4,17.6-2.5c-5-5-23.9-16.3-31.1-10.9
		C190.2,154.5,175.1,163.2,185.5,164.4C192.1,163.9,184.8,164.3,185.5,164.4z M168.4,127.9c13.2-3.5-11.5-12.1-16.9-12.9
		C161.8,128.3,142.8,129.6,168.4,127.9C167.7,128.1,161.4,128.4,168.4,127.9z M214.7,106.2C191.7,107.1,210.8,107.6,214.7,106.2
		C206.5,106.5,211.6,107.4,214.7,106.2z"/>
	<path fill="#0A53CC" d="M79.5,199.2c-7.4-1.4-14.9-0.6-22.4,2.2c-35.2,51.8,103.4,41.7,87.6,73.1c-5.2,10.3-113.1,7.2-106.4,24.2
		C52.2,334.4,31.2,331.5,1,337c0-17.8,26-5.3,38.7-13.8C26.7,318.8,12.8,296.5,1,302c0-18.4,24.2,0,24-21.6
		C24.6,246.6,1,296.9,1,226c0-15,0-30,0-45c13.7,1.5,26.7-0.2,39.2-5c2.1-5.7-21.7-37.1,10.8-19.8c-37.2,11.7,42.6,30,27.8,8.1
		c-6.3-9.4-23.9-3.1-22.9-11.6c2.3-0.1,17.2,4.9,18.1-1.7c2.8-19.1-42.7-19-48.2-13.5c-9.5,9.4,17.4,21.9-10.2,18.3
		C22.7,148.7,1,124.4,1,98c20,21.4,72.8,39.6,104.4,33.3c-21.4-41.3,38.4-0.2,36.1,0c-10.8,0.9-21.4,1.5-32.3,1.7
		c3.9,5.7,6.3,11.9,7,18.7c-6.1,3.9-31.4,2.4-37,2.4c4.3,10.4,23.9,31.9,20.5,41.1C98.7,198,81.5,199.1,79.5,199.2
		C79,199.1,80.2,199.2,79.5,199.2z M111.6,278.1c11.1,1.7,18.8-2.4,23.1-12.4c-0.1-19.1-42.4-18.6-43.7-3.2
		C93.9,272.6,100.7,277.8,111.6,278.1C121.4,275.5,107.4,276.7,111.6,278.1z M45.1,255.5c10.8,1.7,18.4-2.2,22.9-11.8
		c-0.1-19.4-43.8-15.8-43.9-1.5C28.2,251.4,35.2,255.9,45.1,255.5C54,252.9,41.2,254.6,45.1,255.5z M21.5,201.7
		c9.9,1.9,17.2-1.3,21.9-9.8c-0.3-16-39.7-13.9-41-2C6.1,197.9,12.5,201.9,21.5,201.7C29.9,199.3,17.6,200.8,21.5,201.7z M49,287.1
		c13.6,2.4,25.3-0.1,35-7.5c-15.9-6.3-25.7-25.9-44.1-14.2C70,269.8,47.1,286,49,287.1C60,285.4,48.2,286.7,49,287.1z M24.3,227.6
		c11.6,1.5,22.4-0.2,32.3-5C40.8,218.1,35,200.4,17,209.7C43.6,214.8,22.9,226.7,24.3,227.6C34.1,226.5,23.8,227.2,24.3,227.6z
		 M42,133.8c6.8,1.4,11.8-0.9,14.9-6.8c-1.2-12.1-35-12.1-34.3-2.6C26.6,132.3,33.1,135.5,42,133.8C47.2,131.9,34.2,132.4,42,133.8z
		 M95.1,150.2c40-11.3-19.5-21.2-18.6-9.3C80.2,148.6,86.4,151.7,95.1,150.2C100.3,148.7,87.6,149.1,95.1,150.2z M64.6,196.9
		c9.4-0.4,18.6-1.5,27.8-3.5c-12.8-1.7-22.8-17.5-36-12.1C78.8,182.6,63.1,196.4,64.6,196.9C71.5,196.2,64,196.7,64.6,196.9z
		 M118,115.4c-35.8,11,20.6,19.8,18.9,8.8C132.6,117,126.4,114.1,118,115.4C113.3,116.8,125,117.1,118,115.4z"/>
	<path fill="#0A53CC" d="M369,300.3c-20.4,20.2-76.1-18-104.5-11.4c1.5-0.4,62.5,88.9,68.2,96.6c8.1,10.9-58.6,4.3-32.7,42.5
		c-34.5,0-65.9,0-108,0c100-31.9-106.2-35.5-8,0c-23.4,6.4-35.5-4.8-36.4-33.5c51.3-12.9,55-23.9,78.1,19.6
		c8.1,15.3,65.5,0.7,56.2-13.4c-19.1-29-50.5-63.4-61.7-96.6c-5.8-17.1,33.5-6.3,37.3-17.5c-4.5-7.9-9-15.9-13.5-23.8
		c1.9-7.1,31.9-7.4,38.3-9.4c-4.1-6.7-16.4-16.1-14.8-24.9c3.2,0.2,32.6,40.6,43.2,14.9c4.4-10.7-14.8-15.2-20.5-17.4
		c26.2-5.2,48.1,34.5,60.8,56.7c-7.9-2-29.3-10.3-32.4,4.3C313.3,312.9,363.6,294.4,369,300.3C357.6,311.6,367.9,299.1,369,300.3z
		 M295.7,359.3C210.8,408.5,392.2,379.4,295.7,359.3C288.5,363.5,309.8,362.2,295.7,359.3z M251.1,323.3
		c10.1,1.3,16.7-2.7,19.7-12.1C268,270.5,192.7,314.1,251.1,323.3C259.3,321.4,240.4,321.6,251.1,323.3z M276.8,283.5
		c7.8,0.6,13.1-2.7,15.8-9.8c-1.3-16.5-39.3-21.5-38.4-6.4C257.5,278.4,265.1,283.8,276.8,283.5C282.4,280.9,266,281.7,276.8,283.5z
		 M268.3,325.8c-8.1-0.2-13.8,2.6-17.1,8.5c28.4,13.4,11.1,14,14.1,22.2c2.5,6.9,32.9-5.2,32.6-6.8
		C301.7,367,253.4,305.2,268.3,325.8C262.2,328.1,272.9,332.1,268.3,325.8z M312.3,276.1c9.4,1.5,17.3-0.4,23.8-5.7
		c-6.4-6.3-39.6-13.6-39.2-13.1C301.6,262.4,314.9,277.3,312.3,276.1C319.9,274.7,311.4,275.7,312.3,276.1z M231.6,424
		C228.6,421.4,229,425.1,231.6,424C230.9,423.4,230.8,424.3,231.6,424z"/>
	<path fill="#ADEEFD" d="M457.3,401.7c43.3-13.2,46.6-8.5,13.5-41.1c-8-7.9,23.2-14.3,25.8-18.5
		C613.7,401.4,523.6,478.5,457.3,401.7C468.9,398.2,464.9,410.5,457.3,401.7z"/>
	<path fill="#3EA6F8" d="M78.2,133c-22.9,6.7-33.7-33.5-59.9-30c10.7,3,11.7,6.5,3.1,11.4c7.5,2.9,15.5,3.3,23.9,1.2
		C-3.9,141.6,1,52.7,1,43c3.9-0.7,45.6,20.5,62.7,25.2c-0.5-3.7-1.3-7.3-2.3-10.9c22.1-9.5-14.8,41.3,30.8,7.3
		c9.2-6.8-18.3-45.4-29.5-51.8c1.9-1.7,60.2-4.4,57.8,6.1c-2,8.6-22.2-1.3-25.7,2.5c-8,8.8,46.4,40.7,36.6,50.3
		c3.9-0.4-36,1.6-16.3,7.2c30.9,8.8-25.7-10.7-24-7.6c3.8,3.8,8,7,12.6,9.6C97,83.7,89,81.9,82,81c12.5-8.1-7.3-11.9-13.3-11.6
		c-3.9,0.2,8.8,27.5-13.7,27.3c12.7-5.1-5.4-13.4-14.8-12.7C45.9,83.7,81.4,134.5,78.2,133C71.4,134.9,76.4,132.1,78.2,133z
		 M49.4,70.1C17.1,82,68.4,84.5,67.4,78C63.3,71.3,57.3,68.7,49.4,70.1C45.3,71.7,56.2,71.5,49.4,70.1z M19.8,85.8
		c-38.5,10.4,19.4,17.7,18.2,7.4C34,86.1,27.9,83.7,19.8,85.8C14.8,87.2,26.8,86.7,19.8,85.8z"/>
	<path fill="#3EA6F8" d="M619,165c15-2,20.9,2,34.9,5.4c-3.2-2-5-4.8-5.3-8.5c8.5-11,35.6,25,40.6,6.6c2.4-8.7-23.9-18.2-27-23.3
		c14.2-2.5,35.5-7,45,5c-15.4-7-5,0.9-19.2,4.1c13.6,15.8,84.3,41.7,15,56.4c9.7,10.6,25.2,5.5,25.2,21.3
		c-13.7,0.3-16.6-5.4-10.6,7.7c6.2,5.1-45.2-34.6-43.7-46.4c10.2-5.6,21.2,8.5,30.6,8.7c-2.5-3.8-5.3-7.4-8.4-10.7
		c8.5-0.6,16.8-2.4,24.8-5.5c-1.5-3.9-75.8-4.4-74.9-8.1c4.4,10,13.6,15.2,27.6,15.6c-6,0-11.6,1.6-16.6,4.7
		c7.6,10.7,20.2,8.6,26.3,20.8c-12-3.8-35.7-7.7-43.4-18.3c3.3-0.9,6.4-2.3,9.2-4.2c-1.3-11.3-36.2,5.1-32.4-11.3
		c1.2-5.1,12.1-0.3,14.7-0.4c1.5,3.6-42.5-24.7-32.9-18.1c14.1,2.9,25.6,7.4,44,6.3C639.3,167.9,624.2,166.6,619,165
		C628.5,163.8,623.3,166.3,619,165z M624,183.8C619,189.3,649.4,202.2,624,183.8C622.7,185.3,627.8,186.5,624,183.8z M706.9,179.9
		C684.6,169.8,702.4,183.2,706.9,179.9C703.1,178.2,705.5,180.9,706.9,179.9z"/>
	<path fill="#0A53CC" d="M677,352.3c5.2,3.6,10.4,7.2,15.6,10.8c2.6,1.8-39.5,5.8-10.2,26.9c-9.3-7.7-19.4-8.8-30.4-3.3
		c-6.9,12.2,30.7,36.3,39.8,22.4c1.8-6.4-0.1-11.6-5.6-15.4c14.6,9.9,28.6,20.7,41.8,32.4c-22.5,23.1-73.7-24.5-89.7-39.6
		c38.3-15,28.7-10.9-7.1-41.3c8.5-3.5,16.9-7,25.4-10.5c-20.8-18.1-47.2-37.8-50.2-8.6c-6.6-2.2-19.1-9.6-24.6-0.3
		c-9.8,16.9,51.5,35.2,32.2,6.7c30.3,10.6-10.1,25.4-43.1-5.6c6.2-7.1,14.5-10.8,25.1-10.9c-9.1-8.4-18.2-16.8-27.4-25.1
		c8.1-2.3,16.2-5,24.1-8c-4.5-4.4-22.9-19.2-24.2-22.9c10.3-5.9,20.4-5.5,30.2,1.4c-7.2-3.6-14.3-3.6-21.2,0
		c-10.8,5.3,40.7,14.6,40.8,14.7c-8.1,3.2-38.2,15.1-38.6,17c-6.6,26.5,72,5.5,77.9,15.3c-7.1-4.1-13.5-3.4-19.1,2.1
		c-5.1,22,43.9,16,44.5,16.4c-7.5,3.1-29.4,5.3-15.2,17.5c-6,1.1-18.6-9.1-22.8,1.4C639.9,358,687.8,385,677,352.3
		C684,353.3,678.4,356.5,677,352.3z"/>
	<path fill="#0A53CC" d="M457.3,401.7c7.6,8.8,15.1,17.5,22.7,26.3c-13.9,1-26.2-4.6-36.8-16.8c-11.4,23.5-31.4,29.1-60.2,16.8
		c33.4-12.4,28.1-55.5,5.1-51.4C425.9,369.9,432.5,369.4,457.3,401.7C464.9,410.5,439.9,379,457.3,401.7z M420.1,408.9
		c11.3,0.2,20.2-3.5,26.6-11.1c-15.7-7.9-32.6-31.9-48.4-16.2C414.8,392.2,413.4,403.8,420.1,408.9
		C428.3,406.3,418.8,408,420.1,408.9z"/>
	<path fill="#ADEEFD" d="M147.6,394.5c5.1,11.2,10.3,22.3,15.4,33.5c-4.6,0-97.7,11.7-76.3-16.9C93.9,401.6,156.1,397.8,147.6,394.5
		C152.7,405.7,147.3,394.4,147.6,394.5z"/>
	<path fill="#0A53CC" d="M715.8,301c16.6,3.5,20.6,14.8,12.2,34c-10.1-11.7-20.3-14.2-30.7-7.6c-4,17.2,30.7,9,30.7,28.6
		c-17.6-3-28.7-16.1-41.8-28.6c6.8-3.5,13.9-6.5,21.2-8.9c5.6,4.9-62.8-46.1-58-49c11.1-6.7,37-16,47.5-5
		c-0.1-0.2-16.6-0.7-17.6,1.3c-4.9,10.1,37.9,27.7,28.5,6.5c27.9,19.9-20.7,4.5,3.1,24.9c-7.2-6.2-14.7-6.9-22.4-2.1
		C685.1,301.8,726.3,329,715.8,301C719.8,303,717,304.3,715.8,301z M679,289.4c28.4-10-17.2-19.5-22.7-17.2
		C655.3,271.3,679,289.4,679,289.4C682.5,288.2,672.3,289.1,679,289.4z"/>
	<path fill="#3EA6F8" d="M638.3,386.4C674,420,698.5,428,651,428c6.5-1.4,11.5-4.7,15-9.8c-3.4-5.8-51.5-26.5-45.8-15.6
		c2.7,5.2,37.1,3.2,22.7,25.4c-17.1,1.6-29.6-8.1-37.6-29.1C616.4,394.7,627.4,390.6,638.3,386.4
		C650.8,398.1,627.4,390.6,638.3,386.4z"/>
	<path fill="#ADEEFD" d="M184,428c-23.7-8.6-30-35.5,0.4-39.8C221.9,383,220.7,428,184,428C181.9,427.2,186.7,428,184,428z
		 M186.6,395.1c-33.5,4.5,17.3,39.7,15.2,16.1C196.7,405.9,191.7,400.5,186.6,395.1C180.9,395.9,195.7,396.4,186.6,395.1z"/>
	<path fill="#ADEEFD" d="M1,345C104.6,274.9,1,443.1,1,345C12.8,337,1,351,1,345z M26.3,364.3c33.7-5-13.2-36.2-13.1-12.9
		C17.6,355.7,22,360,26.3,364.3C32.2,363.5,18.1,363.7,26.3,364.3z"/>
	<path fill="#3EA6F8" d="M50.9,156.2c-5.7,0.2-11.4,0.4-17.1,0.6c2.2,6.4,4.3,12.8,6.3,19.2c-12.4,4.8-25.5,6.5-39.2,5
		c0-9,23.1-4.3,32.4-6.8C24.8,173.1,1,156.7,1,157c8.9-1,17.8-1.5,26.8-1.7c-1.7-5.9-2.3-11.8-1.9-17.9c4.1-4.1,36.3,8.9,14.7,14.5
		C45,152.3,65.3,157.2,50.9,156.2C45.1,153.1,52.4,156.3,50.9,156.2z"/>
	<path fill="#ADEEFD" d="M722.5,355.1c15.2,0.7,17.1,12.7,5.5,35.9C719.9,384.4,676.9,352.6,722.5,355.1
		C724.3,355.4,721.8,355,722.5,355.1z"/>
	<path fill="#0A53CC" d="M683.1,218.9C667.8,188,728,240.4,728,250C687.6,266.7,694.5,226.8,683.1,218.9
		C681.9,216.4,686.5,221.2,683.1,218.9z M711.8,251.1c26.3-8.8-17.3-16.4-17.7-16.2C694.6,234.7,710,249.4,711.8,251.1
		C715.5,249.9,708.7,248,711.8,251.1z"/>
	<path fill="#ADEEFD" d="M1,302c11.8-5.5,25.7,16.8,38.7,21.2c-10.9,8-23.9,10.9-38.7,8.8C1,324.6,1,314.1,1,302
		C14.6,295.7,1,303.7,1,302z"/>
	<path fill="#ADEEFD" d="M248,428c3.8-21,38.7-14.8,46,0C278.7,428,263.3,428,248,428C249.7,418.7,263.3,428,248,428z"/>
	<path fill="#0A53CC" d="M605.4,398.9c10.2,9.7,20.4,19.4,30.6,29.1c-5.2,0-66.5-40.1-44,0C558.5,428,587,398.7,605.4,398.9
		C615.6,408.6,605.2,398.9,605.4,398.9z"/>
	<path fill="#ADEEFD" d="M327,428c-2.7-2.3-18.6-23.9-24.4-19.4c12.3-9.6,52.1,12.8,51.4,19.4C345,428,336,428,327,428
		C320.4,422.3,336,428,327,428z"/>
	<path fill="#ADEEFD" d="M592,428c-16.5-29.4,27.5-21,37,0c-12,1.8-21.9-3.2-29.6-14.8C586.6,411.9,619.1,428,592,428
		C589.1,422.9,595.7,428,592,428z"/>
	<path fill="#ADEEFD" d="M430,428c9.8-23.8,24.4-23.8,44,0C450.8,428,447.5,428,430,428C429.1,418.2,434,428,430,428z"/>
	<path fill="#ADEEFD" d="M643,428c14.4-22.2-20-20.2-22.7-25.4c-5.8-10.9,42.4,9.8,45.8,15.6C669.2,423.7,646.9,428,643,428
		C652.3,413.6,645.7,428,643,428z"/>
	<path fill="#ADEEFD" d="M1,267c12.1-2.4,20.1,2,24,13.4c-4,11.2-12,16-24,14.6c-1.4-7.1,2.5-11.5,11.7-13.1
		C3.6,279.3-0.3,274.4,1,267C11.2,267.8,1,268.7,1,267z"/>
	<path fill="#ADEEFD" d="M728,348c-17.4-0.3-27.7-7.2-30.7-20.6C700.7,312.5,728,333.4,728,348C716.5,348.2,728,343.7,728,348z
		 M722.7,344c10.1-10.8-20.2-16.4-18.6-13.5C710.3,335,716.5,339.5,722.7,344C723.5,343,714.6,341.1,722.7,344z"/>
	<path fill="#ADEEFD" d="M728,426c-7-5.8-14.1-11.7-21.1-17.5C729.2,390.8,736.2,396.6,728,426C721,420.2,728,417,728,426z"/>
	<path fill="#ADEEFD" d="M1,161c17.1-5.5,16.7,11.2,32.4,13.2c-10.5,3.2-21.3,4.5-32.4,3.8C1,173.6,1,166.6,1,161
		C10.4,157.9,1,162,1,161z"/>
	<path fill="#ADEEFD" d="M728,224c-10.9-0.7-19.3-5.1-25.2-13.3C715.1,208.1,728,206.8,728,224C721,223.3,728,221,728,224z"/>
	<path fill="#ADEEFD" d="M37,428c14.3-9.8,36.3-9.8,44,0C66.3,428,51.7,428,37,428z"/>
	<path fill="#ADEEFD" d="M15.6,155.8C3.4,156.8,1,149.7,1,139C15.4,140.5,30,141.5,15.6,155.8C10.8,156.2,18.2,153.2,15.6,155.8z"/>
	<path fill="#0A53CC" d="M603,428c-18.2-24.2,7.9-13.7,17,0C614.3,428,608.7,428,603,428C600.1,424.1,608.7,428,603,428z"/>
	<path fill="#3EA6F8" d="M1,393c3.7,11.7,7.3,23.3,11,35C-6.2,432.1,1,400.1,1,393C4.7,404.7,1,399.8,1,393z"/>
	<path fill="#0A53CC" d="M1,272c15.6,6.7,15.6,12.7,0,18C1,284,1,278,1,272C7.9,271.7,1,278,1,272z"/>
	<path fill="#0A53CC" d="M442,428c0.4-14.7,7.4-14.7,21,0C456,428,449,428,442,428C440.7,424.2,449,428,442,428z"/>
	<path fill="#ADEEFD" d="M693,428c-13.9-17.4,20.1,0.1,20,0C706.3,428,699.7,428,693,428C689.1,423.2,699.7,428,693,428z"/>
	<path fill="#0A53CC" d="M1,307c17.9,3.3,6.3,16.5,0,20C1,320.3,1,313.7,1,307C10.5,308.7,1,313.7,1,307z"/>
	<path fill="#ADEEFD" d="M728,276c-5.3,2-22.1-13.6-26.1-16C709.2,255.4,728,270.3,728,276C718.4,279.7,728,274.3,728,276z"/>
	<path fill="#ADEEFD" d="M718.3,240.5c-14.4-11.8,1.4-8.3,9.7-8.5c0,8.6-8.5-0.4-8.3,3.1C719.8,236.8,735.8,250.7,718.3,240.5
		C718,240.3,719.2,241,718.3,240.5z"/>
	<path fill="#0A53CC" d="M1,142C25.7,139.4,1,168.2,1,142C5.5,141.5,1,145.3,1,142z"/>
	<path fill="#3EA6F8" d="M1,164C20.9,165,1,189.2,1,164C3.3,164.1,1,167.7,1,164z"/>
	<path fill="#0A53CC" d="M728,215c0,0-37.8-13.6,0-12C728,211.2,728,203.5,728,215C723.7,213,728,213,728,215z"/>
	<path fill="#0A53CC" d="M1,59C25.7,60.7,1,70.9,1,59C4.7,59.3,1,60.7,1,59z"/>
	<path fill="#3EA6F8" d="M41,1C48.6,17.2,29.2,1,41,1C42,3.1,39.3,1,41,1z"/>
	<path fill="#3EA6F8" d="M728,240C710.9,230.4,728,233.4,728,240C725.1,238.4,728,238.7,728,240z"/>
	<path fill="#3EA6F8" d="M18,1C17.9,11,5.7,1,18,1C18,2.9,16,1,18,1z"/>
	<path fill="#3EA6F8" d="M1,32C7,33.3,1,53.1,1,32C4.2,32.7,1,35,1,32z"/>
	<path fill="#3EA6F8" d="M238,1C238.4,10.8,225.2,1,238,1C238.1,2.9,236,1,238,1z"/>
	<path fill="#3EA6F8" d="M728,209C717.4,205.4,728,204.4,728,209C726.3,208.4,728,208,728,209z"/>
	<path fill="#3EA6F8" d="M720.9,242C728.9,244.3,732.5,250.2,720.9,242C723.3,242.7,723.3,243.7,720.9,242z"/>
	<path fill="#ADEEFD" d="M1,217c2,3,3.2,6,0,9C1,223,1,220,1,217z"/>
	<path fill="#3EA6F8" d="M156,1c-2,3.4-4,3.2-6,0C152,1,154,1,156,1z"/>
	<path fill="#3EA6F8" d="M443.1,136.2c-22.1-15.5-4.8-4,7.4-8.6c-14.4-10.3-32.6-5.1-42.4-20.7c11.1-4.8,23.6,0,34.5-5.1
		c-11.6-13.2,3.5-13.8,4-13c-8.9-14.4-71.8-19.6-72.2-18.8c-4.1,8.2,27.8,10.3,23.4,19.1c-10,20.2-57.4-43.3-61.3-40.1
		c9.1-7.5,19.9,1,30.6-0.7c-2.6-7.2-18.9-12.9-14.8-21.9c13.1,6.9,90.1,78.4,113.7,52.8c-5.5,5.9-3.4,8.9-13.8,11.3
		c2.1,3.2,67,15.7,59.5,32.7c1.5-3.4-72-7.9-64.1-7.8c4.3,0,20.5,30.4,8.2,25.9C447.6,138.3,449.3,128.9,443.1,136.2
		C439.4,133.6,444.1,134.9,443.1,136.2z M417.4,106.2C412.2,111,433.4,119,417.4,106.2C416.1,107.4,420,108.2,417.4,106.2z
		 M400.1,72.2C406.3,67.2,385.8,62.2,400.1,72.2C401.4,71.2,397.8,70.6,400.1,72.2z M398.4,74.4C388.5,67.9,392.3,77,398.4,74.4
		C396.3,73,396.8,75.1,398.4,74.4z M467.8,108.8C455.5,103.3,464.2,111.9,467.8,108.8C465.6,107.8,466.8,109.6,467.8,108.8z
		 M433.7,111.6C429.7,116.8,438.8,117.3,433.7,111.6C432.8,112.7,434.8,112.9,433.7,111.6z M450.5,101.7
		C447.7,106.4,452.1,106.2,450.5,101.7C449.4,103.6,451,103.1,450.5,101.7z"/>
	<path fill="#3EA6F8" d="M569.1,190.2c-5.2,0.8-39.1-28.5-40.4-30.5c-0.8-1.2,17.7,8.3,18.3,5.8c3.9-16.4-20.2-9.5-18.5-22.8
		c0.6-4.9,33-4.5,32.6-4.3c-6-10.9-23.5-12.5-28.8-21.8c0.1,0.2,100,24,97.3,29.9c-5.7,4.1-11,4.5-15.9,1.2
		c4.1,13.4,12,5.4,17.5,10.4c-7.2,3.6-68.2-20.6-69.6-3.8c0.1-0.7,58.1,40.7,61.8,42.9C597.5,205.4,598.5,177.2,569.1,190.2
		C560.9,191.4,575.7,187.3,569.1,190.2z M591.5,182.7c14.7-10.4-20-11.6-18.8-9.8C578.9,176.1,585.2,179.4,591.5,182.7
		C592.5,182,583.5,181,591.5,182.7z M578.4,126.2C576.1,129.5,587.9,133.5,578.4,126.2C577.9,127,580,127.5,578.4,126.2z"/>
	<path fill="#3EA6F8" d="M467.6,165.2c10.8-8.4-31.1-1.8-30.4-13.6c1.1-19.7,66.7-6.9,75,3.3c-6.9,2.8-27.6,6-29,9.1
		c-2.3,5.2,15.6,14,17,20.9c-4.6-1.6-24.3-10.5-20.2,3c-3.4-3.1-6.5-6.5-9.3-10.1c4.6-0.2,9.1-1,13.5-2.4
		C478.4,172.7,472.8,169.2,467.6,165.2C470.5,162.9,472.1,169.2,467.6,165.2z M477.2,160c30.9-7.2-12.8-14.1-14.1-11.8
		C467.8,152.2,472.5,156.1,477.2,160C482.1,158.9,473.7,155.2,477.2,160z"/>
	<path fill="#3EA6F8" d="M566.9,110.6c-11.2,1-37.1-13.7-38.9-25.7c-1.4,0.2,59.4,24.5,58.9,22C580.3,108.1,573.6,109.4,566.9,110.6
		C548.2,112.3,573.6,109.4,566.9,110.6z"/>
	<path fill="#ADEEFD" d="M343.7,120.9c-11.8-6.2-13.1-11.4-3.8-15.6c8.1,3.7,22.1,11.2,12,15.1c2.3,1.5,26.3-3,21.8,11.2
		C370.5,141.6,348.8,126.2,343.7,120.9C343.6,114.6,344.9,122.2,343.7,120.9z"/>
	<path fill="#ADEEFD" d="M588.6,230c8.3,3.3,13.7,8.8,16.4,16.4c-9.6,7.5-19.9,4.6-30.8-8.7C568.5,230.6,589.1,232.4,588.6,230z"/>
	<path fill="#3EA6F8" d="M327.9,24.2c-1.4,3.1-41.6,0.9-39.2-14.5C289.4,5.4,324.3,12.6,327.9,24.2C327.6,25,324.7,14.1,327.9,24.2z
		"/>
	<path fill="#3EA6F8" d="M367.8,91.9c-1-1.7-43.3-31.4-40.4-33C336.7,53.8,383.1,87.7,367.8,91.9C360.1,78.8,370.9,91.1,367.8,91.9z
		"/>
	<path fill="#ADEEFD" d="M536.4,173.8c8.7-0.1,18.5,5.7,17.4,15C538.1,192.9,511.2,178.5,536.4,173.8
		C537.4,173.8,534.2,174.2,536.4,173.8z"/>
	<path fill="#3EA6F8" d="M411.6,148c-20.2-2.7-17.7-17.9-33.3-26.9C388.9,116.4,431.4,142.1,411.6,148
		C403.9,147,414.2,147.2,411.6,148z"/>
	<path fill="#ADEEFD" d="M569.1,190.2c-8.9,4,42.9-5.3,32.6,10.1C588.1,205.9,577.2,202.5,569.1,190.2
		C575.7,187.3,572.2,196.1,569.1,190.2z"/>
	<path fill="#ADEEFD" d="M322,133.7c-9.8-0.8-19.5-1.7-29.3-2.5C286.2,125.9,314.5,126.9,322,133.7
		C311.6,139.7,318.9,130.9,322,133.7z"/>
	<path fill="#ADEEFD" d="M578.1,219c-12-25.1,26.8-1.5,23.8,3.3C595,233.6,583.4,218.6,578.1,219z"/>
	<path fill="#3EA6F8" d="M365.8,120.3c-18.1,2.8-29.4-22.7,3.6-13.6c-2.3,1.8-24.6,10.5,2.9,9.9c-1.4-1.5-3.1-2.6-5.1-3.3
		c-5-4.2,18.9,2.4,20.1,3.4C380.6,120,373.4,121.2,365.8,120.3C362,120.9,371.4,119.8,365.8,120.3z"/>
	<path fill="#3EA6F8" d="M511,135.1c10.5,17.3-41.9-18.8-38.1-18.9C487.9,115.5,508.8,138.8,511,135.1
		C511.8,136.3,510.3,136.3,511,135.1z"/>
	<path fill="#ADEEFD" d="M434.3,176.7c-17.2-13.3,27.1-13.9,23.1,0.8C455.3,185.6,438.5,177.9,434.3,176.7
		C433.9,176.3,436.7,177.4,434.3,176.7z"/>
	<path fill="#ADEEFD" d="M496.1,175.8c-6.8-1.4-11.1-5.3-12.8-11.7C488.1,153.3,531.8,175.6,496.1,175.8
		C491.1,172.3,500.9,175.7,496.1,175.8z"/>
	<path fill="#ADEEFD" d="M683.1,218.9c9.2,1.8,12.1,6.1,8.8,12.9c-16.2,1.7-25-3.8-26.3-16.4C671.6,213.6,677.5,214.8,683.1,218.9
		C686.5,221.2,678.6,217.5,683.1,218.9z"/>
	<path fill="#3EA6F8" d="M511.8,100.2c4.6,0.5-40.1-15.7-30.4-19.4C494.5,75.7,527.7,93.1,511.8,100.2
		C498.4,98.6,512.6,99.8,511.8,100.2z"/>
	<path fill="#3EA6F8" d="M546.4,210.3c-6.8-4-13.5-8-20.3-12C523.6,191.6,572.1,201.7,546.4,210.3
		C538.2,208.7,549.3,209.3,546.4,210.3z"/>
	<path fill="#3EA6F8" d="M361.9,143c7.5,9.3-23.6,13.8-23.3,0.8C338.9,128.9,358.4,143.3,361.9,143z"/>
	<path fill="#ADEEFD" d="M480.1,187.9c-6-19.6,31.8,1.5,24,5.7C490.2,200.9,488.1,187.7,480.1,187.9z"/>
	<path fill="#ADEEFD" d="M420.7,118.7c9.2-3.2,22.8,3.8,29.7,8.8C430.1,135.3,418.9,129.8,420.7,118.7
		C431.5,114.9,420.5,120.2,420.7,118.7z"/>
	<path fill="#ADEEFD" d="M602.5,227.8c9.4,5.2,19.2,9.6,29.4,13.1C631.7,265.7,595,222.4,602.5,227.8z"/>
	<path fill="#ADEEFD" d="M636.7,173.3c-2.3,12.4-23.1-2.3-23.7-10.3C621.7,165.9,629.8,167,636.7,173.3
		C635.9,177.6,635.1,171.8,636.7,173.3z"/>
	<path fill="#3EA6F8" d="M530.9,185.8c43.8,13.9-29.2-6.7-26.5-6.9C513.5,178.3,522.4,189,530.9,185.8
		C535.3,187.2,522.4,189,530.9,185.8z"/>
	<path fill="#ADEEFD" d="M482.3,198.1c-7.1-2.8-20.8-11.1-29.6-12.1C457.4,183,484.7,192.4,482.3,198.1z"/>
	<path fill="#3EA6F8" d="M617.7,105.5c-7.8,1.6-24.3-4.7-25.7-13.9C599.9,92.3,619,104.9,617.7,105.5
		C603.4,108.5,615.6,106.5,617.7,105.5z"/>
	<path fill="#3EA6F8" d="M553.7,188.8c0.6-5.3,15.3,4.4,25.4,15.3C574.9,205.1,546,199.1,553.7,188.8
		C554,187,550.4,193.2,553.7,188.8z"/>
	<path fill="#ADEEFD" d="M365.5,153.2c6.7,4.2,13.3,8.6,19.8,13.1C373,175.8,347.2,153.2,365.5,153.2
		C370.9,157.6,364.8,153.2,365.5,153.2z"/>
	<path fill="#3EA6F8" d="M608.4,121.3c5.8,2.8,11.6,5.6,17.3,8.5C626.7,131.8,586.2,128.7,608.4,121.3
		C615.7,121.6,606.3,122,608.4,121.3z"/>
	<path fill="#ADEEFD" d="M408.9,168.5c0,0,26.1,13.3,23.9,13.5C416.7,183.7,405.3,168.2,408.9,168.5
		C418.7,168.7,408.4,168.4,408.9,168.5z"/>
	<path fill="#ADEEFD" d="M611.1,181c-5.9-4.6-11.9-9.1-17.8-13.7C603.8,166,633.7,181.2,611.1,181C605.1,176.4,613.7,181,611.1,181z
		"/>
	<path fill="#3EA6F8" d="M652.9,130.3c-5.4-3.1-10.7-6.2-16.1-9.3C636.2,120.1,668.6,121.2,652.9,130.3
		C645.7,128.8,654.2,129.5,652.9,130.3z"/>
	<path fill="#3EA6F8" d="M425.2,164.2c-4.4-4.1-8.9-8.1-13.3-12.2C416.6,147.2,458.5,160.8,425.2,164.2
		C423.8,157.7,429.5,163.8,425.2,164.2z"/>
	<path fill="#ADEEFD" d="M467.6,165.2c5.2,4,10.7,7.5,16.6,10.3c-4.4,1.4-8.9,2.2-13.5,2.4C471.1,179,452.3,151.9,467.6,165.2
		C472.1,169.2,465,162.9,467.6,165.2z"/>
	<path fill="#3EA6F8" d="M588.4,164.9c-5.4-3.2-10.8-6.4-16.1-9.6C569.7,148.1,609.3,163.2,588.4,164.9
		C582.4,163.2,591,164.7,588.4,164.9z M590.3,160.7C566.5,148.4,581.7,163.5,590.3,160.7C585.6,158.3,587.5,161.7,590.3,160.7z"/>
	<path fill="#3EA6F8" d="M373.5,93.9c6.2-3.8,20.1,6.5,16.9,8C380.6,106.5,374.9,103.8,373.5,93.9C380.7,89.5,371.6,98.5,373.5,93.9
		z"/>
	<path fill="#ADEEFD" d="M375.5,135.1c6.5,3.5,12.6,7.6,18.3,12.3C384.4,154.3,357.4,136.5,375.5,135.1
		C380.5,139.5,374.1,135.2,375.5,135.1z"/>
	<path fill="#3EA6F8" d="M610.4,214.4c5.4,3.4-23-12.5-7.8-8.4c2,0.5,22.5,13.3,23.1,13.2C617,224.8,611.9,223.2,610.4,214.4
		C610.1,214.2,612.9,219.6,610.4,214.4z"/>
	<path fill="#3EA6F8" d="M616.4,119c-15.1-3.7-18.7-7.2-10.8-10.6C623,112.4,626.6,115.9,616.4,119
		C611.2,117.5,618.7,118.8,616.4,119z"/>
	<path fill="#3EA6F8" d="M417,48.9c-14.1-2.1-17.4-4.7-9.9-7.6C410.8,42.2,430,43.3,417,48.9C410.8,48.5,417.8,48.6,417,48.9z"/>
	<path fill="#ADEEFD" d="M382.7,113.3c-3,4.1-21.4-4.9-15.6,0.1c2,0.7,3.7,1.8,5.1,3.3c-4.7,0.3-8.8-1.9-12.1-6.6
		C359.7,98.6,386.4,116.8,382.7,113.3C381.8,114.5,378.9,109.7,382.7,113.3z"/>
	<path fill="#3EA6F8" d="M434.4,146.1C397.2,134.9,471.2,139.2,434.4,146.1C432.3,145.5,437.5,145.5,434.4,146.1z"/>
	<path fill="#ADEEFD" d="M305.1,114.2c0.1-2.6,22.6-1.9,24.3,1.9C333.3,125.3,304.9,114.1,305.1,114.2
		C305.1,112,305.7,114.8,305.1,114.2z"/>
	<path fill="#ADEEFD" d="M467.1,141.8c-13.4,0.2-14.5,1.9-24-5.6C446,132.8,464.5,138.4,467.1,141.8
		C462.6,141.9,465.4,139.5,467.1,141.8z"/>
	<path fill="#3EA6F8" d="M420,123c-16.5,8.2-5.1-12.9-2.5,7.2c-9.7,1-15.3-2-16.7-9.3C407.5,117.9,413.9,118.6,420,123
		C419.2,123.4,416.5,121.6,420,123z"/>
	<path fill="#3EA6F8" d="M246.2,3.5c2,0.3,13.2,14.5,8.2,12.9C245.4,13.2,242.6,8.9,246.2,3.5C253.4,4.7,245.8,4.5,246.2,3.5z"/>
	<path fill="#3EA6F8" d="M411.6,102.1c-6.7-0.2-11.8-2.9-15.3-8.3C402.1,89.2,420.8,98.6,411.6,102.1
		C400.6,104.3,410,102.7,411.6,102.1z"/>
	<path fill="#ADEEFD" d="M489.3,133.5C489.7,123.8,503.1,144,489.3,133.5C489.4,131.4,490,134,489.3,133.5z"/>
	<path fill="#3EA6F8" d="M537,130.2C531.8,137.3,530,112,537,130.2C536.4,130.9,536,127.8,537,130.2z"/>
	<path fill="#ADEEFD" d="M373.5,93.9C368.1,107,367.4,93.8,373.5,93.9C371.6,98.5,372,93.9,373.5,93.9z"/>
	<path fill="#3EA6F8" d="M466.9,117.4C476,134.2,459.8,123.4,466.9,117.4C468.3,119.9,464.1,119.8,466.9,117.4z"/>
	<path fill="#ADEEFD" d="M272.9,63.4C271.7,69.3,260.4,55.9,272.9,63.4C272.4,65.7,271.6,62.6,272.9,63.4z"/>
	<path fill="#3EA6F8" d="M306.9,116c4.7,1.6,9.5,3.2,14.2,4.8C315,123.3,310,122.4,306.9,116z"/>
	<path fill="#ADEEFD" d="M511,135.1C506.9,142,500.3,127.4,511,135.1C510.3,136.3,509.3,133.9,511,135.1z"/>
	<path fill="#3EA6F8" d="M292.6,70.1C299.3,81.6,288.8,74.2,292.6,70.1C293.8,72.2,291.5,71.3,292.6,70.1z"/>
	<path fill="#3EA6F8" d="M322.4,65.3C316.7,67.5,314.5,58.5,322.4,65.3C320.7,66,320.7,63.9,322.4,65.3z"/>
	<path fill="#3EA6F8" d="M515.3,108.6C510.8,112.5,506.8,103,515.3,108.6C514.1,109.6,513.6,107.5,515.3,108.6z"/>
	<path fill="#3EA6F8" d="M307.1,63.1C302.6,66,300.3,55,307.1,63.1C306.2,63.6,305.9,61.7,307.1,63.1z"/>
	<path fill="#3EA6F8" d="M312.7,77.1C307.6,79.1,301.8,69.6,312.7,77.1C310.9,77.8,309.8,75.1,312.7,77.1z"/>
	<path fill="#3EA6F8" d="M563.8,117C570.7,123,559.8,120.8,563.8,117C564.9,118,563,117.8,563.8,117z"/>
	<path fill="#3EA6F8" d="M433.5,96.4C437,101.7,431,101,433.5,96.4C434.3,97.7,432.9,97.5,433.5,96.4z"/>
	<path fill="#3EA6F8" d="M312.9,125.4c-2.4-0.5-4.9-1-7.3-1.5C308.7,121.2,311.2,121.1,312.9,125.4z"/>
	<path fill="#3EA6F8" d="M440.4,86.8C437,89.6,436.9,83.6,440.4,86.8C439.7,87.4,439.7,86.1,440.4,86.8z"/>
	<path fill="#3EA6F8" d="M417.8,93C419.8,97,415,96,417.8,93C418.3,93.9,417.1,93.7,417.8,93z"/>
	<path fill="#3EA6F8" d="M424.7,82.8C422.5,85.3,421.9,80.8,424.7,82.8C424.3,83.2,424.1,82.5,424.7,82.8z"/>
	<path fill="#3EA6F8" d="M526.9,120.4C528.5,123,524.6,122.9,526.9,120.4C527.3,120.9,526.3,121.1,526.9,120.4z"/>
	<path fill="#3EA6F8" d="M544.4,176.1c-1.7-0.8-3.4-1.5-5.1-2.3C541.9,172.6,543.5,173.6,544.4,176.1z"/>
	<path fill="#3EA6F8" d="M536.4,173.8c-2.2,0.4-4.9,2.5-5.6-1.8C532.6,172.6,534.5,173.2,536.4,173.8z"/>
	<path fill="#3EA6F8" d="M470.5,172.4C473.5,175.7,469.7,176.8,470.5,172.4C471.1,173.1,470.3,173.3,470.5,172.4z"/>
	<path fill="#3EA6F8" d="M449,140.9c1.1,0.3,2.3,0.7,3.4,1C451.3,141.5,450.1,141.2,449,140.9z"/>
	<path fill="#3EA6F8" d="M482.2,189.8c0.8,0.5,1.5,1,2.3,1.5C483.7,190.8,482.9,190.3,482.2,189.8z"/>
	<path fill="#3EA6F8" d="M480,187.9c0.7,0.6,1.4,1.2,2.2,1.8C481.5,189.2,480.8,188.6,480,187.9z"/>
	<path fill="#3EA6F8" d="M491.2,134.9c0.7,0.5,1.4,1.1,2.2,1.6C492.6,136,491.9,135.5,491.2,134.9z"/>
	<path fill="#3EA6F8" d="M368.9,93.8c-0.4,0.5-0.8,1-1.2,1.5C368.1,94.8,368.5,94.3,368.9,93.8z"/>
	<path fill="#3EA6F8" d="M591.5,190.9c-0.6-0.3-1.1-0.7-1.7-1C590.4,190.2,590.9,190.5,591.5,190.9z"/>
	<path fill="#3EA6F8" d="M483.1,196.4c-0.2-0.4-0.4-0.9-0.6-1.3C482.6,195.5,482.9,195.9,483.1,196.4z"/>
	<path fill="#3EA6F8" d="M549.5,189.7c0.7-0.1,1.3-0.2,2-0.3C550.8,189.5,550.1,189.6,549.5,189.7z"/>
	<path fill="#3EA6F8" d="M363.4,153.2c-0.6,0.1-1.2,0.1-1.8,0.2C362.2,153.3,362.8,153.2,363.4,153.2z"/>
	<path fill="#3EA6F8" d="M269,61c-0.3-0.4-0.5-0.8-0.8-1.1C268.4,60.3,268.7,60.6,269,61z"/>
	<path fill="#3EA6F8" d="M424.7,127.2c-0.2-0.4-0.5-0.8-0.7-1.2C424.3,126.4,424.5,126.8,424.7,127.2z"/>
	<path fill="#ADEEFD" d="M369,300.3c-5.4-5.8-55.7,12.6-50.3-13.4c0.5-2.6,73.1-30.4,72.7-30.4c-4.2-8.5-10.6-12.4-18.9-11.8
		c-5.7-7.6,89.3,36.8,67.9,41.3C416.6,290.9,392.8,295.6,369,300.3C367.9,299.1,392.8,295.5,369,300.3z M341.5,299.3
		c22.6-2.7-16-23.8-13.9-12.4C332.2,291,336.8,295.1,341.5,299.3C344.7,298.9,334.7,297.8,341.5,299.3z"/>
	<path fill="#ADEEFD" d="M605.4,398.9c-97.6-1.3,23-53.4,24.2-53.8C734.4,346.7,602.8,399.9,605.4,398.9
		C605.2,398.9,616.4,394.7,605.4,398.9z"/>
	<path fill="#ADEEFD" d="M300.3,223.9c-27.6,5.4,17.6,2,10.5,19.3c-8.7,21-79.9-34.4-53.4-39.2c-29.4-13.5-13.7-26.5-34-36.4
		c15.3-13.8,54.6,26.4,40.8,35.3C288,203,278.2,198.1,300.3,223.9C297,224.6,294.1,216.6,300.3,223.9z M290.4,231.6
		c-10.4,3-8.4,7.4,6.1,13.1C306.6,241.7,304.6,237.3,290.4,231.6C287.8,231.9,296.1,232.8,290.4,231.6z M258.5,199.1
		c9.4-4,7.2-8-6.7-12.1C242.8,190.6,245.1,194.6,258.5,199.1C261,198.5,253.2,198.1,258.5,199.1z"/>
	<path fill="#0A53CC" d="M534.4,376.1c-6.2-5.2-64-62.5-59.2-63.6C508.8,304.7,607.7,352.5,534.4,376.1
		C521.4,365.3,544.5,372.9,534.4,376.1z M542.6,368.5c43.3-7.4-30.7-42.7-26.2-20.6C520.7,360.4,529.4,367.3,542.6,368.5
		C548.7,367.4,530.8,366.1,542.6,368.5z M506.5,338.2c6.7-2.3,13.5-4.6,20.2-6.8c-2.1-5.9-44.9-18.7-41.2-14.4
		C489.6,321.6,502.6,335.6,506.5,338.2C513.4,335.9,505,337.2,506.5,338.2z"/>
	<path fill="#0A53CC" d="M363.4,217c11.7-8.5-4.9-16.4-11.2-23.4c22.5-2.7,72.9,0.7,71.1,37.6c-13-2.2-23.4-19.5-38.7-14.4
		c7.6-0.3,13.4,3.3,17.6,10.6c-11.8,6.1-51.9,29.9-62.1-7.9c2.2,0,39.2,32.1,42.3,12.8C384.2,221.4,369.5,220.1,363.4,217
		C379.1,205.5,364.5,217.6,363.4,217z M373.1,193.9c-32.7,6.7,23.4,23.8,20.3,11.3C389.5,196.5,382.7,192.7,373.1,193.9
		C369.2,194.7,382,193.9,373.1,193.9z"/>
	<path fill="#ADEEFD" d="M536.5,333.7c-10.1-9.4-20.2-18.8-30.2-28.2c30.5-4.7,35.2-9.6,57.1,15.4
		C562.2,332.5,553.2,336.7,536.5,333.7C526.4,324.3,545,331.1,536.5,333.7z"/>
	<path fill="#ADEEFD" d="M370.7,385.3c22.7,2.9,42.9,37.1,9.4,36.5C352.7,421.3,342.1,392.4,370.7,385.3
		C385.3,387.2,362.7,387.3,370.7,385.3z M371.8,392.7c-27.4,1.2,18,32.9,15.6,16.6C382.2,403.8,377,398.2,371.8,392.7
		C367.5,392.9,379.8,395,371.8,392.7z"/>
	<path fill="#ADEEFD" d="M253.6,160c-1.3-0.8,4.9-11.4-9.9-13.7c12.5-11.7,50.6,25.6,54.3,30.3C229,185.4,278.5,162.2,253.6,160
		C252.2,159.2,256.7,160.3,253.6,160z"/>
	<path fill="#ADEEFD" d="M467.7,393.9c-17.5-2.9-43.1-34.6-12.2-33.1C476.8,361.8,496.6,389,467.7,393.9
		C454.4,391.6,475.3,392.6,467.7,393.9z M457.2,367.5c-21.1,2,17.9,26,15.5,15.1C467.5,377.6,462.3,372.5,457.2,367.5
		C454,367.8,464.3,370.1,457.2,367.5z"/>
	<path fill="#ADEEFD" d="M394.4,369.9c-20-3-38.8-32.5-8.3-31.2C409.7,339.8,422.2,365.2,394.4,369.9
		C381.7,367.9,401.9,368.6,394.4,369.9z M386.5,344.9c-23.7,0.6,16.5,26.5,14.2,14C396,354.2,391.3,349.5,386.5,344.9
		C382.9,345,393.4,346.8,386.5,344.9z"/>
	<path fill="#ADEEFD" d="M316.6,316.2c21.4,2.8,36.2,30.2,6.4,29.7C298.1,345.5,289.9,320.8,316.6,316.2
		C328.6,317.8,308.9,317.5,316.6,316.2z M315.9,322.1c-23.2,3.2,17.2,26.2,14.4,12.9C325.5,330.7,320.7,326.4,315.9,322.1
		C312.5,322.6,323.2,323.4,315.9,322.1z"/>
	<path fill="#ADEEFD" d="M381.6,190c-34.3,4.7-24.2,9.2-47.4-13.7C353.2,168.8,369,173.4,381.6,190z"/>
	<path fill="#0A53CC" d="M493.1,258.9c-28.1-23.2,38.2,2.5,42.3,4.8C538.6,265.5,499.2,261.6,493.1,258.9z M512.4,267.7
		c6.7,0.7,12.4-0.8,17.1-4.6c-3.4-3.9-30.8-20.6-35.2-11.7C510.8,251.6,509.9,266.1,512.4,267.7C518,266.5,511.6,267.2,512.4,267.7z
		"/>
	<path fill="#ADEEFD" d="M686.2,393.6c5.5,3.9,7.4,9,5.6,15.4c-9.1,14-46.7-10.1-39.8-22.4C659,374.3,680.8,388.5,686.2,393.6
		C689.9,398.1,685,392.4,686.2,393.6z M680.7,407.2c15.7-11.6-23.3-20.8-20.4-15.7C667.2,396.8,674,402,680.7,407.2
		C681.8,406.5,671.7,404.4,680.7,407.2z"/>
	<path fill="#ADEEFD" d="M475.5,347.1C377.3,331.2,544.1,329,475.5,347.1C463.3,345.2,481,345.7,475.5,347.1z M474.2,341.2
		c20.1-2-18.7-23.2-15.6-13.4C463.7,332.3,468.9,336.8,474.2,341.2C477.1,341,466.9,339.7,474.2,341.2z"/>
	<path fill="#ADEEFD" d="M398,298.7C490.2,312.1,328.5,314.1,398,298.7C409.3,300.3,392,300,398,298.7z M408,320.1
		c20.5-3-18.5-24-15-12.3C398,311.9,403,316,408,320.1C411,319.7,401,318.8,408,320.1z"/>
	<path fill="#ADEEFD" d="M344.2,383.6c-0.1,0-14.2-20.8-19-26.2c-2.1-2.3,40.4,7.5,46.7,16.1C366.6,382.4,357.4,385.8,344.2,383.6
		C343,382.8,353.3,381,344.2,383.6z"/>
	<path fill="#0A53CC" d="M440.4,213.6c4-16,35.3-15.1,43.2,8.1C462.7,223.9,459,223.1,440.4,213.6z M463,223.2
		c40.1-7.4-17-13.9-16.8-14.3C460.8,209.4,460.3,222.3,463,223.2C467.6,222.3,461.7,222.8,463,223.2z"/>
	<path fill="#ADEEFD" d="M677,352.3c10.8,32.8-37.1,5.7-32-6.7C650.6,331.8,672.4,348.2,677,352.3
		C678.4,356.5,673.9,349.6,677,352.3z M654.3,345.2c-8.8,12.6,22.3,19.8,19.8,14.6C667.4,355,660.8,350.1,654.3,345.2
		C653.4,346.5,663.3,348.1,654.3,345.2z"/>
	<path fill="#ADEEFD" d="M467.9,283.9c13.2-1.6,21.5,3.9,24.9,16.6C499.5,328.9,429.6,275.3,467.9,283.9
		C481.5,282,462.6,282.8,467.9,283.9z M479.9,302.9c18.9-2.3-17.3-20.5-14.7-12.2C470.1,294.8,475,298.8,479.9,302.9
		C482.6,302.5,473.5,301.1,479.9,302.9z"/>
	<path fill="#ADEEFD" d="M574.6,405.9c-8.9-5.3-2.9-19.1-25.5-25.4c5.7-16.7,42.4,7.1,46.3,14.8
		C590.8,402.1,583.9,405.6,574.6,405.9C573.2,405,580.7,403.6,574.6,405.9z"/>
	<path fill="#ADEEFD" d="M349,245.8c11.2-0.3,18.6,4.8,22.1,15.3C373.1,279.6,307.4,255.3,349,245.8
		C358.9,247.4,343.5,247,349,245.8z M349.3,250.2c-9.4,4.2-6.6,8.7,8.5,13.5C366.8,259.5,364,255,349.3,250.2
		C346.9,250.6,355.3,251.2,349.3,250.2z"/>
	<path fill="#ADEEFD" d="M431.5,359.6c-3.9-2.9-10.3-15.8-20.7-24.3c12.4-13.9,32.3,8.3,44.8,15.1
		C449.4,356.8,441.4,359.8,431.5,359.6C430.3,358.7,438.9,357.5,431.5,359.6z"/>
	<path fill="#ADEEFD" d="M361.2,336.5c-0.3-0.2-12.4-16.3-17.7-22.2c-3.4-3.8,38.8,7.3,43,14.5C378.4,332.4,370,335,361.2,336.5
		C360.1,335.7,366.5,335.2,361.2,336.5z"/>
	<path fill="#ADEEFD" d="M671.8,319.1c5,18.5-36.9,6.6-33.3-8.8C642.2,294,670.8,318.3,671.8,319.1
		C674.5,329.1,667.1,315.4,671.8,319.1z M647.4,309.2c-9.3,11.1,20,16.8,18.1,13C659.5,317.9,653.5,313.6,647.4,309.2
		C646.6,310.3,655.5,311.8,647.4,309.2z"/>
	<path fill="#ADEEFD" d="M292.2,314.4c2.2,1.5-14.6-20-15.7-22.1c-4.5-7.9,41.4,9.9,42.1,14.6C310.3,311.2,301.6,313.7,292.2,314.4
		C291.2,313.7,298.7,313,292.2,314.4z"/>
	<path fill="#ADEEFD" d="M612.8,300.3c5,18-37.2,8.9-33.1-7.5C583.8,276.3,609.1,297.3,612.8,300.3
		C615.3,309.4,609.2,297.4,612.8,300.3z M589.6,291.4c-12,9.7,17.4,15.1,16.3,12.4C600.4,299.7,595,295.5,589.6,291.4
		C588.6,292.2,596.9,294.1,589.6,291.4z"/>
	<path fill="#ADEEFD" d="M531.3,269.5c11.6,0.6,19.5,6.2,23.7,17C558.4,303.1,495,276,531.3,269.5
		C541.3,271.7,526.4,270.3,531.3,269.5z M532,274.2c-9.8,9.2,15.7,13,14.5,10.6C541.7,281.2,536.9,277.7,532,274.2
		C531.2,274.9,538.7,276.2,532,274.2z"/>
	<path fill="#ADEEFD" d="M443.6,202.3c-6.6-3.9-13.1-7.9-19.7-11.8C421.3,182.4,472.2,194,443.6,202.3
		C435.4,201,446.9,201.3,443.6,202.3z"/>
	<path fill="#ADEEFD" d="M363.4,217c6.2,3.1,20.8,4.3,19,15.3C380,246.7,323.3,224.4,363.4,217C364.5,217.6,359,217.8,363.4,217z
		 M370.8,234c8.9-4.4,6-8.7-8.7-12.9C353.4,225.4,356.3,229.7,370.8,234C373,233.5,365,232.9,370.8,234z"/>
	<path fill="#ADEEFD" d="M493.1,258.9c7.2,27.5-33.9,11-30-1.8C467.2,243.4,488.2,258.5,493.1,258.9z M485.5,269.1
		c10-9-14.9-12.8-13.7-10C476.3,262.4,480.9,265.8,485.5,269.1C486.3,268.4,479,267.4,485.5,269.1z"/>
	<path fill="#ADEEFD" d="M393.3,187.6c-9.2,0.4-15.7-3.5-19.8-11.7C370.3,162.4,425.5,181.1,393.3,187.6
		C385.2,186.4,397.4,186.8,393.3,187.6z"/>
	<path fill="#ADEEFD" d="M680.8,378.6c-1.5-1,32,9.1,43,14.7c-3.9,4-14.4,12-19.8,6.2C700.1,395.3,700.2,379.6,680.8,378.6
		C682.7,379.8,694.6,379.3,680.8,378.6z"/>
	<path fill="#ADEEFD" d="M306.3,200.4c10.3-0.7,17.4,3.6,21.2,13.1C329.4,227.4,269.5,212.3,306.3,200.4
		C315.6,201.8,301.8,201.9,306.3,200.4z M317.4,216.3c4-10.4-15.5-12.9-14.4-9.1C307.8,210.2,312.6,213.3,317.4,216.3
		C317.4,216.2,309.3,214.7,317.4,216.3z"/>
	<path fill="#ADEEFD" d="M417.6,235.5c10.7-0.7,18.1,3.9,22.3,13.8C443.1,265.8,380.7,239.8,417.6,235.5
		C426.6,236.8,412.2,236.1,417.6,235.5z M417.9,239c-8,3.6-4.8,7.4,9.6,11.7C436,247.2,432.8,243.3,417.9,239
		C417,239.5,424.6,240,417.9,239z"/>
	<path fill="#ADEEFD" d="M495.2,218.1c-7-4.1-14.1-8.2-21.1-12.3C470.8,197.3,523.4,209.9,495.2,218.1
		C486.5,216.8,498.3,217.2,495.2,218.1z"/>
	<path fill="#ADEEFD" d="M334.3,155.9c8.9-0.3,15.5,3.4,19.6,11.3C356.2,177.9,302.4,163.5,334.3,155.9
		C341.5,158,330,156.9,334.3,155.9z"/>
	<path fill="#ADEEFD" d="M572.8,359.6c-5.6-4-11.5-14.3-23.5-22.6c9.5-12.9,41,16.1,41.3,14.9C585.3,356,579.4,358.6,572.8,359.6
		C571.2,358.5,579.3,357.1,572.8,359.6z"/>
	<path fill="#ADEEFD" d="M441.3,317.4c1.3,0.8-17.7-18.2-19.5-20.7c-6.7-9.2,46,13.1,38.7,15.4C454.2,313.9,447.7,315.7,441.3,317.4
		C440.1,316.6,448.2,315.6,441.3,317.4z"/>
	<path fill="#ADEEFD" d="M688.8,240.2c-3.4-2.5,25.6,15.8,6,14.8c-5.7-0.3-24.2-4.7-22.6-13.4C677.2,237.7,682.8,237.3,688.8,240.2
		C691.1,241.9,683,242,688.8,240.2z"/>
	<path fill="#ADEEFD" d="M654.1,279.2c2,1.3,14.3,8.7,9.5,13.4c-7.8,7.8-33.3-2.7-30.3-14C640.1,273.5,647,273.7,654.1,279.2
		C654.4,279.4,646.8,277.6,654.1,279.2z M654.7,291.9c11-8.4-17-14.2-15.6-11.2C644.3,284.4,649.5,288.2,654.7,291.9
		C655.6,291.2,648,289.5,654.7,291.9z"/>
	<path fill="#ADEEFD" d="M545.5,261.2c-10.4-0.4-18-5.2-22.5-14.6C519.2,234.4,579,252.9,545.5,261.2
		C536,259.5,549.3,260.2,545.5,261.2z M533.2,244.8c-10.6,8.7,14.6,12.7,13.8,10.6C542.4,251.8,537.8,248.3,533.2,244.8
		C532.2,245.6,539.3,247.2,533.2,244.8z"/>
	<path fill="#ADEEFD" d="M491.4,244.1c-10.5,0.2-18.2-4.4-22.9-13.7C465.6,220.6,521.7,233.9,491.4,244.1
		C481.7,242.7,494.7,243,491.4,244.1z M479.4,228.4c-7.2,4.2-3.9,8.1,9.9,11.8C497.7,237,494.4,233.1,479.4,228.4
		C478.5,229.1,485.6,230.2,479.4,228.4z"/>
	<path fill="#ADEEFD" d="M644.7,240.3c-9.8-0.3-17.1-4.8-21.9-13.4C620.1,219.3,672.8,235.9,644.7,240.3
		C636.1,238.5,648.1,239.7,644.7,240.3z"/>
	<path fill="#ADEEFD" d="M715.8,301c10.5,28-30.7,0.7-27.3-5.9C694.1,284.4,710,297,715.8,301C717,304.3,714.8,300.4,715.8,301z
		 M714.8,307.6c-6.5-12.2-13.4-15.5-20.8-10.2C699.9,307.9,706.8,311.3,714.8,307.6C710,301,713.1,308.2,714.8,307.6z"/>
	<path fill="#ADEEFD" d="M607.8,269.3c10.3,17.5-43.2-1.7-30.2-8.1C590.2,254.9,598.5,261,607.8,269.3
		C611.5,275.6,604.7,266.6,607.8,269.3z M586.9,261.4c-10.3,8.6,16.9,13.7,15.3,10.8C597.1,268.5,592,265,586.9,261.4
		C586.1,262.1,593.7,263.4,586.9,261.4z"/>
	<path fill="#ADEEFD" d="M440.5,213.7c14.2,25.1-27.8,9.5-24.6,0.1C420.2,201.5,434.5,214.4,440.5,213.7z M438.1,224.4
		c4.6-10.5-16.6-12.9-15-9.3C428,218.2,433,221.3,438.1,224.4C438.2,224.1,430.2,222.9,438.1,224.4z"/>
	<path fill="#ADEEFD" d="M696.9,359.2c-5.1-3.2-17.5-14.9-25.7-21.4C672.9,335.7,728.1,344.5,696.9,359.2
		C695.2,358.1,701.8,356.8,696.9,359.2z"/>
	<path fill="#ADEEFD" d="M449.2,281.7c1.9,1-18.6-18.2-18.7-18.4c-3.1-5.4,33.2,4.7,38.2,12.9C462.8,279.5,456.3,281.4,449.2,281.7
		C448.3,281.2,454.5,280.7,449.2,281.7z"/>
	<path fill="#ADEEFD" d="M571.3,320.2c-5.6-3.6-4.1-17.2-21.8-19.5c6.1-17,27.1,11.7,37.7,10.8C588.7,319.3,583.4,322.2,571.3,320.2
		C569.9,319.3,576.9,318.5,571.3,320.2z"/>
	<path fill="#ADEEFD" d="M649.2,266.7c-10.1-1-17.6-6.1-22.3-15.1C622.8,239.4,681.8,261,649.2,266.7
		C640.3,264.2,653,266,649.2,266.7z M651.5,259.1c-6.8-9.2-12.3-11.1-16.4-5.6C640.9,262.6,646.4,264.5,651.5,259.1
		C645.9,256.3,649.4,260.7,651.5,259.1z"/>
	<path fill="#ADEEFD" d="M509.8,300.1c1.4,0.6-18.2-16.8-19.5-18.5c-1.6-2.2,33.2,8.1,37.4,13.1
		C522.2,297.7,516.2,299.5,509.8,300.1C509,299.7,514.7,298.9,509.8,300.1z"/>
	<path fill="#ADEEFD" d="M532.8,216.7c9.4,0.2,16.3,4.5,20.7,12.8C556.7,239.1,503.3,222.4,532.8,216.7
		C541.1,218.3,529.2,217.4,532.8,216.7z M534.3,219.6c-6.9,3.9-3.5,7.5,10,11C551.8,227.1,548.5,223.5,534.3,219.6
		C533.5,220.2,540.1,221.3,534.3,219.6z"/>
	<path fill="#ADEEFD" d="M329.8,243.4c-3.8-1.6,3.3-15.5-14.7-16.7c7.4-7.5,31,6.6,35.8,12.2C345,243.4,338,244.9,329.8,243.4
		C329,243.1,336.4,242.4,329.8,243.4z"/>
	<path fill="#ADEEFD" d="M671.8,308.5c-26.7-13.5,24.3-4,28.7,8.9C683.1,322.9,682,320.5,671.8,308.5
		C665.5,305.3,672.6,309.4,671.8,308.5z"/>
	<path fill="#ADEEFD" d="M399,233.6c-2.5-5.9-9.9-9.5-14.5-16.9c6.6-2.2,35.3,8.8,33.9,13.6C412,231.4,405.5,232.5,399,233.6
		C398.5,232.3,405.5,232.5,399,233.6z"/>
	<path fill="#ADEEFD" d="M554,270.8c-17.3-8.1,32.7,0.1,31.9,9.2C583.5,306.5,556.1,265.9,554,270.8
		C552.4,270.1,554.2,270.4,554,270.8z"/>
	<path fill="#ADEEFD" d="M440.4,235.3c-10.8-3.6,39.1,4.7,33.3,10.6c-5.6,5.6-14.3,4.8-21.3,3.1
		C458.3,242.6,459.1,235.9,440.4,235.3C441.7,235.7,449.3,235.6,440.4,235.3z"/>
	<path fill="#ADEEFD" d="M628.5,303.3c-3.3-0.2-10.3-16.1-21.8-17.1c3.8-13.6,26.2,11.2,34.7,10.6
		C646.2,296.5,632.8,302.5,628.5,303.3C621.2,302.9,629.3,303.2,628.5,303.3z"/>
	<path fill="#ADEEFD" d="M336.7,196.2c-6.2-0.3,27.5,17,26.9,15.6C364.7,214.2,319.9,207.5,336.7,196.2
		C337,196.2,334.5,197.7,336.7,196.2z"/>
	<path fill="#ADEEFD" d="M278.2,107.3c-7.6,0.9-13.2-1.9-16.8-8.6C260.6,95.7,302.8,99.2,278.2,107.3
		C271.4,106.5,281.3,106.2,278.2,107.3z M275.8,105.4C283.1,99.3,259.9,92.5,275.8,105.4C277.4,104,273.3,103.3,275.8,105.4z"/>
	<path fill="#ADEEFD" d="M290.6,198.5c-2.9-1,1.3-12.1-14.3-14.6c7.6-6.5,29.1,5.1,33.9,11.2C304.2,198.3,297.7,199.5,290.6,198.5
		C290,198.2,296.7,197.8,290.6,198.5z"/>
	<path fill="#ADEEFD" d="M551.8,241.8c-10.1-4.5,35.8,3.5,31.6,10.2C575,265.7,560,242.1,551.8,241.8
		C552.4,242,559.8,242.1,551.8,241.8z"/>
	<path fill="#ADEEFD" d="M611,261c-24.1-11.7,21.7-2,25.7,8C619.4,273.6,620.8,271.6,611,261C605.3,258.2,611.6,261.6,611,261z"/>
	<path fill="#ADEEFD" d="M404,195.4c-26.7-7.8,24.4,4.3,20.7,8.2C405.8,222.7,411,199.4,404,195.4C397.6,193.6,401,193.7,404,195.4z
		"/>
	<path fill="#ADEEFD" d="M506.6,226.7c-22.6-5.3,17.8-0.3,23.1,9.1C518.5,241.6,515,233.8,506.6,226.7
		C500.7,225.4,507.1,227.2,506.6,226.7z"/>
	<path fill="#ADEEFD" d="M668.2,256c-5.3-5.1-11.4-8.2-18.3-9.3c3.7-9.4,31,8.3,31.9,11.5C672.2,264.7,667.6,264,668.2,256
		C663.8,253.3,665.9,259.6,668.2,256z"/>
	<path fill="#0A53CC" d="M260.5,181c11-1.4,18,5.6,21.1,21.1c-5.8,1-11.6,1.3-17.5,0.9C283,190.9,248.6,182.4,260.5,181
		C261.9,180.9,259.6,181.1,260.5,181z"/>
	<path fill="#ADEEFD" d="M518.4,213.9c-1.6,0-8.6-11.5-16.2-13.1C506.5,196.6,548.6,209.3,518.4,213.9
		C511.5,213.7,521,213.5,518.4,213.9z"/>
	<path fill="#ADEEFD" d="M664.5,237.1c4,3.9-18.1-17.2-19-15.7C646.2,220.4,691.3,225.8,664.5,237.1
		C660.6,233.2,668.1,235.6,664.5,237.1z"/>
	<path fill="#0A53CC" d="M224.6,35.9c6.2,6.5,13.2,12,21.1,16.4C251.2,62,206,39.1,224.6,35.9C227.5,46.4,221.5,36.4,224.6,35.9z"/>
	<path fill="#ADEEFD" d="M553.5,216.7c-10.6-3.9,25.6,5.7,26.9,10.2C572.4,228.5,551.3,221.2,553.5,216.7
		C552.6,216.4,553.7,216.3,553.5,216.7z"/>
	<path fill="#ADEEFD" d="M322.6,154.2c-3.2-2.3-4.5-9.7-13.6-12.4C318.9,140,352.9,151.4,322.6,154.2
		C321.5,153.4,325.8,153.9,322.6,154.2z"/>
	<path fill="#0A53CC" d="M703.9,276.8c-6.1,4.4-12,1.9-17.8-7.6C690.5,262.6,696.4,265.1,703.9,276.8
		C702.6,277.5,699,271.7,703.9,276.8z"/>
	<path fill="#ADEEFD" d="M293.9,92.6c-6.4,0-12-2.3-16.8-6.7C279.6,89.5,306.7,85.1,293.9,92.6C290.1,92,294.9,92,293.9,92.6z"/>
	<path fill="#0A53CC" d="M219.1,72c0.9-8.7,6.1-9.2,15.5-1.5C232.3,77.4,224,76.8,219.1,72C219.5,70,220.8,73.6,219.1,72z"/>
	<path fill="#ADEEFD" d="M305.7,105.7C272.9,90.8,328.2,102.5,305.7,105.7C305,105.4,308.7,105.3,305.7,105.7z"/>
	<path fill="#0A53CC" d="M262,82.8c-0.7-0.2-9.9-12.7-12.2-14.1C257.7,68.4,270.3,76.5,262,82.8C255.8,81.4,263.1,81.9,262,82.8z"/>
	<path fill="#0A53CC" d="M317,95.8C313,112.7,318.2,93.5,317,95.8C315.4,102.3,318.4,93,317,95.8z"/>
	<path fill="#0A53CC" d="M335.6,100.2C329.4,103.9,315.1,92.6,335.6,100.2C333.5,101.5,331.7,98.8,335.6,100.2z"/>
	<path fill="#ADEEFD" d="M219.1,72C237.6,90.3,203.1,69.9,219.1,72C220.8,73.6,217.3,71.7,219.1,72z"/>
	<path fill="#ADEEFD" d="M253.6,58.1C260.8,70.6,249.1,62.9,253.6,58.1C255,60.5,252.2,59.6,253.6,58.1z"/>
	<path fill="#0A53CC" d="M252.9,75.6C245,78.4,239.5,69.8,252.9,75.6C250.3,76.5,249.7,74.2,252.9,75.6z"/>
	<path fill="#0A53CC" d="M281.7,48.9C275.8,43.7,286.1,45.4,281.7,48.9C280.7,48.1,282.5,48.2,281.7,48.9z"/>
	<path fill="#0A53CC" d="M290,42C289.7,42.4,274.6,41.6,290,42C288.6,44.3,290,42,290,42z"/>
	<path fill="#0A53CC" d="M578,218.9c1,0.7,2.1,1.4,3.1,2.1C580.1,220.3,579,219.6,578,218.9z"/>
	<path fill="#0A53CC" d="M712.9,299.1c-0.7-0.7-1.4-1.3-2.1-2C711.5,297.7,712.2,298.4,712.9,299.1z"/>
	<path fill="#0A53CC" d="M480.4,198c0.7,0,1.4,0,2.1,0C481.9,198,481.1,198,480.4,198z"/>
	<path fill="#0A53CC" d="M362,143c-0.4-0.4-0.7-0.7-1.1-1.1C361.3,142.3,361.7,142.7,362,143z"/>
	<path fill="#3EA6F8" d="M246.5,206.1c12.9,16.4,24.9,29.5,35.9,47.2c-6.4,2.1-36.4,2.3-38.3,9.4c4.5,7.9,9,15.9,13.5,23.8
		c-9,26.3-56.8-10.3-27.2,35.1c17.1,26.4,34.3,52.7,51.6,79.1c9.3,14.1-48.1,28.7-56.2,13.4c-33.7-63.5-61.2,11.4-95.4-54.2
		c33,63.4,46.7-63.3,38.8-50.8c6-9.7,44.4-1.2,39.5-18.1c-8.7-30.3-21.6-22.1,25.3-28.8c7-1-79.3-64.2-8.2-78.5
		c-5.1-6-9-12.8-11.5-20.4c-1,0.7,16.5-1.2,17.8-1.5c2.6,2.8-6,3.5-8.7,5.9C240.5,176,229,186.3,246.5,206.1
		C252.9,214.1,241,199.8,246.5,206.1z M223.6,370.4c24.9-5.9,29.9-33.2-1.8-32.9C191.1,337.7,195.9,367.4,223.6,370.4
		C232.5,368.3,210.8,369,223.6,370.4z M240,412.9c14,0.8,25.3-3.2,34-12.1c-5.3-2-55.9-29.7-50.1-16.8
		C221.7,379.2,249.8,421.6,240,412.9C250.5,410,238.9,411.9,240,412.9z M163.9,348.1c-7.9,1-14.3,4.3-19.2,10
		c3,8.9,8.9,20.5,10,25.6c2.2,9.6,41.6-2.3,40-9.3C196.7,383,154.6,341.9,163.9,348.1C158.7,350.1,170.5,352.5,163.9,348.1z
		 M194.2,334.7c13.6,2.7,24.1-0.2,31.5-8.7c-11-5.8-33.3-22.9-45.1-15C185.7,316.8,199.4,338.7,194.2,334.7
		C204.4,332.5,193.3,334,194.2,334.7z M237.3,230.2c7.3,1.3,12.3-1.4,14.9-8.1c-1.6-14.6-37-18.1-35.8-5
		C219.9,226.7,226.9,231.1,237.3,230.2C242.9,228.5,228.1,228.8,237.3,230.2z M223.9,292.1c11.2,2,20.5-0.3,27.8-6.7
		c-6.3-6-43-15.9-41.3-13.9C215.3,277,226.4,293.7,223.9,292.1C232.9,290.4,223.1,291.5,223.9,292.1z M249.5,256.8
		c10.2,2.1,18.6,0.2,25.2-5.7c2-3.4-31.7-16.8-37.5-15.5C247.2,233.3,247.2,255.5,249.5,256.8C257.7,255.5,248.5,256.2,249.5,256.8z
		 M212.8,207.1c8.9,1.8,16.7,0.5,23.6-4c-4.8-6.4-27.3-19.6-35.2-11.8C221.1,193.8,208.2,204.7,212.8,207.1
		C220.4,206.3,212.2,206.8,212.8,207.1z"/>
	<path fill="#ADEEFD" d="M108.5,361.6c36.9,2.5,25.8,36.4-5.7,37C65.5,399.2,84.9,366.5,108.5,361.6
		C122.2,362.5,97.6,363.9,108.5,361.6z M108.9,391.8c34.9-5.8-15.9-38.6-14.5-14.4C99.3,382.2,104.1,387,108.9,391.8
		C114.4,390.9,99.9,391.1,108.9,391.8z"/>
	<path fill="#3EA6F8" d="M103.3,114c-11.4,1.4-0.1,13.1,2.1,17.3c-8.5,2.2-17.1,2.8-25.9,1.6c7.1,1,13.6-0.1,19.6-3.1
		c-18.7-12.3-5.1-22-27.1-29.8c8.9-0.7,17.8-1.4,26.8-2.1c-7.4-0.2-12.3-3.4-14.8-9.5c7.6-4.4,21.1-5.9,28.5-0.1
		c8.3,6.4-12.5,12.1-15,13.1C112.7,105.2,99.6,109.2,103.3,114C93.2,115.2,102.1,112.4,103.3,114z"/>
	<path fill="#ADEEFD" d="M26.2,418.2c-5-4.1,24.3-20.9-9.8-31.6c13.8-15.8,50.9,5.2,54.2,17.6C59.2,415.3,44.3,420,26.2,418.2
		C25.2,417.4,39.8,414.9,26.2,418.2z"/>
	<path fill="#ADEEFD" d="M147.5,345.1c-29.7-3-29-30.3,0.6-31.1C181.9,313,169.4,338.9,147.5,345.1
		C135.4,343.8,156.3,342.6,147.5,345.1z M145.6,318.9c-30.5,4.3,14.7,32.1,13.4,12.9C154.5,327.5,150.1,323.2,145.6,318.9
		C140.9,319.5,153.2,319.9,145.6,318.9z"/>
	<path fill="#ADEEFD" d="M178.2,273.9c12.9-2.3,20.9,2.6,24.1,14.8c0.1,17.8-41.8,14.8-42.1-4.1
		C163.1,275.7,169.1,272.2,178.2,273.9C190.7,273.9,171.9,275.3,178.2,273.9z M179.2,277.7c-27.2,2.6,14.8,27.7,12.9,11.5
		C187.8,285.4,183.5,281.5,179.2,277.7C175,278.1,185.9,278.4,179.2,277.7z"/>
	<path fill="#3EA6F8" d="M179.5,35.4c29.8,10.8-72.1,0.7-44.8-19.2C137.2,14.5,203.8,25.4,179.5,35.4
		C167.1,30.9,182.9,34,179.5,35.4z"/>
	<path fill="#ADEEFD" d="M212.2,262.3c-11.3,1.1-18.6-3.7-21.9-14.3c-0.6-15,37.3-11.8,38.2,4.8
		C225.8,260.4,220.4,263.6,212.2,262.3C202.1,261,218.1,260,212.2,262.3z M206.9,242.9c-11.1,4.5-9.2,9.5,5.6,14.9
		C223.9,253.7,222.1,248.7,206.9,242.9C203.7,243.4,213.3,243.7,206.9,242.9z"/>
	<path fill="#ADEEFD" d="M72,99.9c22,7.8,8.4,17.5,27.1,29.8c-9.2,4.3-17.8,4.7-26.3,0.7C95.3,123.1,33.3,100.8,72,99.9
		C76.3,101.4,69,99.9,72,99.9z M69.8,102.7C41.7,107.9,105.7,107.3,69.8,102.7C67.4,103.1,73.6,103.2,69.8,102.7z"/>
	<path fill="#ADEEFD" d="M164.1,191.1c8.8-0.1,29-1.1,29.5,12.9C194,215,140.7,212.5,164.1,191.1C167.5,191.1,161,194,164.1,191.1z
		 M178.7,207.6c10.2-4.1,8.2-8.4-6.2-12.7C162.7,199.2,164.8,203.5,178.7,207.6C181.4,207.1,172.9,207.2,178.7,207.6z"/>
	<path fill="#ADEEFD" d="M231.7,126.9c7.6-0.8,23.1,1.2,25.8,10.6C258.5,141,214.5,145.5,231.7,126.9
		C234,126.7,229.8,128.9,231.7,126.9z"/>
	<path fill="#ADEEFD" d="M195,127.2c-8.3,0.8-13.6-2.6-16-10.1C182.2,100,230,127.5,195,127.2C188.1,125.9,197.4,127.2,195,127.2z"
		/>
	<path fill="#ADEEFD" d="M203.8,184.6c-9.4,1.2-15.9-2.5-19.5-11C183,161.3,242,172.9,203.8,184.6
		C195.5,183.4,208.7,183.1,203.8,184.6z M203.3,181.6c9.5-3.3,7.8-7.1-5-11.3C188.6,173.4,190.3,177.1,203.3,181.6
		C205.6,181,198.1,180.8,203.3,181.6z"/>
	<path fill="#ADEEFD" d="M160.8,103.1c3.9,13.7-25.2,9.8-28.9,0.7C126.8,90.9,166.4,103.1,160.8,103.1z"/>
	<path fill="#ADEEFD" d="M123.5,82.5c-11.6-15.4-3.7-19.1,15-5.9C137.4,83.2,132.5,85.2,123.5,82.5
		C120.1,78.1,128.4,83.6,123.5,82.5z"/>
	<path fill="#ADEEFD" d="M188.2,236c2.3,0.7-7.1-10.6-13.2-17.4c0-0.1,31.5,6.3,37.8,12.7C205.9,236.3,197.7,237.8,188.2,236
		C187.3,235.8,196.5,234.9,188.2,236z"/>
	<path fill="#ADEEFD" d="M232.1,161.8c-3.6,0.9-28.5-0.5-25-11.4C209.9,141.5,247.9,144.1,232.1,161.8
		C231.6,161.9,233.9,159.8,232.1,161.8z M218.9,148.6c-7.1,3.3-5.1,6.6,6.1,9.9C233.8,156.1,231.8,152.8,218.9,148.6
		C217.9,149.2,224.6,149.6,218.9,148.6z"/>
	<path fill="#3EA6F8" d="M260.5,181c-8.1,1-19.6-12.2-25-17.9c7.6-2.3,15.3-3.3,23.2-3.2C253.6,158.6,260.4,180.5,260.5,181
		C259.6,181.1,259.9,178.9,260.5,181z"/>
	<path fill="#ADEEFD" d="M330.3,194c-9.4,0.6-15.9-3.3-19.8-11.7C309,173.5,361,181.8,330.3,194C321.8,192.6,333.8,192.6,330.3,194z
		 M329.4,191.2c8.5-3.7,6-7.4-7.5-11.1C313.8,183.8,316.3,187.5,329.4,191.2C331.7,190.9,324.4,190.3,329.4,191.2z"/>
	<path fill="#ADEEFD" d="M172.8,84c8.7,9.3,8.6,16.8-8.8,9.4C151.2,83,154.2,79.9,172.8,84C175.5,86.9,167.3,84,172.8,84z"/>
	<path fill="#3EA6F8" d="M18.4,19.5c7.1-1.4,12.5,0.9,16.3,6.8C35.5,30.3-10.5,29.5,18.4,19.5C24.5,21,14.9,20.8,18.4,19.5z"/>
	<path fill="#ADEEFD" d="M294.1,156.1c-8.2,0.7-14.2-2.5-17.9-9.7C274.3,137.3,324.5,148.2,294.1,156.1
		C286.7,155.1,297.8,155.1,294.1,156.1z M286.9,143.9c-7.8,3.7-5.5,7,6.9,10C301.3,150.4,299,147,286.9,143.9
		C284.8,144.3,291.5,144.6,286.9,143.9z"/>
	<path fill="#ADEEFD" d="M103.3,114c-3.7-4.8,9.4-8.8-5.9-12.6c8-3,25.7,1.7,28.4,10C118.4,113.3,111,113.8,103.3,114
		C102.1,112.4,105.4,113.9,103.3,114z"/>
	<path fill="#3EA6F8" d="M259,123c-6.5,0.3-11-2.6-13.5-8.6C244.5,99.7,280,125,259,123C254.3,121.8,263,123.4,259,123z"/>
	<path fill="#ADEEFD" d="M278.4,139c-0.2-1.1-13-10.3-16.9-10.9C268,120.7,303,137.8,278.4,139C278.1,136.5,280.2,138.9,278.4,139z"
		/>
	<path fill="#ADEEFD" d="M308.8,174.2c-4.9-0.4-0.5-11.2-14.6-12.8C303.2,160,341.5,171,308.8,174.2
		C308.2,174.1,313.5,173.7,308.8,174.2z"/>
	<path fill="#3EA6F8" d="M210.9,143.1c0-1.4-11.7-11.2-16.3-11.9C197,128.5,243.7,140.8,210.9,143.1
		C210.9,140.7,214.3,142.9,210.9,143.1z"/>
	<path fill="#3EA6F8" d="M184.8,70c5.2,2.4,10.3,4.8,15.5,7.2C202.8,85.2,157,76.1,184.8,70C190.9,70.8,181.7,70.7,184.8,70z
		 M186.3,71.5C174,80.6,210.9,79.7,186.3,71.5C185.4,72.2,190.1,72.8,186.3,71.5z"/>
	<path fill="#3EA6F8" d="M226.5,82.9c5.5,2.5,11.1,5.1,16.6,7.6C245,95.6,199.9,89.5,226.5,82.9C233.2,83.3,223.7,83.6,226.5,82.9z
		 M227.9,84.4C215.4,95.5,257.1,90.5,227.9,84.4C227.2,85,232.3,85.3,227.9,84.4z"/>
	<path fill="#ADEEFD" d="M84.8,57.5c10.9,20.3-19.1,3.7-15.8-0.2C77.3,57.1,87.4,57.6,84.8,57.5C86.6,60.9,83.5,57.4,84.8,57.5z"/>
	<path fill="#3EA6F8" d="M68.6,41.3c-9.8,2.8-15.9,0.7-18.3-6.1C50.6,33.6,85.6,39.5,68.6,41.3C60.5,41.4,67.8,41.4,68.6,41.3z"/>
	<path fill="#3EA6F8" d="M81,57.2C93.4,77.8,59.5,57.1,81,57.2C82.6,59.8,78.4,57.2,81,57.2z"/>
	<path fill="#3EA6F8" d="M202.9,66.8C173.7,53.4,217.2,61.7,202.9,66.8C199.4,65.2,203.6,66.6,202.9,66.8z"/>
	<path fill="#3EA6F8" d="M42.3,48.7C48.3,39.5,50.6,62.3,42.3,48.7C42.7,48.1,43.5,50.6,42.3,48.7z"/>
	<path fill="#3EA6F8" d="M30,52.1C7,50.5,36.8,41.5,30,52.1C26.7,51.9,30.1,51.9,30,52.1z"/>
	<path fill="#3EA6F8" d="M19.2,15C13.7,18.5,6.7,4.8,19.2,15C17.6,16.1,16.8,13.1,19.2,15z"/>
	<path fill="#3EA6F8" d="M114,37.3C118.5,34.3,123.4,43.6,114,37.3C115.3,36.4,115.8,38.5,114,37.3z"/>
	<path fill="#3EA6F8" d="M134.5,42.7C128.6,32.2,137.7,38.6,134.5,42.7C133.4,40.6,135.6,41.3,134.5,42.7z"/>
	<path fill="#3EA6F8" d="M194,21.5C189.6,23.4,184.1,13.1,194,21.5C192.7,22.1,192.2,20,194,21.5z"/>
	<path fill="#3EA6F8" d="M121.3,30C117.4,30.6,109.4,19.6,121.3,30C120.1,30.2,118.5,27.6,121.3,30z"/>
	<path fill="#3EA6F8" d="M78.6,9.3C74.3,4.3,82.1,4.3,78.6,9.3C77.7,8.2,79.3,8.2,78.6,9.3z"/>
	<path fill="#3EA6F8" d="M58.3,16.2C53.2,18.5,52.2,12.1,58.3,16.2C56.8,16.8,56.8,15.2,58.3,16.2z"/>
	<path fill="#3EA6F8" d="M59.4,5C63.3,1.6,66.1,9.3,59.4,5C60.3,4.2,60.8,5.8,59.4,5z"/>
	<path fill="#3EA6F8" d="M193.2,33.4C188.9,24.5,196.7,27,193.2,33.4C192.1,31.2,194.6,30.8,193.2,33.4z"/>
	<path fill="#3EA6F8" d="M155.8,16.2C160,20.7,153.9,19.8,155.8,16.2C156.7,17.1,155.4,17,155.8,16.2z"/>
	<path fill="#3EA6F8" d="M215.9,75c1,1.6,2.1,3.3,3.1,4.9C212.5,81.7,215.7,77.4,215.9,75z"/>
	<path fill="#3EA6F8" d="M173.3,7.5C176.3,12.6,170.1,11.3,173.3,7.5C174,8.7,172.5,8.4,173.3,7.5z"/>
	<path fill="#3EA6F8" d="M137.3,80.2C139.4,74,141.2,78.8,137.3,80.2C137.7,79,138.2,79.9,137.3,80.2z"/>
	<path fill="#3EA6F8" d="M63.1,100.1c-1.1,0.1-2.2,0.2-3.4,0.3C60.8,100.3,61.9,100.2,63.1,100.1z"/>
	<path fill="#3EA6F8" d="M30.4,51.4C32.6,53.6,29.6,52.5,30.4,51.4C30.8,51.8,30.3,51.6,30.4,51.4z"/>
	<path fill="#3EA6F8" d="M134.6,93.2C133.8,93,134.9,92.4,134.6,93.2C134.5,93.2,134.6,93.1,134.6,93.2z"/>
	<path fill="#3EA6F8" d="M181,63C181,63,181,63,181,63C181,63,181,63,181,63z"/>
	<path fill="#ADEEFD" d="M74.1,289.5c80.6,6.4-50.1,52-24.3,9.9C56.6,293,64.7,289.7,74.1,289.5C84.7,290.3,70.7,290.1,74.1,289.5z
		 M74.5,313.8c14.4-4.6,13.9-10.6-1.2-18C59,300,59.4,306,74.5,313.8C78.9,313,67.8,312.5,74.5,313.8z"/>
	<path fill="#ADEEFD" d="M78.8,358.9c17.1,10.9-12.8-36.7-10.4-26.5c-4.5-19.6,45.6,15.4,48.2,16.2C106,356.7,93.4,360.1,78.8,358.9
		C77.9,358.3,90.3,356.5,78.8,358.9z"/>
	<path fill="#ADEEFD" d="M148.5,242.5c-11,1.2-18.1-3.4-21.4-13.7c0.1-16,39.9-13.4,39.9,3.6C163.6,240.5,157.4,243.8,148.5,242.5
		C139,240.8,155.3,240.3,148.5,242.5z M148.7,236.8c10.9-3.7,9.7-8-3.7-12.8C134.6,227.2,135.8,231.5,148.7,236.8
		C152.4,236.6,143.6,236.2,148.7,236.8z"/>
	<path fill="#ADEEFD" d="M79.5,199.2c8.9-0.6,23,1.2,25.7,12.3c3.6,14.5-34.1,12.2-39.6,1.7C64.8,203.6,69.5,198.9,79.5,199.2
		C80.2,199.2,74,203.3,79.5,199.2z M86.6,217c11-3.8,9.7-8.1-4-12.7C72,208.2,73.4,212.5,86.6,217C89.7,216.6,81,216.8,86.6,217z"/>
	<path fill="#ADEEFD" d="M120.9,310.8c-2.6-1.7,18.2-18.1-11.4-22.9c20.9-12.5,25.2,7.6,44.5,14.7
		C145.3,310.3,134.2,313,120.9,310.8C120,310.2,131.3,308.8,120.9,310.8z"/>
	<path fill="#0A53CC" d="M160.8,103.1c-3.6-5.8,33.4-9.5,40.5,7.1C183.8,112.3,174.3,105.8,160.8,103.1z"/>
	<path fill="#ADEEFD" d="M119.1,193.2c-9.5,0.8-15.9-3.2-19.1-12c0.1-14.3,36.4-10.2,36.1,4C132.7,192.1,127,194.7,119.1,193.2
		C111.7,191.4,126.7,192.9,119.1,193.2z M120.3,189.2c10.3-3.6,8.9-7.6-4.2-12.2C105.4,180.3,106.8,184.4,120.3,189.2
		C122.9,188.6,114.7,188.6,120.3,189.2z"/>
	<path fill="#ADEEFD" d="M157.2,270.5c-5.3-3.1,12.9-15.8-12.1-20c12.7-7.8,29.5,7.6,41.2,13.6C178.3,270.5,168.6,272.6,157.2,270.5
		C156.4,270.1,166.6,269.1,157.2,270.5z"/>
	<path fill="#ADEEFD" d="M89.8,249.2c-2.6-1.9,17.1-16.2-9.1-18.9c12.6-7.6,27.7,8,40,12.8C111.9,249.2,101.6,251.2,89.8,249.2
		C89.1,248.6,99.5,247.9,89.8,249.2z"/>
	<path fill="#ADEEFD" d="M133.5,151.1c-0.6,0,35.5-4.5,29.4,11.4C159,173.1,116.8,165.9,133.5,151.1
		C140.2,150.9,125.2,158.5,133.5,151.1z M144.1,153.5c-9.6,3.6-7.8,7.2,5.3,10.8C158.5,161.1,156.8,157.5,144.1,153.5
		C141.4,153.9,149.1,153.9,144.1,153.5z"/>
	<path fill="#0A53CC" d="M133.5,151.1c-16.7,14.8,25.5,21.9,29.4,11.4c-0.9-5.7-4-9.8-9.4-12.2c9.5,0.8,15.2,5.9,17.3,15.1
		C178.3,173.6,82.8,151.2,133.5,151.1C125.2,158.5,129.5,151.1,133.5,151.1z"/>
	<path fill="#ADEEFD" d="M119.2,201.4c-7.3-2.1,24.5,0.7,33.7,10.7c-8.1,7.2-21.6,8.6-30.9,3C125.9,211.1,135.9,198.8,119.2,201.4
		C118.8,201.3,127.2,200.1,119.2,201.4z"/>
	<path fill="#ADEEFD" d="M168.7,130.4c8.8-1.3,15.1,2.1,18.7,10C188.8,152.6,131.9,139.7,168.7,130.4
		C176.3,131.6,163.9,131.6,168.7,130.4z M168.1,133.2C152.1,146.9,202.6,140.3,168.1,133.2C167.3,134,173.3,134.3,168.1,133.2z"/>
	<path fill="#ADEEFD" d="M95.4,153.9c10.9-1,20.3,6.4,28.3,14.1c-7.8,4.2-19,2.3-27.6,1.8C116.7,162.1,83.6,160.8,95.4,153.9
		C95.8,153.9,93.7,154.9,95.4,153.9z"/>
	<path fill="#ADEEFD" d="M156.8,169.5c-4.1,0,24.2,17.5,22.7,15.9c-7.9,5-18.3,3.3-27.1,2.4C154.6,175.7,142.7,175.5,156.8,169.5
		C157.3,169.5,155.8,169.9,156.8,169.5z"/>
	<path fill="#ADEEFD" d="M123.3,132.7c10.7-1,18.9,5.9,27,13.1c-7.7,3.6-16.5,2.4-24.5,1.1C142.1,140.7,116.2,138.8,123.3,132.7
		C124.9,132.5,122.3,133.6,123.3,132.7z"/>
	<path fill="#ADEEFD" d="M185.5,164.4c-10.4-1.2,4.6-9.9-13.5-13.4c7.2-5.4,26.1,5.9,31.1,10.9C197.9,164.8,192,165.7,185.5,164.4
		C184.8,164.3,192.1,163.9,185.5,164.4z"/>
	<path fill="#ADEEFD" d="M168.4,127.9c-25.6,1.7-6.6,0.4-16.9-12.9C157,115.8,181.6,124.4,168.4,127.9
		C161.4,128.4,167.7,128.1,168.4,127.9z"/>
	<path fill="#ADEEFD" d="M214.7,106.2C210.8,107.6,191.7,107.1,214.7,106.2C211.6,107.4,206.5,106.5,214.7,106.2z"/>
	<path fill="#ADEEFD" d="M111.6,278.1c-10.9-0.3-17.8-5.5-20.6-15.6c1.3-15.4,43.7-15.9,43.7,3.2
		C130.4,275.7,122.7,279.8,111.6,278.1C107.4,276.7,121.4,275.5,111.6,278.1z M115.7,272.6c12.2-5,10.7-10.4-4.5-16.1
		C98.7,261.4,100.2,266.7,115.7,272.6C119.2,271.9,108.8,272.1,115.7,272.6z"/>
	<path fill="#ADEEFD" d="M45.1,255.5c-9.9,0.4-16.9-4-21-13.3c0.1-14.3,43.8-17.9,43.9,1.5C63.6,253.2,55.9,257.1,45.1,255.5
		C41.2,254.6,54,252.9,45.1,255.5z M44.6,234.8c-12.6,5.4-11.5,10.7,3.4,16C61.4,245.6,60.3,240.3,44.6,234.8
		C41,235.7,51.3,235.2,44.6,234.8z"/>
	<path fill="#ADEEFD" d="M21.5,201.7c-9,0.1-15.4-3.8-19.1-11.9c1.3-11.8,40.8-14,41,2C38.7,200.4,31.4,203.7,21.5,201.7
		C17.6,200.8,29.9,199.3,21.5,201.7z M25.2,198c12.1-4.5,11.1-9-3.2-13.4C10.2,188.7,11.3,193.1,25.2,198
		C28.8,197.1,19.8,197.3,25.2,198z"/>
	<path fill="#ADEEFD" d="M49,287.1c-1.9-1.1,21.1-17.3-9.1-21.7c18.4-11.7,28.2,7.9,44.1,14.2C74.2,287,62.5,289.5,49,287.1
		C48.2,286.7,60,285.4,49,287.1z"/>
	<path fill="#ADEEFD" d="M50.9,156.2c9.5,0.7,21.3-1.6,27.8,8.1C93.5,186.2,13.8,167.8,50.9,156.2C52.4,156.3,46.7,157.5,50.9,156.2
		z M62.7,171.1c10.8-3.9,9.4-7.9-4.2-12C48,163.1,49.4,167.1,62.7,171.1C65.7,170.6,57.6,170.6,62.7,171.1z"/>
	<path fill="#ADEEFD" d="M24.3,227.6c-1.5-0.9,19.3-12.8-7.3-17.9c18-9.3,23.8,8.4,39.7,12.9C46.7,227.4,35.9,229,24.3,227.6
		C23.8,227.2,34.1,226.5,24.3,227.6z"/>
	<path fill="#ADEEFD" d="M42,133.8c-8.9,1.6-15.4-1.5-19.4-9.4c-0.7-9.6,33.1-9.5,34.3,2.6C53.8,132.9,48.8,135.2,42,133.8
		C34.2,132.4,47.2,131.9,42,133.8z M41.8,130.9c9.4-3,8.3-6.3-3.1-9.9C28.6,124,29.6,127.3,41.8,130.9
		C44,130.2,37.3,130.2,41.8,130.9z"/>
	<path fill="#ADEEFD" d="M95.1,150.2c-8.7,1.5-14.9-1.6-18.6-9.3C75.6,129,135,139,95.1,150.2C87.6,149.1,100.3,148.7,95.1,150.2z
		 M95.3,147.9c9.8-3.5,8.4-7.2-4.3-11C81.2,140.3,82.6,144,95.3,147.9C97.9,147.3,90.6,147.2,95.3,147.9z"/>
	<path fill="#3EA6F8" d="M50.7,136.7c13.5-4,21.3,0.8,23.3,14.3c-4.8,4.1-10.3,4.6-16.2,1.6C74.3,150.4,57.2,145.1,50.7,136.7
		C61.8,131.7,54.9,142.1,50.7,136.7z"/>
	<path fill="#ADEEFD" d="M64.6,196.9c-1.5-0.5,14.2-14.3-8.3-15.6c13.2-5.4,23.2,10.4,36,12.1C83.2,195.4,73.9,196.5,64.6,196.9
		C64,196.7,71.5,196.2,64.6,196.9z"/>
	<path fill="#3EA6F8" d="M118,115.4c8.3-1.3,14.6,1.7,18.9,8.8C138.6,135.1,82.2,126.3,118,115.4C125,117.1,113.3,116.8,118,115.4z
		 M119.5,118c-8.6,2.5-7.4,5.4,3.7,8.8C131.6,124.4,130.3,121.5,119.5,118C117.2,118.5,123.4,118.6,119.5,118z"/>
	<path fill="#ADEEFD" d="M50.7,136.7c1.9,8.2,7.1,12.5,15.5,12.9c-8.3,1.7-15.3,3.3-25.6,2.4C69.7,144.5,5.3,142.9,50.7,136.7
		C54.9,142.1,45.3,137.4,50.7,136.7z"/>
	<path fill="#ADEEFD" d="M45.4,115.6c-8.4,2.1-16.4,1.6-23.9-1.2c8.6-4.9,7.6-8.4-3.1-11.4C25.3,102,58,115.2,45.4,115.6
		C38.3,115.4,46.1,115.5,45.4,115.6z"/>
	<path fill="#3EA6F8" d="M103.4,152.9c-2.2,0.3-4.5,0.6-6.7,0.9C98.9,153.5,101.1,153.2,103.4,152.9z"/>
	<path fill="#3EA6F8" d="M129.1,132c-0.4,0.1-0.8,0.2-1.1,0.3C128.4,132.2,128.7,132.1,129.1,132z"/>
	<path fill="#ADEEFD" d="M295.7,359.3C392.2,379.4,210.8,408.5,295.7,359.3C309.8,362.2,288.5,363.5,295.7,359.3z M302,389.2
		c28.6-2.9-18.7-33.7-15.7-15.6C291.6,378.9,296.8,384.1,302,389.2C306.7,388.8,293.5,387.9,302,389.2z"/>
	<path fill="#ADEEFD" d="M251.1,323.3c-58.4-9.2,16.9-52.8,19.7-12.1C267.7,320.7,261.2,324.7,251.1,323.3
		C240.4,321.6,259.3,321.4,251.1,323.3z M252.8,317.4c26.7-1.9-15.9-27.9-13.6-12.5C243.8,309.1,248.3,313.3,252.8,317.4
		C256.9,317.1,245.7,316.5,252.8,317.4z"/>
	<path fill="#ADEEFD" d="M276.8,283.5c-11.8,0.3-19.3-5.1-22.6-16.2c-0.9-15.1,37.1-10.1,38.4,6.4
		C289.9,280.9,284.6,284.1,276.8,283.5C266,281.7,282.4,280.9,276.8,283.5z M270.5,262.8c-23.3,2.6,14.9,23.1,12.9,11.3
		C279.1,270.3,274.8,266.6,270.5,262.8C267.1,263.2,276.8,263.9,270.5,262.8z"/>
	<path fill="#ADEEFD" d="M268.3,325.8c-14.9-20.6,33.4,41.2,29.6,23.9c0.4,1.6-30.1,13.7-32.6,6.8c-3-8.2,14.4-8.8-14.1-22.2
		C254.5,328.4,260.2,325.6,268.3,325.8C272.9,332.1,262.2,328.1,268.3,325.8z"/>
	<path fill="#ADEEFD" d="M312.3,276.1c2.6,1.2-10.7-13.7-15.4-18.7c-0.5-0.5,32.7,6.8,39.2,13.1
		C329.6,275.6,321.7,277.5,312.3,276.1C311.4,275.7,319.9,274.7,312.3,276.1z"/>
	<path fill="#3EA6F8" d="M231.6,424C229,425.1,228.6,421.4,231.6,424C230.8,424.3,230.9,423.4,231.6,424z"/>
	<path fill="#ADEEFD" d="M49.4,70.1c7.9-1.4,13.8,1.2,17.9,7.8C68.4,84.5,17.1,82,49.4,70.1C56.2,71.5,45.3,71.7,49.4,70.1z"/>
	<path fill="#ADEEFD" d="M19.8,85.8c8.1-2.2,14.2,0.3,18.2,7.4C39.2,103.6-18.7,96.2,19.8,85.8C26.8,86.7,14.8,87.2,19.8,85.8z
		 M24.8,96C42.1,83.2-7.2,91.7,24.8,96C25.6,95.4,19.9,95.4,24.8,96z"/>
	<path fill="#0A53CC" d="M673.4,193.4c-14-0.3-23.2-5.5-27.6-15.6c-0.9,3.7,73.3,4.1,74.9,8.1c-8,3.1-16.3,4.9-24.8,5.5
		c3.1,3.3,5.9,6.9,8.4,10.7C700.9,202,673.3,193.3,673.4,193.4z"/>
	<path fill="#ADEEFD" d="M673.4,193.4c-0.4,1.5,16.5,11.4,9.5,17.6c-10,1-20.2-4.7-26-12.9C661.8,195,667.3,193.4,673.4,193.4z"/>
	<path fill="#0A53CC" d="M624,183.8C649.4,202.2,619,189.3,624,183.8C627.8,186.5,622.7,185.3,624,183.8z"/>
	<path fill="#0A53CC" d="M636.7,173.3C623.7,161.4,653.2,172.3,636.7,173.3C635.1,171.8,638.6,173.2,636.7,173.3z"/>
	<path fill="#0A53CC" d="M706.9,179.9C702.4,183.2,684.6,169.8,706.9,179.9C705.5,180.9,703.1,178.2,706.9,179.9z"/>
	<path fill="#3EA6F8" d="M631.2,345.1c0,0-33.5-27.8-30.8-28.7c27.5-9.2,35.3,0,56.3,18.2C648.2,338.1,639.7,341.6,631.2,345.1
		C630.7,345.1,634.1,343.9,631.2,345.1z M633.5,339.7c36.1-14.8-23.2-21.3-23.6-20.8C619.2,325.7,628.8,336.5,633.5,339.7
		C638.9,337.4,631.9,338.6,633.5,339.7z"/>
	<path fill="#ADEEFD" d="M606.5,326c6.9,3.7,10.9,9.6,11.9,17.5c-7.1,12.1-43.9-5.1-36.4-17.8C587.3,316.4,599.9,323.8,606.5,326
		C609,328.1,605.1,325.5,606.5,326z M607.4,342.8c10-10.9-20.5-18.4-18.2-13.6C595.3,333.7,601.3,338.3,607.4,342.8
		C608.3,341.8,599,340.5,607.4,342.8z"/>
	<path fill="#ADEEFD" d="M420.1,408.9c-6.7-5.1-5.3-16.7-21.7-27.3c15.8-15.8,32.6,8.3,48.4,16.2
		C440.2,405.4,431.4,409.1,420.1,408.9C418.8,408,428.3,406.3,420.1,408.9z"/>
	<path fill="#3EA6F8" d="M679,289.4c0,0-23.7-18.2-22.7-17.2C661.8,269.9,707.4,279.4,679,289.4C672.3,289.1,682.5,288.2,679,289.4z
		"/>
	<path fill="#3EA6F8" d="M657.7,281.6c-0.9-0.6-1.8-1.2-2.7-1.8C655.9,280.4,656.8,281,657.7,281.6z"/>
	<path fill="#3EA6F8" d="M662.2,285.5c-0.5-0.5-1.1-1-1.6-1.5C661.2,284.5,661.7,285,662.2,285.5z"/>
	<path fill="#3EA6F8" d="M722.5,355.1c-0.6,0-1.3-0.1-1.9-0.1C721.2,355,721.8,355,722.5,355.1z"/>
	<path fill="#0A53CC" d="M186.6,395.1c5.1,5.4,10.1,10.7,15.2,16.1C203.9,434.8,153.1,399.6,186.6,395.1
		C195.7,396.4,180.9,395.9,186.6,395.1z"/>
	<path fill="#3EA6F8" d="M26.3,364.3c-4.4-4.3-8.7-8.6-13.1-12.9C13.1,328.1,60.1,359.3,26.3,364.3
		C18.1,363.7,32.2,363.5,26.3,364.3z"/>
	<path fill="#3EA6F8" d="M711.8,251.1c-1.7-1.7-17.2-16.4-17.7-16.2C694.5,234.7,738.1,242.3,711.8,251.1
		C708.7,248,715.5,249.9,711.8,251.1z"/>
	<path fill="#3EA6F8" d="M718.3,240.5c0.9,0.5,1.8,1,2.6,1.5C720.1,241.5,719.2,241,718.3,240.5z"/>
	<path fill="#3EA6F8" d="M697,246c-0.4-0.2-0.8-0.5-1.3-0.7C696.2,245.5,696.6,245.7,697,246z"/>
	<path fill="#3EA6F8" d="M698.3,246.8c-0.4-0.3-0.8-0.6-1.3-0.9C697.4,246.2,697.9,246.5,698.3,246.8z"/>
	<path fill="#0A53CC" d="M722.7,344c-6.2-4.5-12.4-9-18.6-13.5C702.5,327.6,732.8,333.1,722.7,344C714.6,341.1,723.5,343,722.7,344z
		"/>
	<path fill="#3EA6F8" d="M713.8,208.4c0.4,0.2,0.8,0.5,1.2,0.7C714.6,208.9,714.2,208.7,713.8,208.4z"/>
	<path fill="#0A53CC" d="M417.4,106.2C433.4,119,412.2,111,417.4,106.2C420,108.2,416.1,107.4,417.4,106.2z"/>
	<path fill="#0A53CC" d="M400.1,72.2C385.8,62.2,406.3,67.2,400.1,72.2C397.8,70.6,401.4,71.2,400.1,72.2z"/>
	<path fill="#0A53CC" d="M398.4,74.4C392.3,77,388.5,67.9,398.4,74.4C396.8,75.1,396.3,73,398.4,74.4z"/>
	<path fill="#0A53CC" d="M467.8,108.8C464.2,111.9,455.5,103.3,467.8,108.8C466.8,109.6,465.6,107.8,467.8,108.8z"/>
	<path fill="#0A53CC" d="M433.7,111.6C438.8,117.3,429.7,116.8,433.7,111.6C434.8,112.9,432.8,112.7,433.7,111.6z"/>
	<path fill="#0A53CC" d="M450.5,101.7C452.1,106.2,447.7,106.4,450.5,101.7C451,103.1,449.4,103.6,450.5,101.7z"/>
	<path fill="#ADEEFD" d="M591.5,182.7c-6.3-3.3-12.6-6.5-18.8-9.8C571.5,171.1,606.2,172.3,591.5,182.7
		C583.5,181,592.5,182,591.5,182.7z"/>
	<path fill="#0A53CC" d="M578.4,126.2C587.9,133.5,576.1,129.5,578.4,126.2C580,127.5,577.9,127,578.4,126.2z"/>
	<path fill="#ADEEFD" d="M477.2,160c-4.7-3.9-9.4-7.9-14.1-11.8C464.4,145.9,508.1,152.8,477.2,160
		C473.7,155.2,482.1,158.9,477.2,160z"/>
	<path fill="#0A53CC" d="M417.3,128.6C388,114,426.9,126.1,417.3,128.6C413.9,126.9,421.5,127.5,417.3,128.6z"/>
	<path fill="#0A53CC" d="M590.3,160.7C581.7,163.5,566.5,148.4,590.3,160.7C587.5,161.7,585.6,158.3,590.3,160.7z"/>
	<path fill="#0A53CC" d="M341.5,299.3c-4.6-4.1-9.3-8.3-13.9-12.4C325.5,275.5,364,296.6,341.5,299.3
		C334.7,297.8,344.7,298.9,341.5,299.3z"/>
	<path fill="#0A53CC" d="M246.5,206.1c-13.3-15-25.2-18.8-8.1-23.5C222.8,186.9,277.9,200.4,246.5,206.1
		C241,199.8,250.1,205.4,246.5,206.1z"/>
	<path fill="#0A53CC" d="M290.4,231.6c14.2,5.7,16.2,10.1,6.1,13.1C282,239,280,234.6,290.4,231.6
		C296.1,232.8,287.8,231.9,290.4,231.6z"/>
	<path fill="#0A53CC" d="M258.5,199.1c-13.4-4.4-15.7-8.5-6.7-12.1C265.7,191,268,195.1,258.5,199.1
		C253.2,198.1,261,198.5,258.5,199.1z"/>
	<path fill="#ADEEFD" d="M542.6,368.5c-13.2-1.2-21.9-8-26.2-20.6C512,325.8,585.9,361.1,542.6,368.5
		C530.8,366.1,548.7,367.4,542.6,368.5z M530.1,344.9c-20.9,1.5,20.5,25.4,17,14.7C541.4,354.7,535.8,349.8,530.1,344.9
		C527,345.1,537.4,347.1,530.1,344.9z"/>
	<path fill="#ADEEFD" d="M506.5,338.2c-3.9-2.6-17-16.6-21-21.2c-3.7-4.3,39.1,8.5,41.2,14.4C520,333.6,513.3,335.9,506.5,338.2
		C505,337.2,513.4,335.9,506.5,338.2z"/>
	<path fill="#ADEEFD" d="M373.1,193.9c9.6-1.2,16.4,2.6,20.3,11.3C396.6,217.7,340.4,200.7,373.1,193.9
		C382,193.9,369.2,194.7,373.1,193.9z M383.5,207.5c7-4.3,3.8-8.1-9.6-11.4C365.7,200.1,368.9,203.8,383.5,207.5
		C384.3,206.9,376.9,206.5,383.5,207.5z"/>
	<path fill="#3EA6F8" d="M378.5,190.6c1-0.2,2-0.4,2.9-0.6C380.5,190.2,379.5,190.4,378.5,190.6z"/>
	<path fill="#3EA6F8" d="M352.5,193.7c0.7-0.2,1.3-0.4,2-0.6C353.8,193.3,353.1,193.5,352.5,193.7z"/>
	<path fill="#3EA6F8" d="M371.8,392.7c5.2,5.5,10.4,11.1,15.6,16.6C389.8,425.6,344.4,393.9,371.8,392.7
		C379.8,395,367.5,392.9,371.8,392.7z"/>
	<path fill="#3EA6F8" d="M457.2,367.5c5.2,5,10.4,10.1,15.5,15.1C475.1,393.5,436.1,369.5,457.2,367.5
		C464.3,370.1,454,367.8,457.2,367.5z"/>
	<path fill="#3EA6F8" d="M386.5,344.9c4.7,4.7,9.5,9.3,14.2,14C403,371.4,362.9,345.5,386.5,344.9
		C393.4,346.8,382.9,345,386.5,344.9z"/>
	<path fill="#3EA6F8" d="M315.9,322.1c4.8,4.3,9.6,8.6,14.4,12.9C333.1,348.3,292.7,325.4,315.9,322.1
		C323.2,323.4,312.5,322.6,315.9,322.1z"/>
	<path fill="#ADEEFD" d="M512.4,267.7c-2.5-1.6-1.6-16-18.1-16.2c4.4-8.9,31.8,7.7,35.2,11.7C524.8,266.9,519.1,268.4,512.4,267.7
		C511.6,267.2,518,266.5,512.4,267.7z"/>
	<path fill="#0A53CC" d="M680.7,407.2c-6.8-5.2-13.6-10.4-20.4-15.7C657.5,386.4,696.4,395.7,680.7,407.2
		C671.7,404.4,681.8,406.5,680.7,407.2z"/>
	<path fill="#3EA6F8" d="M474.2,341.2c-5.2-4.5-10.4-9-15.6-13.4C455.5,318,494.3,339.2,474.2,341.2
		C466.9,339.7,477.1,341,474.2,341.2z"/>
	<path fill="#3EA6F8" d="M408,320.1c-5-4.1-10-8.2-15-12.3C389.5,296.1,428.5,317.2,408,320.1C401,318.8,411,319.7,408,320.1z"/>
	<path fill="#ADEEFD" d="M463,223.2c-2.7-0.8-2.3-13.8-16.8-14.3C446,209.3,503.2,215.8,463,223.2
		C461.7,222.8,467.6,222.3,463,223.2z"/>
	<path fill="#0A53CC" d="M654.3,345.2c6.6,4.9,13.2,9.7,19.8,14.6C676.6,365.1,645.5,357.8,654.3,345.2
		C663.3,348.1,653.4,346.5,654.3,345.2z"/>
	<path fill="#3EA6F8" d="M479.9,302.9c-4.9-4.1-9.8-8.1-14.7-12.2C462.6,282.4,498.8,300.6,479.9,302.9
		C473.5,301.1,482.6,302.5,479.9,302.9z"/>
	<path fill="#3EA6F8" d="M349.3,250.2c14.7,4.9,17.5,9.4,8.5,13.5C342.7,258.8,339.9,254.3,349.3,250.2
		C355.3,251.2,346.9,250.6,349.3,250.2z"/>
	<path fill="#0A53CC" d="M647.4,309.2c6,4.3,12.1,8.7,18.1,13C667.4,326.1,638.1,320.3,647.4,309.2
		C655.5,311.8,646.6,310.3,647.4,309.2z"/>
	<path fill="#0A53CC" d="M589.6,291.4c5.4,4.1,10.8,8.3,16.3,12.4C607,306.5,577.6,301,589.6,291.4
		C596.9,294.1,588.6,292.2,589.6,291.4z"/>
	<path fill="#3EA6F8" d="M532,274.2c4.8,3.5,9.7,7.1,14.5,10.6C547.7,287.2,522.2,283.4,532,274.2
		C538.7,276.2,531.2,274.9,532,274.2z"/>
	<path fill="#0A53CC" d="M370.8,234c-14.5-4.3-17.4-8.6-8.7-12.9C376.8,225.4,379.7,229.6,370.8,234C365,232.9,373,233.5,370.8,234z
		"/>
	<path fill="#3EA6F8" d="M485.5,269.1c-4.6-3.3-9.2-6.7-13.7-10C470.6,256.4,495.5,260.1,485.5,269.1
		C479,267.4,486.3,268.4,485.5,269.1z"/>
	<path fill="#3EA6F8" d="M317.4,216.3c-4.8-3-9.6-6.1-14.4-9.1C301.9,203.4,321.4,205.8,317.4,216.3
		C309.3,214.7,317.4,216.2,317.4,216.3z"/>
	<path fill="#3EA6F8" d="M417.9,239c14.9,4.4,18.1,8.3,9.6,11.7C413.1,246.4,409.9,242.5,417.9,239C424.6,240,417,239.5,417.9,239z"
		/>
	<path fill="#3EA6F8" d="M654.7,291.9c-5.2-3.7-10.4-7.5-15.6-11.2C637.7,277.8,665.6,283.5,654.7,291.9
		C648,289.5,655.6,291.2,654.7,291.9z"/>
	<path fill="#3EA6F8" d="M533.2,244.8c4.6,3.5,9.2,7,13.8,10.6C547.7,257.4,522.6,253.5,533.2,244.8
		C539.3,247.2,532.2,245.6,533.2,244.8z"/>
	<path fill="#3EA6F8" d="M479.4,228.4c15,4.7,18.2,8.6,9.9,11.8C475.5,236.5,472.2,232.6,479.4,228.4
		C485.6,230.2,478.5,229.1,479.4,228.4z"/>
	<path fill="#0A53CC" d="M714.8,307.6c-8,3.8-14.9,0.4-20.8-10.2C701.4,292,708.3,295.4,714.8,307.6
		C713.1,308.2,710,301,714.8,307.6z"/>
	<path fill="#0A53CC" d="M586.9,261.4c5.1,3.6,10.2,7.2,15.3,10.8C603.7,275.1,576.6,269.9,586.9,261.4
		C593.7,263.4,586.1,262.1,586.9,261.4z"/>
	<path fill="#3EA6F8" d="M438.1,224.4c-5-3.1-10-6.2-15-9.3C421.4,211.4,442.6,213.9,438.1,224.4
		C430.2,222.9,438.2,224.1,438.1,224.4z"/>
	<path fill="#3EA6F8" d="M651.5,259.1c-5.2,5.4-10.7,3.6-16.4-5.6C639.2,248,644.7,249.8,651.5,259.1
		C649.4,260.7,645.9,256.3,651.5,259.1z"/>
	<path fill="#3EA6F8" d="M534.3,219.6c14.2,3.9,17.6,7.6,10,11C530.7,227.1,527.4,223.5,534.3,219.6
		C540.1,221.3,533.5,220.2,534.3,219.6z"/>
	<path fill="#3EA6F8" d="M275.8,105.4C259.9,92.5,283.1,99.3,275.8,105.4C273.3,103.3,277.4,104,275.8,105.4z"/>
	<path fill="#ADEEFD" d="M223.6,370.4c-27.7-3-32.5-32.7-1.8-32.9C253.5,337.2,248.5,364.5,223.6,370.4
		C210.8,369,232.5,368.3,223.6,370.4z M219.6,343.1c-28.3,4.4,16.6,32,14.4,13.9C229.2,352.4,224.4,347.7,219.6,343.1
		C215.3,343.8,227.6,344.3,219.6,343.1z"/>
	<path fill="#ADEEFD" d="M240,412.9c9.8,8.7-18.3-33.7-16.1-28.9c-5.8-12.9,44.8,14.8,50.1,16.8C265.3,409.7,254,413.7,240,412.9
		C238.9,411.9,250.5,410,240,412.9z"/>
	<path fill="#ADEEFD" d="M163.9,348.1c-9.4-6.2,32.8,34.9,30.8,26.3c1.6,7-37.9,18.9-40,9.3c-1.2-5.1-7-16.7-10-25.6
		C149.7,352.4,156.1,349.1,163.9,348.1C170.5,352.5,158.7,350.1,163.9,348.1z"/>
	<path fill="#ADEEFD" d="M194.2,334.7c5.2,4.1-8.5-17.8-13.6-23.7c11.8-7.9,34.1,9.1,45.1,15C218.3,334.4,207.8,337.3,194.2,334.7
		C193.3,334,204.4,332.5,194.2,334.7z"/>
	<path fill="#ADEEFD" d="M237.3,230.2c-10.4,0.9-17.4-3.4-20.9-13.1c-1.2-13.1,34.2-9.6,35.8,5C249.6,228.8,244.7,231.5,237.3,230.2
		C228.1,228.8,242.9,228.5,237.3,230.2z M238.1,225.9c8.8-4.4,6.5-8.7-7-12.6C221.4,217.2,223.7,221.4,238.1,225.9
		C240.2,225.4,232,225.3,238.1,225.9z"/>
	<path fill="#ADEEFD" d="M223.9,292.1c2.5,1.6-8.6-15.1-13.5-20.6c-1.7-2,35,7.9,41.3,13.9C244.4,291.8,235.1,294.1,223.9,292.1
		C223.1,291.5,232.9,290.4,223.9,292.1z"/>
	<path fill="#ADEEFD" d="M249.5,256.8c-2.3-1.3-2.3-23.5-12.3-21.2c5.8-1.3,39.5,12.1,37.5,15.5
		C268.1,257.1,259.7,258.9,249.5,256.8C248.5,256.2,257.7,255.5,249.5,256.8z"/>
	<path fill="#ADEEFD" d="M212.8,207.1c-4.6-2.5,8.3-13.3-11.6-15.7c7.9-7.9,30.5,5.3,35.2,11.8C229.6,207.6,221.7,208.9,212.8,207.1
		C212.2,206.8,220.4,206.3,212.8,207.1z"/>
	<path fill="#0A53CC" d="M108.9,391.8c-4.8-4.8-9.6-9.6-14.5-14.4C92.9,353.2,143.8,386.1,108.9,391.8
		C99.9,391.1,114.4,390.9,108.9,391.8z"/>
	<path fill="#0A53CC" d="M145.6,318.9c4.5,4.3,8.9,8.6,13.4,12.9C160.3,350.9,115.1,323.2,145.6,318.9
		C153.2,319.9,140.9,319.5,145.6,318.9z"/>
	<path fill="#0A53CC" d="M179.2,277.7c4.3,3.8,8.6,7.7,12.9,11.5C194,305.4,152,280.2,179.2,277.7
		C185.9,278.4,175,278.1,179.2,277.7z"/>
	<path fill="#0A53CC" d="M206.9,242.9c15.2,5.9,17,10.8,5.6,14.9C197.7,252.3,195.8,247.4,206.9,242.9
		C213.3,243.7,203.7,243.4,206.9,242.9z"/>
	<path fill="#3EA6F8" d="M69.8,102.7C105.7,107.3,41.7,107.9,69.8,102.7C73.6,103.2,67.4,103.1,69.8,102.7z"/>
	<path fill="#0A53CC" d="M178.7,207.6c-13.9-4.1-16-8.4-6.2-12.7C186.8,199.2,188.9,203.5,178.7,207.6
		C172.9,207.2,181.4,207.1,178.7,207.6z"/>
	<path fill="#0A53CC" d="M203.3,181.6c-13-4.4-14.7-8.2-5-11.3C211.1,174.5,212.8,178.3,203.3,181.6
		C198.1,180.8,205.6,181,203.3,181.6z"/>
	<path fill="#0A53CC" d="M218.9,148.6c12.9,4.2,14.9,7.5,6.1,9.9C213.8,155.2,211.7,151.9,218.9,148.6
		C224.6,149.6,217.9,149.2,218.9,148.6z"/>
	<path fill="#0A53CC" d="M329.4,191.2c-13-3.7-15.5-7.4-7.5-11.1C335.4,183.8,337.9,187.5,329.4,191.2
		C324.4,190.3,331.7,190.9,329.4,191.2z"/>
	<path fill="#0A53CC" d="M286.9,143.9c12.2,3.1,14.5,6.5,6.9,10C281.4,150.9,279.1,147.6,286.9,143.9
		C291.5,144.6,284.8,144.3,286.9,143.9z"/>
	<path fill="#0A53CC" d="M186.3,71.5C210.9,79.7,174,80.6,186.3,71.5C190.1,72.8,185.4,72.2,186.3,71.5z"/>
	<path fill="#0A53CC" d="M227.9,84.4C257.1,90.5,215.4,95.5,227.9,84.4C232.3,85.3,227.2,85,227.9,84.4z"/>
	<path fill="#3EA6F8" d="M74.5,313.8c-15-7.8-15.4-13.8-1.2-18C88.4,303.2,88.8,309.2,74.5,313.8C67.8,312.5,78.9,313,74.5,313.8z"
		/>
	<path fill="#3EA6F8" d="M148.7,236.8c-12.9-5.3-14.2-9.5-3.7-12.8C158.4,228.8,159.7,233.1,148.7,236.8
		C143.6,236.2,152.4,236.6,148.7,236.8z"/>
	<path fill="#3EA6F8" d="M86.6,217c-13.3-4.5-14.6-8.7-4-12.7C96.3,208.9,97.7,213.1,86.6,217C81,216.8,89.7,216.6,86.6,217z"/>
	<path fill="#3EA6F8" d="M120.3,189.2c-13.5-4.8-14.9-8.9-4.2-12.2C129.2,181.6,130.6,185.6,120.3,189.2
		C114.7,188.6,122.9,188.6,120.3,189.2z"/>
	<path fill="#0A53CC" d="M144.1,153.5c12.7,3.9,14.4,7.5,5.3,10.8C136.3,160.7,134.5,157.1,144.1,153.5
		C149.1,153.9,141.4,153.9,144.1,153.5z"/>
	<path fill="#3EA6F8" d="M168.1,133.2C202.6,140.3,152.1,146.9,168.1,133.2C173.3,134.3,167.3,134,168.1,133.2z"/>
	<path fill="#0A53CC" d="M115.7,272.6c-15.6-5.9-17.1-11.2-4.5-16.1C126.5,262.2,128,267.6,115.7,272.6
		C108.8,272.1,119.2,271.9,115.7,272.6z"/>
	<path fill="#0A53CC" d="M44.6,234.8c15.7,5.5,16.8,10.8,3.4,16C33.1,245.5,32,240.1,44.6,234.8C51.3,235.2,41,235.7,44.6,234.8z"/>
	<path fill="#0A53CC" d="M25.2,198c-13.9-4.8-15-9.3-3.2-13.4C36.3,189,37.3,193.4,25.2,198C19.8,197.3,28.8,197.1,25.2,198z"/>
	<path fill="#0A53CC" d="M62.7,171.1c-13.3-4-14.7-8-4.2-12C72,163.2,73.5,167.2,62.7,171.1C57.6,170.6,65.7,170.6,62.7,171.1z"/>
	<path fill="#0A53CC" d="M41.8,130.9c-12.1-3.7-13.2-7-3.1-9.9C50.1,124.6,51.1,127.9,41.8,130.9C37.3,130.2,44,130.2,41.8,130.9z"
		/>
	<path fill="#0A53CC" d="M95.3,147.9c-12.7-4-14.1-7.6-4.3-11C103.7,140.7,105.1,144.4,95.3,147.9C90.6,147.2,97.9,147.3,95.3,147.9
		z"/>
	<path fill="#0A53CC" d="M119.5,118c10.9,3.5,12.1,6.4,3.7,8.8C112.1,123.5,110.9,120.5,119.5,118
		C123.4,118.6,117.2,118.5,119.5,118z"/>
	<path fill="#0A53CC" d="M302,389.2c-5.2-5.2-10.4-10.4-15.7-15.6C283.3,355.5,330.7,386.3,302,389.2
		C293.5,387.9,306.7,388.8,302,389.2z"/>
	<path fill="#0A53CC" d="M252.8,317.4c-4.5-4.2-9.1-8.3-13.6-12.5C237,289.6,279.5,315.5,252.8,317.4
		C245.7,316.5,256.9,317.1,252.8,317.4z"/>
	<path fill="#0A53CC" d="M270.5,262.8c4.3,3.8,8.6,7.5,12.9,11.3C285.3,286,247.2,265.4,270.5,262.8
		C276.8,263.9,267.1,263.2,270.5,262.8z"/>
	<path fill="#3EA6F8" d="M24.8,96C-7.2,91.7,42.1,83.2,24.8,96C19.9,95.4,25.6,95.4,24.8,96z"/>
	<path fill="#ADEEFD" d="M633.5,339.7c-4.8-3.2-14.4-13.9-23.6-20.8C610.3,318.4,669.6,324.8,633.5,339.7
		C631.9,338.6,638.9,337.4,633.5,339.7z"/>
	<path fill="#0A53CC" d="M607.4,342.8c-6.1-4.5-12.1-9.1-18.2-13.6C586.9,324.4,617.4,331.9,607.4,342.8
		C599,340.5,608.3,341.8,607.4,342.8z"/>
	<path fill="#0A53CC" d="M530.1,344.9c5.7,4.9,11.3,9.8,17,14.7C550.6,370.3,509.1,346.4,530.1,344.9
		C537.4,347.1,527,345.1,530.1,344.9z"/>
	<path fill="#0A53CC" d="M383.5,207.5c-14.6-3.7-17.8-7.5-9.6-11.4C387.3,199.4,390.5,203.2,383.5,207.5
		C376.9,206.5,384.3,206.9,383.5,207.5z"/>
	<path fill="#3EA6F8" d="M219.6,343.1c4.8,4.6,9.6,9.3,14.4,13.9C236.2,375.1,191.3,347.5,219.6,343.1
		C227.6,344.3,215.3,343.8,219.6,343.1z"/>
	<path fill="#3EA6F8" d="M238.1,225.9c-14.4-4.6-16.7-8.8-7-12.6C244.6,217.3,246.9,221.5,238.1,225.9
		C232,225.3,240.2,225.4,238.1,225.9z"/>
</g>
</svg>
