<?xml version="1.0" encoding="utf-8"?>
<!-- Generator: Adobe Illustrator 18.0.0, SVG Export Plug-In . SVG Version: 6.00 Build 0)  -->
<!DOCTYPE svg PUBLIC "-//W3C//DTD SVG 1.1//EN" "http://www.w3.org/Graphics/SVG/1.1/DTD/svg11.dtd">
<svg version="1.1" id="Layer_1" xmlns="http://www.w3.org/2000/svg" xmlns:xlink="http://www.w3.org/1999/xlink" x="0px" y="0px"
	 viewBox="0 0 512 512" enable-background="new 0 0 512 512" xml:space="preserve">
<g>
	<path fill="#4B4B4D" d="M203.3,320L203.3,320c-36.9,0-67.4,13.8-67.4,39.8c0,26.5,27.2,48.3,64.8,48.3c52.9,0,71.4-20.5,71.4-47
		c0-3.2-0.1-6.4-1.2-9.3C258.1,320,217,320,203.3,320z"/>
	<path fill="#4B4B4D" d="M247.5,179L247.5,179c-4.4-33.2-20.5-58.2-46-59c-25.5-0.7-49.1,22.4-44.7,55.6
		c4.4,33.2,29.9,55.5,55.4,56.3C237.7,232.7,251.9,212.2,247.5,179z"/>
	<polygon fill="#4B4B4D" points="260,116 260,116 260,116 	"/>
	<path fill="#4B4B4D" d="M0,0v512h512V0H0z M201.9,432.3c-57.9,0-106.2-26-106.2-63.6c0-56.7,40-72.5,97.9-72.5
		c6.3,0,12.1-0.2,18.1-0.2c-7.9-7.6-14.3-16.8-14.3-28.4c0-6.9,2.2-13.5,5.3-19.4c-3.1,0.2-6.4,0.2-9.7,0.2
		c-47.6,0-76.7-33.1-76.8-74.8C116,128,159.8,96,210.4,96c26.1,0,97.6,0,97.6,0l-20,20h-28c18.5,10.5,28.2,35,28.2,58.9
		c0,22-10.4,39.7-27.7,53.1c-16.8,13.1-20,18.6-20,29.8c0,9.5,20.1,23.7,29.4,30.6c32.2,24.1,38.3,39.2,38.7,69.3
		C309.1,397.6,267.9,432.3,201.9,432.3z M423.9,159.9h-47.8v0L376,208l-16,0.1v-48.2h-48v-15.8h48V96h16v48.1h47.8V159.9z"/>
</g>
</svg>
