<?xml version="1.0" encoding="utf-8"?>
<!-- Generator: Adobe Illustrator 18.0.0, SVG Export Plug-In . SVG Version: 6.00 Build 0)  -->
<!DOCTYPE svg PUBLIC "-//W3C//DTD SVG 1.1//EN" "http://www.w3.org/Graphics/SVG/1.1/DTD/svg11.dtd">
<svg version="1.1" id="Layer_1" xmlns="http://www.w3.org/2000/svg" xmlns:xlink="http://www.w3.org/1999/xlink" x="0px" y="0px"
	 viewBox="0 0 512 512" enable-background="new 0 0 512 512" xml:space="preserve">
<g id="Layer_x0020_1">
	<path fill="#4B4B4D" d="M0,0h512v512H0V0z M424.1,152.3c-12.4,5.5-25.7,9.1-39.6,10.8c14.2-8.5,25.2-22,30.3-38
		c-13.3,7.9-28.1,13.6-43.8,16.7c-12.6-13.4-30.5-21.7-50.3-21.7c-38.1,0-68.9,30.7-68.9,68.6c0,5.4,0.6,10.6,1.8,15.6
		c-57.3-2.9-108.1-30.2-142.1-71.7c-5.9,10.1-9.3,21.9-9.3,34.5c0,23.8,12.2,44.8,30.7,57.1c-11.3-0.4-21.9-3.5-31.2-8.6
		c0,0.3,0,0.6,0,0.9c0,33.3,23.8,61,55.3,67.3c-5.8,1.6-11.9,2.4-18.2,2.4c-4.4,0-8.8-0.4-13-1.2c8.8,27.3,34.2,47.1,64.4,47.6
		c-23.6,18.4-53.3,29.4-85.6,29.4c-5.6,0-11-0.3-16.4-1c30.5,19.5,66.7,30.8,105.6,30.8c126.8,0,196.1-104.6,196.1-195.2
		c0-3-0.1-5.9-0.2-8.9C403.2,178.1,414.9,166,424.1,152.3L424.1,152.3z"/>
</g>
</svg>
