<?xml version="1.0" encoding="utf-8"?>
<!-- Generator: Adobe Illustrator 18.0.0, SVG Export Plug-In . SVG Version: 6.00 Build 0)  -->
<!DOCTYPE svg PUBLIC "-//W3C//DTD SVG 1.1//EN" "http://www.w3.org/Graphics/SVG/1.1/DTD/svg11.dtd">
<svg version="1.1" id="Layer_1" xmlns="http://www.w3.org/2000/svg" xmlns:xlink="http://www.w3.org/1999/xlink" x="0px" y="0px"
	 viewBox="0 0 512 512" enable-background="new 0 0 512 512" xml:space="preserve">
<g>
	<polygon fill="#4B4B4D" points="224,192 224,320 320,256 224,192 	"/>
	<path fill="#4B4B4D" d="M0,0v512h512V0H0z M424.1,257.7C424.1,257.7,424.1,257.7,424.1,257.7c-0.1,47-8,93.3-24.8,105.6v0
		c-19,13.9-109.7,13.3-143.1,13.3c-34.8,0-120.2,0.4-139.8-11.6c-18.3-11.2-27.8-59.4-28.6-107.3c0,0,0,0,0,0c0,0,0,0,0,0
		c0.8-47.8,10.3-99.3,28.6-110.6c19.6-12,104.9-11.7,139.8-11.7c33.4,0,124.1-0.5,143.1,13.4C416.1,161,424,210.7,424.1,257.7
		C424.1,257.7,424.1,257.7,424.1,257.7z"/>
</g>
</svg>
