<?xml version="1.0" encoding="utf-8"?>
<!-- Generator: Adobe Illustrator 18.0.0, SVG Export Plug-In . SVG Version: 6.00 Build 0)  -->
<!DOCTYPE svg PUBLIC "-//W3C//DTD SVG 1.1//EN" "http://www.w3.org/Graphics/SVG/1.1/DTD/svg11.dtd">
<svg version="1.1" id="Layer_1" xmlns="http://www.w3.org/2000/svg" xmlns:xlink="http://www.w3.org/1999/xlink" x="0px" y="0px"
	 viewBox="0 0 187.9 128.2" enable-background="new 0 0 187.9 128.2" xml:space="preserve">
<circle cx="94.5" cy="63.9" r="61.7"/>
<circle fill="none" stroke="#FFFFFF" stroke-miterlimit="10" cx="94.5" cy="63.9" r="47.7"/>
<path fill="#FFFFFF" d="M123.4,59.1c0,15.8-10,17.3-28.6,34.6C79.2,78.9,66.1,74.9,66.1,59.1s20.6-23,28.5-6.8
	C101.1,35.8,123.4,43.3,123.4,59.1z"/>
<path d="M20.7,61.8l0.9,51.7c0,1.8-2.4,2.3-4.2,2.3s-4.2-0.5-4.2-2.3l0.9-51.7C8.2,60.4,3,54.8,3,47c0-9.2,7.3-21.4,14.5-21.4
	S31.9,37.9,31.9,47C31.9,54.8,26.7,60.4,20.7,61.8z"/>
<path d="M185.5,37.6v8.8c0,5.9-4.5,10.3-10.2,11.6l1.1,55.3c0,1.9-2.3,2.5-4.1,2.5c-1.8,0-4.1-0.6-4.1-2.5l0.6-55.2
	c-5.9-1.1-11.3-5.6-11.3-11.7v-8.8c0-3.5,2-6.7,5-9.1v14c0,0.7,0.3,1.2,1,1.2c0.7,0,1-0.6,1-1.2V26.7c1-0.6,2-1,4-1.4v17.2
	c0,0.7,0.3,1.2,1,1.2c0.7,0,1-0.6,1-1.2V24.9c1,0,1-0.1,1.5-0.1c0.5,0,0.5,0.1,1.5,0.1v17.6c0,0.7,0.8,1.2,1.5,1.2
	c0.7,0,1.5-0.6,1.5-1.2V25.3c0,0-0.1,0,0,0c1.1,0.3,1,0.7,3,1.3v15.8c0,0.7,0.3,1.2,1,1.2c0.7,0,1-0.6,1-1.2v-14
	C184.5,30.8,185.5,34.1,185.5,37.6z"/>
</svg>
